<svg xmlns="http://www.w3.org/2000/svg" viewBox="0 0 1400 900" width="1400" height="900" font-family="'Segoe UI', Inter, sans-serif">
  <defs>
    <filter id="shadow" x="-5%" y="-5%" width="115%" height="125%">
      <feDropShadow dx="0" dy="1" stdDeviation="2" flood-color="#00000018"/>
    </filter>
    <filter id="panelShadow" x="-10%" y="-5%" width="120%" height="115%">
      <feDropShadow dx="-3" dy="0" stdDeviation="6" flood-color="#0000002A"/>
    </filter>
    <linearGradient id="scoreGrad" x1="0" y1="0" x2="0" y2="1">
      <stop offset="0%" stop-color="#E53935"/>
      <stop offset="100%" stop-color="#C62828"/>
    </linearGradient>
    <linearGradient id="scoreGradOrange" x1="0" y1="0" x2="0" y2="1">
      <stop offset="0%" stop-color="#FF6B00"/>
      <stop offset="100%" stop-color="#E65100"/>
    </linearGradient>
    <linearGradient id="scoreGradBlue" x1="0" y1="0" x2="0" y2="1">
      <stop offset="0%" stop-color="#0066CC"/>
      <stop offset="100%" stop-color="#004499"/>
    </linearGradient>
    <linearGradient id="sidebarGrad" x1="0" y1="0" x2="1" y2="0">
      <stop offset="0%" stop-color="#F0F4F9"/>
      <stop offset="100%" stop-color="#F7F9FB"/>
    </linearGradient>
    <linearGradient id="sparkGrad" x1="0" y1="0" x2="0" y2="1">
      <stop offset="0%" stop-color="#0066CC" stop-opacity="0.3"/>
      <stop offset="100%" stop-color="#0066CC" stop-opacity="0.0"/>
    </linearGradient>
  </defs>

  <!-- Background -->
  <rect width="1400" height="900" fill="#F5F7FA"/>

  <!-- ── Icon-only sidebar ── -->
  <rect x="0" y="0" width="56" height="900" fill="url(#sidebarGrad)"/>
  <rect x="55" y="0" width="1" height="900" fill="#E0E6EF"/>

  <!-- Logo mark -->
  <rect x="12" y="14" width="32" height="32" rx="6" fill="#0066CC"/>
  <text x="28" y="35" text-anchor="middle" fill="white" font-size="14" font-weight="700">M</text>

  <!-- Nav icons — Detections active -->
  <text x="28" y="88" text-anchor="middle" fill="#8090A8" font-size="16">⊞</text>
  <!-- Detections active -->
  <rect x="8" y="100" width="40" height="36" rx="6" fill="#0066CC"/>
  <text x="28" y="124" text-anchor="middle" fill="white" font-size="16">⚡</text>

  <text x="28" y="168" text-anchor="middle" fill="#8090A8" font-size="16">⬡</text>
  <text x="28" y="210" text-anchor="middle" fill="#8090A8" font-size="16">σ</text>
  <text x="28" y="252" text-anchor="middle" fill="#8090A8" font-size="16">🔔</text>
  <text x="28" y="294" text-anchor="middle" fill="#8090A8" font-size="16">🌐</text>
  <text x="28" y="336" text-anchor="middle" fill="#8090A8" font-size="16">🖥</text>
  <text x="28" y="378" text-anchor="middle" fill="#8090A8" font-size="16">📋</text>

  <text x="28" y="860" text-anchor="middle" fill="#8090A8" font-size="16">⚙</text>
  <text x="28" y="830" text-anchor="middle" fill="#8090A8" font-size="16">?</text>

  <!-- ── Top header bar ── -->
  <rect x="56" y="0" width="1344" height="48" fill="white" filter="url(#shadow)"/>
  <rect x="56" y="47" width="1344" height="1" fill="#E4EAF2"/>

  <!-- Breadcrumb -->
  <text x="76" y="28" font-size="13" fill="#8090A8">MxTac</text>
  <text x="118" y="28" font-size="13" fill="#8090A8">/</text>
  <text x="130" y="28" font-size="13" fill="#1A2B44" font-weight="600">Detections</text>

  <!-- Right header controls -->
  <text x="1170" y="28" font-size="12" fill="#8090A8">Last refreshed: 14:32 UTC</text>
  <rect x="1305" y="12" width="26" height="26" rx="5" fill="#F0F4F9"/>
  <text x="1318" y="29" text-anchor="middle" font-size="13" fill="#5570A0">↻</text>
  <rect x="1337" y="12" width="26" height="26" rx="5" fill="#F0F4F9"/>
  <text x="1350" y="29" text-anchor="middle" font-size="13" fill="#5570A0">🔔</text>
  <circle cx="1362" cy="13" r="5" fill="#E53935"/>
  <circle cx="1382" cy="24" r="12" fill="#0066CC"/>
  <text x="1382" y="28" text-anchor="middle" font-size="11" fill="white" font-weight="600">KH</text>

  <!-- ── Tab navigation ── -->
  <rect x="56" y="48" width="1344" height="40" fill="white"/>
  <rect x="56" y="87" width="1344" height="1" fill="#E4EAF2"/>

  <text x="131" y="74" text-anchor="middle" font-size="13" fill="#8090A8">Overview</text>
  <rect x="190" y="58" width="120" height="30" rx="4" fill="white"/>
  <text x="250" y="77" text-anchor="middle" font-size="13" fill="#0066CC" font-weight="600">Detections</text>
  <rect x="190" y="87" width="120" height="2" fill="#0066CC"/>

  <text x="380" y="74" font-size="13" fill="#8090A8">ATT&amp;CK Map</text>
  <text x="490" y="74" font-size="13" fill="#8090A8">Threat Intel</text>
  <text x="598" y="74" font-size="13" fill="#8090A8">Asset Risk</text>

  <!-- Date range & export -->
  <rect x="1130" y="60" width="150" height="26" rx="5" fill="#F0F4F9" stroke="#D5DDE8" stroke-width="1"/>
  <text x="1205" y="77" text-anchor="middle" font-size="12" fill="#5570A0">Last 24 hours  ▾</text>
  <rect x="1292" y="60" width="80" height="26" rx="5" fill="#0066CC"/>
  <text x="1332" y="77" text-anchor="middle" font-size="12" fill="white">Export ↓</text>

  <!-- ── Filter bar ── -->
  <rect x="56" y="88" width="880" height="44" fill="white"/>
  <rect x="56" y="131" width="880" height="1" fill="#E4EAF2"/>

  <!-- Filter chips -->
  <text x="76" y="114" font-size="12" fill="#8090A8">Filters:</text>

  <!-- Chip 1: Severity Critical -->
  <rect x="122" y="101" width="130" height="24" rx="12" fill="#FFEBEB" stroke="#FFBBBB" stroke-width="1"/>
  <text x="132" y="117" font-size="11" fill="#E53935" font-weight="500">Severity: Critical</text>
  <text x="244" y="117" font-size="13" fill="#E53935">×</text>

  <!-- Chip 2: Last 24h -->
  <rect x="262" y="101" width="100" height="24" rx="12" fill="#EEF4FF" stroke="#C0D6F7" stroke-width="1"/>
  <text x="272" y="117" font-size="11" fill="#0066CC" font-weight="500">Last 24h</text>
  <text x="353" y="117" font-size="13" fill="#0066CC">×</text>

  <!-- Chip 3: Tactic: Execution -->
  <rect x="372" y="101" width="140" height="24" rx="12" fill="#EEF4FF" stroke="#C0D6F7" stroke-width="1"/>
  <text x="382" y="117" font-size="11" fill="#0066CC" font-weight="500">Tactic: Execution</text>
  <text x="503" y="117" font-size="13" fill="#0066CC">×</text>

  <!-- Clear all -->
  <text x="528" y="117" font-size="11" fill="#8090A8">Clear all</text>

  <!-- Add filter button -->
  <rect x="620" y="101" width="100" height="24" rx="12" fill="white" stroke="#D5DDE8" stroke-width="1"/>
  <text x="670" y="117" text-anchor="middle" font-size="11" fill="#5570A0">+ Add Filter</text>

  <!-- Results count right -->
  <text x="780" y="114" font-size="12" fill="#8090A8">Showing 47 of 2,847 detections</text>

  <!-- ── GROUP BY row ── -->
  <rect x="56" y="132" width="880" height="36" fill="#FAFBFD"/>
  <rect x="56" y="167" width="880" height="1" fill="#E4EAF2"/>

  <text x="76" y="154" font-size="11" fill="#8090A8">Group by:</text>
  <rect x="130" y="141" width="80" height="22" rx="4" fill="#0066CC"/>
  <text x="170" y="156" text-anchor="middle" font-size="11" fill="white">None</text>
  <rect x="218" y="141" width="80" height="22" rx="4" fill="white" stroke="#D5DDE8" stroke-width="1"/>
  <text x="258" y="156" text-anchor="middle" font-size="11" fill="#5570A0">Tactic</text>
  <rect x="306" y="141" width="80" height="22" rx="4" fill="white" stroke="#D5DDE8" stroke-width="1"/>
  <text x="346" y="156" text-anchor="middle" font-size="11" fill="#5570A0">Host</text>
  <rect x="394" y="141" width="80" height="22" rx="4" fill="white" stroke="#D5DDE8" stroke-width="1"/>
  <text x="434" y="156" text-anchor="middle" font-size="11" fill="#5570A0">Rule</text>

  <!-- Sort indication -->
  <text x="620" y="154" font-size="11" fill="#8090A8">Sort:</text>
  <text x="648" y="154" font-size="11" fill="#0066CC">Severity ↓</text>

  <!-- ── Table header ── -->
  <rect x="56" y="168" width="880" height="30" fill="#F7F9FB"/>
  <rect x="56" y="197" width="880" height="1" fill="#E4EAF2"/>

  <!-- Checkbox -->
  <rect x="72" y="179" width="14" height="14" rx="3" fill="white" stroke="#C0CEDF" stroke-width="1.5"/>

  <text x="100" y="188" font-size="10" fill="#8090A8" font-weight="600">SCORE</text>
  <text x="148" y="188" font-size="10" fill="#8090A8" font-weight="600">SEVERITY</text>
  <text x="230" y="188" font-size="10" fill="#8090A8" font-weight="600">TECHNIQUE</text>
  <text x="330" y="188" font-size="10" fill="#8090A8" font-weight="600">DETECTION NAME</text>
  <text x="570" y="188" font-size="10" fill="#8090A8" font-weight="600">HOST</text>
  <text x="670" y="188" font-size="10" fill="#8090A8" font-weight="600">TACTIC</text>
  <text x="780" y="188" font-size="10" fill="#8090A8" font-weight="600">STATUS</text>
  <text x="860" y="188" font-size="10" fill="#8090A8" font-weight="600">TIME ↓</text>

  <!-- ── Table rows (1–14 visible, row 2 selected/highlighted) ── -->

  <!-- Row 1 -->
  <rect x="56" y="198" width="880" height="36" fill="white"/>
  <rect x="72" y="209" width="14" height="14" rx="3" fill="white" stroke="#C0CEDF" stroke-width="1.5"/>
  <!-- Score badge -->
  <circle cx="116" cy="216" r="13" fill="url(#scoreGrad)"/>
  <text x="116" y="220" text-anchor="middle" font-size="10" fill="white" font-weight="700">9.2</text>
  <!-- Severity pill -->
  <rect x="144" y="207" width="68" height="18" rx="9" fill="#FFEBEB"/>
  <text x="178" y="219" text-anchor="middle" font-size="10" fill="#E53935" font-weight="600">Critical</text>
  <!-- Technique -->
  <text x="230" y="221" font-size="11" fill="#0066CC">T1055.001</text>
  <!-- Name -->
  <text x="330" y="221" font-size="11" fill="#1A2B44">Process Injection via DLL Injection</text>
  <!-- Host -->
  <text x="570" y="221" font-size="11" fill="#1A2B44">WS-PROD-114</text>
  <!-- Tactic -->
  <text x="670" y="221" font-size="11" fill="#8090A8">Defense Evasion</text>
  <!-- Status -->
  <rect x="776" y="208" width="56" height="16" rx="8" fill="#FFEBEB"/>
  <text x="804" y="219" text-anchor="middle" font-size="9" fill="#E53935" font-weight="600">Active</text>
  <!-- Time -->
  <text x="860" y="221" font-size="11" fill="#8090A8">14:28</text>
  <line x1="56" y1="234" x2="936" y2="234" stroke="#F5F7FA" stroke-width="1"/>

  <!-- Row 2 — SELECTED (highlighted) -->
  <rect x="56" y="234" width="880" height="36" fill="#EEF4FF"/>
  <rect x="56" y="234" width="3" height="36" fill="#0066CC"/>
  <rect x="72" y="245" width="14" height="14" rx="3" fill="#0066CC" stroke="#0066CC" stroke-width="1.5"/>
  <text x="79" y="256" text-anchor="middle" font-size="10" fill="white">✓</text>
  <circle cx="116" cy="252" r="13" fill="url(#scoreGrad)"/>
  <text x="116" y="256" text-anchor="middle" font-size="10" fill="white" font-weight="700">9.0</text>
  <rect x="144" y="243" width="68" height="18" rx="9" fill="#FFEBEB"/>
  <text x="178" y="255" text-anchor="middle" font-size="10" fill="#E53935" font-weight="600">Critical</text>
  <text x="230" y="257" font-size="11" fill="#0066CC" font-weight="600">T1003.006</text>
  <text x="330" y="257" font-size="11" fill="#1A2B44" font-weight="600">DCSync via DRSUAPI GetNCChanges</text>
  <text x="570" y="257" font-size="11" fill="#1A2B44">DC-PROD-01</text>
  <text x="670" y="257" font-size="11" fill="#8090A8">Credential Access</text>
  <rect x="776" y="244" width="56" height="16" rx="8" fill="#FFEBEB"/>
  <text x="804" y="255" text-anchor="middle" font-size="9" fill="#E53935" font-weight="600">Active</text>
  <text x="860" y="257" font-size="11" fill="#8090A8">14:21</text>
  <line x1="56" y1="270" x2="936" y2="270" stroke="#D0DCEE" stroke-width="1"/>

  <!-- Row 3 -->
  <rect x="56" y="270" width="880" height="36" fill="white"/>
  <rect x="72" y="281" width="14" height="14" rx="3" fill="white" stroke="#C0CEDF" stroke-width="1.5"/>
  <circle cx="116" cy="288" r="13" fill="url(#scoreGradOrange)"/>
  <text x="116" y="292" text-anchor="middle" font-size="10" fill="white" font-weight="700">8.7</text>
  <rect x="144" y="279" width="68" height="18" rx="9" fill="#FFF3E0"/>
  <text x="178" y="291" text-anchor="middle" font-size="10" fill="#FF6B00" font-weight="600">High</text>
  <text x="230" y="293" font-size="11" fill="#0066CC">T1558.003</text>
  <text x="330" y="293" font-size="11" fill="#1A2B44">Kerberoasting — SPN Enumeration</text>
  <text x="570" y="293" font-size="11" fill="#1A2B44">SRV-AUTH-07</text>
  <text x="670" y="293" font-size="11" fill="#8090A8">Credential Access</text>
  <rect x="776" y="280" width="96" height="16" rx="8" fill="#FFF3E0"/>
  <text x="824" y="291" text-anchor="middle" font-size="9" fill="#FF6B00" font-weight="600">Investigating</text>
  <text x="860" y="293" font-size="11" fill="#8090A8">14:09</text>
  <line x1="56" y1="306" x2="936" y2="306" stroke="#F5F7FA" stroke-width="1"/>

  <!-- Row 4 -->
  <rect x="56" y="306" width="880" height="36" fill="white"/>
  <rect x="72" y="317" width="14" height="14" rx="3" fill="white" stroke="#C0CEDF" stroke-width="1.5"/>
  <circle cx="116" cy="324" r="13" fill="url(#scoreGradOrange)"/>
  <text x="116" y="328" text-anchor="middle" font-size="10" fill="white" font-weight="700">8.4</text>
  <rect x="144" y="315" width="68" height="18" rx="9" fill="#FFF3E0"/>
  <text x="178" y="327" text-anchor="middle" font-size="10" fill="#FF6B00" font-weight="600">High</text>
  <text x="230" y="329" font-size="11" fill="#0066CC">T1550.003</text>
  <text x="330" y="329" font-size="11" fill="#1A2B44">Pass the Ticket — Lateral Movement</text>
  <text x="570" y="329" font-size="11" fill="#1A2B44">WS-FIN-022</text>
  <text x="670" y="329" font-size="11" fill="#8090A8">Lateral Movement</text>
  <rect x="776" y="316" width="68" height="16" rx="8" fill="#F0FAF0"/>
  <text x="810" y="327" text-anchor="middle" font-size="9" fill="#00880A" font-weight="600">Resolved</text>
  <text x="860" y="329" font-size="11" fill="#8090A8">13:58</text>
  <line x1="56" y1="342" x2="936" y2="342" stroke="#F5F7FA" stroke-width="1"/>

  <!-- Row 5 -->
  <rect x="56" y="342" width="880" height="36" fill="white"/>
  <rect x="72" y="353" width="14" height="14" rx="3" fill="white" stroke="#C0CEDF" stroke-width="1.5"/>
  <circle cx="116" cy="360" r="13" fill="url(#scoreGradOrange)"/>
  <text x="116" y="364" text-anchor="middle" font-size="10" fill="white" font-weight="700">8.1</text>
  <rect x="144" y="351" width="68" height="18" rx="9" fill="#FFF3E0"/>
  <text x="178" y="363" text-anchor="middle" font-size="10" fill="#FF6B00" font-weight="600">High</text>
  <text x="230" y="365" font-size="11" fill="#0066CC">T1078.002</text>
  <text x="330" y="365" font-size="11" fill="#1A2B44">Valid Domain Admin Account Login</text>
  <text x="570" y="365" font-size="11" fill="#1A2B44">FS-CORP-05</text>
  <text x="670" y="365" font-size="11" fill="#8090A8">Initial Access</text>
  <rect x="776" y="352" width="56" height="16" rx="8" fill="#FFEBEB"/>
  <text x="804" y="363" text-anchor="middle" font-size="9" fill="#E53935" font-weight="600">Active</text>
  <text x="860" y="365" font-size="11" fill="#8090A8">13:44</text>
  <line x1="56" y1="378" x2="936" y2="378" stroke="#F5F7FA" stroke-width="1"/>

  <!-- Row 6 -->
  <rect x="56" y="378" width="880" height="36" fill="white"/>
  <rect x="72" y="389" width="14" height="14" rx="3" fill="white" stroke="#C0CEDF" stroke-width="1.5"/>
  <circle cx="116" cy="396" r="13" fill="url(#scoreGradBlue)"/>
  <text x="116" y="400" text-anchor="middle" font-size="10" fill="white" font-weight="700">6.8</text>
  <rect x="144" y="387" width="68" height="18" rx="9" fill="#EEF4FF"/>
  <text x="178" y="399" text-anchor="middle" font-size="10" fill="#0066CC" font-weight="600">Medium</text>
  <text x="230" y="401" font-size="11" fill="#0066CC">T1059.001</text>
  <text x="330" y="401" font-size="11" fill="#1A2B44">PowerShell Encoded Command Exec</text>
  <text x="570" y="401" font-size="11" fill="#1A2B44">WS-DEV-031</text>
  <text x="670" y="401" font-size="11" fill="#8090A8">Execution</text>
  <rect x="776" y="388" width="68" height="16" rx="8" fill="#F0FAF0"/>
  <text x="810" y="399" text-anchor="middle" font-size="9" fill="#00880A" font-weight="600">Resolved</text>
  <text x="860" y="401" font-size="11" fill="#8090A8">13:30</text>
  <line x1="56" y1="414" x2="936" y2="414" stroke="#F5F7FA" stroke-width="1"/>

  <!-- Row 7 -->
  <rect x="56" y="414" width="880" height="36" fill="white"/>
  <rect x="72" y="425" width="14" height="14" rx="3" fill="white" stroke="#C0CEDF" stroke-width="1.5"/>
  <circle cx="116" cy="432" r="13" fill="url(#scoreGradBlue)"/>
  <text x="116" y="436" text-anchor="middle" font-size="10" fill="white" font-weight="700">6.5</text>
  <rect x="144" y="423" width="68" height="18" rx="9" fill="#EEF4FF"/>
  <text x="178" y="435" text-anchor="middle" font-size="10" fill="#0066CC" font-weight="600">Medium</text>
  <text x="230" y="437" font-size="11" fill="#0066CC">T1021.001</text>
  <text x="330" y="437" font-size="11" fill="#1A2B44">Remote Desktop Protocol Lateral Hop</text>
  <text x="570" y="437" font-size="11" fill="#1A2B44">WS-MGMT-04</text>
  <text x="670" y="437" font-size="11" fill="#8090A8">Lateral Movement</text>
  <rect x="776" y="424" width="96" height="16" rx="8" fill="#FFF3E0"/>
  <text x="824" y="435" text-anchor="middle" font-size="9" fill="#FF6B00" font-weight="600">Investigating</text>
  <text x="860" y="437" font-size="11" fill="#8090A8">13:15</text>
  <line x1="56" y1="450" x2="936" y2="450" stroke="#F5F7FA" stroke-width="1"/>

  <!-- Row 8 -->
  <rect x="56" y="450" width="880" height="36" fill="white"/>
  <rect x="72" y="461" width="14" height="14" rx="3" fill="white" stroke="#C0CEDF" stroke-width="1.5"/>
  <circle cx="116" cy="468" r="13" fill="url(#scoreGradBlue)"/>
  <text x="116" y="472" text-anchor="middle" font-size="10" fill="white" font-weight="700">5.9</text>
  <rect x="144" y="459" width="68" height="18" rx="9" fill="#EEF4FF"/>
  <text x="178" y="471" text-anchor="middle" font-size="10" fill="#0066CC" font-weight="600">Medium</text>
  <text x="230" y="473" font-size="11" fill="#0066CC">T1218.011</text>
  <text x="330" y="473" font-size="11" fill="#1A2B44">Rundll32 Proxy Execution</text>
  <text x="570" y="473" font-size="11" fill="#1A2B44">WS-DEV-018</text>
  <text x="670" y="473" font-size="11" fill="#8090A8">Defense Evasion</text>
  <rect x="776" y="460" width="68" height="16" rx="8" fill="#F0FAF0"/>
  <text x="810" y="471" text-anchor="middle" font-size="9" fill="#00880A" font-weight="600">Resolved</text>
  <text x="860" y="473" font-size="11" fill="#8090A8">12:58</text>
  <line x1="56" y1="486" x2="936" y2="486" stroke="#F5F7FA" stroke-width="1"/>

  <!-- Row 9 -->
  <rect x="56" y="486" width="880" height="36" fill="white"/>
  <rect x="72" y="497" width="14" height="14" rx="3" fill="white" stroke="#C0CEDF" stroke-width="1.5"/>
  <circle cx="116" cy="504" r="13" fill="url(#scoreGradBlue)"/>
  <text x="116" y="508" text-anchor="middle" font-size="10" fill="white" font-weight="700">5.6</text>
  <rect x="144" y="495" width="68" height="18" rx="9" fill="#EEF4FF"/>
  <text x="178" y="507" text-anchor="middle" font-size="10" fill="#0066CC" font-weight="600">Medium</text>
  <text x="230" y="509" font-size="11" fill="#0066CC">T1136.001</text>
  <text x="330" y="509" font-size="11" fill="#1A2B44">New Local Admin Account Created</text>
  <text x="570" y="509" font-size="11" fill="#1A2B44">SRV-JUMP-02</text>
  <text x="670" y="509" font-size="11" fill="#8090A8">Persistence</text>
  <rect x="776" y="496" width="56" height="16" rx="8" fill="#FFEBEB"/>
  <text x="804" y="507" text-anchor="middle" font-size="9" fill="#E53935" font-weight="600">Active</text>
  <text x="860" y="509" font-size="11" fill="#8090A8">12:41</text>
  <line x1="56" y1="522" x2="936" y2="522" stroke="#F5F7FA" stroke-width="1"/>

  <!-- Row 10 -->
  <rect x="56" y="522" width="880" height="36" fill="white"/>
  <rect x="72" y="533" width="14" height="14" rx="3" fill="white" stroke="#C0CEDF" stroke-width="1.5"/>
  <circle cx="116" cy="540" r="13" fill="url(#scoreGradBlue)"/>
  <text x="116" y="544" text-anchor="middle" font-size="10" fill="white" font-weight="700">5.2</text>
  <rect x="144" y="531" width="68" height="18" rx="9" fill="#EEF4FF"/>
  <text x="178" y="543" text-anchor="middle" font-size="10" fill="#0066CC" font-weight="600">Medium</text>
  <text x="230" y="545" font-size="11" fill="#0066CC">T1098.001</text>
  <text x="330" y="545" font-size="11" fill="#1A2B44">Azure AD Credential Added</text>
  <text x="570" y="545" font-size="11" fill="#1A2B44">CLOUDAzure-04</text>
  <text x="670" y="545" font-size="11" fill="#8090A8">Persistence</text>
  <rect x="776" y="532" width="96" height="16" rx="8" fill="#FFF3E0"/>
  <text x="824" y="543" text-anchor="middle" font-size="9" fill="#FF6B00" font-weight="600">Investigating</text>
  <text x="860" y="545" font-size="11" fill="#8090A8">12:20</text>
  <line x1="56" y1="558" x2="936" y2="558" stroke="#F5F7FA" stroke-width="1"/>

  <!-- Row 11 -->
  <rect x="56" y="558" width="880" height="36" fill="white"/>
  <rect x="72" y="569" width="14" height="14" rx="3" fill="white" stroke="#C0CEDF" stroke-width="1.5"/>
  <rect x="100" y="565" width="26" height="18" rx="4" fill="#F5F7FA"/>
  <text x="113" y="577" text-anchor="middle" font-size="9" fill="#8090A8">3.8</text>
  <rect x="144" y="567" width="54" height="18" rx="9" fill="#F5F7FA"/>
  <text x="171" y="579" text-anchor="middle" font-size="10" fill="#8090A8" font-weight="600">Low</text>
  <text x="230" y="581" font-size="11" fill="#0066CC">T1070.004</text>
  <text x="330" y="581" font-size="11" fill="#8090A8">File Deletion to Cover Tracks</text>
  <text x="570" y="581" font-size="11" fill="#8090A8">WS-HR-011</text>
  <text x="670" y="581" font-size="11" fill="#8090A8">Defense Evasion</text>
  <rect x="776" y="568" width="68" height="16" rx="8" fill="#F0FAF0"/>
  <text x="810" y="579" text-anchor="middle" font-size="9" fill="#00880A" font-weight="600">Resolved</text>
  <text x="860" y="581" font-size="11" fill="#8090A8">11:55</text>
  <line x1="56" y1="594" x2="936" y2="594" stroke="#F5F7FA" stroke-width="1"/>

  <!-- Pagination row -->
  <rect x="56" y="594" width="880" height="40" fill="#FAFBFD"/>
  <rect x="56" y="593" width="880" height="1" fill="#E4EAF2"/>
  <text x="76" y="618" font-size="11" fill="#8090A8">Page 1 of 5</text>
  <!-- Pagination buttons -->
  <rect x="240" y="604" width="28" height="22" rx="4" fill="white" stroke="#D5DDE8" stroke-width="1"/>
  <text x="254" y="619" text-anchor="middle" font-size="12" fill="#8090A8">‹</text>
  <rect x="274" y="604" width="28" height="22" rx="4" fill="#0066CC"/>
  <text x="288" y="619" text-anchor="middle" font-size="12" fill="white">1</text>
  <rect x="308" y="604" width="28" height="22" rx="4" fill="white" stroke="#D5DDE8" stroke-width="1"/>
  <text x="322" y="619" text-anchor="middle" font-size="12" fill="#5570A0">2</text>
  <rect x="342" y="604" width="28" height="22" rx="4" fill="white" stroke="#D5DDE8" stroke-width="1"/>
  <text x="356" y="619" text-anchor="middle" font-size="12" fill="#5570A0">3</text>
  <text x="380" y="619" font-size="12" fill="#8090A8">...</text>
  <rect x="396" y="604" width="28" height="22" rx="4" fill="white" stroke="#D5DDE8" stroke-width="1"/>
  <text x="410" y="619" text-anchor="middle" font-size="12" fill="#5570A0">5</text>
  <rect x="430" y="604" width="28" height="22" rx="4" fill="white" stroke="#D5DDE8" stroke-width="1"/>
  <text x="444" y="619" text-anchor="middle" font-size="12" fill="#8090A8">›</text>
  <text x="630" y="618" font-size="11" fill="#8090A8">Rows per page:</text>
  <rect x="724" y="605" width="56" height="22" rx="4" fill="white" stroke="#D5DDE8" stroke-width="1"/>
  <text x="752" y="620" text-anchor="middle" font-size="11" fill="#5570A0">25  ▾</text>

  <!-- ── SLIDE-OUT DETAIL PANEL ── -->
  <rect x="936" y="88" width="464" height="797" fill="white" filter="url(#panelShadow)"/>
  <rect x="936" y="88" width="1" height="797" fill="#E0E6EF"/>

  <!-- Panel header -->
  <rect x="936" y="88" width="464" height="56" fill="#F7F9FB"/>
  <rect x="936" y="143" width="464" height="1" fill="#E4EAF2"/>

  <!-- Close button -->
  <rect x="1362" y="100" width="26" height="26" rx="5" fill="white" stroke="#D5DDE8" stroke-width="1"/>
  <text x="1375" y="117" text-anchor="middle" font-size="14" fill="#8090A8">×</text>

  <text x="956" y="112" font-size="13" fill="#8090A8">Detection ID</text>
  <text x="956" y="130" font-size="11" fill="#0066CC">#DET-2026-00847</text>

  <!-- Technique ID badge -->
  <rect x="1200" y="100" width="140" height="30" rx="6" fill="#EEF4FF" stroke="#C0D6F7" stroke-width="1"/>
  <text x="1270" y="119" text-anchor="middle" font-size="12" fill="#0066CC" font-weight="700">T1003.006</text>

  <!-- Panel sub-tabs -->
  <rect x="936" y="143" width="464" height="36" fill="white"/>
  <rect x="936" y="178" width="464" height="1" fill="#E4EAF2"/>
  <text x="976" y="165" text-anchor="middle" font-size="12" fill="#0066CC" font-weight="600">Details</text>
  <rect x="946" y="178" width="60" height="2" fill="#0066CC"/>
  <text x="1070" y="165" text-anchor="middle" font-size="12" fill="#8090A8">Timeline</text>
  <text x="1170" y="165" text-anchor="middle" font-size="12" fill="#8090A8">Evidence</text>
  <text x="1275" y="165" text-anchor="middle" font-size="12" fill="#8090A8">Actions</text>

  <!-- Detection title -->
  <text x="956" y="202" font-size="15" fill="#1A2B44" font-weight="700">DCSync via DRSUAPI GetNCChanges</text>
  <text x="956" y="220" font-size="11" fill="#8090A8">Detected by Sigma rule: win_dcsync_replication  ·  Source: Elastic SIEM</text>

  <!-- Score cards row -->
  <!-- Detection Score -->
  <rect x="956" y="232" width="96" height="72" rx="8" fill="#FFF5F5" stroke="#FFD0D0" stroke-width="1"/>
  <text x="1004" y="252" text-anchor="middle" font-size="10" fill="#E53935" font-weight="600">SCORE</text>
  <text x="1004" y="280" text-anchor="middle" font-size="30" fill="#E53935" font-weight="700">9.0</text>
  <text x="1004" y="296" text-anchor="middle" font-size="9" fill="#8090A8">Critical</text>

  <!-- CVSSv3 -->
  <rect x="1062" y="232" width="96" height="72" rx="8" fill="#FFF9F0" stroke="#FFE0AA" stroke-width="1"/>
  <text x="1110" y="252" text-anchor="middle" font-size="10" fill="#FF6B00" font-weight="600">CVSSv3</text>
  <text x="1110" y="280" text-anchor="middle" font-size="30" fill="#FF6B00" font-weight="700">8.8</text>
  <text x="1110" y="296" text-anchor="middle" font-size="9" fill="#8090A8">AV:N/AC:L</text>

  <!-- Confidence -->
  <rect x="1168" y="232" width="96" height="72" rx="8" fill="#EEF4FF" stroke="#C0D6F7" stroke-width="1"/>
  <text x="1216" y="252" text-anchor="middle" font-size="10" fill="#0066CC" font-weight="600">CONFIDENCE</text>
  <text x="1216" y="275" text-anchor="middle" font-size="24" fill="#0066CC" font-weight="700">96%</text>
  <text x="1216" y="296" text-anchor="middle" font-size="9" fill="#8090A8">High</text>

  <!-- MITRE -->
  <rect x="1274" y="232" width="96" height="72" rx="8" fill="#F4F0FF" stroke="#C8B8FF" stroke-width="1"/>
  <text x="1322" y="252" text-anchor="middle" font-size="10" fill="#6B40CC" font-weight="600">MITRE TACTIC</text>
  <text x="1322" y="272" text-anchor="middle" font-size="10" fill="#6B40CC" font-weight="600">Credential</text>
  <text x="1322" y="284" text-anchor="middle" font-size="10" fill="#6B40CC" font-weight="600">Access</text>
  <text x="1322" y="296" text-anchor="middle" font-size="9" fill="#8090A8">TA0006</text>

  <!-- Details section -->
  <rect x="936" y="316" width="464" height="1" fill="#E4EAF2"/>
  <text x="956" y="338" font-size="12" fill="#1A2B44" font-weight="600">Detection Details</text>

  <!-- Key-value pairs -->
  <text x="956" y="360" font-size="11" fill="#8090A8">Host</text>
  <text x="1100" y="360" font-size="11" fill="#1A2B44">DC-PROD-01  (192.168.1.10)</text>

  <text x="956" y="380" font-size="11" fill="#8090A8">User</text>
  <text x="1100" y="380" font-size="11" fill="#1A2B44">CORP\svc-backup</text>

  <text x="956" y="400" font-size="11" fill="#8090A8">Process</text>
  <text x="1100" y="400" font-size="11" fill="#1A2B44">lsass.exe (PID: 4)</text>

  <text x="956" y="420" font-size="11" fill="#8090A8">Rule</text>
  <text x="1100" y="420" font-size="11" fill="#0066CC">win_dcsync_replication</text>

  <text x="956" y="440" font-size="11" fill="#8090A8">Log Source</text>
  <text x="1100" y="440" font-size="11" fill="#1A2B44">Elastic SIEM  ·  Windows Security</text>

  <text x="956" y="460" font-size="11" fill="#8090A8">Event ID</text>
  <text x="1100" y="460" font-size="11" fill="#1A2B44">4662 (Object accessed)</text>

  <text x="956" y="480" font-size="11" fill="#8090A8">First seen</text>
  <text x="1100" y="480" font-size="11" fill="#1A2B44">2026-02-19 14:21:07 UTC</text>

  <text x="956" y="500" font-size="11" fill="#8090A8">Occurrences</text>
  <text x="1100" y="500" font-size="11" fill="#1A2B44">14 events in last 30 min</text>

  <!-- Description -->
  <rect x="936" y="512" width="464" height="1" fill="#E4EAF2"/>
  <text x="956" y="534" font-size="12" fill="#1A2B44" font-weight="600">Description</text>
  <text x="956" y="554" font-size="11" fill="#5570A0">DCSync attack detected. The account CORP\svc-backup</text>
  <text x="956" y="570" font-size="11" fill="#5570A0">invoked DRSUAPI replication to replicate directory objects</text>
  <text x="956" y="586" font-size="11" fill="#5570A0">from DC-PROD-01. This is characteristic of credential</text>
  <text x="956" y="602" font-size="11" fill="#5570A0">dumping via DCSync (Mimikatz). Immediate investigation</text>
  <text x="956" y="618" font-size="11" fill="#5570A0">recommended — likely compromised service account.</text>

  <!-- Related techniques -->
  <rect x="936" y="630" width="464" height="1" fill="#E4EAF2"/>
  <text x="956" y="652" font-size="12" fill="#1A2B44" font-weight="600">Related Techniques</text>
  <rect x="956" y="660" width="88" height="22" rx="4" fill="#F4F0FF"/>
  <text x="1000" y="675" text-anchor="middle" font-size="10" fill="#6B40CC">T1558.003</text>
  <rect x="1052" y="660" width="88" height="22" rx="4" fill="#F4F0FF"/>
  <text x="1096" y="675" text-anchor="middle" font-size="10" fill="#6B40CC">T1550.003</text>
  <rect x="1148" y="660" width="88" height="22" rx="4" fill="#F4F0FF"/>
  <text x="1192" y="675" text-anchor="middle" font-size="10" fill="#6B40CC">T1078.002</text>

  <!-- Sparkline -->
  <text x="956" y="706" font-size="11" fill="#8090A8">Activity (last 2h):</text>
  <polygon points="1060,730 1085,720 1110,724 1135,715 1160,695 1185,710 1210,706 1235,700 1260,680 1285,690 1310,695 1335,685 1360,678 1360,740 1060,740" fill="url(#sparkGrad)"/>
  <polyline points="1060,730 1085,720 1110,724 1135,715 1160,695 1185,710 1210,706 1235,700 1260,680 1285,690 1310,695 1335,685 1360,678" fill="none" stroke="#0066CC" stroke-width="1.5"/>

  <!-- Action buttons -->
  <rect x="936" y="748" width="464" height="1" fill="#E4EAF2"/>
  <rect x="956" y="760" width="120" height="32" rx="6" fill="#E53935"/>
  <text x="1016" y="780" text-anchor="middle" font-size="12" fill="white" font-weight="600">Escalate</text>
  <rect x="1086" y="760" width="120" height="32" rx="6" fill="white" stroke="#0066CC" stroke-width="1.5"/>
  <text x="1146" y="780" text-anchor="middle" font-size="12" fill="#0066CC" font-weight="600">Investigate</text>
  <rect x="1216" y="760" width="120" height="32" rx="6" fill="white" stroke="#D5DDE8" stroke-width="1"/>
  <text x="1276" y="780" text-anchor="middle" font-size="12" fill="#5570A0">False Positive</text>
  <rect x="1346" y="760" width="40" height="32" rx="6" fill="white" stroke="#D5DDE8" stroke-width="1"/>
  <text x="1366" y="780" text-anchor="middle" font-size="14" fill="#5570A0">⋯</text>

  <!-- Assigned to -->
  <text x="956" y="820" font-size="11" fill="#8090A8">Assigned to:</text>
  <circle cx="1060" cy="815" r="10" fill="#6B40CC"/>
  <text x="1060" y="819" text-anchor="middle" font-size="9" fill="white" font-weight="600">JS</text>
  <text x="1076" y="820" font-size="11" fill="#1A2B44">J. Smith</text>
  <text x="1160" y="820" font-size="11" fill="#8090A8">Priority:</text>
  <rect x="1210" y="808" width="68" height="18" rx="9" fill="#FFEBEB"/>
  <text x="1244" y="820" text-anchor="middle" font-size="10" fill="#E53935" font-weight="600">P1 — Urgent</text>

  <!-- Panel footer -->
  <rect x="936" y="845" width="464" height="40" fill="#F7F9FB"/>
  <rect x="936" y="845" width="464" height="1" fill="#E4EAF2"/>
  <text x="956" y="869" font-size="11" fill="#8090A8">← Prev detection</text>
  <text x="1310" y="869" font-size="11" fill="#8090A8">Next detection →</text>

  <!-- Status bar bottom -->
  <rect x="0" y="885" width="1400" height="15" fill="#F0F4F9"/>
  <rect x="0" y="885" width="1400" height="1" fill="#E0E6EF"/>
  <text x="76" y="896" font-size="9" fill="#8090A8">MxTac v2.4.1  ·  Showing 47 critical detections  ·  Elastic SIEM  ·  © 2026 MxTac Security</text>
  <circle cx="1350" cy="892" r="4" fill="#00880A"/>
  <text x="1360" y="896" font-size="9" fill="#00880A">All systems operational</text>
</svg>
