<svg xmlns="http://www.w3.org/2000/svg" width="1400" height="900" viewBox="0 0 1400 900">
<defs>
  <!-- Background gradient -->
  <linearGradient id="bgGrad" x1="0" y1="0" x2="1" y2="1">
    <stop offset="0%" stop-color="#0c1120"/>
    <stop offset="100%" stop-color="#0f1423"/>
  </linearGradient>
  <!-- Sidebar gradient -->
  <linearGradient id="sideGrad" x1="0" y1="0" x2="1" y2="0">
    <stop offset="0%" stop-color="#0a0f1e"/>
    <stop offset="100%" stop-color="#0e1428"/>
  </linearGradient>
  <!-- Card gradient base -->
  <linearGradient id="cardGrad" x1="0" y1="0" x2="0" y2="1">
    <stop offset="0%" stop-color="#161d30"/>
    <stop offset="100%" stop-color="#111827"/>
  </linearGradient>
  <!-- Alert card accent gradient -->
  <linearGradient id="critGrad" x1="0" y1="0" x2="1" y2="0">
    <stop offset="0%" stop-color="#1c0f0f"/>
    <stop offset="100%" stop-color="#111827"/>
  </linearGradient>
  <!-- Bar fill gradient -->
  <linearGradient id="barBlue" x1="0" y1="0" x2="0" y2="1">
    <stop offset="0%" stop-color="#3b82f6"/>
    <stop offset="100%" stop-color="#1d4ed8"/>
  </linearGradient>
  <linearGradient id="barGreen" x1="0" y1="0" x2="0" y2="1">
    <stop offset="0%" stop-color="#10b981"/>
    <stop offset="100%" stop-color="#047857"/>
  </linearGradient>
  <linearGradient id="barAmber" x1="0" y1="0" x2="0" y2="1">
    <stop offset="0%" stop-color="#f59e0b"/>
    <stop offset="100%" stop-color="#b45309"/>
  </linearGradient>
  <linearGradient id="barRed" x1="0" y1="0" x2="0" y2="1">
    <stop offset="0%" stop-color="#ef4444"/>
    <stop offset="100%" stop-color="#b91c1c"/>
  </linearGradient>
  <!-- Header gradient -->
  <linearGradient id="headerGrad" x1="0" y1="0" x2="0" y2="1">
    <stop offset="0%" stop-color="#131928"/>
    <stop offset="100%" stop-color="#0f1423"/>
  </linearGradient>
  <!-- KPI card accents -->
  <linearGradient id="kpiBlue" x1="0" y1="0" x2="0" y2="1">
    <stop offset="0%" stop-color="#1e3a5f"/>
    <stop offset="100%" stop-color="#111827"/>
  </linearGradient>
  <linearGradient id="kpiRed" x1="0" y1="0" x2="0" y2="1">
    <stop offset="0%" stop-color="#3b1a1a"/>
    <stop offset="100%" stop-color="#111827"/>
  </linearGradient>
  <linearGradient id="kpiGreen" x1="0" y1="0" x2="0" y2="1">
    <stop offset="0%" stop-color="#0d3327"/>
    <stop offset="100%" stop-color="#111827"/>
  </linearGradient>
  <linearGradient id="kpiAmber" x1="0" y1="0" x2="0" y2="1">
    <stop offset="0%" stop-color="#2d2007"/>
    <stop offset="100%" stop-color="#111827"/>
  </linearGradient>
  <!-- Timeline bar -->
  <linearGradient id="tlBar" x1="0" y1="0" x2="0" y2="1">
    <stop offset="0%" stop-color="#3b82f6" stop-opacity="0.9"/>
    <stop offset="100%" stop-color="#1e40af" stop-opacity="0.5"/>
  </linearGradient>
  <linearGradient id="tlPeak" x1="0" y1="0" x2="0" y2="1">
    <stop offset="0%" stop-color="#f87171"/>
    <stop offset="100%" stop-color="#b91c1c"/>
  </linearGradient>
  <!-- Subtle glow filter -->
  <filter id="glow" x="-20%" y="-20%" width="140%" height="140%">
    <feGaussianBlur in="SourceAlpha" stdDeviation="3" result="blur"/>
    <feFlood flood-color="#2563eb" flood-opacity="0.3" result="color"/>
    <feComposite in="color" in2="blur" operator="in" result="glow"/>
    <feMerge><feMergeNode in="glow"/><feMergeNode in="SourceGraphic"/></feMerge>
  </filter>
  <filter id="glowRed" x="-20%" y="-20%" width="140%" height="140%">
    <feGaussianBlur in="SourceAlpha" stdDeviation="3" result="blur"/>
    <feFlood flood-color="#ef4444" flood-opacity="0.3" result="color"/>
    <feComposite in="color" in2="blur" operator="in" result="glow"/>
    <feMerge><feMergeNode in="glow"/><feMergeNode in="SourceGraphic"/></feMerge>
  </filter>
</defs>

<!-- ===== GLOBAL BACKGROUND ===== -->
<rect width="1400" height="900" fill="url(#bgGrad)"/>

<!-- ===== SIDEBAR ===== -->
<rect x="0" y="0" width="224" height="900" fill="url(#sideGrad)"/>
<!-- Sidebar right border — subtle 1px luminance line -->
<line x1="224" y1="0" x2="224" y2="900" stroke="rgba(255,255,255,0.05)" stroke-width="1"/>

<!-- Logo block -->
<rect x="0" y="0" width="224" height="68" fill="rgba(37,99,235,0.08)"/>
<!-- Shield icon -->
<path d="M22 14 L34 10 L46 14 L46 28 C46 35 34 42 34 42 C34 42 22 35 22 28 Z" fill="none" stroke="#2563eb" stroke-width="1.5"/>
<path d="M28 28 L32 32 L40 22" stroke="#2563eb" stroke-width="2" fill="none" stroke-linecap="round" stroke-linejoin="round"/>
<text x="56" y="28" font-family="'Inter', 'Segoe UI', Arial, sans-serif" font-size="17" font-weight="700" letter-spacing="-0.5" fill="#f1f5f9">MxTac</text>
<text x="56" y="44" font-family="'Inter', 'Segoe UI', Arial, sans-serif" font-size="10" letter-spacing="1.5" fill="#475569" font-weight="500">SECURITY PLATFORM</text>
<line x1="16" y1="67" x2="208" y2="67" stroke="rgba(255,255,255,0.04)" stroke-width="1"/>

<!-- NAV SECTION LABEL -->
<text x="20" y="90" font-family="'Inter', 'Segoe UI', Arial, sans-serif" font-size="9" letter-spacing="1.8" fill="#334155" font-weight="600">NAVIGATION</text>

<!-- Dashboard (active) -->
<rect x="8" y="96" width="208" height="36" rx="6" fill="rgba(37,99,235,0.15)"/>
<rect x="8" y="96" width="2" height="36" rx="1" fill="#2563eb"/>
<!-- Grid icon -->
<rect x="22" y="107" width="5" height="5" rx="1" fill="#3b82f6"/>
<rect x="29" y="107" width="5" height="5" rx="1" fill="#3b82f6"/>
<rect x="22" y="114" width="5" height="5" rx="1" fill="#3b82f6"/>
<rect x="29" y="114" width="5" height="5" rx="1" fill="#3b82f6"/>
<text x="44" y="119" font-family="'Inter', 'Segoe UI', Arial, sans-serif" font-size="13" font-weight="600" fill="#e2e8f0">Dashboard</text>

<!-- Threat Hunt -->
<rect x="8" y="136" width="208" height="36" rx="6" fill="transparent"/>
<circle cx="26" cy="154" r="7" fill="none" stroke="#475569" stroke-width="1.5"/>
<line x1="26" y1="145" x2="26" y2="149" stroke="#475569" stroke-width="1.5"/>
<line x1="26" y1="159" x2="26" y2="163" stroke="#475569" stroke-width="1.5"/>
<line x1="15" y1="154" x2="19" y2="154" stroke="#475569" stroke-width="1.5"/>
<line x1="33" y1="154" x2="37" y2="154" stroke="#475569" stroke-width="1.5"/>
<text x="44" y="158" font-family="'Inter', 'Segoe UI', Arial, sans-serif" font-size="13" fill="#64748b">Threat Hunt</text>

<!-- ATT&CK Matrix -->
<rect x="8" y="176" width="208" height="36" rx="6" fill="transparent"/>
<rect x="18" y="188" width="5" height="5" rx="0.5" fill="#475569"/>
<rect x="25" y="188" width="5" height="5" rx="0.5" fill="#475569"/>
<rect x="32" y="188" width="5" height="5" rx="0.5" fill="#475569"/>
<rect x="18" y="195" width="5" height="5" rx="0.5" fill="#475569"/>
<rect x="25" y="195" width="5" height="5" rx="0.5" fill="#475569"/>
<rect x="32" y="195" width="5" height="5" rx="0.5" fill="#475569"/>
<text x="44" y="199" font-family="'Inter', 'Segoe UI', Arial, sans-serif" font-size="13" fill="#64748b">ATT&amp;CK Matrix</text>

<!-- Sigma Rules -->
<rect x="8" y="216" width="208" height="36" rx="6" fill="transparent"/>
<text x="19" y="240" font-family="Georgia, serif" font-size="17" font-weight="700" fill="#475569">&#x3A3;</text>
<text x="44" y="238" font-family="'Inter', 'Segoe UI', Arial, sans-serif" font-size="13" fill="#64748b">Sigma Rules</text>

<!-- Incidents -->
<rect x="8" y="256" width="208" height="36" rx="6" fill="transparent"/>
<path d="M26 262 L34 276 L18 276 Z" fill="none" stroke="#475569" stroke-width="1.5" stroke-linejoin="round"/>
<text x="44" y="278" font-family="'Inter', 'Segoe UI', Arial, sans-serif" font-size="13" fill="#64748b">Incidents</text>
<rect x="172" y="263" width="24" height="16" rx="8" fill="#b91c1c"/>
<text x="184" y="274" font-family="'Inter', 'Segoe UI', Arial, sans-serif" font-size="10" text-anchor="middle" fill="#fecaca" font-weight="700">12</text>

<!-- Threat Intel -->
<rect x="8" y="296" width="208" height="36" rx="6" fill="transparent"/>
<circle cx="26" cy="314" r="8" fill="none" stroke="#475569" stroke-width="1.5"/>
<line x1="18" y1="314" x2="34" y2="314" stroke="#475569" stroke-width="1"/>
<ellipse cx="26" cy="314" rx="4" ry="8" fill="none" stroke="#475569" stroke-width="1"/>
<text x="44" y="318" font-family="'Inter', 'Segoe UI', Arial, sans-serif" font-size="13" fill="#64748b">Threat Intel</text>

<!-- Assets -->
<rect x="8" y="336" width="208" height="36" rx="6" fill="transparent"/>
<rect x="18" y="346" width="16" height="10" rx="2" fill="none" stroke="#475569" stroke-width="1.5"/>
<rect x="18" y="358" width="16" height="10" rx="2" fill="none" stroke="#475569" stroke-width="1.5"/>
<text x="44" y="356" font-family="'Inter', 'Segoe UI', Arial, sans-serif" font-size="13" fill="#64748b">Assets</text>

<!-- Reports -->
<rect x="8" y="376" width="208" height="36" rx="6" fill="transparent"/>
<rect x="19" y="386" width="14" height="18" rx="2" fill="none" stroke="#475569" stroke-width="1.5"/>
<line x1="22" y1="391" x2="30" y2="391" stroke="#475569" stroke-width="1"/>
<line x1="22" y1="395" x2="30" y2="395" stroke="#475569" stroke-width="1"/>
<line x1="22" y1="399" x2="27" y2="399" stroke="#475569" stroke-width="1"/>
<text x="44" y="398" font-family="'Inter', 'Segoe UI', Arial, sans-serif" font-size="13" fill="#64748b">Reports</text>

<!-- Divider -->
<line x1="16" y1="424" x2="208" y2="424" stroke="rgba(255,255,255,0.04)" stroke-width="1"/>
<text x="20" y="442" font-family="'Inter', 'Segoe UI', Arial, sans-serif" font-size="9" letter-spacing="1.8" fill="#334155" font-weight="600">INTEGRATIONS</text>

<!-- Tool status list -->
<!-- Online dot style: small rect indicator -->
<rect x="20" y="452" width="6" height="6" rx="1" fill="#10b981"/>
<text x="34" y="460" font-family="'Inter', 'Segoe UI', Arial, sans-serif" font-size="11.5" fill="#64748b">Wazuh EDR</text>
<rect x="20" y="470" width="6" height="6" rx="1" fill="#10b981"/>
<text x="34" y="478" font-family="'Inter', 'Segoe UI', Arial, sans-serif" font-size="11.5" fill="#64748b">Zeek NDR</text>
<rect x="20" y="488" width="6" height="6" rx="1" fill="#10b981"/>
<text x="34" y="496" font-family="'Inter', 'Segoe UI', Arial, sans-serif" font-size="11.5" fill="#64748b">Suricata IDS</text>
<rect x="20" y="506" width="6" height="6" rx="1" fill="#10b981"/>
<text x="34" y="514" font-family="'Inter', 'Segoe UI', Arial, sans-serif" font-size="11.5" fill="#64748b">Prowler Cloud</text>
<rect x="20" y="524" width="6" height="6" rx="1" fill="#10b981"/>
<text x="34" y="532" font-family="'Inter', 'Segoe UI', Arial, sans-serif" font-size="11.5" fill="#64748b">OpenCTI</text>
<rect x="20" y="542" width="6" height="6" rx="1" fill="#10b981"/>
<text x="34" y="550" font-family="'Inter', 'Segoe UI', Arial, sans-serif" font-size="11.5" fill="#60a5fa">MxGuard EDR</text>
<rect x="20" y="560" width="6" height="6" rx="1" fill="#10b981"/>
<text x="34" y="568" font-family="'Inter', 'Segoe UI', Arial, sans-serif" font-size="11.5" fill="#60a5fa">MxWatch NDR</text>
<rect x="20" y="578" width="6" height="6" rx="1" fill="#ef4444"/>
<text x="34" y="586" font-family="'Inter', 'Segoe UI', Arial, sans-serif" font-size="11.5" fill="#64748b">Shuffle SOAR</text>
<rect x="155" y="575" width="48" height="14" rx="2" fill="rgba(185,28,28,0.2)"/>
<text x="179" y="585" font-family="'Inter', 'Segoe UI', Arial, sans-serif" font-size="9" text-anchor="middle" letter-spacing="0.5" fill="#f87171" font-weight="600">OFFLINE</text>

<!-- Divider -->
<line x1="16" y1="602" x2="208" y2="602" stroke="rgba(255,255,255,0.04)" stroke-width="1"/>

<!-- USER PROFILE -->
<rect x="8" y="612" width="208" height="52" rx="6" fill="rgba(255,255,255,0.03)"/>
<rect x="20" y="622" width="32" height="32" rx="8" fill="rgba(37,99,235,0.25)"/>
<text x="36" y="641" font-family="'Inter', 'Segoe UI', Arial, sans-serif" font-size="12" font-weight="700" text-anchor="middle" fill="#60a5fa">KH</text>
<text x="60" y="633" font-family="'Inter', 'Segoe UI', Arial, sans-serif" font-size="12" font-weight="600" fill="#cbd5e1">K. Choi</text>
<text x="60" y="648" font-family="'Inter', 'Segoe UI', Arial, sans-serif" font-size="10" fill="#475569">SOC Analyst L2</text>

<!-- Settings -->
<rect x="8" y="672" width="208" height="32" rx="6" fill="transparent"/>
<circle cx="26" cy="688" r="5" fill="none" stroke="#475569" stroke-width="1.5"/>
<circle cx="26" cy="688" r="2" fill="#475569"/>
<text x="42" y="692" font-family="'Inter', 'Segoe UI', Arial, sans-serif" font-size="12" fill="#475569">Settings</text>


<!-- ===== HEADER ===== -->
<rect x="224" y="0" width="1176" height="60" fill="url(#headerGrad)"/>
<line x1="224" y1="60" x2="1400" y2="60" stroke="rgba(255,255,255,0.05)" stroke-width="1"/>

<!-- Breadcrumb -->
<text x="244" y="22" font-family="'Inter', 'Segoe UI', Arial, sans-serif" font-size="11" fill="#334155" letter-spacing="0.3">MxTac</text>
<text x="280" y="22" font-family="'Inter', 'Segoe UI', Arial, sans-serif" font-size="11" fill="#1e293b"> / </text>
<text x="294" y="22" font-family="'Inter', 'Segoe UI', Arial, sans-serif" font-size="11" fill="#475569">Dashboard</text>

<!-- Page title -->
<text x="244" y="46" font-family="'Inter', 'Segoe UI', Arial, sans-serif" font-size="19" font-weight="700" letter-spacing="-0.5" fill="#f1f5f9">Security Overview</text>

<!-- LIVE badge -->
<rect x="436" y="32" width="52" height="20" rx="4" fill="rgba(16,185,129,0.1)" stroke="rgba(16,185,129,0.3)" stroke-width="1"/>
<circle cx="448" cy="42" r="3" fill="#10b981"/>
<text x="455" y="46" font-family="'Inter', 'Segoe UI', Arial, sans-serif" font-size="10" font-weight="700" letter-spacing="0.5" fill="#10b981">LIVE</text>

<!-- Right controls: Time range -->
<rect x="1050" y="16" width="130" height="28" rx="5" fill="rgba(255,255,255,0.04)" stroke="rgba(255,255,255,0.06)" stroke-width="1"/>
<text x="1066" y="34" font-family="'Inter', 'Segoe UI', Arial, sans-serif" font-size="12" fill="#64748b">Last 24 Hours</text>
<text x="1168" y="34" font-family="'Inter', 'Segoe UI', Arial, sans-serif" font-size="10" fill="#475569">&#x25BE;</text>

<!-- Notification -->
<rect x="1190" y="16" width="30" height="28" rx="5" fill="rgba(255,255,255,0.04)" stroke="rgba(255,255,255,0.06)" stroke-width="1"/>
<path d="M1205 21 C1202 21 1200 23 1200 26 L1200 30 L1198 31 L1212 31 L1210 30 L1210 26 C1210 23 1208 21 1205 21 Z" fill="#475569"/>
<rect x="1203" y="31" width="4" height="2.5" rx="1.5" fill="#475569"/>
<circle cx="1212" cy="19" r="4.5" fill="#b91c1c"/>
<text x="1212" y="22" font-family="'Inter', 'Segoe UI', Arial, sans-serif" font-size="7" text-anchor="middle" fill="#fecaca" font-weight="700">3</text>

<!-- Search -->
<rect x="1228" y="16" width="30" height="28" rx="5" fill="rgba(255,255,255,0.04)" stroke="rgba(255,255,255,0.06)" stroke-width="1"/>
<circle cx="1240" cy="28" r="5" fill="none" stroke="#475569" stroke-width="1.5"/>
<line x1="1244" y1="32" x2="1248" y2="36" stroke="#475569" stroke-width="1.5" stroke-linecap="round"/>

<!-- User avatar -->
<rect x="1266" y="16" width="30" height="28" rx="5" fill="rgba(37,99,235,0.2)" stroke="rgba(37,99,235,0.35)" stroke-width="1"/>
<text x="1281" y="34" font-family="'Inter', 'Segoe UI', Arial, sans-serif" font-size="11" font-weight="700" text-anchor="middle" fill="#60a5fa">KH</text>


<!-- ===== KPI CARDS — row at y=72, h=90, gap=12 ===== -->
<!-- Card 1: Total Alerts -->
<rect x="236" y="72" width="282" height="90" rx="8" fill="url(#cardGrad)" stroke="rgba(255,255,255,0.06)" stroke-width="1"/>
<!-- Top accent line -->
<rect x="236" y="72" width="282" height="2" rx="1" fill="rgba(59,130,246,0.6)"/>
<text x="256" y="96" font-family="'Inter', 'Segoe UI', Arial, sans-serif" font-size="11" letter-spacing="0.8" fill="#475569" font-weight="500">TOTAL ALERTS</text>
<text x="256" y="132" font-family="'Inter', 'Segoe UI', Arial, sans-serif" font-size="32" font-weight="700" letter-spacing="-1" fill="#f1f5f9">1,247</text>
<rect x="256" y="142" width="62" height="16" rx="3" fill="rgba(245,158,11,0.12)"/>
<text x="287" y="154" font-family="'Inter', 'Segoe UI', Arial, sans-serif" font-size="10" text-anchor="middle" fill="#f59e0b" font-weight="600">+12% 24h</text>
<!-- Mini sparkline bars -->
<rect x="464" y="108" width="5" height="10" rx="1" fill="rgba(59,130,246,0.3)"/>
<rect x="471" y="104" width="5" height="14" rx="1" fill="rgba(59,130,246,0.45)"/>
<rect x="478" y="98" width="5" height="20" rx="1" fill="rgba(59,130,246,0.6)"/>
<rect x="485" y="90" width="5" height="28" rx="1" fill="#ef4444"/>

<!-- Card 2: ATT&CK Coverage -->
<rect x="530" y="72" width="282" height="90" rx="8" fill="url(#cardGrad)" stroke="rgba(255,255,255,0.06)" stroke-width="1"/>
<rect x="530" y="72" width="282" height="2" rx="1" fill="rgba(37,99,235,0.7)"/>
<text x="550" y="96" font-family="'Inter', 'Segoe UI', Arial, sans-serif" font-size="11" letter-spacing="0.8" fill="#475569" font-weight="500">ATT&amp;CK COVERAGE</text>
<text x="550" y="132" font-family="'Inter', 'Segoe UI', Arial, sans-serif" font-size="32" font-weight="700" letter-spacing="-1" fill="#3b82f6">73%</text>
<text x="610" y="132" font-family="'Inter', 'Segoe UI', Arial, sans-serif" font-size="13" fill="#475569"> / 591 techniques</text>
<!-- Progress bar -->
<rect x="550" y="140" width="248" height="4" rx="2" fill="rgba(255,255,255,0.06)"/>
<rect x="550" y="140" width="181" height="4" rx="2" fill="#2563eb"/>
<text x="550" y="157" font-family="'Inter', 'Segoe UI', Arial, sans-serif" font-size="10" fill="#10b981">&#x2191; +5% from last month</text>

<!-- Card 3: Active Threats -->
<rect x="824" y="72" width="282" height="90" rx="8" fill="url(#cardGrad)" stroke="rgba(255,255,255,0.06)" stroke-width="1"/>
<rect x="824" y="72" width="282" height="2" rx="1" fill="rgba(239,68,68,0.7)"/>
<text x="844" y="96" font-family="'Inter', 'Segoe UI', Arial, sans-serif" font-size="11" letter-spacing="0.8" fill="#475569" font-weight="500">ACTIVE THREATS</text>
<text x="844" y="132" font-family="'Inter', 'Segoe UI', Arial, sans-serif" font-size="32" font-weight="700" letter-spacing="-1" fill="#ef4444">12</text>
<rect x="890" y="114" width="46" height="18" rx="4" fill="rgba(185,28,28,0.25)"/>
<text x="913" y="127" font-family="'Inter', 'Segoe UI', Arial, sans-serif" font-size="11" text-anchor="middle" font-weight="700" fill="#fca5a5">3 CRIT</text>
<rect x="940" y="114" width="46" height="18" rx="4" fill="rgba(180,83,9,0.25)"/>
<text x="963" y="127" font-family="'Inter', 'Segoe UI', Arial, sans-serif" font-size="11" text-anchor="middle" font-weight="700" fill="#fdba74">9 HIGH</text>
<text x="844" y="153" font-family="'Inter', 'Segoe UI', Arial, sans-serif" font-size="10" fill="#ef4444">Immediate response required</text>

<!-- Card 4: Tools Online -->
<rect x="1118" y="72" width="270" height="90" rx="8" fill="url(#cardGrad)" stroke="rgba(255,255,255,0.06)" stroke-width="1"/>
<rect x="1118" y="72" width="270" height="2" rx="1" fill="rgba(16,185,129,0.7)"/>
<text x="1138" y="96" font-family="'Inter', 'Segoe UI', Arial, sans-serif" font-size="11" letter-spacing="0.8" fill="#475569" font-weight="500">TOOLS ONLINE</text>
<text x="1138" y="132" font-family="'Inter', 'Segoe UI', Arial, sans-serif" font-size="32" font-weight="700" letter-spacing="-1" fill="#10b981">7</text>
<text x="1170" y="132" font-family="'Inter', 'Segoe UI', Arial, sans-serif" font-size="18" fill="#334155"> / 8</text>
<rect x="1138" y="140" width="234" height="16" rx="3" fill="rgba(185,28,28,0.12)"/>
<rect x="1138" y="140" width="3" height="16" rx="1" fill="#ef4444"/>
<text x="1148" y="152" font-family="'Inter', 'Segoe UI', Arial, sans-serif" font-size="10" fill="#94a3b8">Shuffle SOAR disconnected</text>


<!-- ===== ATT&CK COVERAGE CHART ===== -->
<rect x="236" y="174" width="758" height="358" rx="8" fill="url(#cardGrad)" stroke="rgba(255,255,255,0.06)" stroke-width="1"/>

<!-- Chart header row -->
<text x="256" y="200" font-family="'Inter', 'Segoe UI', Arial, sans-serif" font-size="13" font-weight="600" letter-spacing="-0.3" fill="#e2e8f0">ATT&amp;CK Technique Coverage by Tactic</text>

<!-- Legend pills -->
<rect x="256" y="210" width="46" height="16" rx="3" fill="rgba(16,185,129,0.15)"/>
<text x="279" y="221" font-family="'Inter', 'Segoe UI', Arial, sans-serif" font-size="10" text-anchor="middle" fill="#10b981" font-weight="600">&gt; 75%</text>
<rect x="308" y="210" width="52" height="16" rx="3" fill="rgba(37,99,235,0.15)"/>
<text x="334" y="221" font-family="'Inter', 'Segoe UI', Arial, sans-serif" font-size="10" text-anchor="middle" fill="#60a5fa" font-weight="600">60–75%</text>
<rect x="366" y="210" width="52" height="16" rx="3" fill="rgba(245,158,11,0.15)"/>
<text x="392" y="221" font-family="'Inter', 'Segoe UI', Arial, sans-serif" font-size="10" text-anchor="middle" fill="#f59e0b" font-weight="600">30–60%</text>
<rect x="424" y="210" width="46" height="16" rx="3" fill="rgba(239,68,68,0.15)"/>
<text x="447" y="221" font-family="'Inter', 'Segoe UI', Arial, sans-serif" font-size="10" text-anchor="middle" fill="#f87171" font-weight="600">&lt; 30%</text>

<!-- Plot area: top y=232, bottom y=486, height=254, left x=282, right x=978 -->
<!-- Grid lines -->
<line x1="282" y1="232" x2="978" y2="232" stroke="rgba(255,255,255,0.04)" stroke-width="1" stroke-dasharray="4,4"/>
<line x1="282" y1="296" x2="978" y2="296" stroke="rgba(255,255,255,0.04)" stroke-width="1" stroke-dasharray="4,4"/>
<line x1="282" y1="359" x2="978" y2="359" stroke="rgba(255,255,255,0.04)" stroke-width="1" stroke-dasharray="4,4"/>
<line x1="282" y1="422" x2="978" y2="422" stroke="rgba(255,255,255,0.04)" stroke-width="1" stroke-dasharray="4,4"/>
<line x1="282" y1="486" x2="978" y2="486" stroke="rgba(255,255,255,0.06)" stroke-width="1"/>

<!-- Y-axis labels -->
<text x="278" y="236" font-family="'Inter', 'Segoe UI', Arial, sans-serif" font-size="9.5" text-anchor="end" fill="#334155">100%</text>
<text x="278" y="300" font-family="'Inter', 'Segoe UI', Arial, sans-serif" font-size="9.5" text-anchor="end" fill="#334155">75%</text>
<text x="278" y="363" font-family="'Inter', 'Segoe UI', Arial, sans-serif" font-size="9.5" text-anchor="end" fill="#334155">50%</text>
<text x="278" y="426" font-family="'Inter', 'Segoe UI', Arial, sans-serif" font-size="9.5" text-anchor="end" fill="#334155">25%</text>
<text x="278" y="490" font-family="'Inter', 'Segoe UI', Arial, sans-serif" font-size="9.5" text-anchor="end" fill="#334155">0%</text>

<!-- 14 TACTIC BARS — bar_x(i)=292+i*48, bar_w=34, bottom y=486, plot_height=254 -->
<!-- h(v) = 254*v/100 -->
<!-- 0. Initial Access 68% → h=173, y=313 -->
<rect x="292" y="313" width="34" height="173" rx="2" fill="url(#barBlue)"/>
<text x="309" y="308" font-family="'Inter', 'Segoe UI', Arial, sans-serif" font-size="9" text-anchor="middle" fill="#94a3b8">68%</text>
<!-- 1. Execution 82% → h=208, y=278 -->
<rect x="340" y="278" width="34" height="208" rx="2" fill="url(#barGreen)"/>
<text x="357" y="273" font-family="'Inter', 'Segoe UI', Arial, sans-serif" font-size="9" text-anchor="middle" fill="#94a3b8">82%</text>
<!-- 2. Persistence 71% → h=180, y=306 -->
<rect x="388" y="306" width="34" height="180" rx="2" fill="url(#barBlue)"/>
<text x="405" y="301" font-family="'Inter', 'Segoe UI', Arial, sans-serif" font-size="9" text-anchor="middle" fill="#94a3b8">71%</text>
<!-- 3. Privilege Esc 65% → h=165, y=321 -->
<rect x="436" y="321" width="34" height="165" rx="2" fill="url(#barBlue)"/>
<text x="453" y="316" font-family="'Inter', 'Segoe UI', Arial, sans-serif" font-size="9" text-anchor="middle" fill="#94a3b8">65%</text>
<!-- 4. Defense Evasion 42% → h=107, y=379 -->
<rect x="484" y="379" width="34" height="107" rx="2" fill="url(#barAmber)"/>
<text x="501" y="374" font-family="'Inter', 'Segoe UI', Arial, sans-serif" font-size="9" text-anchor="middle" fill="#94a3b8">42%</text>
<!-- 5. Credential Access 58% → h=147, y=339 -->
<rect x="532" y="339" width="34" height="147" rx="2" fill="url(#barAmber)"/>
<text x="549" y="334" font-family="'Inter', 'Segoe UI', Arial, sans-serif" font-size="9" text-anchor="middle" fill="#94a3b8">58%</text>
<!-- 6. Discovery 79% → h=201, y=285 -->
<rect x="580" y="285" width="34" height="201" rx="2" fill="url(#barGreen)"/>
<text x="597" y="280" font-family="'Inter', 'Segoe UI', Arial, sans-serif" font-size="9" text-anchor="middle" fill="#94a3b8">79%</text>
<!-- 7. Lateral Movement 72% → h=183, y=303 -->
<rect x="628" y="303" width="34" height="183" rx="2" fill="url(#barBlue)"/>
<text x="645" y="298" font-family="'Inter', 'Segoe UI', Arial, sans-serif" font-size="9" text-anchor="middle" fill="#94a3b8">72%</text>
<!-- 8. Collection 55% → h=140, y=346 -->
<rect x="676" y="346" width="34" height="140" rx="2" fill="url(#barAmber)"/>
<text x="693" y="341" font-family="'Inter', 'Segoe UI', Arial, sans-serif" font-size="9" text-anchor="middle" fill="#94a3b8">55%</text>
<!-- 9. C&C 85% → h=216, y=270 -->
<rect x="724" y="270" width="34" height="216" rx="2" fill="url(#barGreen)"/>
<text x="741" y="265" font-family="'Inter', 'Segoe UI', Arial, sans-serif" font-size="9" text-anchor="middle" fill="#94a3b8">85%</text>
<!-- 10. Exfiltration 48% → h=122, y=364 -->
<rect x="772" y="364" width="34" height="122" rx="2" fill="url(#barAmber)"/>
<text x="789" y="359" font-family="'Inter', 'Segoe UI', Arial, sans-serif" font-size="9" text-anchor="middle" fill="#94a3b8">48%</text>
<!-- 11. Impact 35% → h=89, y=397 -->
<rect x="820" y="397" width="34" height="89" rx="2" fill="url(#barAmber)"/>
<text x="837" y="392" font-family="'Inter', 'Segoe UI', Arial, sans-serif" font-size="9" text-anchor="middle" fill="#94a3b8">35%</text>
<!-- 12. Reconnaissance 62% → h=157, y=329 -->
<rect x="868" y="329" width="34" height="157" rx="2" fill="url(#barBlue)"/>
<text x="885" y="324" font-family="'Inter', 'Segoe UI', Arial, sans-serif" font-size="9" text-anchor="middle" fill="#94a3b8">62%</text>
<!-- 13. Resource Dev 28% → h=71, y=415 -->
<rect x="916" y="415" width="34" height="71" rx="2" fill="url(#barRed)"/>
<text x="933" y="410" font-family="'Inter', 'Segoe UI', Arial, sans-serif" font-size="9" text-anchor="middle" fill="#94a3b8">28%</text>

<!-- X-axis labels -->
<text transform="rotate(-45 309 504)" x="309" y="504" font-family="'Inter', 'Segoe UI', Arial, sans-serif" font-size="9" text-anchor="end" fill="#475569">Init Access</text>
<text transform="rotate(-45 357 504)" x="357" y="504" font-family="'Inter', 'Segoe UI', Arial, sans-serif" font-size="9" text-anchor="end" fill="#475569">Execution</text>
<text transform="rotate(-45 405 504)" x="405" y="504" font-family="'Inter', 'Segoe UI', Arial, sans-serif" font-size="9" text-anchor="end" fill="#475569">Persistence</text>
<text transform="rotate(-45 453 504)" x="453" y="504" font-family="'Inter', 'Segoe UI', Arial, sans-serif" font-size="9" text-anchor="end" fill="#475569">Priv Esc</text>
<text transform="rotate(-45 501 504)" x="501" y="504" font-family="'Inter', 'Segoe UI', Arial, sans-serif" font-size="9" text-anchor="end" fill="#475569">Def Evasion</text>
<text transform="rotate(-45 549 504)" x="549" y="504" font-family="'Inter', 'Segoe UI', Arial, sans-serif" font-size="9" text-anchor="end" fill="#475569">Cred Access</text>
<text transform="rotate(-45 597 504)" x="597" y="504" font-family="'Inter', 'Segoe UI', Arial, sans-serif" font-size="9" text-anchor="end" fill="#475569">Discovery</text>
<text transform="rotate(-45 645 504)" x="645" y="504" font-family="'Inter', 'Segoe UI', Arial, sans-serif" font-size="9" text-anchor="end" fill="#475569">Lat Move</text>
<text transform="rotate(-45 693 504)" x="693" y="504" font-family="'Inter', 'Segoe UI', Arial, sans-serif" font-size="9" text-anchor="end" fill="#475569">Collection</text>
<text transform="rotate(-45 741 504)" x="741" y="504" font-family="'Inter', 'Segoe UI', Arial, sans-serif" font-size="9" text-anchor="end" fill="#475569">Cmd &amp; Ctrl</text>
<text transform="rotate(-45 789 504)" x="789" y="504" font-family="'Inter', 'Segoe UI', Arial, sans-serif" font-size="9" text-anchor="end" fill="#475569">Exfiltration</text>
<text transform="rotate(-45 837 504)" x="837" y="504" font-family="'Inter', 'Segoe UI', Arial, sans-serif" font-size="9" text-anchor="end" fill="#475569">Impact</text>
<text transform="rotate(-45 885 504)" x="885" y="504" font-family="'Inter', 'Segoe UI', Arial, sans-serif" font-size="9" text-anchor="end" fill="#475569">Recon</text>
<text transform="rotate(-45 933 504)" x="933" y="504" font-family="'Inter', 'Segoe UI', Arial, sans-serif" font-size="9" text-anchor="end" fill="#475569">Res Dev</text>


<!-- ===== LIVE ALERT FEED ===== -->
<rect x="1002" y="174" width="386" height="358" rx="8" fill="url(#cardGrad)" stroke="rgba(255,255,255,0.06)" stroke-width="1"/>

<!-- Header row -->
<text x="1020" y="200" font-family="'Inter', 'Segoe UI', Arial, sans-serif" font-size="13" font-weight="600" letter-spacing="-0.3" fill="#e2e8f0">Live Alert Feed</text>
<!-- Count badge -->
<rect x="1148" y="187" width="28" height="18" rx="4" fill="rgba(185,28,28,0.25)"/>
<text x="1162" y="199" font-family="'Inter', 'Segoe UI', Arial, sans-serif" font-size="10" text-anchor="middle" fill="#fca5a5" font-weight="700">6</text>
<!-- View all -->
<text x="1380" y="200" font-family="'Inter', 'Segoe UI', Arial, sans-serif" font-size="11" text-anchor="end" fill="#2563eb">View all</text>
<line x1="1002" y1="208" x2="1388" y2="208" stroke="rgba(255,255,255,0.05)" stroke-width="1"/>

<!-- Alert 1: CRITICAL -->
<rect x="1002" y="209" width="386" height="52" fill="rgba(185,28,28,0.05)"/>
<rect x="1002" y="209" width="3" height="52" fill="#ef4444"/>
<rect x="1016" y="221" width="38" height="16" rx="3" fill="rgba(185,28,28,0.3)"/>
<text x="1035" y="233" font-family="'Inter', 'Segoe UI', Arial, sans-serif" font-size="9.5" text-anchor="middle" font-weight="700" letter-spacing="0.5" fill="#fca5a5">CRIT</text>
<text x="1063" y="231" font-family="'Inter', 'Segoe UI', Arial, sans-serif" font-size="12" font-weight="600" fill="#f1f5f9">PowerShell Encoded Command</text>
<text x="1063" y="247" font-family="'Inter', 'Segoe UI', Arial, sans-serif" font-size="10.5" fill="#64748b">T1059.001 &nbsp;&#xB7;&nbsp; Wazuh EDR &nbsp;&#xB7;&nbsp; WIN-SRV-04</text>
<text x="1380" y="231" font-family="'Inter', 'Segoe UI', Arial, sans-serif" font-size="10" text-anchor="end" fill="#475569">2m ago</text>
<line x1="1005" y1="261" x2="1385" y2="261" stroke="rgba(255,255,255,0.04)" stroke-width="1"/>

<!-- Alert 2: HIGH - DNS -->
<rect x="1002" y="262" width="386" height="52" fill="transparent"/>
<rect x="1002" y="262" width="3" height="52" fill="#f59e0b"/>
<rect x="1016" y="274" width="38" height="16" rx="3" fill="rgba(180,83,9,0.25)"/>
<text x="1035" y="286" font-family="'Inter', 'Segoe UI', Arial, sans-serif" font-size="9.5" text-anchor="middle" font-weight="700" letter-spacing="0.5" fill="#fbbf24">HIGH</text>
<text x="1063" y="284" font-family="'Inter', 'Segoe UI', Arial, sans-serif" font-size="12" font-weight="600" fill="#f1f5f9">DNS Tunneling Detected</text>
<text x="1063" y="300" font-family="'Inter', 'Segoe UI', Arial, sans-serif" font-size="10.5" fill="#64748b">T1568.002 &nbsp;&#xB7;&nbsp; MxWatch NDR</text>
<text x="1380" y="284" font-family="'Inter', 'Segoe UI', Arial, sans-serif" font-size="10" text-anchor="end" fill="#475569">5m ago</text>
<line x1="1005" y1="314" x2="1385" y2="314" stroke="rgba(255,255,255,0.04)" stroke-width="1"/>

<!-- Alert 3: HIGH - SSH -->
<rect x="1002" y="315" width="386" height="52" fill="rgba(255,255,255,0.015)"/>
<rect x="1002" y="315" width="3" height="52" fill="#f59e0b"/>
<rect x="1016" y="327" width="38" height="16" rx="3" fill="rgba(180,83,9,0.25)"/>
<text x="1035" y="339" font-family="'Inter', 'Segoe UI', Arial, sans-serif" font-size="9.5" text-anchor="middle" font-weight="700" letter-spacing="0.5" fill="#fbbf24">HIGH</text>
<text x="1063" y="337" font-family="'Inter', 'Segoe UI', Arial, sans-serif" font-size="12" font-weight="600" fill="#f1f5f9">SSH Brute Force — 823 attempts</text>
<text x="1063" y="353" font-family="'Inter', 'Segoe UI', Arial, sans-serif" font-size="10.5" fill="#64748b">T1110.001 &nbsp;&#xB7;&nbsp; MxWatch NDR &nbsp;&#xB7;&nbsp; 10.0.2.44</text>
<text x="1380" y="337" font-family="'Inter', 'Segoe UI', Arial, sans-serif" font-size="10" text-anchor="end" fill="#475569">12m ago</text>
<line x1="1005" y1="367" x2="1385" y2="367" stroke="rgba(255,255,255,0.04)" stroke-width="1"/>

<!-- Alert 4: MED - Port Scan -->
<rect x="1002" y="368" width="386" height="52" fill="transparent"/>
<rect x="1002" y="368" width="3" height="52" fill="#8b5cf6"/>
<rect x="1016" y="380" width="38" height="16" rx="3" fill="rgba(109,40,217,0.25)"/>
<text x="1035" y="392" font-family="'Inter', 'Segoe UI', Arial, sans-serif" font-size="9.5" text-anchor="middle" font-weight="700" letter-spacing="0.5" fill="#c4b5fd">MED</text>
<text x="1063" y="390" font-family="'Inter', 'Segoe UI', Arial, sans-serif" font-size="12" font-weight="600" fill="#e2e8f0">Port Scan 192.168.1.45</text>
<text x="1063" y="406" font-family="'Inter', 'Segoe UI', Arial, sans-serif" font-size="10.5" fill="#64748b">T1046 &nbsp;&#xB7;&nbsp; Suricata IDS</text>
<text x="1380" y="390" font-family="'Inter', 'Segoe UI', Arial, sans-serif" font-size="10" text-anchor="end" fill="#475569">18m ago</text>
<line x1="1005" y1="420" x2="1385" y2="420" stroke="rgba(255,255,255,0.04)" stroke-width="1"/>

<!-- Alert 5: MED - Process Injection -->
<rect x="1002" y="421" width="386" height="52" fill="rgba(255,255,255,0.015)"/>
<rect x="1002" y="421" width="3" height="52" fill="#8b5cf6"/>
<rect x="1016" y="433" width="38" height="16" rx="3" fill="rgba(109,40,217,0.25)"/>
<text x="1035" y="445" font-family="'Inter', 'Segoe UI', Arial, sans-serif" font-size="9.5" text-anchor="middle" font-weight="700" letter-spacing="0.5" fill="#c4b5fd">MED</text>
<text x="1063" y="443" font-family="'Inter', 'Segoe UI', Arial, sans-serif" font-size="12" font-weight="600" fill="#e2e8f0">Process Injection Detected</text>
<text x="1063" y="459" font-family="'Inter', 'Segoe UI', Arial, sans-serif" font-size="10.5" fill="#64748b">T1055.001 &nbsp;&#xB7;&nbsp; Wazuh EDR &nbsp;&#xB7;&nbsp; WIN-WKS-11</text>
<text x="1380" y="443" font-family="'Inter', 'Segoe UI', Arial, sans-serif" font-size="10" text-anchor="end" fill="#475569">25m ago</text>
<line x1="1005" y1="473" x2="1385" y2="473" stroke="rgba(255,255,255,0.04)" stroke-width="1"/>

<!-- Alert 6: LOW -->
<rect x="1002" y="474" width="386" height="58" fill="transparent"/>
<rect x="1002" y="474" width="3" height="58" fill="#10b981"/>
<rect x="1016" y="486" width="38" height="16" rx="3" fill="rgba(6,78,59,0.4)"/>
<text x="1035" y="498" font-family="'Inter', 'Segoe UI', Arial, sans-serif" font-size="9.5" text-anchor="middle" font-weight="700" letter-spacing="0.5" fill="#6ee7b7">LOW</text>
<text x="1063" y="496" font-family="'Inter', 'Segoe UI', Arial, sans-serif" font-size="12" fill="#94a3b8">Unusual Traffic Volume</text>
<text x="1063" y="512" font-family="'Inter', 'Segoe UI', Arial, sans-serif" font-size="10.5" fill="#475569">T1041 &nbsp;&#xB7;&nbsp; MxWatch NDR</text>
<text x="1380" y="496" font-family="'Inter', 'Segoe UI', Arial, sans-serif" font-size="10" text-anchor="end" fill="#475569">47m ago</text>


<!-- ===== DETECTION TIMELINE ===== -->
<rect x="236" y="544" width="758" height="304" rx="8" fill="url(#cardGrad)" stroke="rgba(255,255,255,0.06)" stroke-width="1"/>

<!-- Header -->
<text x="256" y="570" font-family="'Inter', 'Segoe UI', Arial, sans-serif" font-size="13" font-weight="600" letter-spacing="-0.3" fill="#e2e8f0">Detection Timeline — Last 24 Hours</text>
<text x="982" y="570" font-family="'Inter', 'Segoe UI', Arial, sans-serif" font-size="11" text-anchor="end" fill="#475569">1,247 total events</text>

<!-- Timeline plot: top y=588, bottom y=808, height=220, left x=278, right x=978 -->
<!-- Grid lines -->
<line x1="278" y1="588" x2="978" y2="588" stroke="rgba(255,255,255,0.04)" stroke-width="1" stroke-dasharray="4,4"/>
<line x1="278" y1="643" x2="978" y2="643" stroke="rgba(255,255,255,0.04)" stroke-width="1" stroke-dasharray="4,4"/>
<line x1="278" y1="698" x2="978" y2="698" stroke="rgba(255,255,255,0.04)" stroke-width="1" stroke-dasharray="4,4"/>
<line x1="278" y1="753" x2="978" y2="753" stroke="rgba(255,255,255,0.04)" stroke-width="1" stroke-dasharray="4,4"/>
<line x1="278" y1="808" x2="978" y2="808" stroke="rgba(255,255,255,0.06)" stroke-width="1"/>

<!-- Y-axis labels -->
<text x="274" y="592" font-family="'Inter', 'Segoe UI', Arial, sans-serif" font-size="9.5" text-anchor="end" fill="#334155">110</text>
<text x="274" y="647" font-family="'Inter', 'Segoe UI', Arial, sans-serif" font-size="9.5" text-anchor="end" fill="#334155">82</text>
<text x="274" y="702" font-family="'Inter', 'Segoe UI', Arial, sans-serif" font-size="9.5" text-anchor="end" fill="#334155">55</text>
<text x="274" y="757" font-family="'Inter', 'Segoe UI', Arial, sans-serif" font-size="9.5" text-anchor="end" fill="#334155">27</text>
<text x="274" y="812" font-family="'Inter', 'Segoe UI', Arial, sans-serif" font-size="9.5" text-anchor="end" fill="#334155">0</text>

<!-- 24-hour bars: bar_x(i)=280+i*29, w=21, bottom=808, max_h=220 at val=110 -->
<!-- h(v) = 220*v/110 = 2v -->
<rect x="280" y="778" width="21" height="30" rx="1" fill="url(#tlBar)"/>
<rect x="309" y="792" width="21" height="16" rx="1" fill="url(#tlBar)"/>
<rect x="338" y="800" width="21" height="8" rx="1" fill="url(#tlBar)"/>
<rect x="367" y="784" width="21" height="24" rx="1" fill="url(#tlBar)"/>
<rect x="396" y="772" width="21" height="36" rx="1" fill="url(#tlBar)"/>
<rect x="425" y="764" width="21" height="44" rx="1" fill="url(#tlBar)"/>
<rect x="454" y="738" width="21" height="70" rx="1" fill="url(#tlBar)"/>
<rect x="483" y="702" width="21" height="106" rx="1" fill="url(#tlBar)"/>
<rect x="512" y="650" width="21" height="158" rx="1" fill="url(#tlBar)"/>
<rect x="541" y="624" width="21" height="184" rx="1" fill="url(#tlBar)"/>
<rect x="570" y="632" width="21" height="176" rx="1" fill="url(#tlBar)"/>
<rect x="599" y="616" width="21" height="192" rx="1" fill="url(#tlBar)"/>
<rect x="628" y="640" width="21" height="168" rx="1" fill="url(#tlBar)"/>
<rect x="657" y="656" width="21" height="152" rx="1" fill="url(#tlBar)"/>
<rect x="686" y="610" width="21" height="198" rx="1" fill="url(#tlBar)"/>
<!-- 15:00 PEAK -->
<rect x="715" y="588" width="21" height="220" rx="1" fill="url(#tlPeak)"/>
<text x="725" y="584" font-family="'Inter', 'Segoe UI', Arial, sans-serif" font-size="9" text-anchor="middle" fill="#f87171" font-weight="700">PEAK</text>
<rect x="744" y="602" width="21" height="206" rx="1" fill="url(#tlBar)"/>
<rect x="773" y="632" width="21" height="176" rx="1" fill="url(#tlBar)"/>
<rect x="802" y="662" width="21" height="146" rx="1" fill="url(#tlBar)"/>
<rect x="831" y="692" width="21" height="116" rx="1" fill="url(#tlBar)"/>
<rect x="860" y="720" width="21" height="88" rx="1" fill="url(#tlBar)"/>
<rect x="889" y="744" width="21" height="64" rx="1" fill="url(#tlBar)"/>
<rect x="918" y="758" width="21" height="50" rx="1" fill="url(#tlBar)"/>
<rect x="947" y="772" width="21" height="36" rx="1" fill="url(#tlBar)"/>

<!-- X-axis labels -->
<text x="291" y="824" font-family="'Inter', 'Segoe UI', Arial, sans-serif" font-size="9.5" text-anchor="middle" fill="#475569">00:00</text>
<text x="396" y="824" font-family="'Inter', 'Segoe UI', Arial, sans-serif" font-size="9.5" text-anchor="middle" fill="#475569">04:00</text>
<text x="512" y="824" font-family="'Inter', 'Segoe UI', Arial, sans-serif" font-size="9.5" text-anchor="middle" fill="#475569">08:00</text>
<text x="628" y="824" font-family="'Inter', 'Segoe UI', Arial, sans-serif" font-size="9.5" text-anchor="middle" fill="#475569">12:00</text>
<text x="725" y="824" font-family="'Inter', 'Segoe UI', Arial, sans-serif" font-size="9.5" text-anchor="middle" fill="#f87171">15:00</text>
<text x="860" y="824" font-family="'Inter', 'Segoe UI', Arial, sans-serif" font-size="9.5" text-anchor="middle" fill="#475569">20:00</text>
<text x="957" y="824" font-family="'Inter', 'Segoe UI', Arial, sans-serif" font-size="9.5" text-anchor="middle" fill="#475569">23:00</text>


<!-- ===== INTEGRATION STATUS PANEL ===== -->
<rect x="1002" y="544" width="386" height="304" rx="8" fill="url(#cardGrad)" stroke="rgba(255,255,255,0.06)" stroke-width="1"/>

<!-- Header -->
<text x="1020" y="570" font-family="'Inter', 'Segoe UI', Arial, sans-serif" font-size="13" font-weight="600" letter-spacing="-0.3" fill="#e2e8f0">Integration Status</text>
<rect x="1296" y="558" width="82" height="18" rx="4" fill="rgba(16,185,129,0.12)"/>
<text x="1337" y="570" font-family="'Inter', 'Segoe UI', Arial, sans-serif" font-size="10" text-anchor="middle" fill="#10b981" font-weight="600">7 / 8 Online</text>
<line x1="1002" y1="580" x2="1388" y2="580" stroke="rgba(255,255,255,0.05)" stroke-width="1"/>

<!-- Column headers -->
<text x="1038" y="596" font-family="'Inter', 'Segoe UI', Arial, sans-serif" font-size="9.5" letter-spacing="1" fill="#334155" font-weight="600">TOOL</text>
<text x="1195" y="596" font-family="'Inter', 'Segoe UI', Arial, sans-serif" font-size="9.5" letter-spacing="1" fill="#334155" font-weight="600">ROLE</text>
<text x="1382" y="596" font-family="'Inter', 'Segoe UI', Arial, sans-serif" font-size="9.5" letter-spacing="1" fill="#334155" font-weight="600" text-anchor="end">EPS</text>
<line x1="1010" y1="601" x2="1384" y2="601" stroke="rgba(255,255,255,0.05)" stroke-width="1"/>

<!-- Row 1: Wazuh -->
<rect x="1010" y="604" width="372" height="28" rx="0" fill="rgba(255,255,255,0.0)"/>
<rect x="1020" y="614" width="6" height="6" rx="1" fill="#10b981"/>
<text x="1036" y="622" font-family="'Inter', 'Segoe UI', Arial, sans-serif" font-size="12" font-weight="600" fill="#cbd5e1">Wazuh</text>
<text x="1195" y="622" font-family="'Inter', 'Segoe UI', Arial, sans-serif" font-size="11" fill="#64748b">EDR / HIDS</text>
<text x="1382" y="622" font-family="'Inter', 'Segoe UI', Arial, sans-serif" font-size="11" text-anchor="end" fill="#10b981">8,421</text>
<line x1="1010" y1="632" x2="1384" y2="632" stroke="rgba(255,255,255,0.03)" stroke-width="1"/>

<!-- Row 2: Zeek -->
<rect x="1020" y="641" width="6" height="6" rx="1" fill="#10b981"/>
<text x="1036" y="649" font-family="'Inter', 'Segoe UI', Arial, sans-serif" font-size="12" font-weight="600" fill="#cbd5e1">Zeek</text>
<text x="1195" y="649" font-family="'Inter', 'Segoe UI', Arial, sans-serif" font-size="11" fill="#64748b">NDR</text>
<text x="1382" y="649" font-family="'Inter', 'Segoe UI', Arial, sans-serif" font-size="11" text-anchor="end" fill="#10b981">6,234</text>
<line x1="1010" y1="659" x2="1384" y2="659" stroke="rgba(255,255,255,0.03)" stroke-width="1"/>

<!-- Row 3: Suricata -->
<rect x="1020" y="668" width="6" height="6" rx="1" fill="#10b981"/>
<text x="1036" y="676" font-family="'Inter', 'Segoe UI', Arial, sans-serif" font-size="12" font-weight="600" fill="#cbd5e1">Suricata</text>
<text x="1195" y="676" font-family="'Inter', 'Segoe UI', Arial, sans-serif" font-size="11" fill="#64748b">IDS / IPS</text>
<text x="1382" y="676" font-family="'Inter', 'Segoe UI', Arial, sans-serif" font-size="11" text-anchor="end" fill="#10b981">4,182</text>
<line x1="1010" y1="686" x2="1384" y2="686" stroke="rgba(255,255,255,0.03)" stroke-width="1"/>

<!-- Row 4: Prowler -->
<rect x="1020" y="695" width="6" height="6" rx="1" fill="#10b981"/>
<text x="1036" y="703" font-family="'Inter', 'Segoe UI', Arial, sans-serif" font-size="12" font-weight="600" fill="#cbd5e1">Prowler</text>
<text x="1195" y="703" font-family="'Inter', 'Segoe UI', Arial, sans-serif" font-size="11" fill="#64748b">Cloud Sec</text>
<text x="1382" y="703" font-family="'Inter', 'Segoe UI', Arial, sans-serif" font-size="11" text-anchor="end" fill="#10b981">1,856</text>
<line x1="1010" y1="713" x2="1384" y2="713" stroke="rgba(255,255,255,0.03)" stroke-width="1"/>

<!-- Row 5: OpenCTI -->
<rect x="1020" y="722" width="6" height="6" rx="1" fill="#10b981"/>
<text x="1036" y="730" font-family="'Inter', 'Segoe UI', Arial, sans-serif" font-size="12" font-weight="600" fill="#cbd5e1">OpenCTI</text>
<text x="1195" y="730" font-family="'Inter', 'Segoe UI', Arial, sans-serif" font-size="11" fill="#64748b">Threat Intel</text>
<text x="1382" y="730" font-family="'Inter', 'Segoe UI', Arial, sans-serif" font-size="11" text-anchor="end" fill="#10b981">423</text>
<line x1="1010" y1="740" x2="1384" y2="740" stroke="rgba(255,255,255,0.03)" stroke-width="1"/>

<!-- Row 6: MxGuard (native) -->
<rect x="1010" y="740" width="372" height="27" rx="0" fill="rgba(37,99,235,0.04)"/>
<rect x="1020" y="749" width="6" height="6" rx="1" fill="#10b981"/>
<text x="1036" y="757" font-family="'Inter', 'Segoe UI', Arial, sans-serif" font-size="12" font-weight="600" fill="#60a5fa">MxGuard</text>
<text x="1195" y="757" font-family="'Inter', 'Segoe UI', Arial, sans-serif" font-size="11" fill="#64748b">Native EDR</text>
<text x="1382" y="757" font-family="'Inter', 'Segoe UI', Arial, sans-serif" font-size="11" text-anchor="end" fill="#10b981">3,298</text>
<line x1="1010" y1="767" x2="1384" y2="767" stroke="rgba(255,255,255,0.03)" stroke-width="1"/>

<!-- Row 7: MxWatch (native) -->
<rect x="1010" y="767" width="372" height="27" rx="0" fill="rgba(37,99,235,0.04)"/>
<rect x="1020" y="776" width="6" height="6" rx="1" fill="#10b981"/>
<text x="1036" y="784" font-family="'Inter', 'Segoe UI', Arial, sans-serif" font-size="12" font-weight="600" fill="#60a5fa">MxWatch</text>
<text x="1195" y="784" font-family="'Inter', 'Segoe UI', Arial, sans-serif" font-size="11" fill="#64748b">Native NDR</text>
<text x="1382" y="784" font-family="'Inter', 'Segoe UI', Arial, sans-serif" font-size="11" text-anchor="end" fill="#10b981">1,168</text>
<line x1="1010" y1="794" x2="1384" y2="794" stroke="rgba(255,255,255,0.03)" stroke-width="1"/>

<!-- Row 8: Shuffle OFFLINE -->
<rect x="1010" y="794" width="372" height="28" rx="0" fill="rgba(185,28,28,0.06)"/>
<rect x="1020" y="803" width="6" height="6" rx="1" fill="#ef4444"/>
<text x="1036" y="811" font-family="'Inter', 'Segoe UI', Arial, sans-serif" font-size="12" font-weight="600" fill="#64748b">Shuffle</text>
<text x="1195" y="811" font-family="'Inter', 'Segoe UI', Arial, sans-serif" font-size="11" fill="#64748b">SOAR</text>
<rect x="1330" y="800" width="54" height="16" rx="3" fill="rgba(185,28,28,0.25)"/>
<text x="1357" y="811" font-family="'Inter', 'Segoe UI', Arial, sans-serif" font-size="9.5" text-anchor="middle" letter-spacing="0.5" fill="#f87171" font-weight="700">OFFLINE</text>


<!-- ===== STATUS BAR ===== -->
<rect x="0" y="848" width="1400" height="52" fill="#080e1b"/>
<line x1="0" y1="848" x2="1400" y2="848" stroke="rgba(255,255,255,0.05)" stroke-width="1"/>

<!-- Left: system status -->
<rect x="16" y="868" width="8" height="8" rx="1" fill="#10b981"/>
<text x="30" y="876" font-family="'Inter', 'Segoe UI', Arial, sans-serif" font-size="11" fill="#10b981">All Systems Operational</text>
<text x="184" y="876" font-family="'Inter', 'Segoe UI', Arial, sans-serif" font-size="11" fill="#1e293b"> &#xB7; </text>
<text x="196" y="876" font-family="'Inter', 'Segoe UI', Arial, sans-serif" font-size="11" fill="#334155">MxTac v1.0.0</text>
<text x="264" y="876" font-family="'Inter', 'Segoe UI', Arial, sans-serif" font-size="11" fill="#1e293b"> &#xB7; </text>
<text x="276" y="876" font-family="'Inter', 'Segoe UI', Arial, sans-serif" font-size="11" fill="#334155">Sigma: 2,847 rules</text>
<text x="380" y="876" font-family="'Inter', 'Segoe UI', Arial, sans-serif" font-size="11" fill="#1e293b"> &#xB7; </text>
<text x="392" y="876" font-family="'Inter', 'Segoe UI', Arial, sans-serif" font-size="11" fill="#334155">ATT&amp;CK Enterprise v15</text>
<text x="528" y="876" font-family="'Inter', 'Segoe UI', Arial, sans-serif" font-size="11" fill="#1e293b"> &#xB7; </text>
<text x="540" y="876" font-family="'Inter', 'Segoe UI', Arial, sans-serif" font-size="11" fill="#334155">OpenSearch: 3 nodes</text>
<rect x="638" y="865" width="40" height="14" rx="2" fill="rgba(16,185,129,0.12)"/>
<text x="658" y="875" font-family="'Inter', 'Segoe UI', Arial, sans-serif" font-size="9.5" text-anchor="middle" fill="#10b981" font-weight="600">healthy</text>

<!-- Right: events/sec + timestamp -->
<text x="1388" y="863" font-family="'Inter', 'Segoe UI', Arial, sans-serif" font-size="10.5" text-anchor="end" fill="#334155">2026-02-19  UTC</text>
<text x="1296" y="881" font-family="'Inter', 'Segoe UI', Arial, sans-serif" font-size="10.5" text-anchor="end" fill="#475569">events / sec</text>
<text x="1388" y="881" font-family="'Inter', 'Segoe UI', Arial, sans-serif" font-size="15" font-weight="700" text-anchor="end" letter-spacing="-0.5" fill="#e2e8f0">25,582</text>

</svg>
