<svg xmlns="http://www.w3.org/2000/svg" width="1400" height="900" viewBox="0 0 1400 900">

<!-- ===== GLOBAL BACKGROUND ===== -->
<rect width="1400" height="900" fill="#0d1117"/>

<!-- ===== SIDEBAR ===== -->
<rect x="0" y="0" width="220" height="900" fill="#161b22"/>
<rect x="219" y="0" width="1" height="900" fill="#30363d"/>

<!-- Logo area -->
<path d="M18 16 L28 12 L38 16 L38 28 C38 34 28 40 28 40 C28 40 18 34 18 28 Z" fill="#388bfd" opacity="0.9"/>
<path d="M24 26 L27 29 L33 22" stroke="white" stroke-width="2" fill="none" stroke-linecap="round" stroke-linejoin="round"/>
<text x="48" y="32" font-family="'Segoe UI', Arial, sans-serif" font-size="20" font-weight="700" fill="#388bfd">MxTac</text>
<text x="48" y="48" font-family="'Segoe UI', Arial, sans-serif" font-size="11" fill="#8b949e">Security Platform</text>
<line x1="12" y1="64" x2="208" y2="64" stroke="#30363d" stroke-width="1"/>

<!-- NAV ITEMS -->
<!-- Dashboard (active) -->
<rect x="0" y="72" width="220" height="40" fill="#1c2128"/>
<rect x="0" y="72" width="3" height="40" fill="#388bfd"/>
<rect x="20" y="84" width="6" height="6" rx="1" fill="#388bfd"/>
<rect x="28" y="84" width="6" height="6" rx="1" fill="#388bfd"/>
<rect x="20" y="92" width="6" height="6" rx="1" fill="#388bfd"/>
<rect x="28" y="92" width="6" height="6" rx="1" fill="#388bfd"/>
<text x="44" y="96" font-family="'Segoe UI', Arial, sans-serif" font-size="13" font-weight="600" fill="#e6edf3">Dashboard</text>

<!-- Threat Hunt -->
<rect x="0" y="116" width="220" height="40" fill="transparent"/>
<circle cx="27" cy="136" r="7" fill="none" stroke="#8b949e" stroke-width="1.5"/>
<line x1="27" y1="126" x2="27" y2="130" stroke="#8b949e" stroke-width="1.5"/>
<line x1="27" y1="142" x2="27" y2="146" stroke="#8b949e" stroke-width="1.5"/>
<line x1="17" y1="136" x2="21" y2="136" stroke="#8b949e" stroke-width="1.5"/>
<line x1="33" y1="136" x2="37" y2="136" stroke="#8b949e" stroke-width="1.5"/>
<text x="44" y="140" font-family="'Segoe UI', Arial, sans-serif" font-size="13" fill="#8b949e">Threat Hunt</text>

<!-- ATT&CK Matrix -->
<rect x="0" y="160" width="220" height="40" fill="transparent"/>
<rect x="18" y="170" width="5" height="5" rx="0.5" fill="#8b949e"/>
<rect x="25" y="170" width="5" height="5" rx="0.5" fill="#8b949e"/>
<rect x="32" y="170" width="5" height="5" rx="0.5" fill="#8b949e"/>
<rect x="18" y="177" width="5" height="5" rx="0.5" fill="#8b949e"/>
<rect x="25" y="177" width="5" height="5" rx="0.5" fill="#8b949e"/>
<rect x="32" y="177" width="5" height="5" rx="0.5" fill="#8b949e"/>
<text x="44" y="184" font-family="'Segoe UI', Arial, sans-serif" font-size="13" fill="#8b949e">ATT&amp;CK Matrix</text>

<!-- Sigma Rules -->
<rect x="0" y="204" width="220" height="40" fill="transparent"/>
<text x="20" y="228" font-family="'Segoe UI', Arial, sans-serif" font-size="16" font-weight="700" fill="#8b949e">&#x3A3;</text>
<text x="44" y="228" font-family="'Segoe UI', Arial, sans-serif" font-size="13" fill="#8b949e">Sigma Rules</text>

<!-- Incidents -->
<rect x="0" y="248" width="220" height="40" fill="transparent"/>
<path d="M27 258 L35 272 L19 272 Z" fill="none" stroke="#8b949e" stroke-width="1.5"/>
<text x="44" y="272" font-family="'Segoe UI', Arial, sans-serif" font-size="13" fill="#8b949e">Incidents</text>
<circle cx="110" cy="268" r="9" fill="#f85149"/>
<text x="110" y="272" font-family="'Segoe UI', Arial, sans-serif" font-size="10" text-anchor="middle" fill="white" font-weight="600">12</text>

<!-- Threat Intel -->
<rect x="0" y="292" width="220" height="40" fill="transparent"/>
<circle cx="27" cy="312" r="8" fill="none" stroke="#8b949e" stroke-width="1.5"/>
<line x1="19" y1="312" x2="35" y2="312" stroke="#8b949e" stroke-width="1"/>
<ellipse cx="27" cy="312" rx="4" ry="8" fill="none" stroke="#8b949e" stroke-width="1"/>
<text x="44" y="316" font-family="'Segoe UI', Arial, sans-serif" font-size="13" fill="#8b949e">Threat Intel</text>

<!-- Assets -->
<rect x="0" y="336" width="220" height="40" fill="transparent"/>
<rect x="18" y="347" width="18" height="12" rx="2" fill="none" stroke="#8b949e" stroke-width="1.5"/>
<rect x="18" y="361" width="18" height="12" rx="2" fill="none" stroke="#8b949e" stroke-width="1.5"/>
<circle cx="32" cy="353" r="1.5" fill="#8b949e"/>
<circle cx="32" cy="367" r="1.5" fill="#8b949e"/>
<text x="44" y="360" font-family="'Segoe UI', Arial, sans-serif" font-size="13" fill="#8b949e">Assets</text>

<!-- Reports -->
<rect x="0" y="380" width="220" height="40" fill="transparent"/>
<rect x="19" y="390" width="16" height="20" rx="2" fill="none" stroke="#8b949e" stroke-width="1.5"/>
<line x1="23" y1="396" x2="31" y2="396" stroke="#8b949e" stroke-width="1"/>
<line x1="23" y1="400" x2="31" y2="400" stroke="#8b949e" stroke-width="1"/>
<line x1="23" y1="404" x2="28" y2="404" stroke="#8b949e" stroke-width="1"/>
<text x="44" y="404" font-family="'Segoe UI', Arial, sans-serif" font-size="13" fill="#8b949e">Reports</text>

<!-- Separator -->
<line x1="12" y1="432" x2="208" y2="432" stroke="#30363d" stroke-width="1"/>
<text x="16" y="450" font-family="'Segoe UI', Arial, sans-serif" font-size="10" letter-spacing="1" fill="#656d76" font-weight="600">CONNECTED TOOLS</text>

<!-- Tool Status Dots -->
<circle cx="22" cy="466" r="4" fill="#3fb950"/>
<text x="32" y="470" font-family="'Segoe UI', Arial, sans-serif" font-size="12" fill="#8b949e">Wazuh EDR</text>
<circle cx="22" cy="484" r="4" fill="#3fb950"/>
<text x="32" y="488" font-family="'Segoe UI', Arial, sans-serif" font-size="12" fill="#8b949e">Zeek NDR</text>
<circle cx="22" cy="502" r="4" fill="#3fb950"/>
<text x="32" y="506" font-family="'Segoe UI', Arial, sans-serif" font-size="12" fill="#8b949e">Suricata IDS</text>
<circle cx="22" cy="520" r="4" fill="#3fb950"/>
<text x="32" y="524" font-family="'Segoe UI', Arial, sans-serif" font-size="12" fill="#8b949e">Prowler Cloud</text>
<circle cx="22" cy="538" r="4" fill="#3fb950"/>
<text x="32" y="542" font-family="'Segoe UI', Arial, sans-serif" font-size="12" fill="#8b949e">OpenCTI</text>
<circle cx="22" cy="556" r="4" fill="#3fb950"/>
<text x="32" y="560" font-family="'Segoe UI', Arial, sans-serif" font-size="12" fill="#388bfd">MxGuard EDR</text>
<circle cx="22" cy="574" r="4" fill="#3fb950"/>
<text x="32" y="578" font-family="'Segoe UI', Arial, sans-serif" font-size="12" fill="#388bfd">MxWatch NDR</text>
<circle cx="22" cy="592" r="4" fill="#f85149"/>
<text x="32" y="596" font-family="'Segoe UI', Arial, sans-serif" font-size="12" fill="#8b949e">Shuffle SOAR</text>
<text x="148" y="596" font-family="'Segoe UI', Arial, sans-serif" font-size="10" fill="#f85149">OFFLINE</text>

<!-- Separator -->
<line x1="12" y1="614" x2="208" y2="614" stroke="#30363d" stroke-width="1"/>

<!-- USER PROFILE -->
<circle cx="30" cy="640" r="16" fill="#1c2b40"/>
<text x="30" y="645" font-family="'Segoe UI', Arial, sans-serif" font-size="14" font-weight="700" text-anchor="middle" fill="#388bfd">KH</text>
<text x="54" y="635" font-family="'Segoe UI', Arial, sans-serif" font-size="13" fill="#e6edf3">K. Choi</text>
<text x="54" y="649" font-family="'Segoe UI', Arial, sans-serif" font-size="11" fill="#8b949e">SOC Analyst</text>

<rect x="0" y="668" width="220" height="36" fill="transparent"/>
<circle cx="27" cy="686" r="6" fill="none" stroke="#656d76" stroke-width="1.5"/>
<circle cx="27" cy="686" r="2" fill="#656d76"/>
<text x="44" y="690" font-family="'Segoe UI', Arial, sans-serif" font-size="13" fill="#656d76">Settings</text>

<!-- ===== HEADER ===== -->
<rect x="220" y="0" width="1180" height="56" fill="#161b22"/>
<rect x="220" y="55" width="1180" height="1" fill="#30363d"/>

<!-- Breadcrumb -->
<text x="240" y="22" font-family="'Segoe UI', Arial, sans-serif" font-size="12" fill="#656d76">MxTac</text>
<text x="278" y="22" font-family="'Segoe UI', Arial, sans-serif" font-size="12" fill="#656d76"> / </text>
<text x="292" y="22" font-family="'Segoe UI', Arial, sans-serif" font-size="12" fill="#8b949e">Dashboard</text>

<!-- Main title -->
<text x="240" y="44" font-family="'Segoe UI', Arial, sans-serif" font-size="18" font-weight="700" fill="#e6edf3">Security Overview</text>

<!-- LIVE badge -->
<rect x="428" y="30" width="48" height="20" rx="4" fill="#1a2d1a"/>
<rect x="428" y="30" width="48" height="20" rx="4" fill="none" stroke="#3fb950" stroke-width="1"/>
<circle cx="440" cy="40" r="3.5" fill="#3fb950"/>
<text x="448" y="44" font-family="'Segoe UI', Arial, sans-serif" font-size="11" font-weight="600" fill="#3fb950">LIVE</text>

<!-- Time range selector -->
<rect x="1050" y="14" width="118" height="28" rx="6" fill="#1c2128"/>
<rect x="1050" y="14" width="118" height="28" rx="6" fill="none" stroke="#30363d" stroke-width="1"/>
<text x="1065" y="32" font-family="'Segoe UI', Arial, sans-serif" font-size="12" fill="#8b949e">Last 24 Hours</text>
<text x="1155" y="32" font-family="'Segoe UI', Arial, sans-serif" font-size="12" fill="#656d76">&#x25BE;</text>

<!-- Notification bell button -->
<rect x="1176" y="14" width="28" height="28" rx="6" fill="#1c2128"/>
<rect x="1176" y="14" width="28" height="28" rx="6" fill="none" stroke="#30363d" stroke-width="1"/>
<path d="M1190 20 C1187 20 1185 22 1185 25 L1185 29 L1183 30 L1197 30 L1195 29 L1195 25 C1195 22 1193 20 1190 20 Z" fill="#8b949e"/>
<rect x="1188" y="30" width="4" height="3" rx="2" fill="#8b949e"/>
<circle cx="1197" cy="18" r="4" fill="#f85149"/>
<text x="1197" y="21" font-family="'Segoe UI', Arial, sans-serif" font-size="7" text-anchor="middle" fill="white" font-weight="600">3</text>

<!-- Search button -->
<rect x="1212" y="14" width="28" height="28" rx="6" fill="#1c2128"/>
<rect x="1212" y="14" width="28" height="28" rx="6" fill="none" stroke="#30363d" stroke-width="1"/>
<circle cx="1223" cy="25" r="5" fill="none" stroke="#8b949e" stroke-width="1.5"/>
<line x1="1227" y1="29" x2="1231" y2="33" stroke="#8b949e" stroke-width="1.5" stroke-linecap="round"/>

<!-- User avatar button -->
<rect x="1248" y="14" width="28" height="28" rx="6" fill="#1c2b40"/>
<rect x="1248" y="14" width="28" height="28" rx="6" fill="none" stroke="#388bfd" stroke-width="1" opacity="0.5"/>
<text x="1262" y="32" font-family="'Segoe UI', Arial, sans-serif" font-size="11" font-weight="700" text-anchor="middle" fill="#388bfd">KH</text>

<!-- ===== KPI CARDS ===== -->

<!-- Card 1: Total Alerts (x=232, w=283) -->
<rect x="232" y="68" width="283" height="88" rx="8" fill="#1c2128"/>
<rect x="232" y="68" width="283" height="88" rx="8" fill="none" stroke="#30363d" stroke-width="1"/>
<text x="252" y="92" font-family="'Segoe UI', Arial, sans-serif" font-size="12" fill="#8b949e">Total Alerts</text>
<text x="252" y="124" font-family="'Segoe UI', Arial, sans-serif" font-size="28" font-weight="700" fill="#e6edf3">1,247</text>
<text x="252" y="146" font-family="'Segoe UI', Arial, sans-serif" font-size="11" fill="#d29922">&#x2191; +12% vs yesterday</text>
<!-- Mini bar chart icon -->
<rect x="480" y="82" width="4" height="12" rx="1" fill="#388bfd" opacity="0.4"/>
<rect x="486" y="78" width="4" height="16" rx="1" fill="#388bfd" opacity="0.6"/>
<rect x="492" y="74" width="4" height="20" rx="1" fill="#388bfd" opacity="0.8"/>
<rect x="498" y="70" width="4" height="24" rx="1" fill="#f85149"/>

<!-- Card 2: ATT&CK Coverage (x=523, w=283) -->
<rect x="523" y="68" width="283" height="88" rx="8" fill="#1c2128"/>
<rect x="523" y="68" width="283" height="88" rx="8" fill="none" stroke="#30363d" stroke-width="1"/>
<text x="543" y="92" font-family="'Segoe UI', Arial, sans-serif" font-size="12" fill="#8b949e">ATT&amp;CK Coverage</text>
<text x="543" y="124" font-family="'Segoe UI', Arial, sans-serif" font-size="28" font-weight="700" fill="#388bfd">73%</text>
<text x="597" y="124" font-family="'Segoe UI', Arial, sans-serif" font-size="13" fill="#8b949e"> 432/591</text>
<rect x="543" y="132" width="249" height="6" rx="3" fill="#30363d"/>
<rect x="543" y="132" width="182" height="6" rx="3" fill="#388bfd"/>
<text x="543" y="148" font-family="'Segoe UI', Arial, sans-serif" font-size="11" fill="#3fb950">&#x2191; +5% since last month</text>

<!-- Card 3: Active Threats (x=814, w=283) -->
<rect x="814" y="68" width="283" height="88" rx="8" fill="#1c2128"/>
<rect x="814" y="68" width="283" height="88" rx="8" fill="none" stroke="#30363d" stroke-width="1"/>
<text x="834" y="92" font-family="'Segoe UI', Arial, sans-serif" font-size="12" fill="#8b949e">Active Threats</text>
<text x="834" y="124" font-family="'Segoe UI', Arial, sans-serif" font-size="28" font-weight="700" fill="#f85149">12</text>
<rect x="870" y="108" width="42" height="18" rx="3" fill="#3d1a1a"/>
<text x="891" y="121" font-family="'Segoe UI', Arial, sans-serif" font-size="11" font-weight="600" text-anchor="middle" fill="#f85149">3 CRIT</text>
<rect x="918" y="108" width="42" height="18" rx="3" fill="#3d2e1a"/>
<text x="939" y="121" font-family="'Segoe UI', Arial, sans-serif" font-size="11" font-weight="600" text-anchor="middle" fill="#d29922">9 HIGH</text>
<text x="834" y="147" font-family="'Segoe UI', Arial, sans-serif" font-size="11" fill="#f85149">&#x26A0; Requires immediate attention</text>

<!-- Card 4: Tools Online (x=1105, w=283) -->
<rect x="1105" y="68" width="283" height="88" rx="8" fill="#1c2128"/>
<rect x="1105" y="68" width="283" height="88" rx="8" fill="none" stroke="#30363d" stroke-width="1"/>
<text x="1125" y="92" font-family="'Segoe UI', Arial, sans-serif" font-size="12" fill="#8b949e">Tools Online</text>
<text x="1125" y="124" font-family="'Segoe UI', Arial, sans-serif" font-size="28" font-weight="700" fill="#3fb950">7</text>
<text x="1157" y="124" font-family="'Segoe UI', Arial, sans-serif" font-size="20" fill="#656d76">/8</text>
<rect x="1125" y="130" width="249" height="20" rx="4" fill="#2a1a1a"/>
<rect x="1125" y="130" width="3" height="20" fill="#f85149" rx="2"/>
<text x="1136" y="144" font-family="'Segoe UI', Arial, sans-serif" font-size="11" fill="#f85149">Shuffle SOAR offline</text>

<!-- ===== ATT&CK COVERAGE CHART ===== -->
<rect x="232" y="168" width="762" height="360" rx="8" fill="#1c2128"/>
<rect x="232" y="168" width="762" height="360" rx="8" fill="none" stroke="#30363d" stroke-width="1"/>

<!-- Chart title row -->
<text x="252" y="194" font-family="'Segoe UI', Arial, sans-serif" font-size="14" font-weight="600" fill="#e6edf3">ATT&amp;CK Technique Coverage by Tactic</text>

<!-- Legend -->
<rect x="252" y="202" width="10" height="10" rx="2" fill="#3fb950"/>
<text x="266" y="211" font-family="'Segoe UI', Arial, sans-serif" font-size="11" fill="#8b949e">&gt;75%</text>
<rect x="306" y="202" width="10" height="10" rx="2" fill="#388bfd"/>
<text x="320" y="211" font-family="'Segoe UI', Arial, sans-serif" font-size="11" fill="#8b949e">60-75%</text>
<rect x="368" y="202" width="10" height="10" rx="2" fill="#d29922"/>
<text x="382" y="211" font-family="'Segoe UI', Arial, sans-serif" font-size="11" fill="#8b949e">30-60%</text>
<rect x="430" y="202" width="10" height="10" rx="2" fill="#f85149"/>
<text x="444" y="211" font-family="'Segoe UI', Arial, sans-serif" font-size="11" fill="#8b949e">&lt;30%</text>

<!-- Plot area: top y=218, bottom y=488, height=270, left x=293, right x=978 -->
<!-- Y-axis grid lines (dashed) at 25%, 50%, 75%, 100% -->
<line x1="293" y1="218" x2="978" y2="218" stroke="#30363d" stroke-width="1" stroke-dasharray="3,3"/>
<line x1="293" y1="286" x2="978" y2="286" stroke="#30363d" stroke-width="1" stroke-dasharray="3,3"/>
<line x1="293" y1="353" x2="978" y2="353" stroke="#30363d" stroke-width="1" stroke-dasharray="3,3"/>
<line x1="293" y1="421" x2="978" y2="421" stroke="#30363d" stroke-width="1" stroke-dasharray="3,3"/>
<line x1="293" y1="488" x2="978" y2="488" stroke="#30363d" stroke-width="1"/>

<!-- Y-axis labels -->
<text x="288" y="222" font-family="'Segoe UI', Arial, sans-serif" font-size="10" text-anchor="end" fill="#656d76">100%</text>
<text x="288" y="290" font-family="'Segoe UI', Arial, sans-serif" font-size="10" text-anchor="end" fill="#656d76">75%</text>
<text x="288" y="357" font-family="'Segoe UI', Arial, sans-serif" font-size="10" text-anchor="end" fill="#656d76">50%</text>
<text x="288" y="425" font-family="'Segoe UI', Arial, sans-serif" font-size="10" text-anchor="end" fill="#656d76">25%</text>
<text x="288" y="492" font-family="'Segoe UI', Arial, sans-serif" font-size="10" text-anchor="end" fill="#656d76">0%</text>

<!-- 14 TACTIC BARS -->
<!-- bar_x(i) = 302 + i*49, bar_w=36, bottom y=488, height = 270 * pct/100 -->
<!-- 0. Initial Access 68% → h=184, y=304 -->
<rect x="302" y="304" width="36" height="184" rx="2" fill="#388bfd"/>
<text x="320" y="300" font-family="'Segoe UI', Arial, sans-serif" font-size="9" text-anchor="middle" fill="#e6edf3">68%</text>
<!-- 1. Execution 82% → h=221, y=267 -->
<rect x="351" y="267" width="36" height="221" rx="2" fill="#3fb950"/>
<text x="369" y="263" font-family="'Segoe UI', Arial, sans-serif" font-size="9" text-anchor="middle" fill="#e6edf3">82%</text>
<!-- 2. Persistence 71% → h=192, y=296 -->
<rect x="400" y="296" width="36" height="192" rx="2" fill="#388bfd"/>
<text x="418" y="292" font-family="'Segoe UI', Arial, sans-serif" font-size="9" text-anchor="middle" fill="#e6edf3">71%</text>
<!-- 3. Privilege Escalation 65% → h=176, y=312 -->
<rect x="449" y="312" width="36" height="176" rx="2" fill="#388bfd"/>
<text x="467" y="308" font-family="'Segoe UI', Arial, sans-serif" font-size="9" text-anchor="middle" fill="#e6edf3">65%</text>
<!-- 4. Defense Evasion 42% → h=113, y=375 -->
<rect x="498" y="375" width="36" height="113" rx="2" fill="#d29922"/>
<text x="516" y="371" font-family="'Segoe UI', Arial, sans-serif" font-size="9" text-anchor="middle" fill="#e6edf3">42%</text>
<!-- 5. Credential Access 58% → h=157, y=331 -->
<rect x="547" y="331" width="36" height="157" rx="2" fill="#d29922"/>
<text x="565" y="327" font-family="'Segoe UI', Arial, sans-serif" font-size="9" text-anchor="middle" fill="#e6edf3">58%</text>
<!-- 6. Discovery 79% → h=213, y=275 -->
<rect x="596" y="275" width="36" height="213" rx="2" fill="#3fb950"/>
<text x="614" y="271" font-family="'Segoe UI', Arial, sans-serif" font-size="9" text-anchor="middle" fill="#e6edf3">79%</text>
<!-- 7. Lateral Movement 72% → h=194, y=294 -->
<rect x="645" y="294" width="36" height="194" rx="2" fill="#388bfd"/>
<text x="663" y="290" font-family="'Segoe UI', Arial, sans-serif" font-size="9" text-anchor="middle" fill="#e6edf3">72%</text>
<!-- 8. Collection 55% → h=149, y=339 -->
<rect x="694" y="339" width="36" height="149" rx="2" fill="#d29922"/>
<text x="712" y="335" font-family="'Segoe UI', Arial, sans-serif" font-size="9" text-anchor="middle" fill="#e6edf3">55%</text>
<!-- 9. C&C 85% → h=230, y=258 -->
<rect x="743" y="258" width="36" height="230" rx="2" fill="#3fb950"/>
<text x="761" y="254" font-family="'Segoe UI', Arial, sans-serif" font-size="9" text-anchor="middle" fill="#e6edf3">85%</text>
<!-- 10. Exfiltration 48% → h=130, y=358 -->
<rect x="792" y="358" width="36" height="130" rx="2" fill="#d29922"/>
<text x="810" y="354" font-family="'Segoe UI', Arial, sans-serif" font-size="9" text-anchor="middle" fill="#e6edf3">48%</text>
<!-- 11. Impact 35% → h=95, y=393 -->
<rect x="841" y="393" width="36" height="95" rx="2" fill="#d29922"/>
<text x="859" y="389" font-family="'Segoe UI', Arial, sans-serif" font-size="9" text-anchor="middle" fill="#e6edf3">35%</text>
<!-- 12. Reconnaissance 62% → h=167, y=321 -->
<rect x="890" y="321" width="36" height="167" rx="2" fill="#388bfd"/>
<text x="908" y="317" font-family="'Segoe UI', Arial, sans-serif" font-size="9" text-anchor="middle" fill="#e6edf3">62%</text>
<!-- 13. Resource Dev 28% → h=76, y=412 -->
<rect x="939" y="412" width="36" height="76" rx="2" fill="#f85149"/>
<text x="957" y="408" font-family="'Segoe UI', Arial, sans-serif" font-size="9" text-anchor="middle" fill="#e6edf3">28%</text>

<!-- X-axis labels (rotated 45 degrees) -->
<text transform="rotate(-45 320 506)" x="320" y="506" font-family="'Segoe UI', Arial, sans-serif" font-size="9" text-anchor="end" fill="#656d76">Init Access</text>
<text transform="rotate(-45 369 506)" x="369" y="506" font-family="'Segoe UI', Arial, sans-serif" font-size="9" text-anchor="end" fill="#656d76">Execution</text>
<text transform="rotate(-45 418 506)" x="418" y="506" font-family="'Segoe UI', Arial, sans-serif" font-size="9" text-anchor="end" fill="#656d76">Persistence</text>
<text transform="rotate(-45 467 506)" x="467" y="506" font-family="'Segoe UI', Arial, sans-serif" font-size="9" text-anchor="end" fill="#656d76">Priv Esc</text>
<text transform="rotate(-45 516 506)" x="516" y="506" font-family="'Segoe UI', Arial, sans-serif" font-size="9" text-anchor="end" fill="#656d76">Def Evasion</text>
<text transform="rotate(-45 565 506)" x="565" y="506" font-family="'Segoe UI', Arial, sans-serif" font-size="9" text-anchor="end" fill="#656d76">Cred Access</text>
<text transform="rotate(-45 614 506)" x="614" y="506" font-family="'Segoe UI', Arial, sans-serif" font-size="9" text-anchor="end" fill="#656d76">Discovery</text>
<text transform="rotate(-45 663 506)" x="663" y="506" font-family="'Segoe UI', Arial, sans-serif" font-size="9" text-anchor="end" fill="#656d76">Lat Move</text>
<text transform="rotate(-45 712 506)" x="712" y="506" font-family="'Segoe UI', Arial, sans-serif" font-size="9" text-anchor="end" fill="#656d76">Collection</text>
<text transform="rotate(-45 761 506)" x="761" y="506" font-family="'Segoe UI', Arial, sans-serif" font-size="9" text-anchor="end" fill="#656d76">Cmd &amp; Ctrl</text>
<text transform="rotate(-45 810 506)" x="810" y="506" font-family="'Segoe UI', Arial, sans-serif" font-size="9" text-anchor="end" fill="#656d76">Exfiltration</text>
<text transform="rotate(-45 859 506)" x="859" y="506" font-family="'Segoe UI', Arial, sans-serif" font-size="9" text-anchor="end" fill="#656d76">Impact</text>
<text transform="rotate(-45 908 506)" x="908" y="506" font-family="'Segoe UI', Arial, sans-serif" font-size="9" text-anchor="end" fill="#656d76">Recon</text>
<text transform="rotate(-45 957 506)" x="957" y="506" font-family="'Segoe UI', Arial, sans-serif" font-size="9" text-anchor="end" fill="#656d76">Res Dev</text>

<!-- ===== LIVE ALERT FEED ===== -->
<rect x="1002" y="168" width="386" height="360" rx="8" fill="#1c2128"/>
<rect x="1002" y="168" width="386" height="360" rx="8" fill="none" stroke="#30363d" stroke-width="1"/>

<text x="1022" y="194" font-family="'Segoe UI', Arial, sans-serif" font-size="14" font-weight="600" fill="#e6edf3">Live Alert Feed</text>
<rect x="1158" y="180" width="28" height="18" rx="9" fill="#f85149" opacity="0.25"/>
<text x="1172" y="192" font-family="'Segoe UI', Arial, sans-serif" font-size="11" text-anchor="middle" fill="#f85149" font-weight="600">6</text>
<text x="1380" y="194" font-family="'Segoe UI', Arial, sans-serif" font-size="12" fill="#388bfd" text-anchor="end">View All</text>
<line x1="1002" y1="202" x2="1388" y2="202" stroke="#30363d" stroke-width="1"/>

<!-- Alert 1: CRITICAL - PowerShell -->
<rect x="1002" y="203" width="386" height="53" fill="#1a1c25"/>
<rect x="1002" y="203" width="3" height="53" fill="#f85149"/>
<rect x="1018" y="216" width="36" height="16" rx="3" fill="#3d1a1a"/>
<text x="1036" y="228" font-family="'Segoe UI', Arial, sans-serif" font-size="10" text-anchor="middle" font-weight="700" fill="#f85149">CRIT</text>
<text x="1062" y="225" font-family="'Segoe UI', Arial, sans-serif" font-size="12" font-weight="600" fill="#e6edf3">PowerShell Encoded Cmd</text>
<text x="1062" y="240" font-family="'Segoe UI', Arial, sans-serif" font-size="11" fill="#8b949e">T1059.001 &#xB7; Wazuh EDR</text>
<text x="1379" y="225" font-family="'Segoe UI', Arial, sans-serif" font-size="11" text-anchor="end" fill="#656d76">2m ago</text>
<line x1="1005" y1="256" x2="1385" y2="256" stroke="#30363d" stroke-width="1"/>

<!-- Alert 2: HIGH - DNS Tunneling -->
<rect x="1002" y="257" width="386" height="53" fill="transparent"/>
<rect x="1002" y="257" width="3" height="53" fill="#d29922"/>
<rect x="1018" y="269" width="36" height="16" rx="3" fill="#3d2e1a"/>
<text x="1036" y="281" font-family="'Segoe UI', Arial, sans-serif" font-size="10" text-anchor="middle" font-weight="700" fill="#d29922">HIGH</text>
<text x="1062" y="278" font-family="'Segoe UI', Arial, sans-serif" font-size="12" font-weight="600" fill="#e6edf3">DNS Tunneling Detected</text>
<text x="1062" y="293" font-family="'Segoe UI', Arial, sans-serif" font-size="11" fill="#8b949e">T1568.002 &#xB7; MxWatch NDR</text>
<text x="1379" y="278" font-family="'Segoe UI', Arial, sans-serif" font-size="11" text-anchor="end" fill="#656d76">5m ago</text>
<line x1="1005" y1="310" x2="1385" y2="310" stroke="#30363d" stroke-width="1"/>

<!-- Alert 3: HIGH - SSH Brute Force -->
<rect x="1002" y="311" width="386" height="53" fill="#1a1c25"/>
<rect x="1002" y="311" width="3" height="53" fill="#d29922"/>
<rect x="1018" y="323" width="36" height="16" rx="3" fill="#3d2e1a"/>
<text x="1036" y="335" font-family="'Segoe UI', Arial, sans-serif" font-size="10" text-anchor="middle" font-weight="700" fill="#d29922">HIGH</text>
<text x="1062" y="332" font-family="'Segoe UI', Arial, sans-serif" font-size="12" font-weight="600" fill="#e6edf3">SSH Brute Force Attack</text>
<text x="1062" y="347" font-family="'Segoe UI', Arial, sans-serif" font-size="11" fill="#8b949e">T1110.001 &#xB7; MxWatch NDR</text>
<text x="1379" y="332" font-family="'Segoe UI', Arial, sans-serif" font-size="11" text-anchor="end" fill="#656d76">12m ago</text>
<line x1="1005" y1="364" x2="1385" y2="364" stroke="#30363d" stroke-width="1"/>

<!-- Alert 4: MEDIUM - Port Scan -->
<rect x="1002" y="365" width="386" height="53" fill="transparent"/>
<rect x="1002" y="365" width="3" height="53" fill="#a371f7"/>
<rect x="1018" y="377" width="36" height="16" rx="3" fill="#2a2a3d"/>
<text x="1036" y="389" font-family="'Segoe UI', Arial, sans-serif" font-size="10" text-anchor="middle" font-weight="700" fill="#a371f7">MED</text>
<text x="1062" y="386" font-family="'Segoe UI', Arial, sans-serif" font-size="12" font-weight="600" fill="#e6edf3">Port Scan 192.168.1.45</text>
<text x="1062" y="401" font-family="'Segoe UI', Arial, sans-serif" font-size="11" fill="#8b949e">T1046 &#xB7; Suricata IDS</text>
<text x="1379" y="386" font-family="'Segoe UI', Arial, sans-serif" font-size="11" text-anchor="end" fill="#656d76">18m ago</text>
<line x1="1005" y1="418" x2="1385" y2="418" stroke="#30363d" stroke-width="1"/>

<!-- Alert 5: MEDIUM - Process Injection -->
<rect x="1002" y="419" width="386" height="53" fill="#1a1c25"/>
<rect x="1002" y="419" width="3" height="53" fill="#a371f7"/>
<rect x="1018" y="431" width="36" height="16" rx="3" fill="#2a2a3d"/>
<text x="1036" y="443" font-family="'Segoe UI', Arial, sans-serif" font-size="10" text-anchor="middle" font-weight="700" fill="#a371f7">MED</text>
<text x="1062" y="440" font-family="'Segoe UI', Arial, sans-serif" font-size="12" font-weight="600" fill="#e6edf3">Process Injection Detected</text>
<text x="1062" y="455" font-family="'Segoe UI', Arial, sans-serif" font-size="11" fill="#8b949e">T1055.001 &#xB7; Wazuh EDR</text>
<text x="1379" y="440" font-family="'Segoe UI', Arial, sans-serif" font-size="11" text-anchor="end" fill="#656d76">25m ago</text>
<line x1="1005" y1="472" x2="1385" y2="472" stroke="#30363d" stroke-width="1"/>

<!-- Alert 6: LOW - Traffic Anomaly -->
<rect x="1002" y="473" width="386" height="55" fill="transparent"/>
<rect x="1002" y="473" width="3" height="55" fill="#3fb950"/>
<rect x="1018" y="485" width="36" height="16" rx="3" fill="#1a2d1a"/>
<text x="1036" y="497" font-family="'Segoe UI', Arial, sans-serif" font-size="10" text-anchor="middle" font-weight="700" fill="#3fb950">LOW</text>
<text x="1062" y="494" font-family="'Segoe UI', Arial, sans-serif" font-size="12" fill="#8b949e">Unusual Traffic Volume</text>
<text x="1062" y="509" font-family="'Segoe UI', Arial, sans-serif" font-size="11" fill="#656d76">T1041 &#xB7; MxWatch NDR</text>
<text x="1379" y="494" font-family="'Segoe UI', Arial, sans-serif" font-size="11" text-anchor="end" fill="#656d76">47m ago</text>

<!-- ===== DETECTION TIMELINE ===== -->
<rect x="232" y="540" width="762" height="307" rx="8" fill="#1c2128"/>
<rect x="232" y="540" width="762" height="307" rx="8" fill="none" stroke="#30363d" stroke-width="1"/>

<text x="252" y="566" font-family="'Segoe UI', Arial, sans-serif" font-size="14" font-weight="600" fill="#e6edf3">Detection Timeline - Last 24 Hours</text>
<text x="975" y="566" font-family="'Segoe UI', Arial, sans-serif" font-size="12" fill="#8b949e" text-anchor="end">1,247 total events</text>

<!-- Timeline plot: x=280, top y=582, bottom y=812, height=230 -->
<!-- Grid lines -->
<line x1="278" y1="582" x2="978" y2="582" stroke="#30363d" stroke-width="1" stroke-dasharray="3,3"/>
<line x1="278" y1="640" x2="978" y2="640" stroke="#30363d" stroke-width="1" stroke-dasharray="3,3"/>
<line x1="278" y1="697" x2="978" y2="697" stroke="#30363d" stroke-width="1" stroke-dasharray="3,3"/>
<line x1="278" y1="755" x2="978" y2="755" stroke="#30363d" stroke-width="1" stroke-dasharray="3,3"/>
<line x1="278" y1="812" x2="978" y2="812" stroke="#30363d" stroke-width="1"/>

<!-- Y-axis labels -->
<text x="274" y="586" font-family="'Segoe UI', Arial, sans-serif" font-size="10" text-anchor="end" fill="#656d76">110</text>
<text x="274" y="644" font-family="'Segoe UI', Arial, sans-serif" font-size="10" text-anchor="end" fill="#656d76">82</text>
<text x="274" y="701" font-family="'Segoe UI', Arial, sans-serif" font-size="10" text-anchor="end" fill="#656d76">55</text>
<text x="274" y="759" font-family="'Segoe UI', Arial, sans-serif" font-size="10" text-anchor="end" fill="#656d76">27</text>
<text x="274" y="816" font-family="'Segoe UI', Arial, sans-serif" font-size="10" text-anchor="end" fill="#656d76">0</text>

<!-- 24-hour bars: bar_x(i)=280+i*29, w=22, bottom=812, max_h=230 at val=110 -->
<!-- h(v) = 230*v/110 -->
<!-- 00: v=15, h=31, y=781 -->
<rect x="280" y="781" width="22" height="31" rx="2" fill="#388bfd" opacity="0.7"/>
<!-- 01: v=8, h=17, y=795 -->
<rect x="309" y="795" width="22" height="17" rx="2" fill="#388bfd" opacity="0.6"/>
<!-- 02: v=5, h=10, y=802 -->
<rect x="338" y="802" width="22" height="10" rx="2" fill="#388bfd" opacity="0.6"/>
<!-- 03: v=12, h=25, y=787 -->
<rect x="367" y="787" width="22" height="25" rx="2" fill="#388bfd" opacity="0.6"/>
<!-- 04: v=18, h=38, y=774 -->
<rect x="396" y="774" width="22" height="38" rx="2" fill="#388bfd" opacity="0.65"/>
<!-- 05: v=22, h=46, y=766 -->
<rect x="425" y="766" width="22" height="46" rx="2" fill="#388bfd" opacity="0.7"/>
<!-- 06: v=35, h=73, y=739 -->
<rect x="454" y="739" width="22" height="73" rx="2" fill="#388bfd" opacity="0.75"/>
<!-- 07: v=52, h=109, y=703 -->
<rect x="483" y="703" width="22" height="109" rx="2" fill="#388bfd" opacity="0.8"/>
<!-- 08: v=78, h=163, y=649 -->
<rect x="512" y="649" width="22" height="163" rx="2" fill="#388bfd" opacity="0.85"/>
<!-- 09: v=92, h=192, y=620 -->
<rect x="541" y="620" width="22" height="192" rx="2" fill="#388bfd" opacity="0.9"/>
<!-- 10: v=88, h=184, y=628 -->
<rect x="570" y="628" width="22" height="184" rx="2" fill="#388bfd" opacity="0.9"/>
<!-- 11: v=95, h=199, y=613 -->
<rect x="599" y="613" width="22" height="199" rx="2" fill="#388bfd"/>
<!-- 12: v=82, h=172, y=640 -->
<rect x="628" y="640" width="22" height="172" rx="2" fill="#388bfd" opacity="0.9"/>
<!-- 13: v=76, h=159, y=653 -->
<rect x="657" y="653" width="22" height="159" rx="2" fill="#388bfd" opacity="0.85"/>
<!-- 14: v=98, h=205, y=607 -->
<rect x="686" y="607" width="22" height="205" rx="2" fill="#388bfd"/>
<!-- 15 (PEAK): v=110, h=230, y=582 -->
<rect x="715" y="582" width="22" height="230" rx="2" fill="#f85149"/>
<text x="726" y="578" font-family="'Segoe UI', Arial, sans-serif" font-size="9" text-anchor="middle" fill="#f85149" font-weight="600">PEAK</text>
<!-- 16: v=102, h=213, y=599 -->
<rect x="744" y="599" width="22" height="213" rx="2" fill="#388bfd"/>
<!-- 17: v=88, h=184, y=628 -->
<rect x="773" y="628" width="22" height="184" rx="2" fill="#388bfd" opacity="0.9"/>
<!-- 18: v=72, h=151, y=661 -->
<rect x="802" y="661" width="22" height="151" rx="2" fill="#388bfd" opacity="0.85"/>
<!-- 19: v=58, h=121, y=691 -->
<rect x="831" y="691" width="22" height="121" rx="2" fill="#388bfd" opacity="0.8"/>
<!-- 20: v=45, h=94, y=718 -->
<rect x="860" y="718" width="22" height="94" rx="2" fill="#388bfd" opacity="0.75"/>
<!-- 21: v=32, h=67, y=745 -->
<rect x="889" y="745" width="22" height="67" rx="2" fill="#388bfd" opacity="0.7"/>
<!-- 22: v=25, h=52, y=760 -->
<rect x="918" y="760" width="22" height="52" rx="2" fill="#388bfd" opacity="0.65"/>
<!-- 23: v=18, h=38, y=774 -->
<rect x="947" y="774" width="22" height="38" rx="2" fill="#388bfd" opacity="0.65"/>

<!-- X-axis hour labels (every 4 hours) -->
<text x="291" y="828" font-family="'Segoe UI', Arial, sans-serif" font-size="10" text-anchor="middle" fill="#656d76">00:00</text>
<text x="396" y="828" font-family="'Segoe UI', Arial, sans-serif" font-size="10" text-anchor="middle" fill="#656d76">04:00</text>
<text x="512" y="828" font-family="'Segoe UI', Arial, sans-serif" font-size="10" text-anchor="middle" fill="#656d76">08:00</text>
<text x="628" y="828" font-family="'Segoe UI', Arial, sans-serif" font-size="10" text-anchor="middle" fill="#656d76">12:00</text>
<text x="726" y="828" font-family="'Segoe UI', Arial, sans-serif" font-size="10" text-anchor="middle" fill="#f85149">15:00</text>
<text x="744" y="828" font-family="'Segoe UI', Arial, sans-serif" font-size="10" text-anchor="middle" fill="#656d76">16:00</text>
<text x="860" y="828" font-family="'Segoe UI', Arial, sans-serif" font-size="10" text-anchor="middle" fill="#656d76">20:00</text>
<text x="958" y="828" font-family="'Segoe UI', Arial, sans-serif" font-size="10" text-anchor="middle" fill="#656d76">23:00</text>

<!-- ===== TOOL INTEGRATION STATUS ===== -->
<rect x="1002" y="540" width="386" height="307" rx="8" fill="#1c2128"/>
<rect x="1002" y="540" width="386" height="307" rx="8" fill="none" stroke="#30363d" stroke-width="1"/>

<text x="1022" y="566" font-family="'Segoe UI', Arial, sans-serif" font-size="14" font-weight="600" fill="#e6edf3">Integration Status</text>
<rect x="1306" y="553" width="76" height="20" rx="10" fill="#1a2d1a"/>
<text x="1344" y="566" font-family="'Segoe UI', Arial, sans-serif" font-size="11" text-anchor="middle" fill="#3fb950">7/8 Online</text>
<line x1="1002" y1="578" x2="1388" y2="578" stroke="#30363d" stroke-width="1"/>

<!-- Column headers -->
<text x="1040" y="595" font-family="'Segoe UI', Arial, sans-serif" font-size="10" fill="#656d76" letter-spacing="0.5">TOOL</text>
<text x="1200" y="595" font-family="'Segoe UI', Arial, sans-serif" font-size="10" fill="#656d76" letter-spacing="0.5">ROLE</text>
<text x="1382" y="595" font-family="'Segoe UI', Arial, sans-serif" font-size="10" fill="#656d76" text-anchor="end" letter-spacing="0.5">EPS</text>
<line x1="1010" y1="600" x2="1384" y2="600" stroke="#30363d" stroke-width="1"/>

<!-- Tool rows (30px each) -->
<!-- 1. Wazuh -->
<circle cx="1022" cy="619" r="5" fill="#3fb950"/>
<text x="1038" y="623" font-family="'Segoe UI', Arial, sans-serif" font-size="12" font-weight="600" fill="#e6edf3">Wazuh</text>
<text x="1200" y="623" font-family="'Segoe UI', Arial, sans-serif" font-size="11" fill="#8b949e">EDR / HIDS</text>
<text x="1382" y="623" font-family="'Segoe UI', Arial, sans-serif" font-size="11" text-anchor="end" fill="#3fb950">8,421</text>

<!-- 2. Zeek -->
<circle cx="1022" cy="649" r="5" fill="#3fb950"/>
<text x="1038" y="653" font-family="'Segoe UI', Arial, sans-serif" font-size="12" font-weight="600" fill="#e6edf3">Zeek</text>
<text x="1200" y="653" font-family="'Segoe UI', Arial, sans-serif" font-size="11" fill="#8b949e">NDR</text>
<text x="1382" y="653" font-family="'Segoe UI', Arial, sans-serif" font-size="11" text-anchor="end" fill="#3fb950">6,234</text>

<!-- 3. Suricata -->
<circle cx="1022" cy="679" r="5" fill="#3fb950"/>
<text x="1038" y="683" font-family="'Segoe UI', Arial, sans-serif" font-size="12" font-weight="600" fill="#e6edf3">Suricata</text>
<text x="1200" y="683" font-family="'Segoe UI', Arial, sans-serif" font-size="11" fill="#8b949e">IDS / IPS</text>
<text x="1382" y="683" font-family="'Segoe UI', Arial, sans-serif" font-size="11" text-anchor="end" fill="#3fb950">4,182</text>

<!-- 4. Prowler -->
<circle cx="1022" cy="709" r="5" fill="#3fb950"/>
<text x="1038" y="713" font-family="'Segoe UI', Arial, sans-serif" font-size="12" font-weight="600" fill="#e6edf3">Prowler</text>
<text x="1200" y="713" font-family="'Segoe UI', Arial, sans-serif" font-size="11" fill="#8b949e">Cloud Sec</text>
<text x="1382" y="713" font-family="'Segoe UI', Arial, sans-serif" font-size="11" text-anchor="end" fill="#3fb950">1,856</text>

<!-- 5. OpenCTI -->
<circle cx="1022" cy="739" r="5" fill="#3fb950"/>
<text x="1038" y="743" font-family="'Segoe UI', Arial, sans-serif" font-size="12" font-weight="600" fill="#e6edf3">OpenCTI</text>
<text x="1200" y="743" font-family="'Segoe UI', Arial, sans-serif" font-size="11" fill="#8b949e">Threat Intel</text>
<text x="1382" y="743" font-family="'Segoe UI', Arial, sans-serif" font-size="11" text-anchor="end" fill="#3fb950">423</text>

<!-- 6. MxGuard (native - highlighted blue) -->
<circle cx="1022" cy="769" r="5" fill="#3fb950"/>
<text x="1038" y="773" font-family="'Segoe UI', Arial, sans-serif" font-size="12" font-weight="600" fill="#388bfd">MxGuard</text>
<text x="1200" y="773" font-family="'Segoe UI', Arial, sans-serif" font-size="11" fill="#8b949e">Native EDR</text>
<text x="1382" y="773" font-family="'Segoe UI', Arial, sans-serif" font-size="11" text-anchor="end" fill="#3fb950">3,298</text>

<!-- 7. MxWatch (native - highlighted blue) -->
<circle cx="1022" cy="799" r="5" fill="#3fb950"/>
<text x="1038" y="803" font-family="'Segoe UI', Arial, sans-serif" font-size="12" font-weight="600" fill="#388bfd">MxWatch</text>
<text x="1200" y="803" font-family="'Segoe UI', Arial, sans-serif" font-size="11" fill="#8b949e">Native NDR</text>
<text x="1382" y="803" font-family="'Segoe UI', Arial, sans-serif" font-size="11" text-anchor="end" fill="#3fb950">1,168</text>

<!-- 8. Shuffle SOAR - OFFLINE -->
<circle cx="1022" cy="829" r="5" fill="#f85149"/>
<text x="1038" y="833" font-family="'Segoe UI', Arial, sans-serif" font-size="12" font-weight="600" fill="#8b949e">Shuffle</text>
<text x="1200" y="833" font-family="'Segoe UI', Arial, sans-serif" font-size="11" fill="#8b949e">SOAR</text>
<rect x="1338" y="821" width="48" height="18" rx="3" fill="#3d1a1a"/>
<text x="1362" y="834" font-family="'Segoe UI', Arial, sans-serif" font-size="11" text-anchor="middle" fill="#f85149">OFFLINE</text>

<!-- ===== STATUS BAR ===== -->
<rect x="0" y="847" width="1400" height="53" fill="#161b22"/>
<rect x="0" y="847" width="1400" height="1" fill="#30363d"/>

<!-- Left status info -->
<circle cx="20" cy="873" r="4" fill="#3fb950"/>
<text x="30" y="877" font-family="'Segoe UI', Arial, sans-serif" font-size="11" fill="#3fb950">All Systems Operational</text>
<text x="183" y="877" font-family="'Segoe UI', Arial, sans-serif" font-size="11" fill="#656d76"> &#xB7; </text>
<text x="195" y="877" font-family="'Segoe UI', Arial, sans-serif" font-size="11" fill="#656d76">MxTac v0.9.1-beta</text>
<text x="300" y="877" font-family="'Segoe UI', Arial, sans-serif" font-size="11" fill="#656d76"> &#xB7; </text>
<text x="312" y="877" font-family="'Segoe UI', Arial, sans-serif" font-size="11" fill="#656d76">Sigma: 2,847 rules</text>
<text x="420" y="877" font-family="'Segoe UI', Arial, sans-serif" font-size="11" fill="#656d76"> &#xB7; </text>
<text x="432" y="877" font-family="'Segoe UI', Arial, sans-serif" font-size="11" fill="#656d76">ATT&amp;CK Enterprise v15</text>
<text x="568" y="877" font-family="'Segoe UI', Arial, sans-serif" font-size="11" fill="#656d76"> &#xB7; </text>
<text x="580" y="877" font-family="'Segoe UI', Arial, sans-serif" font-size="11" fill="#656d76">OpenSearch: 3 nodes</text>
<text x="684" y="877" font-family="'Segoe UI', Arial, sans-serif" font-size="11" fill="#3fb950"> healthy</text>

<!-- Right side: events/sec + timestamp -->
<text x="1388" y="862" font-family="'Segoe UI', Arial, sans-serif" font-size="11" text-anchor="end" fill="#656d76">2026-02-18 UTC</text>
<text x="1320" y="882" font-family="'Segoe UI', Arial, sans-serif" font-size="11" text-anchor="end" fill="#656d76">events/sec</text>
<text x="1388" y="882" font-family="'Segoe UI', Arial, sans-serif" font-size="14" font-weight="700" text-anchor="end" fill="#e6edf3">25,582</text>

</svg>
