<svg xmlns="http://www.w3.org/2000/svg" viewBox="0 0 1400 900" width="1400" height="900" font-family="'Segoe UI', Inter, sans-serif">
  <defs>
    <linearGradient id="areaGrad" x1="0" y1="0" x2="0" y2="1">
      <stop offset="0%" stop-color="#0066CC" stop-opacity="0.25"/>
      <stop offset="100%" stop-color="#0066CC" stop-opacity="0.02"/>
    </linearGradient>
    <linearGradient id="areaGrad2" x1="0" y1="0" x2="0" y2="1">
      <stop offset="0%" stop-color="#E53935" stop-opacity="0.20"/>
      <stop offset="100%" stop-color="#E53935" stop-opacity="0.02"/>
    </linearGradient>
    <linearGradient id="sidebarGrad" x1="0" y1="0" x2="1" y2="0">
      <stop offset="0%" stop-color="#F0F4F9"/>
      <stop offset="100%" stop-color="#F7F9FB"/>
    </linearGradient>
    <filter id="shadow" x="-5%" y="-5%" width="110%" height="120%">
      <feDropShadow dx="0" dy="1" stdDeviation="2" flood-color="#00000018"/>
    </filter>
  </defs>

  <!-- Background -->
  <rect width="1400" height="900" fill="#F5F7FA"/>

  <!-- ── Icon-only sidebar ── -->
  <rect x="0" y="0" width="56" height="900" fill="url(#sidebarGrad)"/>
  <rect x="55" y="0" width="1" height="900" fill="#E0E6EF"/>

  <!-- Logo mark -->
  <rect x="12" y="14" width="32" height="32" rx="6" fill="#0066CC"/>
  <text x="28" y="35" text-anchor="middle" fill="white" font-size="14" font-weight="700">M</text>

  <!-- Nav icons -->
  <!-- Overview (active) -->
  <rect x="8" y="64" width="40" height="36" rx="6" fill="#0066CC"/>
  <text x="28" y="88" text-anchor="middle" fill="white" font-size="16">⊞</text>

  <!-- Threats -->
  <text x="28" y="134" text-anchor="middle" fill="#8090A8" font-size="16">⚡</text>
  <!-- ATT&CK -->
  <text x="28" y="176" text-anchor="middle" fill="#8090A8" font-size="16">⬡</text>
  <!-- Sigma -->
  <text x="28" y="218" text-anchor="middle" fill="#8090A8" font-size="16">σ</text>
  <!-- Incidents -->
  <text x="28" y="260" text-anchor="middle" fill="#8090A8" font-size="16">🔔</text>
  <!-- Intel -->
  <text x="28" y="302" text-anchor="middle" fill="#8090A8" font-size="16">🌐</text>
  <!-- Assets -->
  <text x="28" y="344" text-anchor="middle" fill="#8090A8" font-size="16">🖥</text>
  <!-- Reports -->
  <text x="28" y="386" text-anchor="middle" fill="#8090A8" font-size="16">📋</text>

  <!-- Settings at bottom -->
  <text x="28" y="860" text-anchor="middle" fill="#8090A8" font-size="16">⚙</text>
  <text x="28" y="830" text-anchor="middle" fill="#8090A8" font-size="16">?</text>

  <!-- ── Top header bar ── -->
  <rect x="56" y="0" width="1344" height="48" fill="white" filter="url(#shadow)"/>
  <rect x="56" y="47" width="1344" height="1" fill="#E4EAF2"/>

  <!-- Breadcrumb -->
  <text x="76" y="28" font-size="13" fill="#8090A8">MxTac</text>
  <text x="118" y="28" font-size="13" fill="#8090A8">/</text>
  <text x="130" y="28" font-size="13" fill="#1A2B44" font-weight="600">Security Overview</text>

  <!-- Right header controls -->
  <text x="1180" y="28" font-size="12" fill="#8090A8">Last refreshed: 14:32 UTC</text>
  <!-- Refresh btn -->
  <rect x="1305" y="12" width="26" height="26" rx="5" fill="#F0F4F9"/>
  <text x="1318" y="29" text-anchor="middle" font-size="13" fill="#5570A0">↻</text>
  <!-- Bell -->
  <rect x="1337" y="12" width="26" height="26" rx="5" fill="#F0F4F9"/>
  <text x="1350" y="29" text-anchor="middle" font-size="13" fill="#5570A0">🔔</text>
  <!-- Alert dot -->
  <circle cx="1362" cy="13" r="5" fill="#E53935"/>
  <!-- Avatar -->
  <circle cx="1382" cy="24" r="12" fill="#0066CC"/>
  <text x="1382" y="28" text-anchor="middle" font-size="11" fill="white" font-weight="600">KH</text>

  <!-- ── Tab navigation ── -->
  <rect x="56" y="48" width="1344" height="40" fill="white"/>
  <rect x="56" y="87" width="1344" height="1" fill="#E4EAF2"/>

  <rect x="76" y="60" width="110" height="28" rx="4" fill="white"/>
  <text x="131" y="78" text-anchor="middle" font-size="13" fill="#0066CC" font-weight="600">Overview</text>
  <rect x="76" y="87" width="110" height="2" fill="#0066CC"/>

  <text x="225" y="78" font-size="13" fill="#8090A8">Detections</text>
  <text x="340" y="78" font-size="13" fill="#8090A8">ATT&amp;CK Map</text>
  <text x="460" y="78" font-size="13" fill="#8090A8">Threat Intel</text>
  <text x="570" y="78" font-size="13" fill="#8090A8">Asset Risk</text>

  <!-- Date range right -->
  <rect x="1230" y="60" width="150" height="26" rx="5" fill="#F0F4F9" stroke="#D5DDE8" stroke-width="1"/>
  <text x="1305" y="77" text-anchor="middle" font-size="12" fill="#5570A0">Last 7 days  ▾</text>

  <!-- ── KPI row ── -->
  <!-- KPI 1: Total Detections -->
  <rect x="76" y="107" width="194" height="100" rx="8" fill="white" filter="url(#shadow)"/>
  <text x="96" y="128" font-size="11" fill="#8090A8" font-weight="500">TOTAL DETECTIONS</text>
  <text x="96" y="163" font-size="34" fill="#1A2B44" font-weight="700">2,847</text>
  <rect x="96" y="175" width="52" height="16" rx="8" fill="#FFF0F0"/>
  <text x="122" y="187" text-anchor="middle" font-size="10" fill="#E53935" font-weight="600">↑ 12.4%</text>
  <text x="158" y="187" font-size="10" fill="#8090A8">vs prev week</text>
  <rect x="224" y="107" width="4" height="100" rx="2" fill="#E53935"/>

  <!-- KPI 2: Critical Alerts -->
  <rect x="286" y="107" width="194" height="100" rx="8" fill="white" filter="url(#shadow)"/>
  <text x="306" y="128" font-size="11" fill="#8090A8" font-weight="500">CRITICAL ALERTS</text>
  <text x="306" y="163" font-size="34" fill="#1A2B44" font-weight="700">47</text>
  <rect x="306" y="175" width="52" height="16" rx="8" fill="#FFF0F0"/>
  <text x="332" y="187" text-anchor="middle" font-size="10" fill="#E53935" font-weight="600">↑ 8</text>
  <text x="368" y="187" font-size="10" fill="#8090A8">new today</text>
  <rect x="434" y="107" width="4" height="100" rx="2" fill="#FF6B00"/>

  <!-- KPI 3: ATT&CK Coverage -->
  <rect x="496" y="107" width="194" height="100" rx="8" fill="white" filter="url(#shadow)"/>
  <text x="516" y="128" font-size="11" fill="#8090A8" font-weight="500">ATT&amp;CK COVERAGE</text>
  <!-- Circle gauge -->
  <circle cx="620" cy="158" r="28" fill="none" stroke="#E4EAF2" stroke-width="6"/>
  <circle cx="620" cy="158" r="28" fill="none" stroke="#0066CC" stroke-width="6" stroke-dasharray="128 175" stroke-dashoffset="44" stroke-linecap="round" transform="rotate(-90 620 158)"/>
  <text x="620" y="163" text-anchor="middle" font-size="14" fill="#1A2B44" font-weight="700">73%</text>
  <text x="516" y="175" font-size="11" fill="#8090A8">187 / 256 techniques</text>
  <text x="516" y="193" font-size="10" fill="#00880A">↑ +6 this week</text>

  <!-- KPI 4: Mean Time to Detect -->
  <rect x="706" y="107" width="194" height="100" rx="8" fill="white" filter="url(#shadow)"/>
  <text x="726" y="128" font-size="11" fill="#8090A8" font-weight="500">MEAN TIME TO DETECT</text>
  <text x="726" y="163" font-size="34" fill="#1A2B44" font-weight="700">4.2</text>
  <text x="793" y="163" font-size="16" fill="#8090A8">min</text>
  <rect x="726" y="175" width="52" height="16" rx="8" fill="#F0FAF0"/>
  <text x="752" y="187" text-anchor="middle" font-size="10" fill="#00880A" font-weight="600">↓ 0.8m</text>
  <text x="787" y="187" font-size="10" fill="#8090A8">improved</text>

  <!-- KPI 5: Active Integrations -->
  <rect x="916" y="107" width="194" height="100" rx="8" fill="white" filter="url(#shadow)"/>
  <text x="936" y="128" font-size="11" fill="#8090A8" font-weight="500">ACTIVE INTEGRATIONS</text>
  <text x="936" y="163" font-size="34" fill="#1A2B44" font-weight="700">7</text>
  <text x="980" y="163" font-size="16" fill="#8090A8">/ 8</text>
  <rect x="936" y="180" width="154" height="6" rx="3" fill="#E4EAF2"/>
  <rect x="936" y="180" width="135" height="6" rx="3" fill="#0066CC"/>
  <text x="936" y="200" font-size="10" fill="#FF6B00">⚠ Splunk: auth error</text>

  <!-- KPI 6: Sigma Rules -->
  <rect x="1126" y="107" width="194" height="100" rx="8" fill="white" filter="url(#shadow)"/>
  <text x="1146" y="128" font-size="11" fill="#8090A8" font-weight="500">SIGMA RULES ACTIVE</text>
  <text x="1146" y="163" font-size="34" fill="#1A2B44" font-weight="700">1,204</text>
  <text x="1146" y="181" font-size="10" fill="#8090A8">312 critical  ·  460 high</text>
  <text x="1146" y="197" font-size="10" fill="#00880A">↑ 18 new rules deployed</text>

  <!-- ── Row 2: Detection Timeline (left) + Top Tactics (right) ── -->

  <!-- Detection Timeline -->
  <rect x="76" y="224" width="720" height="240" rx="8" fill="white" filter="url(#shadow)"/>
  <text x="96" y="248" font-size="13" fill="#1A2B44" font-weight="600">Detection Timeline</text>
  <text x="96" y="263" font-size="11" fill="#8090A8">Alerts over past 7 days by severity</text>

  <!-- Legend -->
  <rect x="620" y="238" width="10" height="10" rx="2" fill="#E53935"/>
  <text x="635" y="248" font-size="11" fill="#8090A8">Critical</text>
  <rect x="690" y="238" width="10" height="10" rx="2" fill="#FF6B00"/>
  <text x="705" y="248" font-size="11" fill="#8090A8">High</text>
  <rect x="748" y="238" width="10" height="10" rx="2" fill="#0066CC"/>
  <text x="763" y="248" font-size="11" fill="#8090A8">Medium</text>

  <!-- Y axis labels -->
  <text x="88" y="295" font-size="10" fill="#B0BECC">500</text>
  <text x="88" y="325" font-size="10" fill="#B0BECC">375</text>
  <text x="88" y="355" font-size="10" fill="#B0BECC">250</text>
  <text x="88" y="385" font-size="10" fill="#B0BECC">125</text>
  <text x="96" y="430" font-size="10" fill="#B0BECC">0</text>

  <!-- Grid lines -->
  <line x1="110" y1="290" x2="760" y2="290" stroke="#F0F4F9" stroke-width="1"/>
  <line x1="110" y1="320" x2="760" y2="320" stroke="#F0F4F9" stroke-width="1"/>
  <line x1="110" y1="350" x2="760" y2="350" stroke="#F0F4F9" stroke-width="1"/>
  <line x1="110" y1="380" x2="760" y2="380" stroke="#F0F4F9" stroke-width="1"/>
  <line x1="110" y1="425" x2="760" y2="425" stroke="#E4EAF2" stroke-width="1"/>

  <!-- Date labels -->
  <text x="133" y="440" text-anchor="middle" font-size="10" fill="#8090A8">Feb 13</text>
  <text x="223" y="440" text-anchor="middle" font-size="10" fill="#8090A8">Feb 14</text>
  <text x="313" y="440" text-anchor="middle" font-size="10" fill="#8090A8">Feb 15</text>
  <text x="403" y="440" text-anchor="middle" font-size="10" fill="#8090A8">Feb 16</text>
  <text x="493" y="440" text-anchor="middle" font-size="10" fill="#8090A8">Feb 17</text>
  <text x="583" y="440" text-anchor="middle" font-size="10" fill="#8090A8">Feb 18</text>
  <text x="673" y="440" text-anchor="middle" font-size="10" fill="#8090A8">Feb 19</text>

  <!-- Area: Medium (bottom layer) -->
  <polygon points="110,395 200,388 290,392 380,375 470,368 560,382 650,370 740,360 740,425 110,425" fill="url(#areaGrad)" opacity="0.7"/>
  <polyline points="110,395 200,388 290,392 380,375 470,368 560,382 650,370 740,360" fill="none" stroke="#0066CC" stroke-width="1.5"/>

  <!-- Area: High -->
  <polygon points="110,370 200,355 290,362 380,340 470,330 560,348 650,335 740,320 740,360 650,370 560,382 470,368 380,375 290,392 200,388 110,395" fill="url(#areaGrad)" opacity="0.4"/>
  <polyline points="110,370 200,355 290,362 380,340 470,330 560,348 650,335 740,320" fill="none" stroke="#FF6B00" stroke-width="1.5"/>

  <!-- Area: Critical (top) -->
  <polygon points="110,405 200,390 290,397 380,360 470,310 560,345 650,355 740,340 740,320 650,335 560,348 470,330 380,340 290,362 200,355 110,370" fill="url(#areaGrad2)" opacity="0.5"/>
  <polyline points="110,405 200,390 290,397 380,360 470,310 560,345 650,355 740,340" fill="none" stroke="#E53935" stroke-width="2"/>

  <!-- Spike annotation -->
  <line x1="470" y1="290" x2="470" y2="310" stroke="#E53935" stroke-width="1" stroke-dasharray="3,2"/>
  <rect x="435" y="275" width="70" height="16" rx="3" fill="#E53935"/>
  <text x="470" y="287" text-anchor="middle" font-size="9" fill="white">Spike: 187 crit</text>

  <!-- Top Tactics panel -->
  <rect x="812" y="224" width="508" height="240" rx="8" fill="white" filter="url(#shadow)"/>
  <text x="832" y="248" font-size="13" fill="#1A2B44" font-weight="600">Top ATT&amp;CK Tactics</text>
  <text x="832" y="263" font-size="11" fill="#8090A8">Detections by tactic this week</text>

  <!-- Tactic rows -->
  <!-- Header -->
  <text x="832" y="286" font-size="10" fill="#8090A8" font-weight="600">TACTIC</text>
  <text x="1100" y="286" font-size="10" fill="#8090A8" font-weight="600">COUNT</text>
  <text x="1200" y="286" font-size="10" fill="#8090A8" font-weight="600">TREND</text>
  <line x1="832" y1="292" x2="1300" y2="292" stroke="#E4EAF2" stroke-width="1"/>

  <!-- Row 1 -->
  <rect x="832" y="295" width="3" height="22" rx="1" fill="#E53935"/>
  <text x="842" y="311" font-size="12" fill="#1A2B44">Execution</text>
  <rect x="880" y="300" width="200" height="10" rx="5" fill="#F0F4F9"/>
  <rect x="880" y="300" width="180" height="10" rx="5" fill="#E53935" opacity="0.8"/>
  <text x="1105" y="311" font-size="12" fill="#1A2B44" font-weight="600">634</text>
  <text x="1205" y="311" font-size="11" fill="#E53935">↑ 18%</text>
  <line x1="832" y1="320" x2="1300" y2="320" stroke="#F5F7FA" stroke-width="1"/>

  <!-- Row 2 -->
  <rect x="832" y="323" width="3" height="22" rx="1" fill="#FF6B00"/>
  <text x="842" y="339" font-size="12" fill="#1A2B44">Defense Evasion</text>
  <rect x="880" y="328" width="200" height="10" rx="5" fill="#F0F4F9"/>
  <rect x="880" y="328" width="155" height="10" rx="5" fill="#FF6B00" opacity="0.8"/>
  <text x="1105" y="339" font-size="12" fill="#1A2B44" font-weight="600">547</text>
  <text x="1205" y="339" font-size="11" fill="#FF6B00">↑ 9%</text>
  <line x1="832" y1="348" x2="1300" y2="348" stroke="#F5F7FA" stroke-width="1"/>

  <!-- Row 3 -->
  <rect x="832" y="351" width="3" height="22" rx="1" fill="#CC8800"/>
  <text x="842" y="367" font-size="12" fill="#1A2B44">Credential Access</text>
  <rect x="880" y="356" width="200" height="10" rx="5" fill="#F0F4F9"/>
  <rect x="880" y="356" width="130" height="10" rx="5" fill="#CC8800" opacity="0.8"/>
  <text x="1105" y="367" font-size="12" fill="#1A2B44" font-weight="600">461</text>
  <text x="1205" y="367" font-size="11" fill="#CC8800">↑ 5%</text>
  <line x1="832" y1="376" x2="1300" y2="376" stroke="#F5F7FA" stroke-width="1"/>

  <!-- Row 4 -->
  <rect x="832" y="379" width="3" height="22" rx="1" fill="#0066CC"/>
  <text x="842" y="395" font-size="12" fill="#1A2B44">Lateral Movement</text>
  <rect x="880" y="384" width="200" height="10" rx="5" fill="#F0F4F9"/>
  <rect x="880" y="384" width="108" height="10" rx="5" fill="#0066CC" opacity="0.8"/>
  <text x="1105" y="395" font-size="12" fill="#1A2B44" font-weight="600">382</text>
  <text x="1205" y="395" font-size="11" fill="#E53935">↑ 22%</text>
  <line x1="832" y1="404" x2="1300" y2="404" stroke="#F5F7FA" stroke-width="1"/>

  <!-- Row 5 -->
  <rect x="832" y="407" width="3" height="22" rx="1" fill="#6B40CC"/>
  <text x="842" y="423" font-size="12" fill="#1A2B44">Persistence</text>
  <rect x="880" y="412" width="200" height="10" rx="5" fill="#F0F4F9"/>
  <rect x="880" y="412" width="92" height="10" rx="5" fill="#6B40CC" opacity="0.8"/>
  <text x="1105" y="423" font-size="12" fill="#1A2B44" font-weight="600">324</text>
  <text x="1205" y="423" font-size="11" fill="#00880A">↓ 3%</text>
  <line x1="832" y1="432" x2="1300" y2="432" stroke="#F5F7FA" stroke-width="1"/>

  <!-- Row 6 -->
  <rect x="832" y="435" width="3" height="22" rx="1" fill="#009688"/>
  <text x="842" y="451" font-size="12" fill="#1A2B44">Command &amp; Control</text>
  <rect x="880" y="440" width="200" height="10" rx="5" fill="#F0F4F9"/>
  <rect x="880" y="440" width="80" height="10" rx="5" fill="#009688" opacity="0.8"/>
  <text x="1105" y="451" font-size="12" fill="#1A2B44" font-weight="600">284</text>
  <text x="1205" y="451" font-size="11" fill="#8090A8">→ 0%</text>

  <!-- ── Row 3: ATT&CK Coverage Matrix (left) ── -->
  <rect x="76" y="480" width="456" height="280" rx="8" fill="white" filter="url(#shadow)"/>
  <text x="96" y="504" font-size="13" fill="#1A2B44" font-weight="600">ATT&amp;CK Technique Coverage</text>
  <text x="96" y="519" font-size="11" fill="#8090A8">Techniques with active Sigma rules</text>

  <!-- Tactic columns header -->
  <text x="100" y="542" font-size="9" fill="#8090A8" font-weight="600">RECON</text>
  <text x="148" y="542" font-size="9" fill="#8090A8" font-weight="600">RESOURCE</text>
  <text x="204" y="542" font-size="9" fill="#8090A8" font-weight="600">INIT</text>
  <text x="242" y="542" font-size="9" fill="#8090A8" font-weight="600">EXEC</text>
  <text x="282" y="542" font-size="9" fill="#8090A8" font-weight="600">PERSIST</text>
  <text x="334" y="542" font-size="9" fill="#8090A8" font-weight="600">PRIV-ESC</text>
  <text x="388" y="542" font-size="9" fill="#8090A8" font-weight="600">DEF-EVA</text>
  <text x="438" y="542" font-size="9" fill="#8090A8" font-weight="600">CRED</text>

  <!-- Coverage mini heat cells row 1 -->
  <!-- RECON row -->
  <rect x="96" y="547" width="36" height="18" rx="3" fill="#CCE0FF"/>
  <text x="114" y="559" text-anchor="middle" font-size="8" fill="#004499">4/9</text>
  <rect x="144" y="547" width="36" height="18" rx="3" fill="#CCE0FF"/>
  <text x="162" y="559" text-anchor="middle" font-size="8" fill="#004499">3/6</text>
  <rect x="192" y="547" width="36" height="18" rx="3" fill="#0066CC"/>
  <text x="210" y="559" text-anchor="middle" font-size="8" fill="white">9/9</text>
  <rect x="240" y="547" width="36" height="18" rx="3" fill="#0066CC"/>
  <text x="258" y="559" text-anchor="middle" font-size="8" fill="white">12/14</text>
  <rect x="288" y="547" width="36" height="18" rx="3" fill="#4D9EE8"/>
  <text x="306" y="559" text-anchor="middle" font-size="8" fill="white">7/12</text>
  <rect x="336" y="547" width="36" height="18" rx="3" fill="#4D9EE8"/>
  <text x="354" y="559" text-anchor="middle" font-size="8" fill="white">6/11</text>
  <rect x="384" y="547" width="36" height="18" rx="3" fill="#0066CC"/>
  <text x="402" y="559" text-anchor="middle" font-size="8" fill="white">14/17</text>
  <rect x="432" y="547" width="36" height="18" rx="3" fill="#CCE0FF"/>
  <text x="450" y="559" text-anchor="middle" font-size="8" fill="#004499">5/14</text>

  <!-- Row 2 -->
  <rect x="96" y="570" width="36" height="18" rx="3" fill="#4D9EE8"/>
  <text x="114" y="582" text-anchor="middle" font-size="8" fill="white">6/9</text>
  <rect x="144" y="570" width="36" height="18" rx="3" fill="#E8F0FA"/>
  <text x="162" y="582" text-anchor="middle" font-size="8" fill="#8090A8">2/6</text>
  <rect x="192" y="570" width="36" height="18" rx="3" fill="#0066CC"/>
  <text x="210" y="582" text-anchor="middle" font-size="8" fill="white">8/9</text>
  <rect x="240" y="570" width="36" height="18" rx="3" fill="#0066CC"/>
  <text x="258" y="582" text-anchor="middle" font-size="8" fill="white">13/14</text>
  <rect x="288" y="570" width="36" height="18" rx="3" fill="#CCE0FF"/>
  <text x="306" y="582" text-anchor="middle" font-size="8" fill="#004499">5/12</text>
  <rect x="336" y="570" width="36" height="18" rx="3" fill="#0066CC"/>
  <text x="354" y="582" text-anchor="middle" font-size="8" fill="white">9/11</text>
  <rect x="384" y="570" width="36" height="18" rx="3" fill="#4D9EE8"/>
  <text x="402" y="582" text-anchor="middle" font-size="8" fill="white">10/17</text>
  <rect x="432" y="570" width="36" height="18" rx="3" fill="#CCE0FF"/>
  <text x="450" y="582" text-anchor="middle" font-size="8" fill="#004499">6/14</text>

  <!-- Row 3 -->
  <rect x="96" y="593" width="36" height="18" rx="3" fill="#E8F0FA"/>
  <text x="114" y="605" text-anchor="middle" font-size="8" fill="#8090A8">2/9</text>
  <rect x="144" y="593" width="36" height="18" rx="3" fill="#E8F0FA"/>
  <text x="162" y="605" text-anchor="middle" font-size="8" fill="#8090A8">1/6</text>
  <rect x="192" y="593" width="36" height="18" rx="3" fill="#4D9EE8"/>
  <text x="210" y="605" text-anchor="middle" font-size="8" fill="white">7/9</text>
  <rect x="240" y="593" width="36" height="18" rx="3" fill="#0066CC"/>
  <text x="258" y="605" text-anchor="middle" font-size="8" fill="white">11/14</text>
  <rect x="288" y="593" width="36" height="18" rx="3" fill="#4D9EE8"/>
  <text x="306" y="605" text-anchor="middle" font-size="8" fill="white">8/12</text>
  <rect x="336" y="593" width="36" height="18" rx="3" fill="#CCE0FF"/>
  <text x="354" y="605" text-anchor="middle" font-size="8" fill="#004499">4/11</text>
  <rect x="384" y="593" width="36" height="18" rx="3" fill="#0066CC"/>
  <text x="402" y="605" text-anchor="middle" font-size="8" fill="white">15/17</text>
  <rect x="432" y="593" width="36" height="18" rx="3" fill="#4D9EE8"/>
  <text x="450" y="605" text-anchor="middle" font-size="8" fill="white">8/14</text>

  <!-- Row 4 -->
  <rect x="96" y="616" width="36" height="18" rx="3" fill="#E8F0FA"/>
  <text x="114" y="628" text-anchor="middle" font-size="8" fill="#8090A8">1/9</text>
  <rect x="144" y="616" width="36" height="18" rx="3" fill="#CCE0FF"/>
  <text x="162" y="628" text-anchor="middle" font-size="8" fill="#004499">3/6</text>
  <rect x="192" y="616" width="36" height="18" rx="3" fill="#4D9EE8"/>
  <text x="210" y="628" text-anchor="middle" font-size="8" fill="white">6/9</text>
  <rect x="240" y="616" width="36" height="18" rx="3" fill="#4D9EE8"/>
  <text x="258" y="628" text-anchor="middle" font-size="8" fill="white">9/14</text>
  <rect x="288" y="616" width="36" height="18" rx="3" fill="#CCE0FF"/>
  <text x="306" y="628" text-anchor="middle" font-size="8" fill="#004499">4/12</text>
  <rect x="336" y="616" width="36" height="18" rx="3" fill="#4D9EE8"/>
  <text x="354" y="628" text-anchor="middle" font-size="8" fill="white">7/11</text>
  <rect x="384" y="616" width="36" height="18" rx="3" fill="#0066CC"/>
  <text x="402" y="628" text-anchor="middle" font-size="8" fill="white">12/17</text>
  <rect x="432" y="616" width="36" height="18" rx="3" fill="#E8F0FA"/>
  <text x="450" y="628" text-anchor="middle" font-size="8" fill="#8090A8">3/14</text>

  <!-- Legend -->
  <text x="96" y="660" font-size="10" fill="#8090A8">Coverage:</text>
  <rect x="150" y="651" width="18" height="12" rx="2" fill="#E8F0FA"/>
  <text x="173" y="661" font-size="9" fill="#8090A8">Low</text>
  <rect x="198" y="651" width="18" height="12" rx="2" fill="#CCE0FF"/>
  <text x="221" y="661" font-size="9" fill="#8090A8">Med</text>
  <rect x="248" y="651" width="18" height="12" rx="2" fill="#4D9EE8"/>
  <text x="271" y="661" font-size="9" fill="#8090A8">High</text>
  <rect x="298" y="651" width="18" height="12" rx="2" fill="#0066CC"/>
  <text x="321" y="661" font-size="9" fill="#8090A8">Full</text>

  <!-- Coverage summary bar chart -->
  <text x="96" y="690" font-size="11" fill="#8090A8">By tactic: techniques covered / total</text>
  <!-- Bars -->
  <rect x="96" y="695" width="36" height="40" rx="2" fill="#E4EAF2"/>
  <rect x="96" y="709" width="36" height="26" rx="2" fill="#0066CC"/>
  <text x="114" y="745" text-anchor="middle" font-size="8" fill="#8090A8">RECON</text>

  <rect x="140" y="695" width="36" height="40" rx="2" fill="#E4EAF2"/>
  <rect x="140" y="715" width="36" height="20" rx="2" fill="#4D9EE8"/>
  <text x="158" y="745" text-anchor="middle" font-size="8" fill="#8090A8">RES</text>

  <rect x="184" y="695" width="36" height="40" rx="2" fill="#E4EAF2"/>
  <rect x="184" y="696" width="36" height="39" rx="2" fill="#0066CC"/>
  <text x="202" y="745" text-anchor="middle" font-size="8" fill="#8090A8">INIT</text>

  <rect x="228" y="695" width="36" height="40" rx="2" fill="#E4EAF2"/>
  <rect x="228" y="697" width="36" height="37" rx="2" fill="#0066CC"/>
  <text x="246" y="745" text-anchor="middle" font-size="8" fill="#8090A8">EXEC</text>

  <rect x="272" y="695" width="36" height="40" rx="2" fill="#E4EAF2"/>
  <rect x="272" y="709" width="36" height="26" rx="2" fill="#CCE0FF"/>
  <text x="290" y="745" text-anchor="middle" font-size="8" fill="#8090A8">PERS</text>

  <rect x="316" y="695" width="36" height="40" rx="2" fill="#E4EAF2"/>
  <rect x="316" y="705" width="36" height="30" rx="2" fill="#4D9EE8"/>
  <text x="334" y="745" text-anchor="middle" font-size="8" fill="#8090A8">PRIV</text>

  <rect x="360" y="695" width="36" height="40" rx="2" fill="#E4EAF2"/>
  <rect x="360" y="698" width="36" height="37" rx="2" fill="#0066CC"/>
  <text x="378" y="745" text-anchor="middle" font-size="8" fill="#8090A8">DEF-E</text>

  <rect x="404" y="695" width="36" height="40" rx="2" fill="#E4EAF2"/>
  <rect x="404" y="716" width="36" height="19" rx="2" fill="#CCE0FF"/>
  <text x="422" y="745" text-anchor="middle" font-size="8" fill="#8090A8">CRED</text>

  <!-- ── Recent Critical Detections table ── -->
  <rect x="548" y="480" width="772" height="280" rx="8" fill="white" filter="url(#shadow)"/>
  <text x="568" y="504" font-size="13" fill="#1A2B44" font-weight="600">Recent Critical Detections</text>
  <text x="568" y="519" font-size="11" fill="#8090A8">Top severity alerts in the last 24 hours</text>

  <!-- View all link -->
  <text x="1284" y="504" font-size="12" fill="#0066CC">View all →</text>

  <!-- Table header -->
  <rect x="548" y="524" width="772" height="28" fill="#F7F9FB" rx="0"/>
  <text x="568" y="542" font-size="10" fill="#8090A8" font-weight="600">SEVERITY</text>
  <text x="638" y="542" font-size="10" fill="#8090A8" font-weight="600">TECHNIQUE</text>
  <text x="788" y="542" font-size="10" fill="#8090A8" font-weight="600">DESCRIPTION</text>
  <text x="1010" y="542" font-size="10" fill="#8090A8" font-weight="600">HOST</text>
  <text x="1130" y="542" font-size="10" fill="#8090A8" font-weight="600">STATUS</text>
  <text x="1240" y="542" font-size="10" fill="#8090A8" font-weight="600">TIME</text>
  <line x1="548" y1="552" x2="1320" y2="552" stroke="#E4EAF2" stroke-width="1"/>

  <!-- Row 1 -->
  <circle cx="584" cy="572" r="12" fill="#FFEBEB"/>
  <text x="584" y="576" text-anchor="middle" font-size="9" fill="#E53935" font-weight="700">9.2</text>
  <text x="638" y="576" font-size="11" fill="#0066CC">T1055.001</text>
  <text x="788" y="576" font-size="11" fill="#1A2B44">Process Injection via DLL</text>
  <text x="1010" y="576" font-size="11" fill="#1A2B44">WS-PROD-114</text>
  <rect x="1126" y="563" width="68" height="18" rx="9" fill="#FFEBEB"/>
  <text x="1160" y="575" text-anchor="middle" font-size="10" fill="#E53935" font-weight="600">Active</text>
  <text x="1240" y="576" font-size="11" fill="#8090A8">14:28</text>
  <line x1="548" y1="585" x2="1320" y2="585" stroke="#F5F7FA" stroke-width="1"/>

  <!-- Row 2 -->
  <circle cx="584" cy="605" r="12" fill="#FFEBEB"/>
  <text x="584" y="609" text-anchor="middle" font-size="9" fill="#E53935" font-weight="700">9.0</text>
  <text x="638" y="609" font-size="11" fill="#0066CC">T1003.006</text>
  <text x="788" y="609" font-size="11" fill="#1A2B44">DCSync - DRSUAPI GetNCChanges</text>
  <text x="1010" y="609" font-size="11" fill="#1A2B44">DC-PROD-01</text>
  <rect x="1126" y="596" width="68" height="18" rx="9" fill="#FFEBEB"/>
  <text x="1160" y="608" text-anchor="middle" font-size="10" fill="#E53935" font-weight="600">Active</text>
  <text x="1240" y="609" font-size="11" fill="#8090A8">14:21</text>
  <line x1="548" y1="618" x2="1320" y2="618" stroke="#F5F7FA" stroke-width="1"/>

  <!-- Row 3 -->
  <circle cx="584" cy="638" r="12" fill="#FFF3E0"/>
  <text x="584" y="642" text-anchor="middle" font-size="9" fill="#FF6B00" font-weight="700">8.7</text>
  <text x="638" y="642" font-size="11" fill="#0066CC">T1558.003</text>
  <text x="788" y="642" font-size="11" fill="#1A2B44">Kerberoasting - SPN Scan</text>
  <text x="1010" y="642" font-size="11" fill="#1A2B44">SRV-AUTH-07</text>
  <rect x="1126" y="629" width="90" height="18" rx="9" fill="#FFF3E0"/>
  <text x="1171" y="641" text-anchor="middle" font-size="10" fill="#FF6B00" font-weight="600">Investigating</text>
  <text x="1240" y="642" font-size="11" fill="#8090A8">14:09</text>
  <line x1="548" y1="651" x2="1320" y2="651" stroke="#F5F7FA" stroke-width="1"/>

  <!-- Row 4 -->
  <circle cx="584" cy="671" r="12" fill="#FFF3E0"/>
  <text x="584" y="675" text-anchor="middle" font-size="9" fill="#FF6B00" font-weight="700">8.4</text>
  <text x="638" y="675" font-size="11" fill="#0066CC">T1550.003</text>
  <text x="788" y="675" font-size="11" fill="#1A2B44">Pass the Ticket - Lateral Move</text>
  <text x="1010" y="675" font-size="11" fill="#1A2B44">WS-FIN-022</text>
  <rect x="1126" y="662" width="68" height="18" rx="9" fill="#F0FAF0"/>
  <text x="1160" y="674" text-anchor="middle" font-size="10" fill="#00880A" font-weight="600">Resolved</text>
  <text x="1240" y="675" font-size="11" fill="#8090A8">13:58</text>
  <line x1="548" y1="684" x2="1320" y2="684" stroke="#F5F7FA" stroke-width="1"/>

  <!-- Row 5 -->
  <circle cx="584" cy="704" r="12" fill="#FFF3E0"/>
  <text x="584" y="708" text-anchor="middle" font-size="9" fill="#FF6B00" font-weight="700">8.1</text>
  <text x="638" y="708" font-size="11" fill="#0066CC">T1078.002</text>
  <text x="788" y="708" font-size="11" fill="#1A2B44">Valid Domain Admin Account</text>
  <text x="1010" y="708" font-size="11" fill="#1A2B44">FS-CORP-05</text>
  <rect x="1126" y="695" width="68" height="18" rx="9" fill="#FFEBEB"/>
  <text x="1160" y="707" text-anchor="middle" font-size="10" fill="#E53935" font-weight="600">Active</text>
  <text x="1240" y="708" font-size="11" fill="#8090A8">13:44</text>
  <line x1="548" y1="717" x2="1320" y2="717" stroke="#F5F7FA" stroke-width="1"/>

  <!-- Row 6 -->
  <circle cx="584" cy="737" r="12" fill="#EEF4FF"/>
  <text x="584" y="741" text-anchor="middle" font-size="9" fill="#0066CC" font-weight="700">6.8</text>
  <text x="638" y="741" font-size="11" fill="#0066CC">T1059.001</text>
  <text x="788" y="741" font-size="11" fill="#1A2B44">PowerShell Encoded Command</text>
  <text x="1010" y="741" font-size="11" fill="#1A2B44">WS-DEV-031</text>
  <rect x="1126" y="728" width="90" height="18" rx="9" fill="#F0FAF0"/>
  <text x="1171" y="740" text-anchor="middle" font-size="10" fill="#00880A" font-weight="600">Resolved</text>
  <text x="1240" y="741" font-size="11" fill="#8090A8">13:30</text>
  <line x1="548" y1="750" x2="1320" y2="750" stroke="#F5F7FA" stroke-width="1"/>

  <!-- ── Integration Status row ── -->
  <rect x="76" y="776" width="1244" height="98" rx="8" fill="white" filter="url(#shadow)"/>
  <text x="96" y="800" font-size="13" fill="#1A2B44" font-weight="600">Integration Status</text>

  <!-- Integration cards -->
  <!-- Elastic SIEM -->
  <rect x="96" y="810" width="145" height="52" rx="6" fill="#F7F9FB" stroke="#E4EAF2" stroke-width="1"/>
  <circle cx="116" cy="826" r="5" fill="#00880A"/>
  <text x="125" y="830" font-size="11" fill="#1A2B44" font-weight="600">Elastic SIEM</text>
  <text x="108" y="850" font-size="10" fill="#8090A8">14,204 events/min</text>
  <text x="108" y="862" font-size="9" fill="#00880A">Connected</text>

  <!-- Microsoft Sentinel -->
  <rect x="252" y="810" width="145" height="52" rx="6" fill="#F7F9FB" stroke="#E4EAF2" stroke-width="1"/>
  <circle cx="272" cy="826" r="5" fill="#00880A"/>
  <text x="281" y="830" font-size="11" fill="#1A2B44" font-weight="600">MS Sentinel</text>
  <text x="264" y="850" font-size="10" fill="#8090A8">8,901 events/min</text>
  <text x="264" y="862" font-size="9" fill="#00880A">Connected</text>

  <!-- Splunk -->
  <rect x="408" y="810" width="145" height="52" rx="6" fill="#FFF9F0" stroke="#FFD580" stroke-width="1"/>
  <circle cx="428" cy="826" r="5" fill="#FF6B00"/>
  <text x="437" y="830" font-size="11" fill="#1A2B44" font-weight="600">Splunk</text>
  <text x="420" y="850" font-size="10" fill="#8090A8">Auth error</text>
  <text x="420" y="862" font-size="9" fill="#FF6B00">Token expired</text>

  <!-- CrowdStrike -->
  <rect x="564" y="810" width="145" height="52" rx="6" fill="#F7F9FB" stroke="#E4EAF2" stroke-width="1"/>
  <circle cx="584" cy="826" r="5" fill="#00880A"/>
  <text x="593" y="830" font-size="11" fill="#1A2B44" font-weight="600">CrowdStrike</text>
  <text x="576" y="850" font-size="10" fill="#8090A8">EDR: 2,102 hosts</text>
  <text x="576" y="862" font-size="9" fill="#00880A">Connected</text>

  <!-- Tenable -->
  <rect x="720" y="810" width="145" height="52" rx="6" fill="#F7F9FB" stroke="#E4EAF2" stroke-width="1"/>
  <circle cx="740" cy="826" r="5" fill="#00880A"/>
  <text x="749" y="830" font-size="11" fill="#1A2B44" font-weight="600">Tenable.io</text>
  <text x="732" y="850" font-size="10" fill="#8090A8">VM: 4,780 assets</text>
  <text x="732" y="862" font-size="9" fill="#00880A">Connected</text>

  <!-- Okta -->
  <rect x="876" y="810" width="145" height="52" rx="6" fill="#F7F9FB" stroke="#E4EAF2" stroke-width="1"/>
  <circle cx="896" cy="826" r="5" fill="#00880A"/>
  <text x="905" y="830" font-size="11" fill="#1A2B44" font-weight="600">Okta</text>
  <text x="888" y="850" font-size="10" fill="#8090A8">IAM: 12,400 users</text>
  <text x="888" y="862" font-size="9" fill="#00880A">Connected</text>

  <!-- Palo Alto -->
  <rect x="1032" y="810" width="145" height="52" rx="6" fill="#F7F9FB" stroke="#E4EAF2" stroke-width="1"/>
  <circle cx="1052" cy="826" r="5" fill="#00880A"/>
  <text x="1061" y="830" font-size="11" fill="#1A2B44" font-weight="600">Palo Alto FW</text>
  <text x="1044" y="850" font-size="10" fill="#8090A8">NGFW: 6 devices</text>
  <text x="1044" y="862" font-size="9" fill="#00880A">Connected</text>

  <!-- Wiz -->
  <rect x="1188" y="810" width="120" height="52" rx="6" fill="#F5F5F5" stroke="#E4EAF2" stroke-width="1" opacity="0.6"/>
  <circle cx="1208" cy="826" r="5" fill="#B0BECC"/>
  <text x="1217" y="830" font-size="11" fill="#8090A8">Wiz CSPM</text>
  <text x="1200" y="850" font-size="10" fill="#B0BECC">Not configured</text>
  <text x="1200" y="862" font-size="9" fill="#B0BECC">Disabled</text>

  <!-- Status bar bottom -->
  <rect x="0" y="885" width="1400" height="15" fill="#F0F4F9"/>
  <rect x="0" y="885" width="1400" height="1" fill="#E0E6EF"/>
  <text x="76" y="896" font-size="9" fill="#8090A8">MxTac v2.4.1  ·  Connected to 7/8 integrations  ·  Last full sync: 14:30 UTC  ·  © 2026 MxTac Security</text>
  <circle cx="1350" cy="892" r="4" fill="#00880A"/>
  <text x="1360" y="896" font-size="9" fill="#00880A">All systems operational</text>
</svg>
