<svg xmlns="http://www.w3.org/2000/svg" viewBox="0 0 280 64" width="280" height="64">
  <defs>
    <clipPath id="clip"><rect width="64" height="64" rx="10"/></clipPath>
    <pattern id="grid" width="8" height="8" patternUnits="userSpaceOnUse">
      <rect width="7" height="7" rx="0.5" fill="#111111"/>
    </pattern>
    <filter id="glow">
      <feGaussianBlur in="SourceGraphic" stdDeviation="1" result="b"/>
      <feFlood flood-color="#00FF41" flood-opacity="0.3" result="c"/>
      <feComposite in="c" in2="b" operator="in" result="g"/>
      <feMerge><feMergeNode in="g"/><feMergeNode in="SourceGraphic"/></feMerge>
    </filter>
  </defs>
  <!-- Icon 64x64 with pixel grid -->
  <g clip-path="url(#clip)">
    <rect width="64" height="64" fill="#080808"/>
    <rect width="64" height="64" fill="url(#grid)"/>
    <!-- Rain cells -->
    <g fill="#112211">
      <rect x="0" y="8" width="7" height="7"/><rect x="0" y="32" width="7" height="7"/>
      <rect x="0" y="56" width="7" height="7"/>
      <rect x="56" y="0" width="7" height="7"/><rect x="56" y="24" width="7" height="7"/>
      <rect x="56" y="48" width="7" height="7"/>
    </g>
    <!-- Shield hint -->
    <g fill="#1A3A1A">
      <rect x="24" y="0" width="7" height="7"/><rect x="32" y="0" width="7" height="7"/>
      <rect x="8" y="56" width="7" height="7"/><rect x="48" y="56" width="7" height="7"/>
    </g>
    <!-- M pixel blocks 8x8 grid -->
    <g fill="#00FF41" filter="url(#glow)">
      <rect x="8" y="8" width="7" height="7"/><rect x="16" y="8" width="7" height="7"/>
      <rect x="40" y="8" width="7" height="7"/><rect x="48" y="8" width="7" height="7"/>
      <rect x="8" y="16" width="7" height="7"/><rect x="16" y="16" width="7" height="7"/>
      <rect x="24" y="16" width="7" height="7"/>
      <rect x="32" y="16" width="7" height="7"/>
      <rect x="40" y="16" width="7" height="7"/><rect x="48" y="16" width="7" height="7"/>
      <rect x="8" y="24" width="7" height="7"/><rect x="48" y="24" width="7" height="7"/>
      <rect x="8" y="32" width="7" height="7"/><rect x="48" y="32" width="7" height="7"/>
      <rect x="8" y="40" width="7" height="7"/><rect x="48" y="40" width="7" height="7"/>
      <rect x="8" y="48" width="7" height="7"/><rect x="48" y="48" width="7" height="7"/>
    </g>
  </g>
  <!-- Wordmark -->
  <text x="80" y="30" font-family="'Courier New', 'Consolas', monospace"
        font-size="28" font-weight="700" fill="#0A0A0A" letter-spacing="1">Mx<tspan fill="#00CC33">Tac</tspan></text>
  <text x="80" y="48" font-family="'Courier New', 'Consolas', monospace"
        font-size="9" font-weight="500" fill="#00AA2A" letter-spacing="3">SECURITY PLATFORM</text>
</svg>
