<svg xmlns="http://www.w3.org/2000/svg" viewBox="0 0 1400 900" width="1400" height="900" font-family="'Segoe UI', Inter, sans-serif">
  <defs>
    <filter id="card" x="-4%" y="-4%" width="108%" height="120%">
      <feDropShadow dx="0" dy="1" stdDeviation="2" flood-color="#0000000D"/>
    </filter>
  </defs>

  <rect width="1400" height="900" fill="#F4F6F8"/>

  <!-- Sidebar -->
  <rect x="0" y="0" width="52" height="900" fill="#FFFFFF"/>
  <rect x="51" y="0" width="1" height="900" fill="#E8ECF0"/>
  <rect x="10" y="12" width="32" height="32" rx="6" fill="#0066CC"/>
  <text x="26" y="33" text-anchor="middle" fill="white" font-size="14" font-weight="700">K</text>
  <text x="26" y="82" text-anchor="middle" font-size="15" fill="#A0AABB">⊞</text>
  <text x="26" y="128" text-anchor="middle" font-size="15" fill="#A0AABB">⚡</text>
  <text x="26" y="166" text-anchor="middle" font-size="15" fill="#A0AABB">⬡</text>
  <!-- Assets active -->
  <rect x="6" y="186" width="40" height="34" rx="6" fill="#EBF3FF"/>
  <rect x="6" y="186" width="3" height="34" rx="1" fill="#0066CC"/>
  <text x="26" y="208" text-anchor="middle" font-size="15" fill="#0066CC">🖥</text>
  <text x="26" y="254" text-anchor="middle" font-size="15" fill="#A0AABB">⏱</text>
  <text x="26" y="296" text-anchor="middle" font-size="15" fill="#A0AABB">🔌</text>
  <text x="26" y="338" text-anchor="middle" font-size="15" fill="#A0AABB">📋</text>
  <text x="26" y="858" text-anchor="middle" font-size="15" fill="#A0AABB">⚙</text>

  <!-- Top bar -->
  <rect x="52" y="0" width="1348" height="46" fill="white"/>
  <rect x="52" y="45" width="1348" height="1" fill="#E8ECF0"/>
  <text x="72" y="25" font-size="12" fill="#A0AABB">KYRA MDR</text>
  <text x="136" y="25" font-size="12" fill="#A0AABB">/</text>
  <text x="146" y="25" font-size="12" fill="#1C2D40" font-weight="600">Asset Risk</text>
  <text x="1150" y="26" font-size="11" fill="#A0AABB">Updated 14:32 UTC</text>

  <!-- Page Header -->
  <text x="72" y="76" font-size="18" fill="#1C2D40" font-weight="700">Asset Risk</text>
  <text x="72" y="94" font-size="12" fill="#A0AABB">Infrastructure inventory and risk assessment</text>
  <rect x="1196" y="58" width="80" height="32" rx="6" fill="#F4F6F8" stroke="#DDE3EB" stroke-width="1"/>
  <text x="1236" y="79" text-anchor="middle" font-size="11" fill="#5A6B82">Export ↓</text>

  <!-- KPI Cards -->
  <!-- Card 1: Total Assets -->
  <rect x="72" y="110" width="228" height="90" rx="6" fill="white" filter="url(#card)"/>
  <text x="92" y="131" font-size="10" fill="#A0AABB" font-weight="500" letter-spacing="0.5">TOTAL ASSETS</text>
  <text x="92" y="163" font-size="32" fill="#1C2D40" font-weight="700">1,247</text>
  <text x="92" y="187" font-size="11" fill="#A0AABB">+23 this month</text>
  <rect x="260" y="130" width="28" height="28" rx="6" fill="#EBF3FF"/>
  <text x="274" y="149" text-anchor="middle" font-size="14" fill="#0066CC">🖥</text>

  <!-- Card 2: High Risk -->
  <rect x="312" y="110" width="228" height="90" rx="6" fill="white" filter="url(#card)"/>
  <text x="332" y="131" font-size="10" fill="#A0AABB" font-weight="500" letter-spacing="0.5">HIGH RISK ASSETS</text>
  <text x="332" y="163" font-size="32" fill="#CC3333" font-weight="700">34</text>
  <text x="332" y="187" font-size="11" fill="#CC3333">↑ 6 new this week</text>
  <rect x="500" y="130" width="28" height="28" rx="6" fill="#FDECEA"/>
  <text x="514" y="149" text-anchor="middle" font-size="14" fill="#CC3333">⚠</text>

  <!-- Card 3: Servers -->
  <rect x="552" y="110" width="228" height="90" rx="6" fill="white" filter="url(#card)"/>
  <text x="572" y="131" font-size="10" fill="#A0AABB" font-weight="500" letter-spacing="0.5">SERVERS</text>
  <text x="572" y="163" font-size="32" fill="#1C2D40" font-weight="700">186</text>
  <text x="572" y="187" font-size="11" fill="#A0AABB">12 critical, 28 high risk</text>

  <!-- Card 4: Workstations -->
  <rect x="792" y="110" width="228" height="90" rx="6" fill="white" filter="url(#card)"/>
  <text x="812" y="131" font-size="10" fill="#A0AABB" font-weight="500" letter-spacing="0.5">WORKSTATIONS</text>
  <text x="812" y="163" font-size="32" fill="#1C2D40" font-weight="700">842</text>
  <text x="812" y="187" font-size="11" fill="#A0AABB">18 high risk · 4 unpatched</text>

  <!-- Card 5: Avg Risk Score -->
  <rect x="1032" y="110" width="228" height="90" rx="6" fill="white" filter="url(#card)"/>
  <text x="1052" y="131" font-size="10" fill="#A0AABB" font-weight="500" letter-spacing="0.5">AVG RISK SCORE</text>
  <text x="1052" y="163" font-size="32" fill="#CC6600" font-weight="700">4.7</text>
  <text x="1102" y="163" font-size="14" fill="#A0AABB">/ 10</text>
  <text x="1052" y="187" font-size="11" fill="#2E7D32">↓ 0.3 improvement</text>

  <!-- Risk Distribution Chart -->
  <rect x="72" y="218" width="600" height="180" rx="6" fill="white" filter="url(#card)"/>
  <text x="92" y="240" font-size="12" fill="#1C2D40" font-weight="600">Risk Distribution</text>
  <text x="92" y="254" font-size="11" fill="#A0AABB">Assets grouped by risk score</text>

  <!-- Horizontal stacked bar -->
  <text x="92" y="282" font-size="10" fill="#A0AABB">Servers</text>
  <rect x="160" y="272" width="480" height="16" rx="3" fill="#E8ECF0"/>
  <rect x="160" y="272" width="32" height="16" rx="3" fill="#CC3333"/>
  <rect x="192" y="272" width="72" height="16" fill="#E67700"/>
  <rect x="264" y="272" width="160" height="16" fill="#E6B800"/>
  <rect x="424" y="272" width="216" height="16" rx="0" fill="#2E7D32"/>

  <text x="92" y="312" font-size="10" fill="#A0AABB">Workstations</text>
  <rect x="160" y="302" width="480" height="16" rx="3" fill="#E8ECF0"/>
  <rect x="160" y="302" width="18" height="16" rx="3" fill="#CC3333"/>
  <rect x="178" y="302" width="48" height="16" fill="#E67700"/>
  <rect x="226" y="302" width="200" height="16" fill="#E6B800"/>
  <rect x="426" y="302" width="214" height="16" rx="0" fill="#2E7D32"/>

  <text x="92" y="342" font-size="10" fill="#A0AABB">Network</text>
  <rect x="160" y="332" width="480" height="16" rx="3" fill="#E8ECF0"/>
  <rect x="160" y="332" width="8" height="16" rx="3" fill="#CC3333"/>
  <rect x="168" y="332" width="28" height="16" fill="#E67700"/>
  <rect x="196" y="332" width="120" height="16" fill="#E6B800"/>
  <rect x="316" y="332" width="324" height="16" rx="0" fill="#2E7D32"/>

  <!-- Legend -->
  <rect x="92" y="364" width="10" height="10" rx="2" fill="#CC3333"/>
  <text x="108" y="373" font-size="9" fill="#A0AABB">Critical (9-10)</text>
  <rect x="192" y="364" width="10" height="10" rx="2" fill="#E67700"/>
  <text x="208" y="373" font-size="9" fill="#A0AABB">High (7-8)</text>
  <rect x="276" y="364" width="10" height="10" rx="2" fill="#E6B800"/>
  <text x="292" y="373" font-size="9" fill="#A0AABB">Medium (4-6)</text>
  <rect x="372" y="364" width="10" height="10" rx="2" fill="#2E7D32"/>
  <text x="388" y="373" font-size="9" fill="#A0AABB">Low (0-3)</text>

  <!-- Top Risky Assets -->
  <rect x="688" y="218" width="644" height="180" rx="6" fill="white" filter="url(#card)"/>
  <text x="708" y="240" font-size="12" fill="#1C2D40" font-weight="600">Top Risky Assets</text>
  <text x="708" y="254" font-size="11" fill="#A0AABB">Highest risk score assets requiring attention</text>

  <text x="708" y="274" font-size="10" fill="#A0AABB" font-weight="500">ASSET</text>
  <text x="890" y="274" font-size="10" fill="#A0AABB" font-weight="500">TYPE</text>
  <text x="980" y="274" font-size="10" fill="#A0AABB" font-weight="500">RISK</text>
  <text x="1040" y="274" font-size="10" fill="#A0AABB" font-weight="500">VULNS</text>
  <text x="1110" y="274" font-size="10" fill="#A0AABB" font-weight="500">ALERTS</text>
  <text x="1180" y="274" font-size="10" fill="#A0AABB" font-weight="500">LAST SEEN</text>
  <line x1="708" y1="280" x2="1312" y2="280" stroke="#E8ECF0" stroke-width="1"/>

  <text x="708" y="298" font-size="11" fill="#1C2D40" font-weight="500">DC-PROD-01</text>
  <rect x="890" y="288" width="50" height="16" rx="8" fill="#EBF3FF"/>
  <text x="915" y="300" text-anchor="middle" font-size="9" fill="#0066CC">Server</text>
  <circle cx="990" cy="294" r="8" fill="#CC3333"/>
  <text x="990" y="298" text-anchor="middle" font-size="8" fill="white" font-weight="700">9.8</text>
  <text x="1050" y="298" font-size="11" fill="#CC3333" font-weight="600">24</text>
  <text x="1118" y="298" font-size="11" fill="#CC3333" font-weight="600">12</text>
  <text x="1180" y="298" font-size="11" fill="#A0AABB">2 min ago</text>

  <text x="708" y="322" font-size="11" fill="#1C2D40" font-weight="500">FS-CORP-05</text>
  <rect x="890" y="312" width="50" height="16" rx="8" fill="#EBF3FF"/>
  <text x="915" y="324" text-anchor="middle" font-size="9" fill="#0066CC">Server</text>
  <circle cx="990" cy="318" r="8" fill="#CC3333"/>
  <text x="990" y="322" text-anchor="middle" font-size="8" fill="white" font-weight="700">9.4</text>
  <text x="1050" y="322" font-size="11" fill="#CC3333" font-weight="600">18</text>
  <text x="1118" y="322" font-size="11" fill="#CC3333" font-weight="600">8</text>
  <text x="1180" y="322" font-size="11" fill="#A0AABB">5 min ago</text>

  <text x="708" y="346" font-size="11" fill="#1C2D40" font-weight="500">WS-PROD-114</text>
  <rect x="890" y="336" width="78" height="16" rx="8" fill="#FEF3E2"/>
  <text x="929" y="348" text-anchor="middle" font-size="9" fill="#CC6600">Workstation</text>
  <circle cx="990" cy="342" r="8" fill="#E67700"/>
  <text x="990" y="346" text-anchor="middle" font-size="8" fill="white" font-weight="700">8.7</text>
  <text x="1050" y="346" font-size="11" fill="#E67700" font-weight="600">11</text>
  <text x="1118" y="346" font-size="11" fill="#E67700" font-weight="600">5</text>
  <text x="1180" y="346" font-size="11" fill="#A0AABB">8 min ago</text>

  <text x="708" y="370" font-size="11" fill="#1C2D40" font-weight="500">SRV-AUTH-07</text>
  <rect x="890" y="360" width="50" height="16" rx="8" fill="#EBF3FF"/>
  <text x="915" y="372" text-anchor="middle" font-size="9" fill="#0066CC">Server</text>
  <circle cx="990" cy="366" r="8" fill="#E67700"/>
  <text x="990" y="370" text-anchor="middle" font-size="8" fill="white" font-weight="700">8.2</text>
  <text x="1050" y="370" font-size="11" fill="#E67700" font-weight="600">9</text>
  <text x="1118" y="370" font-size="11" fill="#E67700" font-weight="600">5</text>
  <text x="1180" y="370" font-size="11" fill="#A0AABB">12 min ago</text>

  <!-- Assets Table -->
  <rect x="72" y="416" width="1260" height="440" rx="6" fill="white" filter="url(#card)"/>

  <!-- Filter bar -->
  <rect x="82" y="424" width="56" height="22" rx="4" fill="#0066CC"/>
  <text x="110" y="439" text-anchor="middle" font-size="10" fill="white">All</text>
  <rect x="144" y="424" width="64" height="22" rx="4" fill="#F4F6F8"/>
  <text x="176" y="439" text-anchor="middle" font-size="10" fill="#5A6B82">Servers</text>
  <rect x="214" y="424" width="88" height="22" rx="4" fill="#F4F6F8"/>
  <text x="258" y="439" text-anchor="middle" font-size="10" fill="#5A6B82">Workstations</text>
  <rect x="308" y="424" width="66" height="22" rx="4" fill="#F4F6F8"/>
  <text x="341" y="439" text-anchor="middle" font-size="10" fill="#5A6B82">Network</text>
  <rect x="380" y="424" width="74" height="22" rx="4" fill="#F4F6F8"/>
  <text x="417" y="439" text-anchor="middle" font-size="10" fill="#5A6B82">Database</text>

  <!-- Search -->
  <rect x="1092" y="424" width="228" height="22" rx="4" fill="#F4F6F8" stroke="#DDE3EB" stroke-width="1"/>
  <text x="1108" y="439" font-size="10" fill="#C8D0DC">Search assets...</text>

  <!-- Table header -->
  <rect x="72" y="456" width="1260" height="26" fill="#F9FAFB"/>
  <text x="92" y="473" font-size="10" fill="#A0AABB" font-weight="500">HOSTNAME</text>
  <text x="260" y="473" font-size="10" fill="#A0AABB" font-weight="500">IP ADDRESS</text>
  <text x="390" y="473" font-size="10" fill="#A0AABB" font-weight="500">TYPE</text>
  <text x="500" y="473" font-size="10" fill="#A0AABB" font-weight="500">OS</text>
  <text x="660" y="473" font-size="10" fill="#A0AABB" font-weight="500">RISK</text>
  <text x="730" y="473" font-size="10" fill="#A0AABB" font-weight="500">VULNS</text>
  <text x="800" y="473" font-size="10" fill="#A0AABB" font-weight="500">OPEN ALERTS</text>
  <text x="910" y="473" font-size="10" fill="#A0AABB" font-weight="500">AGENT</text>
  <text x="1000" y="473" font-size="10" fill="#A0AABB" font-weight="500">LAST SEEN</text>
  <text x="1140" y="473" font-size="10" fill="#A0AABB" font-weight="500">ACTIONS</text>
  <line x1="72" y1="482" x2="1332" y2="482" stroke="#E8ECF0" stroke-width="1"/>

  <!-- Asset Row 1 -->
  <circle cx="82" cy="502" r="6" fill="#CC3333"/>
  <text x="92" y="506" font-size="11" fill="#1C2D40" font-weight="500">DC-PROD-01</text>
  <text x="260" y="506" font-size="11" fill="#5A6B82" font-family="monospace">192.168.1.10</text>
  <rect x="390" y="494" width="50" height="16" rx="8" fill="#EBF3FF"/>
  <text x="415" y="506" text-anchor="middle" font-size="9" fill="#0066CC">Server</text>
  <text x="500" y="506" font-size="11" fill="#5A6B82">Windows Server 2022</text>
  <rect x="660" y="494" width="34" height="16" rx="4" fill="#FDECEA"/>
  <text x="677" y="506" text-anchor="middle" font-size="9" fill="#CC3333" font-weight="700">9.8</text>
  <text x="740" y="506" font-size="11" fill="#CC3333" font-weight="600">24</text>
  <text x="828" y="506" font-size="11" fill="#CC3333" font-weight="600">12</text>
  <rect x="910" y="494" width="54" height="16" rx="8" fill="#EBF5EB"/>
  <text x="937" y="506" text-anchor="middle" font-size="9" fill="#2E7D32">Online</text>
  <text x="1000" y="506" font-size="11" fill="#A0AABB">2 min ago</text>
  <text x="1150" y="506" font-size="11" fill="#0066CC">Details →</text>
  <line x1="76" y1="516" x2="1328" y2="516" stroke="#F4F6F8" stroke-width="1"/>

  <!-- Asset Row 2 -->
  <circle cx="82" cy="536" r="6" fill="#CC3333"/>
  <text x="92" y="540" font-size="11" fill="#1C2D40" font-weight="500">FS-CORP-05</text>
  <text x="260" y="540" font-size="11" fill="#5A6B82" font-family="monospace">192.168.2.55</text>
  <rect x="390" y="528" width="50" height="16" rx="8" fill="#EBF3FF"/>
  <text x="415" y="540" text-anchor="middle" font-size="9" fill="#0066CC">Server</text>
  <text x="500" y="540" font-size="11" fill="#5A6B82">Windows Server 2019</text>
  <rect x="660" y="528" width="34" height="16" rx="4" fill="#FDECEA"/>
  <text x="677" y="540" text-anchor="middle" font-size="9" fill="#CC3333" font-weight="700">9.4</text>
  <text x="740" y="540" font-size="11" fill="#CC3333" font-weight="600">18</text>
  <text x="828" y="540" font-size="11" fill="#CC3333" font-weight="600">8</text>
  <rect x="910" y="528" width="54" height="16" rx="8" fill="#EBF5EB"/>
  <text x="937" y="540" text-anchor="middle" font-size="9" fill="#2E7D32">Online</text>
  <text x="1000" y="540" font-size="11" fill="#A0AABB">5 min ago</text>
  <text x="1150" y="540" font-size="11" fill="#0066CC">Details →</text>
  <line x1="76" y1="550" x2="1328" y2="550" stroke="#F4F6F8" stroke-width="1"/>

  <!-- Asset Row 3 -->
  <circle cx="82" cy="570" r="6" fill="#E67700"/>
  <text x="92" y="574" font-size="11" fill="#1C2D40" font-weight="500">WS-PROD-114</text>
  <text x="260" y="574" font-size="11" fill="#5A6B82" font-family="monospace">10.20.3.114</text>
  <rect x="390" y="562" width="78" height="16" rx="8" fill="#FEF3E2"/>
  <text x="429" y="574" text-anchor="middle" font-size="9" fill="#CC6600">Workstation</text>
  <text x="500" y="574" font-size="11" fill="#5A6B82">Windows 11 Pro</text>
  <rect x="660" y="562" width="34" height="16" rx="4" fill="#FEF3E2"/>
  <text x="677" y="574" text-anchor="middle" font-size="9" fill="#CC6600" font-weight="700">8.7</text>
  <text x="740" y="574" font-size="11" fill="#E67700" font-weight="600">11</text>
  <text x="828" y="574" font-size="11" fill="#E67700" font-weight="600">5</text>
  <rect x="910" y="562" width="54" height="16" rx="8" fill="#EBF5EB"/>
  <text x="937" y="574" text-anchor="middle" font-size="9" fill="#2E7D32">Online</text>
  <text x="1000" y="574" font-size="11" fill="#A0AABB">8 min ago</text>
  <text x="1150" y="574" font-size="11" fill="#0066CC">Details →</text>
  <line x1="76" y1="584" x2="1328" y2="584" stroke="#F4F6F8" stroke-width="1"/>

  <!-- Asset Row 4 -->
  <circle cx="82" cy="604" r="6" fill="#E6B800"/>
  <text x="92" y="608" font-size="11" fill="#1C2D40" font-weight="500">WS-FIN-022</text>
  <text x="260" y="608" font-size="11" fill="#5A6B82" font-family="monospace">10.30.1.22</text>
  <rect x="390" y="596" width="78" height="16" rx="8" fill="#FEF3E2"/>
  <text x="429" y="608" text-anchor="middle" font-size="9" fill="#CC6600">Workstation</text>
  <text x="500" y="608" font-size="11" fill="#5A6B82">Windows 11 Pro</text>
  <rect x="660" y="596" width="34" height="16" rx="4" fill="#FEF3E2"/>
  <text x="677" y="608" text-anchor="middle" font-size="9" fill="#CC6600" font-weight="700">6.3</text>
  <text x="740" y="608" font-size="11" fill="#5A6B82">7</text>
  <text x="828" y="608" font-size="11" fill="#5A6B82">2</text>
  <rect x="910" y="596" width="54" height="16" rx="8" fill="#EBF5EB"/>
  <text x="937" y="608" text-anchor="middle" font-size="9" fill="#2E7D32">Online</text>
  <text x="1000" y="608" font-size="11" fill="#A0AABB">10 min ago</text>
  <text x="1150" y="608" font-size="11" fill="#0066CC">Details →</text>
  <line x1="76" y1="618" x2="1328" y2="618" stroke="#F4F6F8" stroke-width="1"/>

  <!-- Pagination -->
  <text x="92" y="834" font-size="11" fill="#A0AABB">Showing 1-25 of 1,247 assets</text>
  <text x="1200" y="834" font-size="11" fill="#A0AABB">Rows per page: 25 ▾</text>

  <!-- Footer -->
  <rect x="0" y="882" width="1400" height="18" fill="#F0F2F5"/>
  <rect x="0" y="882" width="1400" height="1" fill="#E0E4EA"/>
  <text x="72" y="895" font-size="9" fill="#A0AABB">KYRA MDR v1.0  ·  1,247 assets  ·  34 high risk</text>
  <circle cx="1346" cy="891" r="3" fill="#2E7D32"/>
  <text x="1354" y="895" font-size="9" fill="#2E7D32">Operational</text>
</svg>
