<svg xmlns="http://www.w3.org/2000/svg" viewBox="0 0 1400 900" width="1400" height="900" font-family="'Segoe UI', Inter, sans-serif">
  <defs>
    <filter id="card" x="-4%" y="-4%" width="108%" height="120%">
      <feDropShadow dx="0" dy="1" stdDeviation="2" flood-color="#0000000D"/>
    </filter>
  </defs>

  <!-- Page background -->
  <rect width="1400" height="900" fill="#F4F6F8"/>

  <!-- ── Sidebar ── -->
  <rect x="0" y="0" width="52" height="900" fill="#FFFFFF"/>
  <rect x="51" y="0" width="1" height="900" fill="#E8ECF0"/>

  <!-- Logo -->
  <rect x="10" y="12" width="32" height="32" rx="6" fill="#0066CC"/>
  <text x="26" y="33" text-anchor="middle" fill="white" font-size="14" font-weight="700">M</text>

  <!-- Nav: Overview active -->
  <rect x="6" y="60" width="40" height="34" rx="6" fill="#EBF3FF"/>
  <rect x="6" y="60" width="3" height="34" rx="1" fill="#0066CC"/>
  <text x="26" y="82" text-anchor="middle" font-size="15" fill="#0066CC">⊞</text>

  <text x="26" y="128" text-anchor="middle" font-size="15" fill="#A0AABB">⚡</text>
  <text x="26" y="170" text-anchor="middle" font-size="15" fill="#A0AABB">⬡</text>
  <text x="26" y="212" text-anchor="middle" font-size="15" fill="#A0AABB">σ</text>
  <text x="26" y="254" text-anchor="middle" font-size="15" fill="#A0AABB">🔔</text>
  <text x="26" y="296" text-anchor="middle" font-size="15" fill="#A0AABB">🌐</text>
  <text x="26" y="338" text-anchor="middle" font-size="15" fill="#A0AABB">🖥</text>
  <text x="26" y="380" text-anchor="middle" font-size="15" fill="#A0AABB">📋</text>

  <text x="26" y="858" text-anchor="middle" font-size="15" fill="#A0AABB">⚙</text>
  <circle cx="26" cy="878" r="10" fill="#E8ECF0"/>
  <text x="26" y="882" text-anchor="middle" font-size="9" fill="#5A6B82" font-weight="600">KH</text>

  <!-- ── Top bar ── -->
  <rect x="52" y="0" width="1348" height="46" fill="white"/>
  <rect x="52" y="45" width="1348" height="1" fill="#E8ECF0"/>

  <text x="72" y="25" font-size="12" fill="#A0AABB">MxTac</text>
  <text x="110" y="25" font-size="12" fill="#A0AABB">/</text>
  <text x="120" y="25" font-size="12" fill="#1C2D40" font-weight="600">Security Overview</text>

  <!-- Right controls -->
  <text x="1150" y="26" font-size="11" fill="#A0AABB">Updated 14:32 UTC</text>
  <rect x="1288" y="12" width="24" height="22" rx="5" fill="#F4F6F8"/>
  <text x="1300" y="27" text-anchor="middle" font-size="12" fill="#5A6B82">↻</text>
  <rect x="1318" y="12" width="24" height="22" rx="5" fill="#F4F6F8"/>
  <text x="1330" y="27" text-anchor="middle" font-size="12" fill="#5A6B82">🔔</text>
  <circle cx="1341" cy="13" r="4" fill="#CC3333"/>

  <!-- ── Tabs ── -->
  <rect x="52" y="46" width="1348" height="38" fill="white"/>
  <rect x="52" y="83" width="1348" height="1" fill="#E8ECF0"/>

  <text x="119" y="69" text-anchor="middle" font-size="12" fill="#0066CC" font-weight="600">Overview</text>
  <rect x="72" y="83" width="94" height="2" fill="#0066CC"/>
  <text x="240" y="69" text-anchor="middle" font-size="12" fill="#A0AABB">Detections</text>
  <text x="348" y="69" text-anchor="middle" font-size="12" fill="#A0AABB">ATT&amp;CK Map</text>
  <text x="456" y="69" text-anchor="middle" font-size="12" fill="#A0AABB">Threat Intel</text>
  <text x="554" y="69" text-anchor="middle" font-size="12" fill="#A0AABB">Asset Risk</text>

  <rect x="1218" y="57" width="160" height="24" rx="4" fill="#F4F6F8" stroke="#DDE3EB" stroke-width="1"/>
  <text x="1298" y="73" text-anchor="middle" font-size="11" fill="#5A6B82">Last 7 days  ▾</text>

  <!-- ── KPI row ── -->
  <!-- Card 1 -->
  <rect x="72" y="101" width="200" height="90" rx="6" fill="white" filter="url(#card)"/>
  <text x="92" y="122" font-size="10" fill="#A0AABB" font-weight="500" letter-spacing="0.5">TOTAL DETECTIONS</text>
  <text x="92" y="154" font-size="32" fill="#1C2D40" font-weight="700">2,847</text>
  <text x="92" y="178" font-size="11" fill="#A0AABB">↑ 12.4% vs prev week</text>

  <!-- Card 2 -->
  <rect x="284" y="101" width="200" height="90" rx="6" fill="white" filter="url(#card)"/>
  <text x="304" y="122" font-size="10" fill="#A0AABB" font-weight="500" letter-spacing="0.5">CRITICAL ALERTS</text>
  <text x="304" y="154" font-size="32" fill="#CC3333" font-weight="700">47</text>
  <text x="304" y="178" font-size="11" fill="#A0AABB">8 new today</text>

  <!-- Card 3 -->
  <rect x="496" y="101" width="200" height="90" rx="6" fill="white" filter="url(#card)"/>
  <text x="516" y="122" font-size="10" fill="#A0AABB" font-weight="500" letter-spacing="0.5">ATT&amp;CK COVERAGE</text>
  <!-- Thin ring -->
  <circle cx="634" cy="148" r="24" fill="none" stroke="#E8ECF0" stroke-width="5"/>
  <circle cx="634" cy="148" r="24" fill="none" stroke="#0066CC" stroke-width="5"
    stroke-dasharray="110 151" stroke-dashoffset="38" stroke-linecap="round" transform="rotate(-90 634 148)"/>
  <text x="634" y="153" text-anchor="middle" font-size="12" fill="#1C2D40" font-weight="700">73%</text>
  <text x="516" y="175" font-size="11" fill="#A0AABB">187 / 256 techniques</text>
  <text x="516" y="188" font-size="10" fill="#A0AABB">+6 this week</text>

  <!-- Card 4 -->
  <rect x="708" y="101" width="200" height="90" rx="6" fill="white" filter="url(#card)"/>
  <text x="728" y="122" font-size="10" fill="#A0AABB" font-weight="500" letter-spacing="0.5">MEAN TIME TO DETECT</text>
  <text x="728" y="154" font-size="32" fill="#1C2D40" font-weight="700">4.2</text>
  <text x="784" y="154" font-size="14" fill="#A0AABB">min</text>
  <text x="728" y="178" font-size="11" fill="#A0AABB">↓ 0.8m improved</text>

  <!-- Card 5 -->
  <rect x="920" y="101" width="200" height="90" rx="6" fill="white" filter="url(#card)"/>
  <text x="940" y="122" font-size="10" fill="#A0AABB" font-weight="500" letter-spacing="0.5">INTEGRATIONS</text>
  <text x="940" y="154" font-size="32" fill="#1C2D40" font-weight="700">7</text>
  <text x="978" y="154" font-size="14" fill="#A0AABB">/ 8</text>
  <rect x="940" y="167" width="156" height="5" rx="2" fill="#E8ECF0"/>
  <rect x="940" y="167" width="136" height="5" rx="2" fill="#0066CC"/>
  <text x="940" y="185" font-size="10" fill="#A0AABB">Splunk: auth error</text>

  <!-- Card 6 -->
  <rect x="1132" y="101" width="200" height="90" rx="6" fill="white" filter="url(#card)"/>
  <text x="1152" y="122" font-size="10" fill="#A0AABB" font-weight="500" letter-spacing="0.5">SIGMA RULES ACTIVE</text>
  <text x="1152" y="154" font-size="32" fill="#1C2D40" font-weight="700">1,204</text>
  <text x="1152" y="175" font-size="11" fill="#A0AABB">312 critical · 460 high</text>
  <text x="1152" y="188" font-size="10" fill="#A0AABB">+18 deployed this week</text>

  <!-- ── Detection Timeline ── -->
  <rect x="72" y="208" width="708" height="228" rx="6" fill="white" filter="url(#card)"/>
  <text x="92" y="230" font-size="12" fill="#1C2D40" font-weight="600">Detection Timeline</text>
  <text x="92" y="244" font-size="11" fill="#A0AABB">Alerts over past 7 days</text>

  <!-- Legend -->
  <rect x="640" y="222" width="8" height="8" rx="1" fill="#CC3333"/>
  <text x="652" y="231" font-size="10" fill="#A0AABB">Critical</text>
  <rect x="704" y="222" width="8" height="8" rx="1" fill="#A0AABB" opacity="0.6"/>
  <text x="716" y="231" font-size="10" fill="#A0AABB">Other</text>

  <!-- Chart area -->
  <!-- Y axis -->
  <text x="84" y="272" font-size="9" fill="#C8D0DC">400</text>
  <text x="84" y="300" font-size="9" fill="#C8D0DC">300</text>
  <text x="84" y="328" font-size="9" fill="#C8D0DC">200</text>
  <text x="84" y="356" font-size="9" fill="#C8D0DC">100</text>

  <!-- Grid lines -->
  <line x1="104" y1="268" x2="756" y2="268" stroke="#F0F2F5" stroke-width="1"/>
  <line x1="104" y1="296" x2="756" y2="296" stroke="#F0F2F5" stroke-width="1"/>
  <line x1="104" y1="324" x2="756" y2="324" stroke="#F0F2F5" stroke-width="1"/>
  <line x1="104" y1="352" x2="756" y2="352" stroke="#F0F2F5" stroke-width="1"/>
  <line x1="104" y1="390" x2="756" y2="390" stroke="#E8ECF0" stroke-width="1"/>

  <!-- X axis labels -->
  <text x="130" y="404" text-anchor="middle" font-size="10" fill="#A0AABB">Feb 13</text>
  <text x="220" y="404" text-anchor="middle" font-size="10" fill="#A0AABB">Feb 14</text>
  <text x="310" y="404" text-anchor="middle" font-size="10" fill="#A0AABB">Feb 15</text>
  <text x="400" y="404" text-anchor="middle" font-size="10" fill="#A0AABB">Feb 16</text>
  <text x="490" y="404" text-anchor="middle" font-size="10" fill="#A0AABB">Feb 17</text>
  <text x="580" y="404" text-anchor="middle" font-size="10" fill="#A0AABB">Feb 18</text>
  <text x="670" y="404" text-anchor="middle" font-size="10" fill="#A0AABB">Feb 19</text>

  <!-- Total area (light gray) -->
  <polygon points="104,368 194,360 284,364 374,350 464,342 554,358 644,346 734,338 734,390 104,390"
    fill="#E8ECF0" opacity="0.8"/>
  <polyline points="104,368 194,360 284,364 374,350 464,342 554,358 644,346 734,338"
    fill="none" stroke="#C8D0DC" stroke-width="1.5"/>

  <!-- Critical area (red, on top) -->
  <polygon points="104,383 194,374 284,378 374,356 464,318 554,342 644,350 734,340 734,338 644,346 554,358 464,342 374,350 284,364 194,360 104,368"
    fill="#CC3333" opacity="0.08"/>
  <polyline points="104,383 194,374 284,378 374,356 464,318 554,342 644,350 734,340"
    fill="none" stroke="#CC3333" stroke-width="1.5"/>

  <!-- Spike label -->
  <line x1="464" y1="276" x2="464" y2="318" stroke="#CC3333" stroke-width="1" stroke-dasharray="3,2"/>
  <rect x="432" y="266" width="64" height="14" rx="3" fill="#CC3333"/>
  <text x="464" y="276" text-anchor="middle" font-size="9" fill="white">187 critical</text>

  <!-- ── Top ATT&CK Tactics ── -->
  <rect x="796" y="208" width="536" height="228" rx="6" fill="white" filter="url(#card)"/>
  <text x="816" y="230" font-size="12" fill="#1C2D40" font-weight="600">Top ATT&amp;CK Tactics</text>
  <text x="816" y="244" font-size="11" fill="#A0AABB">Detections this week by tactic</text>

  <!-- Column headers -->
  <text x="816" y="264" font-size="10" fill="#A0AABB" font-weight="500">TACTIC</text>
  <text x="1090" y="264" font-size="10" fill="#A0AABB" font-weight="500">COUNT</text>
  <text x="1210" y="264" font-size="10" fill="#A0AABB" font-weight="500">TREND</text>
  <line x1="816" y1="270" x2="1312" y2="270" stroke="#E8ECF0" stroke-width="1"/>

  <!-- Rows — all bars same blue, vary width only -->
  <!-- Row 1 -->
  <text x="816" y="288" font-size="11" fill="#1C2D40">Execution</text>
  <rect x="940" y="279" width="130" height="8" rx="4" fill="#E8ECF0"/>
  <rect x="940" y="279" width="130" height="8" rx="4" fill="#0066CC" opacity="0.7"/>
  <text x="1095" y="288" font-size="11" fill="#1C2D40">634</text>
  <text x="1210" y="288" font-size="11" fill="#A0AABB">+18%</text>
  <line x1="816" y1="296" x2="1312" y2="296" stroke="#F4F6F8" stroke-width="1"/>

  <!-- Row 2 -->
  <text x="816" y="314" font-size="11" fill="#1C2D40">Defense Evasion</text>
  <rect x="940" y="305" width="110" height="8" rx="4" fill="#E8ECF0"/>
  <rect x="940" y="305" width="110" height="8" rx="4" fill="#0066CC" opacity="0.7"/>
  <text x="1095" y="314" font-size="11" fill="#1C2D40">547</text>
  <text x="1210" y="314" font-size="11" fill="#A0AABB">+9%</text>
  <line x1="816" y1="322" x2="1312" y2="322" stroke="#F4F6F8" stroke-width="1"/>

  <!-- Row 3 -->
  <text x="816" y="340" font-size="11" fill="#1C2D40">Credential Access</text>
  <rect x="940" y="331" width="94" height="8" rx="4" fill="#E8ECF0"/>
  <rect x="940" y="331" width="94" height="8" rx="4" fill="#0066CC" opacity="0.7"/>
  <text x="1095" y="340" font-size="11" fill="#1C2D40">461</text>
  <text x="1210" y="340" font-size="11" fill="#A0AABB">+5%</text>
  <line x1="816" y1="348" x2="1312" y2="348" stroke="#F4F6F8" stroke-width="1"/>

  <!-- Row 4 -->
  <text x="816" y="366" font-size="11" fill="#1C2D40">Lateral Movement</text>
  <rect x="940" y="357" width="78" height="8" rx="4" fill="#E8ECF0"/>
  <rect x="940" y="357" width="78" height="8" rx="4" fill="#0066CC" opacity="0.7"/>
  <text x="1095" y="366" font-size="11" fill="#1C2D40">382</text>
  <text x="1210" y="366" font-size="11" fill="#CC3333">+22%</text>
  <line x1="816" y1="374" x2="1312" y2="374" stroke="#F4F6F8" stroke-width="1"/>

  <!-- Row 5 -->
  <text x="816" y="392" font-size="11" fill="#1C2D40">Persistence</text>
  <rect x="940" y="383" width="66" height="8" rx="4" fill="#E8ECF0"/>
  <rect x="940" y="383" width="66" height="8" rx="4" fill="#0066CC" opacity="0.7"/>
  <text x="1095" y="392" font-size="11" fill="#1C2D40">324</text>
  <text x="1210" y="392" font-size="11" fill="#A0AABB">−3%</text>
  <line x1="816" y1="400" x2="1312" y2="400" stroke="#F4F6F8" stroke-width="1"/>

  <!-- Row 6 -->
  <text x="816" y="418" font-size="11" fill="#1C2D40">Command &amp; Control</text>
  <rect x="940" y="409" width="58" height="8" rx="4" fill="#E8ECF0"/>
  <rect x="940" y="409" width="58" height="8" rx="4" fill="#0066CC" opacity="0.7"/>
  <text x="1095" y="418" font-size="11" fill="#1C2D40">284</text>
  <text x="1210" y="418" font-size="11" fill="#A0AABB">0%</text>

  <!-- ── ATT&CK Coverage heatmap ── -->
  <rect x="72" y="452" width="448" height="252" rx="6" fill="white" filter="url(#card)"/>
  <text x="92" y="474" font-size="12" fill="#1C2D40" font-weight="600">ATT&amp;CK Coverage</text>
  <text x="92" y="488" font-size="11" fill="#A0AABB">Techniques with active Sigma rules</text>

  <!-- Tactic labels (abbreviated) -->
  <text x="104" y="508" font-size="9" fill="#A0AABB">RECON</text>
  <text x="154" y="508" font-size="9" fill="#A0AABB">RES</text>
  <text x="196" y="508" font-size="9" fill="#A0AABB">INIT</text>
  <text x="236" y="508" font-size="9" fill="#A0AABB">EXEC</text>
  <text x="280" y="508" font-size="9" fill="#A0AABB">PERS</text>
  <text x="320" y="508" font-size="9" fill="#A0AABB">PRIV</text>
  <text x="362" y="508" font-size="9" fill="#A0AABB">DEF-E</text>
  <text x="406" y="508" font-size="9" fill="#A0AABB">CRED</text>
  <text x="450" y="508" font-size="9" fill="#A0AABB">DISC</text>

  <!-- Heat cells — 4 rows × 9 cols, blue opacity only -->
  <!-- Row 1 -->
  <rect x="100" y="512" width="34" height="20" rx="3" fill="#0066CC" opacity="0.35"/>
  <text x="117" y="525" text-anchor="middle" font-size="8" fill="#0066CC">4/9</text>
  <rect x="144" y="512" width="34" height="20" rx="3" fill="#0066CC" opacity="0.30"/>
  <text x="161" y="525" text-anchor="middle" font-size="8" fill="#0066CC">3/6</text>
  <rect x="188" y="512" width="34" height="20" rx="3" fill="#0066CC" opacity="0.85"/>
  <text x="205" y="525" text-anchor="middle" font-size="8" fill="white">9/9</text>
  <rect x="232" y="512" width="34" height="20" rx="3" fill="#0066CC" opacity="0.80"/>
  <text x="249" y="525" text-anchor="middle" font-size="8" fill="white">12/14</text>
  <rect x="276" y="512" width="34" height="20" rx="3" fill="#0066CC" opacity="0.50"/>
  <text x="293" y="525" text-anchor="middle" font-size="8" fill="#0066CC">7/12</text>
  <rect x="320" y="512" width="34" height="20" rx="3" fill="#0066CC" opacity="0.45"/>
  <text x="337" y="525" text-anchor="middle" font-size="8" fill="#0066CC">6/11</text>
  <rect x="364" y="512" width="34" height="20" rx="3" fill="#0066CC" opacity="0.75"/>
  <text x="381" y="525" text-anchor="middle" font-size="8" fill="white">14/17</text>
  <rect x="408" y="512" width="34" height="20" rx="3" fill="#0066CC" opacity="0.30"/>
  <text x="425" y="525" text-anchor="middle" font-size="8" fill="#0066CC">5/14</text>
  <rect x="452" y="512" width="34" height="20" rx="3" fill="#0066CC" opacity="0.55"/>
  <text x="469" y="525" text-anchor="middle" font-size="8" fill="white">8/13</text>

  <!-- Row 2 -->
  <rect x="100" y="538" width="34" height="20" rx="3" fill="#0066CC" opacity="0.55"/>
  <text x="117" y="551" text-anchor="middle" font-size="8" fill="white">6/9</text>
  <rect x="144" y="538" width="34" height="20" rx="3" fill="#0066CC" opacity="0.20"/>
  <text x="161" y="551" text-anchor="middle" font-size="8" fill="#0066CC">2/6</text>
  <rect x="188" y="538" width="34" height="20" rx="3" fill="#0066CC" opacity="0.80"/>
  <text x="205" y="551" text-anchor="middle" font-size="8" fill="white">8/9</text>
  <rect x="232" y="538" width="34" height="20" rx="3" fill="#0066CC" opacity="0.85"/>
  <text x="249" y="551" text-anchor="middle" font-size="8" fill="white">13/14</text>
  <rect x="276" y="538" width="34" height="20" rx="3" fill="#0066CC" opacity="0.35"/>
  <text x="293" y="551" text-anchor="middle" font-size="8" fill="#0066CC">5/12</text>
  <rect x="320" y="538" width="34" height="20" rx="3" fill="#0066CC" opacity="0.75"/>
  <text x="337" y="551" text-anchor="middle" font-size="8" fill="white">9/11</text>
  <rect x="364" y="538" width="34" height="20" rx="3" fill="#0066CC" opacity="0.50"/>
  <text x="381" y="551" text-anchor="middle" font-size="8" fill="white">10/17</text>
  <rect x="408" y="538" width="34" height="20" rx="3" fill="#0066CC" opacity="0.35"/>
  <text x="425" y="551" text-anchor="middle" font-size="8" fill="#0066CC">6/14</text>
  <rect x="452" y="538" width="34" height="20" rx="3" fill="#0066CC" opacity="0.60"/>
  <text x="469" y="551" text-anchor="middle" font-size="8" fill="white">9/13</text>

  <!-- Row 3 -->
  <rect x="100" y="564" width="34" height="20" rx="3" fill="#0066CC" opacity="0.18"/>
  <text x="117" y="577" text-anchor="middle" font-size="8" fill="#A0AABB">2/9</text>
  <rect x="144" y="564" width="34" height="20" rx="3" fill="#0066CC" opacity="0.14"/>
  <text x="161" y="577" text-anchor="middle" font-size="8" fill="#A0AABB">1/6</text>
  <rect x="188" y="564" width="34" height="20" rx="3" fill="#0066CC" opacity="0.65"/>
  <text x="205" y="577" text-anchor="middle" font-size="8" fill="white">7/9</text>
  <rect x="232" y="564" width="34" height="20" rx="3" fill="#0066CC" opacity="0.72"/>
  <text x="249" y="577" text-anchor="middle" font-size="8" fill="white">11/14</text>
  <rect x="276" y="564" width="34" height="20" rx="3" fill="#0066CC" opacity="0.58"/>
  <text x="293" y="577" text-anchor="middle" font-size="8" fill="white">8/12</text>
  <rect x="320" y="564" width="34" height="20" rx="3" fill="#0066CC" opacity="0.30"/>
  <text x="337" y="577" text-anchor="middle" font-size="8" fill="#0066CC">4/11</text>
  <rect x="364" y="564" width="34" height="20" rx="3" fill="#0066CC" opacity="0.80"/>
  <text x="381" y="577" text-anchor="middle" font-size="8" fill="white">15/17</text>
  <rect x="408" y="564" width="34" height="20" rx="3" fill="#0066CC" opacity="0.50"/>
  <text x="425" y="577" text-anchor="middle" font-size="8" fill="white">8/14</text>
  <rect x="452" y="564" width="34" height="20" rx="3" fill="#0066CC" opacity="0.40"/>
  <text x="469" y="577" text-anchor="middle" font-size="8" fill="#0066CC">6/13</text>

  <!-- Row 4 -->
  <rect x="100" y="590" width="34" height="20" rx="3" fill="#0066CC" opacity="0.10"/>
  <text x="117" y="603" text-anchor="middle" font-size="8" fill="#C8D0DC">1/9</text>
  <rect x="144" y="590" width="34" height="20" rx="3" fill="#0066CC" opacity="0.28"/>
  <text x="161" y="603" text-anchor="middle" font-size="8" fill="#A0AABB">3/6</text>
  <rect x="188" y="590" width="34" height="20" rx="3" fill="#0066CC" opacity="0.58"/>
  <text x="205" y="603" text-anchor="middle" font-size="8" fill="white">6/9</text>
  <rect x="232" y="590" width="34" height="20" rx="3" fill="#0066CC" opacity="0.55"/>
  <text x="249" y="603" text-anchor="middle" font-size="8" fill="white">9/14</text>
  <rect x="276" y="590" width="34" height="20" rx="3" fill="#0066CC" opacity="0.28"/>
  <text x="293" y="603" text-anchor="middle" font-size="8" fill="#A0AABB">4/12</text>
  <rect x="320" y="590" width="34" height="20" rx="3" fill="#0066CC" opacity="0.55"/>
  <text x="337" y="603" text-anchor="middle" font-size="8" fill="white">7/11</text>
  <rect x="364" y="590" width="34" height="20" rx="3" fill="#0066CC" opacity="0.65"/>
  <text x="381" y="603" text-anchor="middle" font-size="8" fill="white">12/17</text>
  <rect x="408" y="590" width="34" height="20" rx="3" fill="#0066CC" opacity="0.18"/>
  <text x="425" y="603" text-anchor="middle" font-size="8" fill="#A0AABB">3/14</text>
  <rect x="452" y="590" width="34" height="20" rx="3" fill="#0066CC" opacity="0.45"/>
  <text x="469" y="603" text-anchor="middle" font-size="8" fill="#0066CC">7/13</text>

  <!-- Legend -->
  <text x="100" y="630" font-size="10" fill="#A0AABB">Coverage:</text>
  <rect x="160" y="621" width="16" height="10" rx="2" fill="#0066CC" opacity="0.15"/>
  <text x="180" y="630" font-size="9" fill="#A0AABB">Low</text>
  <rect x="210" y="621" width="16" height="10" rx="2" fill="#0066CC" opacity="0.40"/>
  <text x="230" y="630" font-size="9" fill="#A0AABB">Mid</text>
  <rect x="256" y="621" width="16" height="10" rx="2" fill="#0066CC" opacity="0.65"/>
  <text x="276" y="630" font-size="9" fill="#A0AABB">High</text>
  <rect x="304" y="621" width="16" height="10" rx="2" fill="#0066CC" opacity="0.85"/>
  <text x="324" y="630" font-size="9" fill="#A0AABB">Full</text>

  <!-- Summary bar chart -->
  <text x="100" y="652" font-size="10" fill="#A0AABB">Tactic summary (covered / total)</text>
  <!-- 9 mini bars -->
  <rect x="100" y="658" width="34" height="36" rx="2" fill="#E8ECF0"/>
  <rect x="100" y="672" width="34" height="22" rx="2" fill="#0066CC" opacity="0.6"/>
  <text x="117" y="706" text-anchor="middle" font-size="8" fill="#A0AABB">RCN</text>
  <rect x="142" y="658" width="34" height="36" rx="2" fill="#E8ECF0"/>
  <rect x="142" y="675" width="34" height="19" rx="2" fill="#0066CC" opacity="0.5"/>
  <text x="159" y="706" text-anchor="middle" font-size="8" fill="#A0AABB">RES</text>
  <rect x="184" y="658" width="34" height="36" rx="2" fill="#E8ECF0"/>
  <rect x="184" y="659" width="34" height="35" rx="2" fill="#0066CC" opacity="0.8"/>
  <text x="201" y="706" text-anchor="middle" font-size="8" fill="#A0AABB">INIT</text>
  <rect x="226" y="658" width="34" height="36" rx="2" fill="#E8ECF0"/>
  <rect x="226" y="660" width="34" height="34" rx="2" fill="#0066CC" opacity="0.8"/>
  <text x="243" y="706" text-anchor="middle" font-size="8" fill="#A0AABB">EXE</text>
  <rect x="268" y="658" width="34" height="36" rx="2" fill="#E8ECF0"/>
  <rect x="268" y="670" width="34" height="24" rx="2" fill="#0066CC" opacity="0.5"/>
  <text x="285" y="706" text-anchor="middle" font-size="8" fill="#A0AABB">PRS</text>
  <rect x="310" y="658" width="34" height="36" rx="2" fill="#E8ECF0"/>
  <rect x="310" y="666" width="34" height="28" rx="2" fill="#0066CC" opacity="0.6"/>
  <text x="327" y="706" text-anchor="middle" font-size="8" fill="#A0AABB">PRV</text>
  <rect x="352" y="658" width="34" height="36" rx="2" fill="#E8ECF0"/>
  <rect x="352" y="660" width="34" height="34" rx="2" fill="#0066CC" opacity="0.78"/>
  <text x="369" y="706" text-anchor="middle" font-size="8" fill="#A0AABB">DEF</text>
  <rect x="394" y="658" width="34" height="36" rx="2" fill="#E8ECF0"/>
  <rect x="394" y="676" width="34" height="18" rx="2" fill="#0066CC" opacity="0.4"/>
  <text x="411" y="706" text-anchor="middle" font-size="8" fill="#A0AABB">CRD</text>
  <rect x="436" y="658" width="34" height="36" rx="2" fill="#E8ECF0"/>
  <rect x="436" y="668" width="34" height="26" rx="2" fill="#0066CC" opacity="0.55"/>
  <text x="453" y="706" text-anchor="middle" font-size="8" fill="#A0AABB">DIS</text>

  <!-- ── Recent Critical Detections ── -->
  <rect x="536" y="452" width="796" height="252" rx="6" fill="white" filter="url(#card)"/>
  <text x="556" y="474" font-size="12" fill="#1C2D40" font-weight="600">Recent Critical Detections</text>
  <text x="556" y="488" font-size="11" fill="#A0AABB">Top severity alerts · last 24 hours</text>
  <text x="1278" y="474" font-size="11" fill="#0066CC">View all →</text>

  <!-- Table header -->
  <rect x="536" y="494" width="796" height="26" fill="#F9FAFB" rx="0"/>
  <text x="556" y="511" font-size="10" fill="#A0AABB" font-weight="500">SEV</text>
  <text x="596" y="511" font-size="10" fill="#A0AABB" font-weight="500">TECHNIQUE</text>
  <text x="704" y="511" font-size="10" fill="#A0AABB" font-weight="500">DETECTION NAME</text>
  <text x="970" y="511" font-size="10" fill="#A0AABB" font-weight="500">HOST</text>
  <text x="1094" y="511" font-size="10" fill="#A0AABB" font-weight="500">STATUS</text>
  <text x="1228" y="511" font-size="10" fill="#A0AABB" font-weight="500">TIME</text>
  <line x1="536" y1="520" x2="1332" y2="520" stroke="#E8ECF0" stroke-width="1"/>

  <!-- Row 1 -->
  <rect x="536" y="520" width="796" height="33" fill="white"/>
  <circle cx="567" cy="537" r="9" fill="#FDECEA"/>
  <text x="567" y="540" text-anchor="middle" font-size="8" fill="#CC3333" font-weight="700">9.2</text>
  <text x="596" y="540" font-size="11" fill="#0066CC">T1055.001</text>
  <text x="704" y="540" font-size="11" fill="#1C2D40">Process Injection via DLL</text>
  <text x="970" y="540" font-size="11" fill="#1C2D40">WS-PROD-114</text>
  <rect x="1090" y="528" width="52" height="16" rx="8" fill="#FDECEA"/>
  <text x="1116" y="539" text-anchor="middle" font-size="9" fill="#CC3333" font-weight="500">Active</text>
  <text x="1228" y="540" font-size="11" fill="#A0AABB">14:28</text>
  <line x1="536" y1="553" x2="1332" y2="553" stroke="#F4F6F8" stroke-width="1"/>

  <!-- Row 2 -->
  <rect x="536" y="553" width="796" height="33" fill="white"/>
  <circle cx="567" cy="570" r="9" fill="#FDECEA"/>
  <text x="567" y="573" text-anchor="middle" font-size="8" fill="#CC3333" font-weight="700">9.0</text>
  <text x="596" y="573" font-size="11" fill="#0066CC">T1003.006</text>
  <text x="704" y="573" font-size="11" fill="#1C2D40">DCSync via DRSUAPI</text>
  <text x="970" y="573" font-size="11" fill="#1C2D40">DC-PROD-01</text>
  <rect x="1090" y="561" width="52" height="16" rx="8" fill="#FDECEA"/>
  <text x="1116" y="572" text-anchor="middle" font-size="9" fill="#CC3333" font-weight="500">Active</text>
  <text x="1228" y="573" font-size="11" fill="#A0AABB">14:21</text>
  <line x1="536" y1="586" x2="1332" y2="586" stroke="#F4F6F8" stroke-width="1"/>

  <!-- Row 3 -->
  <rect x="536" y="586" width="796" height="33" fill="white"/>
  <circle cx="567" cy="603" r="9" fill="#FEF3E2"/>
  <text x="567" y="606" text-anchor="middle" font-size="8" fill="#CC6600" font-weight="700">8.7</text>
  <text x="596" y="606" font-size="11" fill="#0066CC">T1558.003</text>
  <text x="704" y="606" font-size="11" fill="#1C2D40">Kerberoasting — SPN Scan</text>
  <text x="970" y="606" font-size="11" fill="#1C2D40">SRV-AUTH-07</text>
  <rect x="1090" y="594" width="80" height="16" rx="8" fill="#FEF3E2"/>
  <text x="1130" y="605" text-anchor="middle" font-size="9" fill="#CC6600" font-weight="500">Investigating</text>
  <text x="1228" y="606" font-size="11" fill="#A0AABB">14:09</text>
  <line x1="536" y1="619" x2="1332" y2="619" stroke="#F4F6F8" stroke-width="1"/>

  <!-- Row 4 -->
  <rect x="536" y="619" width="796" height="33" fill="white"/>
  <circle cx="567" cy="636" r="9" fill="#FEF3E2"/>
  <text x="567" y="639" text-anchor="middle" font-size="8" fill="#CC6600" font-weight="700">8.4</text>
  <text x="596" y="639" font-size="11" fill="#0066CC">T1550.003</text>
  <text x="704" y="639" font-size="11" fill="#1C2D40">Pass the Ticket — Lateral Move</text>
  <text x="970" y="639" font-size="11" fill="#1C2D40">WS-FIN-022</text>
  <rect x="1090" y="627" width="60" height="16" rx="8" fill="#EBF5EB"/>
  <text x="1120" y="638" text-anchor="middle" font-size="9" fill="#2E7D32" font-weight="500">Resolved</text>
  <text x="1228" y="639" font-size="11" fill="#A0AABB">13:58</text>
  <line x1="536" y1="652" x2="1332" y2="652" stroke="#F4F6F8" stroke-width="1"/>

  <!-- Row 5 -->
  <rect x="536" y="652" width="796" height="33" fill="white"/>
  <circle cx="567" cy="669" r="9" fill="#FEF3E2"/>
  <text x="567" y="672" text-anchor="middle" font-size="8" fill="#CC6600" font-weight="700">8.1</text>
  <text x="596" y="669" font-size="11" fill="#0066CC">T1078.002</text>
  <text x="704" y="669" font-size="11" fill="#1C2D40">Valid Domain Admin Account</text>
  <text x="970" y="669" font-size="11" fill="#1C2D40">FS-CORP-05</text>
  <rect x="1090" y="657" width="52" height="16" rx="8" fill="#FDECEA"/>
  <text x="1116" y="668" text-anchor="middle" font-size="9" fill="#CC3333" font-weight="500">Active</text>
  <text x="1228" y="669" font-size="11" fill="#A0AABB">13:44</text>
  <line x1="536" y1="685" x2="1332" y2="685" stroke="#F4F6F8" stroke-width="1"/>

  <!-- Row 6 -->
  <rect x="536" y="685" width="796" height="33" fill="white"/>
  <circle cx="567" cy="702" r="9" fill="#EBF2FF"/>
  <text x="567" y="705" text-anchor="middle" font-size="8" fill="#0055AA" font-weight="700">6.8</text>
  <text x="596" y="702" font-size="11" fill="#0066CC">T1059.001</text>
  <text x="704" y="702" font-size="11" fill="#1C2D40">PowerShell Encoded Command</text>
  <text x="970" y="702" font-size="11" fill="#1C2D40">WS-DEV-031</text>
  <rect x="1090" y="690" width="60" height="16" rx="8" fill="#EBF5EB"/>
  <text x="1120" y="701" text-anchor="middle" font-size="9" fill="#2E7D32" font-weight="500">Resolved</text>
  <text x="1228" y="702" font-size="11" fill="#A0AABB">13:30</text>

  <!-- ── Integration Status ── -->
  <rect x="72" y="720" width="1260" height="82" rx="6" fill="white" filter="url(#card)"/>
  <text x="92" y="742" font-size="12" fill="#1C2D40" font-weight="600">Integration Status</text>

  <!-- 8 integration tiles -->
  <!-- Elastic SIEM -->
  <rect x="92" y="750" width="140" height="40" rx="5" fill="#F9FAFB" stroke="#E8ECF0" stroke-width="1"/>
  <circle cx="106" cy="761" r="4" fill="#2E7D32"/>
  <text x="114" y="764" font-size="10" fill="#1C2D40" font-weight="600">Elastic SIEM</text>
  <text x="106" y="780" font-size="9" fill="#A0AABB">14,204 events/min</text>

  <!-- Sentinel -->
  <rect x="244" y="750" width="140" height="40" rx="5" fill="#F9FAFB" stroke="#E8ECF0" stroke-width="1"/>
  <circle cx="258" cy="761" r="4" fill="#2E7D32"/>
  <text x="266" y="764" font-size="10" fill="#1C2D40" font-weight="600">MS Sentinel</text>
  <text x="258" y="780" font-size="9" fill="#A0AABB">8,901 events/min</text>

  <!-- Splunk — warning -->
  <rect x="396" y="750" width="140" height="40" rx="5" fill="#FFFBF0" stroke="#F0D580" stroke-width="1"/>
  <circle cx="410" cy="761" r="4" fill="#CC6600"/>
  <text x="418" y="764" font-size="10" fill="#1C2D40" font-weight="600">Splunk</text>
  <text x="410" y="780" font-size="9" fill="#CC6600">Auth error — token expired</text>

  <!-- CrowdStrike -->
  <rect x="548" y="750" width="140" height="40" rx="5" fill="#F9FAFB" stroke="#E8ECF0" stroke-width="1"/>
  <circle cx="562" cy="761" r="4" fill="#2E7D32"/>
  <text x="570" y="764" font-size="10" fill="#1C2D40" font-weight="600">CrowdStrike</text>
  <text x="562" y="780" font-size="9" fill="#A0AABB">EDR: 2,102 hosts</text>

  <!-- Tenable -->
  <rect x="700" y="750" width="140" height="40" rx="5" fill="#F9FAFB" stroke="#E8ECF0" stroke-width="1"/>
  <circle cx="714" cy="761" r="4" fill="#2E7D32"/>
  <text x="722" y="764" font-size="10" fill="#1C2D40" font-weight="600">Tenable.io</text>
  <text x="714" y="780" font-size="9" fill="#A0AABB">VM: 4,780 assets</text>

  <!-- Okta -->
  <rect x="852" y="750" width="140" height="40" rx="5" fill="#F9FAFB" stroke="#E8ECF0" stroke-width="1"/>
  <circle cx="866" cy="761" r="4" fill="#2E7D32"/>
  <text x="874" y="764" font-size="10" fill="#1C2D40" font-weight="600">Okta</text>
  <text x="866" y="780" font-size="9" fill="#A0AABB">IAM: 12,400 users</text>

  <!-- Palo Alto -->
  <rect x="1004" y="750" width="140" height="40" rx="5" fill="#F9FAFB" stroke="#E8ECF0" stroke-width="1"/>
  <circle cx="1018" cy="761" r="4" fill="#2E7D32"/>
  <text x="1026" y="764" font-size="10" fill="#1C2D40" font-weight="600">Palo Alto FW</text>
  <text x="1018" y="780" font-size="9" fill="#A0AABB">NGFW: 6 devices</text>

  <!-- Wiz — disabled -->
  <rect x="1156" y="750" width="140" height="40" rx="5" fill="#F9FAFB" stroke="#E8ECF0" stroke-width="1" opacity="0.55"/>
  <circle cx="1170" cy="761" r="4" fill="#C8D0DC"/>
  <text x="1178" y="764" font-size="10" fill="#A0AABB">Wiz CSPM</text>
  <text x="1170" y="780" font-size="9" fill="#C8D0DC">Not configured</text>

  <!-- Footer -->
  <rect x="0" y="882" width="1400" height="18" fill="#F0F2F5"/>
  <rect x="0" y="882" width="1400" height="1" fill="#E0E4EA"/>
  <text x="72" y="895" font-size="9" fill="#A0AABB">MxTac v2.4.1  ·  7/8 integrations active  ·  Last sync: 14:30 UTC</text>
  <circle cx="1346" cy="891" r="3" fill="#2E7D32"/>
  <text x="1354" y="895" font-size="9" fill="#2E7D32">Operational</text>
</svg>
