<svg xmlns="http://www.w3.org/2000/svg" viewBox="0 0 1400 900" width="1400" height="900" font-family="'Segoe UI', Inter, sans-serif">
  <defs>
    <filter id="card" x="-4%" y="-4%" width="108%" height="120%">
      <feDropShadow dx="0" dy="1" stdDeviation="2" flood-color="#0000000D"/>
    </filter>
  </defs>

  <rect width="1400" height="900" fill="#F4F6F8"/>

  <!-- Sidebar -->
  <rect x="0" y="0" width="52" height="900" fill="#FFFFFF"/>
  <rect x="51" y="0" width="1" height="900" fill="#E8ECF0"/>
  <rect x="10" y="12" width="32" height="32" rx="6" fill="#0066CC"/>
  <text x="26" y="33" text-anchor="middle" fill="white" font-size="14" font-weight="700">K</text>
  <text x="26" y="82" text-anchor="middle" font-size="15" fill="#A0AABB">⊞</text>
  <text x="26" y="128" text-anchor="middle" font-size="15" fill="#A0AABB">⚡</text>
  <text x="26" y="166" text-anchor="middle" font-size="15" fill="#A0AABB">⬡</text>
  <text x="26" y="208" text-anchor="middle" font-size="15" fill="#A0AABB">🖥</text>
  <text x="26" y="250" text-anchor="middle" font-size="15" fill="#A0AABB">⏱</text>
  <text x="26" y="292" text-anchor="middle" font-size="15" fill="#A0AABB">🔌</text>
  <!-- Reports active -->
  <rect x="6" y="312" width="40" height="34" rx="6" fill="#EBF3FF"/>
  <rect x="6" y="312" width="3" height="34" rx="1" fill="#0066CC"/>
  <text x="26" y="334" text-anchor="middle" font-size="15" fill="#0066CC">📋</text>
  <text x="26" y="858" text-anchor="middle" font-size="15" fill="#A0AABB">⚙</text>

  <!-- Top bar -->
  <rect x="52" y="0" width="1348" height="46" fill="white"/>
  <rect x="52" y="45" width="1348" height="1" fill="#E8ECF0"/>
  <text x="72" y="25" font-size="12" fill="#A0AABB">KYRA MDR</text>
  <text x="136" y="25" font-size="12" fill="#A0AABB">/</text>
  <text x="146" y="25" font-size="12" fill="#1C2D40" font-weight="600">Reports</text>
  <text x="1150" y="26" font-size="11" fill="#A0AABB">Updated 14:32 UTC</text>

  <!-- Page Header -->
  <text x="72" y="76" font-size="18" fill="#1C2D40" font-weight="700">Reports</text>
  <text x="72" y="94" font-size="12" fill="#A0AABB">Generate and manage security reports</text>

  <!-- Report Type Cards -->
  <!-- Card 1: Security Summary -->
  <rect x="72" y="110" width="290" height="150" rx="6" fill="white" filter="url(#card)"/>
  <rect x="92" y="130" width="44" height="44" rx="10" fill="#EBF3FF"/>
  <text x="114" y="157" text-anchor="middle" font-size="20" fill="#0066CC">🛡</text>
  <text x="92" y="194" font-size="13" fill="#1C2D40" font-weight="600">Security Summary</text>
  <text x="92" y="212" font-size="11" fill="#A0AABB">Weekly overview of detections,</text>
  <text x="92" y="226" font-size="11" fill="#A0AABB">incidents, and threat landscape</text>
  <rect x="92" y="236" width="80" height="26" rx="4" fill="#0066CC"/>
  <text x="132" y="253" text-anchor="middle" font-size="11" fill="white" font-weight="500">Generate</text>

  <!-- Card 2: Incident Report -->
  <rect x="378" y="110" width="290" height="150" rx="6" fill="white" filter="url(#card)"/>
  <rect x="398" y="130" width="44" height="44" rx="10" fill="#FDECEA"/>
  <text x="420" y="157" text-anchor="middle" font-size="20" fill="#CC3333">⚠</text>
  <text x="398" y="194" font-size="13" fill="#1C2D40" font-weight="600">Incident Report</text>
  <text x="398" y="212" font-size="11" fill="#A0AABB">Detailed incident analysis with</text>
  <text x="398" y="226" font-size="11" fill="#A0AABB">timeline, impact, and remediation</text>
  <rect x="398" y="236" width="80" height="26" rx="4" fill="#0066CC"/>
  <text x="438" y="253" text-anchor="middle" font-size="11" fill="white" font-weight="500">Generate</text>

  <!-- Card 3: Compliance Audit -->
  <rect x="684" y="110" width="290" height="150" rx="6" fill="white" filter="url(#card)"/>
  <rect x="704" y="130" width="44" height="44" rx="10" fill="#EBF5EB"/>
  <text x="726" y="157" text-anchor="middle" font-size="20" fill="#2E7D32">✓</text>
  <text x="704" y="194" font-size="13" fill="#1C2D40" font-weight="600">Compliance Audit</text>
  <text x="704" y="212" font-size="11" fill="#A0AABB">Regulatory compliance status for</text>
  <text x="704" y="226" font-size="11" fill="#A0AABB">SOC2, ISO 27001, PCI-DSS</text>
  <rect x="704" y="236" width="80" height="26" rx="4" fill="#0066CC"/>
  <text x="744" y="253" text-anchor="middle" font-size="11" fill="white" font-weight="500">Generate</text>

  <!-- Card 4: Threat Intelligence -->
  <rect x="990" y="110" width="290" height="150" rx="6" fill="white" filter="url(#card)"/>
  <rect x="1010" y="130" width="44" height="44" rx="10" fill="#FEF3E2"/>
  <text x="1032" y="157" text-anchor="middle" font-size="20" fill="#CC6600">🌐</text>
  <text x="1010" y="194" font-size="13" fill="#1C2D40" font-weight="600">Threat Intelligence</text>
  <text x="1010" y="212" font-size="11" fill="#A0AABB">IOC analysis, threat actor</text>
  <text x="1010" y="226" font-size="11" fill="#A0AABB">profiling, and CTI summary</text>
  <rect x="1010" y="236" width="80" height="26" rx="4" fill="#0066CC"/>
  <text x="1050" y="253" text-anchor="middle" font-size="11" fill="white" font-weight="500">Generate</text>

  <!-- Recent Reports Table -->
  <rect x="72" y="280" width="1260" height="580" rx="6" fill="white" filter="url(#card)"/>
  <text x="92" y="304" font-size="13" fill="#1C2D40" font-weight="600">Recent Reports</text>
  <text x="92" y="320" font-size="11" fill="#A0AABB">Previously generated reports</text>

  <!-- Table header -->
  <rect x="72" y="332" width="1260" height="26" fill="#F9FAFB"/>
  <text x="92" y="349" font-size="10" fill="#A0AABB" font-weight="500">REPORT NAME</text>
  <text x="420" y="349" font-size="10" fill="#A0AABB" font-weight="500">TYPE</text>
  <text x="560" y="349" font-size="10" fill="#A0AABB" font-weight="500">DATE RANGE</text>
  <text x="720" y="349" font-size="10" fill="#A0AABB" font-weight="500">FORMAT</text>
  <text x="810" y="349" font-size="10" fill="#A0AABB" font-weight="500">STATUS</text>
  <text x="930" y="349" font-size="10" fill="#A0AABB" font-weight="500">CREATED</text>
  <text x="1100" y="349" font-size="10" fill="#A0AABB" font-weight="500">SIZE</text>
  <text x="1200" y="349" font-size="10" fill="#A0AABB" font-weight="500">ACTIONS</text>
  <line x1="72" y1="358" x2="1332" y2="358" stroke="#E8ECF0" stroke-width="1"/>

  <!-- Row 1 -->
  <text x="92" y="382" font-size="11" fill="#1C2D40" font-weight="500">Weekly Security Summary — Week 10</text>
  <rect x="420" y="370" width="90" height="16" rx="8" fill="#EBF3FF"/>
  <text x="465" y="382" text-anchor="middle" font-size="9" fill="#0066CC">Security Summary</text>
  <text x="560" y="382" font-size="11" fill="#5A6B82">Mar 3 – Mar 9</text>
  <rect x="720" y="370" width="36" height="16" rx="4" fill="#FDECEA"/>
  <text x="738" y="382" text-anchor="middle" font-size="9" fill="#CC3333" font-weight="500">PDF</text>
  <rect x="810" y="370" width="72" height="16" rx="8" fill="#EBF5EB"/>
  <text x="846" y="382" text-anchor="middle" font-size="9" fill="#2E7D32" font-weight="500">Completed</text>
  <text x="930" y="382" font-size="11" fill="#A0AABB">Mar 10, 08:00</text>
  <text x="1100" y="382" font-size="11" fill="#5A6B82">2.4 MB</text>
  <rect x="1196" y="370" width="74" height="20" rx="4" fill="#F4F6F8" stroke="#DDE3EB" stroke-width="1"/>
  <text x="1233" y="383" text-anchor="middle" font-size="10" fill="#0066CC">↓ Download</text>
  <line x1="76" y1="396" x2="1328" y2="396" stroke="#F4F6F8" stroke-width="1"/>

  <!-- Row 2 -->
  <text x="92" y="420" font-size="11" fill="#1C2D40" font-weight="500">INC-2843 — Kerberoasting Investigation</text>
  <rect x="420" y="408" width="90" height="16" rx="8" fill="#FDECEA"/>
  <text x="465" y="420" text-anchor="middle" font-size="9" fill="#CC3333">Incident Report</text>
  <text x="560" y="420" font-size="11" fill="#5A6B82">Mar 12</text>
  <rect x="720" y="408" width="36" height="16" rx="4" fill="#FDECEA"/>
  <text x="738" y="420" text-anchor="middle" font-size="9" fill="#CC3333" font-weight="500">PDF</text>
  <rect x="810" y="408" width="72" height="16" rx="8" fill="#EBF5EB"/>
  <text x="846" y="420" text-anchor="middle" font-size="9" fill="#2E7D32" font-weight="500">Completed</text>
  <text x="930" y="420" font-size="11" fill="#A0AABB">Mar 12, 11:30</text>
  <text x="1100" y="420" font-size="11" fill="#5A6B82">1.8 MB</text>
  <rect x="1196" y="408" width="74" height="20" rx="4" fill="#F4F6F8" stroke="#DDE3EB" stroke-width="1"/>
  <text x="1233" y="421" text-anchor="middle" font-size="10" fill="#0066CC">↓ Download</text>
  <line x1="76" y1="434" x2="1328" y2="434" stroke="#F4F6F8" stroke-width="1"/>

  <!-- Row 3 -->
  <text x="92" y="458" font-size="11" fill="#1C2D40" font-weight="500">SOC2 Compliance Audit — Q1 2026</text>
  <rect x="420" y="446" width="100" height="16" rx="8" fill="#EBF5EB"/>
  <text x="470" y="458" text-anchor="middle" font-size="9" fill="#2E7D32">Compliance Audit</text>
  <text x="560" y="458" font-size="11" fill="#5A6B82">Jan 1 – Mar 10</text>
  <rect x="720" y="446" width="36" height="16" rx="4" fill="#EBF5EB"/>
  <text x="738" y="458" text-anchor="middle" font-size="9" fill="#2E7D32" font-weight="500">CSV</text>
  <rect x="810" y="446" width="72" height="16" rx="8" fill="#EBF5EB"/>
  <text x="846" y="458" text-anchor="middle" font-size="9" fill="#2E7D32" font-weight="500">Completed</text>
  <text x="930" y="458" font-size="11" fill="#A0AABB">Mar 11, 09:15</text>
  <text x="1100" y="458" font-size="11" fill="#5A6B82">4.1 MB</text>
  <rect x="1196" y="446" width="74" height="20" rx="4" fill="#F4F6F8" stroke="#DDE3EB" stroke-width="1"/>
  <text x="1233" y="459" text-anchor="middle" font-size="10" fill="#0066CC">↓ Download</text>
  <line x1="76" y1="472" x2="1328" y2="472" stroke="#F4F6F8" stroke-width="1"/>

  <!-- Row 4 — Generating -->
  <text x="92" y="496" font-size="11" fill="#1C2D40" font-weight="500">Threat Intelligence Summary — Week 10</text>
  <rect x="420" y="484" width="110" height="16" rx="8" fill="#FEF3E2"/>
  <text x="475" y="496" text-anchor="middle" font-size="9" fill="#CC6600">Threat Intelligence</text>
  <text x="560" y="496" font-size="11" fill="#5A6B82">Mar 3 – Mar 9</text>
  <rect x="720" y="484" width="40" height="16" rx="4" fill="#EBF3FF"/>
  <text x="740" y="496" text-anchor="middle" font-size="9" fill="#0066CC" font-weight="500">JSON</text>
  <rect x="810" y="484" width="80" height="16" rx="8" fill="#FEF3E2"/>
  <text x="850" y="496" text-anchor="middle" font-size="9" fill="#CC6600" font-weight="500">Generating...</text>
  <!-- Spinner -->
  <text x="930" y="496" font-size="11" fill="#A0AABB">Mar 12, 14:28</text>
  <text x="1100" y="496" font-size="11" fill="#C8D0DC">—</text>
  <rect x="1196" y="484" width="74" height="20" rx="4" fill="#F4F6F8" opacity="0.5"/>
  <text x="1233" y="497" text-anchor="middle" font-size="10" fill="#C8D0DC">↓ Download</text>
  <line x1="76" y1="510" x2="1328" y2="510" stroke="#F4F6F8" stroke-width="1"/>

  <!-- Row 5 — Failed -->
  <text x="92" y="534" font-size="11" fill="#1C2D40" font-weight="500">Monthly Executive Briefing — February 2026</text>
  <rect x="420" y="522" width="90" height="16" rx="8" fill="#EBF3FF"/>
  <text x="465" y="534" text-anchor="middle" font-size="9" fill="#0066CC">Security Summary</text>
  <text x="560" y="534" font-size="11" fill="#5A6B82">Feb 1 – Feb 28</text>
  <rect x="720" y="522" width="36" height="16" rx="4" fill="#FDECEA"/>
  <text x="738" y="534" text-anchor="middle" font-size="9" fill="#CC3333" font-weight="500">PDF</text>
  <rect x="810" y="522" width="54" height="16" rx="8" fill="#FDECEA"/>
  <text x="837" y="534" text-anchor="middle" font-size="9" fill="#CC3333" font-weight="500">Failed</text>
  <text x="930" y="534" font-size="11" fill="#A0AABB">Mar 1, 08:00</text>
  <text x="1100" y="534" font-size="11" fill="#C8D0DC">—</text>
  <rect x="1196" y="522" width="56" height="20" rx="4" fill="#FDECEA" stroke="#CC3333" stroke-width="1"/>
  <text x="1224" y="535" text-anchor="middle" font-size="10" fill="#CC3333">Retry</text>

  <!-- Pagination -->
  <text x="92" y="836" font-size="11" fill="#A0AABB">Showing 1-5 of 12 reports</text>

  <!-- Footer -->
  <rect x="0" y="882" width="1400" height="18" fill="#F0F2F5"/>
  <rect x="0" y="882" width="1400" height="1" fill="#E0E4EA"/>
  <text x="72" y="895" font-size="9" fill="#A0AABB">KYRA MDR v1.0  ·  12 reports  ·  4 report types</text>
  <circle cx="1346" cy="891" r="3" fill="#2E7D32"/>
  <text x="1354" y="895" font-size="9" fill="#2E7D32">Operational</text>
</svg>
