<svg xmlns="http://www.w3.org/2000/svg" viewBox="0 0 1400 900" width="1400" height="900" font-family="'Segoe UI', Inter, sans-serif">
  <defs>
    <filter id="card" x="-4%" y="-4%" width="108%" height="120%">
      <feDropShadow dx="0" dy="1" stdDeviation="2" flood-color="#0000000D"/>
    </filter>
  </defs>

  <rect width="1400" height="900" fill="#F4F6F8"/>

  <!-- Sidebar -->
  <rect x="0" y="0" width="52" height="900" fill="#FFFFFF"/>
  <rect x="51" y="0" width="1" height="900" fill="#E8ECF0"/>
  <rect x="10" y="12" width="32" height="32" rx="6" fill="#0066CC"/>
  <text x="26" y="33" text-anchor="middle" fill="white" font-size="14" font-weight="700">K</text>
  <text x="26" y="82" text-anchor="middle" font-size="15" fill="#A0AABB">⊞</text>
  <text x="26" y="128" text-anchor="middle" font-size="15" fill="#A0AABB">⚡</text>
  <text x="26" y="166" text-anchor="middle" font-size="15" fill="#A0AABB">⬡</text>
  <text x="26" y="208" text-anchor="middle" font-size="15" fill="#A0AABB">🖥</text>
  <text x="26" y="250" text-anchor="middle" font-size="15" fill="#A0AABB">⏱</text>
  <text x="26" y="292" text-anchor="middle" font-size="15" fill="#A0AABB">🔌</text>
  <text x="26" y="334" text-anchor="middle" font-size="15" fill="#A0AABB">📋</text>
  <!-- Settings active -->
  <rect x="6" y="842" width="40" height="34" rx="6" fill="#EBF3FF"/>
  <rect x="6" y="842" width="3" height="34" rx="1" fill="#0066CC"/>
  <text x="26" y="864" text-anchor="middle" font-size="15" fill="#0066CC">⚙</text>

  <!-- Top bar -->
  <rect x="52" y="0" width="1348" height="46" fill="white"/>
  <rect x="52" y="45" width="1348" height="1" fill="#E8ECF0"/>
  <text x="72" y="25" font-size="12" fill="#A0AABB">KYRA MDR</text>
  <text x="136" y="25" font-size="12" fill="#A0AABB">/</text>
  <text x="146" y="25" font-size="12" fill="#1C2D40" font-weight="600">Settings</text>
  <text x="1150" y="26" font-size="11" fill="#A0AABB">Updated 14:32 UTC</text>

  <!-- Page Header -->
  <text x="72" y="76" font-size="18" fill="#1C2D40" font-weight="700">Settings</text>
  <text x="72" y="94" font-size="12" fill="#A0AABB">Manage your account and preferences</text>

  <!-- Tabs -->
  <rect x="72" y="110" width="1260" height="38" rx="6" fill="white" filter="url(#card)"/>
  <text x="132" y="133" text-anchor="middle" font-size="12" fill="#0066CC" font-weight="600">Profile</text>
  <rect x="92" y="143" width="80" height="2" fill="#0066CC"/>
  <text x="260" y="133" text-anchor="middle" font-size="12" fill="#A0AABB">Notifications</text>
  <text x="380" y="133" text-anchor="middle" font-size="12" fill="#A0AABB">API Keys</text>

  <!-- Profile Content -->
  <!-- Personal Info Card -->
  <rect x="72" y="164" width="600" height="300" rx="6" fill="white" filter="url(#card)"/>
  <text x="92" y="190" font-size="13" fill="#1C2D40" font-weight="600">Personal Information</text>
  <text x="92" y="206" font-size="11" fill="#A0AABB">Update your account details</text>

  <!-- Avatar -->
  <circle cx="122" cy="246" r="28" fill="#EBF3FF"/>
  <text x="122" y="252" text-anchor="middle" font-size="16" fill="#0066CC" font-weight="600">JS</text>
  <text x="164" y="242" font-size="12" fill="#1C2D40" font-weight="500">J. Smith</text>
  <text x="164" y="258" font-size="11" fill="#A0AABB">SOC Analyst — Tier 2</text>
  <rect x="500" y="232" width="100" height="28" rx="4" fill="#F4F6F8" stroke="#DDE3EB" stroke-width="1"/>
  <text x="550" y="250" text-anchor="middle" font-size="10" fill="#5A6B82">Change Photo</text>

  <!-- Form fields -->
  <text x="92" y="296" font-size="10" fill="#5A6B82" font-weight="500">Full Name</text>
  <rect x="92" y="302" width="240" height="32" rx="4" fill="#F4F6F8" stroke="#DDE3EB" stroke-width="1"/>
  <text x="108" y="322" font-size="11" fill="#1C2D40">James Smith</text>

  <text x="352" y="296" font-size="10" fill="#5A6B82" font-weight="500">Email</text>
  <rect x="352" y="302" width="240" height="32" rx="4" fill="#F4F6F8" stroke="#DDE3EB" stroke-width="1"/>
  <text x="368" y="322" font-size="11" fill="#1C2D40">j.smith@company.com</text>

  <text x="92" y="356" font-size="10" fill="#5A6B82" font-weight="500">Role</text>
  <rect x="92" y="362" width="240" height="32" rx="4" fill="#F9FAFB" stroke="#DDE3EB" stroke-width="1"/>
  <text x="108" y="382" font-size="11" fill="#A0AABB">SOC Analyst (read-only)</text>

  <text x="352" y="356" font-size="10" fill="#5A6B82" font-weight="500">Team</text>
  <rect x="352" y="362" width="240" height="32" rx="4" fill="#F9FAFB" stroke="#DDE3EB" stroke-width="1"/>
  <text x="368" y="382" font-size="11" fill="#A0AABB">SOC Team Alpha</text>

  <!-- Save button -->
  <rect x="92" y="418" width="100" height="32" rx="6" fill="#0066CC"/>
  <text x="142" y="439" text-anchor="middle" font-size="12" fill="white" font-weight="500">Save Changes</text>
  <text x="210" y="439" font-size="11" fill="#A0AABB">Last saved: 2 days ago</text>

  <!-- Preferences Card -->
  <rect x="688" y="164" width="644" height="300" rx="6" fill="white" filter="url(#card)"/>
  <text x="708" y="190" font-size="13" fill="#1C2D40" font-weight="600">Preferences</text>
  <text x="708" y="206" font-size="11" fill="#A0AABB">Customize your experience</text>

  <text x="708" y="240" font-size="10" fill="#5A6B82" font-weight="500">Timezone</text>
  <rect x="708" y="246" width="280" height="32" rx="4" fill="#F4F6F8" stroke="#DDE3EB" stroke-width="1"/>
  <text x="724" y="266" font-size="11" fill="#1C2D40">Asia/Seoul (UTC+9)</text>
  <text x="964" y="266" font-size="11" fill="#A0AABB">▾</text>

  <text x="1010" y="240" font-size="10" fill="#5A6B82" font-weight="500">Language</text>
  <rect x="1010" y="246" width="280" height="32" rx="4" fill="#F4F6F8" stroke="#DDE3EB" stroke-width="1"/>
  <text x="1026" y="266" font-size="11" fill="#1C2D40">English (US)</text>
  <text x="1266" y="266" font-size="11" fill="#A0AABB">▾</text>

  <text x="708" y="306" font-size="10" fill="#5A6B82" font-weight="500">Date Format</text>
  <rect x="708" y="312" width="280" height="32" rx="4" fill="#F4F6F8" stroke="#DDE3EB" stroke-width="1"/>
  <text x="724" y="332" font-size="11" fill="#1C2D40">YYYY-MM-DD (ISO 8601)</text>
  <text x="964" y="332" font-size="11" fill="#A0AABB">▾</text>

  <text x="1010" y="306" font-size="10" fill="#5A6B82" font-weight="500">Theme</text>
  <rect x="1010" y="312" width="280" height="32" rx="4" fill="#F4F6F8" stroke="#DDE3EB" stroke-width="1"/>
  <text x="1026" y="332" font-size="11" fill="#1C2D40">Light</text>
  <text x="1266" y="332" font-size="11" fill="#A0AABB">▾</text>

  <!-- Toggle options -->
  <text x="708" y="376" font-size="10" fill="#5A6B82" font-weight="500">Dashboard auto-refresh</text>
  <!-- Toggle ON -->
  <rect x="708" y="384" width="36" height="18" rx="9" fill="#0066CC"/>
  <circle cx="730" cy="393" r="7" fill="white"/>
  <text x="754" y="396" font-size="11" fill="#1C2D40">Every 30 seconds</text>

  <text x="952" y="376" font-size="10" fill="#5A6B82" font-weight="500">Sound alerts</text>
  <!-- Toggle OFF -->
  <rect x="952" y="384" width="36" height="18" rx="9" fill="#C8D0DC"/>
  <circle cx="966" cy="393" r="7" fill="white"/>
  <text x="998" y="396" font-size="11" fill="#A0AABB">Disabled</text>

  <rect x="708" y="418" width="100" height="32" rx="6" fill="#0066CC"/>
  <text x="758" y="439" text-anchor="middle" font-size="12" fill="white" font-weight="500">Save Changes</text>

  <!-- Security Card -->
  <rect x="72" y="480" width="1260" height="200" rx="6" fill="white" filter="url(#card)"/>
  <text x="92" y="506" font-size="13" fill="#1C2D40" font-weight="600">Security</text>
  <text x="92" y="522" font-size="11" fill="#A0AABB">Manage password and two-factor authentication</text>

  <!-- Password section -->
  <text x="92" y="554" font-size="10" fill="#5A6B82" font-weight="500">Password</text>
  <text x="92" y="572" font-size="11" fill="#1C2D40">Last changed 14 days ago</text>
  <rect x="92" y="584" width="120" height="28" rx="4" fill="#F4F6F8" stroke="#DDE3EB" stroke-width="1"/>
  <text x="152" y="602" text-anchor="middle" font-size="10" fill="#5A6B82">Change Password</text>

  <!-- 2FA section -->
  <text x="360" y="554" font-size="10" fill="#5A6B82" font-weight="500">Two-Factor Authentication</text>
  <rect x="360" y="564" width="48" height="20" rx="10" fill="#EBF5EB"/>
  <text x="384" y="578" text-anchor="middle" font-size="9" fill="#2E7D32" font-weight="500">Active</text>
  <text x="360" y="600" font-size="11" fill="#1C2D40">Authenticator app enabled</text>
  <rect x="360" y="612" width="100" height="28" rx="4" fill="#F4F6F8" stroke="#DDE3EB" stroke-width="1"/>
  <text x="410" y="630" text-anchor="middle" font-size="10" fill="#5A6B82">Manage 2FA</text>

  <!-- Sessions section -->
  <text x="640" y="554" font-size="10" fill="#5A6B82" font-weight="500">Active Sessions</text>
  <text x="640" y="572" font-size="11" fill="#1C2D40">3 active sessions</text>
  <text x="640" y="590" font-size="10" fill="#A0AABB">Chrome on macOS — Current</text>
  <text x="640" y="606" font-size="10" fill="#A0AABB">Firefox on Windows — 2h ago</text>
  <text x="640" y="622" font-size="10" fill="#A0AABB">Mobile App — 5h ago</text>
  <rect x="640" y="636" width="140" height="28" rx="4" fill="#FDECEA" stroke="#CC3333" stroke-width="1"/>
  <text x="710" y="654" text-anchor="middle" font-size="10" fill="#CC3333">Revoke All Sessions</text>

  <!-- API Usage -->
  <text x="940" y="554" font-size="10" fill="#5A6B82" font-weight="500">API Usage This Month</text>
  <text x="940" y="580" font-size="24" fill="#1C2D40" font-weight="700">12,847</text>
  <text x="1060" y="580" font-size="12" fill="#A0AABB">/ 50,000</text>
  <!-- Usage bar -->
  <rect x="940" y="592" width="340" height="8" rx="4" fill="#E8ECF0"/>
  <rect x="940" y="592" width="88" height="8" rx="4" fill="#0066CC"/>
  <text x="940" y="616" font-size="10" fill="#A0AABB">25.7% used · Resets Apr 1</text>

  <!-- Footer -->
  <rect x="0" y="882" width="1400" height="18" fill="#F0F2F5"/>
  <rect x="0" y="882" width="1400" height="1" fill="#E0E4EA"/>
  <text x="72" y="895" font-size="9" fill="#A0AABB">KYRA MDR v1.0  ·  Account: j.smith@company.com  ·  Role: SOC Analyst</text>
  <circle cx="1346" cy="891" r="3" fill="#2E7D32"/>
  <text x="1354" y="895" font-size="9" fill="#2E7D32">Operational</text>
</svg>
