<svg xmlns="http://www.w3.org/2000/svg" viewBox="0 0 1400 900" width="1400" height="900" font-family="'Segoe UI', Inter, sans-serif">
  <defs>
    <filter id="card" x="-4%" y="-4%" width="108%" height="120%">
      <feDropShadow dx="0" dy="1" stdDeviation="2" flood-color="#0000000D"/>
    </filter>
  </defs>

  <rect width="1400" height="900" fill="#F4F6F8"/>

  <!-- Sidebar -->
  <rect x="0" y="0" width="52" height="900" fill="#FFFFFF"/>
  <rect x="51" y="0" width="1" height="900" fill="#E8ECF0"/>
  <rect x="10" y="12" width="32" height="32" rx="6" fill="#0066CC"/>
  <text x="26" y="33" text-anchor="middle" fill="white" font-size="14" font-weight="700">K</text>
  <text x="26" y="82" text-anchor="middle" font-size="15" fill="#A0AABB">⊞</text>
  <text x="26" y="128" text-anchor="middle" font-size="15" fill="#A0AABB">⚡</text>
  <text x="26" y="166" text-anchor="middle" font-size="15" fill="#A0AABB">⬡</text>
  <text x="26" y="208" text-anchor="middle" font-size="15" fill="#A0AABB">🖥</text>
  <!-- Timeline active -->
  <rect x="6" y="228" width="40" height="34" rx="6" fill="#EBF3FF"/>
  <rect x="6" y="228" width="3" height="34" rx="1" fill="#0066CC"/>
  <text x="26" y="250" text-anchor="middle" font-size="15" fill="#0066CC">⏱</text>
  <text x="26" y="296" text-anchor="middle" font-size="15" fill="#A0AABB">🔌</text>
  <text x="26" y="338" text-anchor="middle" font-size="15" fill="#A0AABB">📋</text>
  <text x="26" y="858" text-anchor="middle" font-size="15" fill="#A0AABB">⚙</text>

  <!-- Top bar -->
  <rect x="52" y="0" width="1348" height="46" fill="white"/>
  <rect x="52" y="45" width="1348" height="1" fill="#E8ECF0"/>
  <text x="72" y="25" font-size="12" fill="#A0AABB">KYRA MDR</text>
  <text x="136" y="25" font-size="12" fill="#A0AABB">/</text>
  <text x="146" y="25" font-size="12" fill="#1C2D40" font-weight="600">Log Timeline</text>
  <text x="1150" y="26" font-size="11" fill="#A0AABB">Updated 14:32 UTC</text>

  <!-- Page Header -->
  <text x="72" y="76" font-size="18" fill="#1C2D40" font-weight="700">Log Timeline</text>
  <text x="72" y="94" font-size="12" fill="#A0AABB">Search and explore security events</text>

  <!-- Search Bar Card -->
  <rect x="72" y="110" width="1260" height="62" rx="6" fill="white" filter="url(#card)"/>
  <!-- Search icon -->
  <text x="92" y="147" font-size="16" fill="#A0AABB">🔍</text>
  <!-- Search input -->
  <rect x="116" y="126" width="880" height="34" rx="6" fill="#F4F6F8" stroke="#DDE3EB" stroke-width="1"/>
  <text x="132" y="148" font-size="12" fill="#A0AABB">Search events... (e.g. source:elastic severity:critical host:DC-PROD-01)</text>
  <!-- Time range dropdown -->
  <rect x="1010" y="126" width="130" height="34" rx="6" fill="#F4F6F8" stroke="#DDE3EB" stroke-width="1"/>
  <text x="1075" y="148" text-anchor="middle" font-size="11" fill="#5A6B82">Last 24 hours ▾</text>
  <!-- Search button -->
  <rect x="1152" y="126" width="80" height="34" rx="6" fill="#0066CC"/>
  <text x="1192" y="148" text-anchor="middle" font-size="12" fill="white" font-weight="500">Search</text>
  <!-- Refresh button -->
  <rect x="1240" y="126" width="80" height="34" rx="6" fill="#F4F6F8" stroke="#DDE3EB" stroke-width="1"/>
  <text x="1280" y="148" text-anchor="middle" font-size="11" fill="#5A6B82">↻ Live</text>

  <!-- Results Summary -->
  <rect x="72" y="182" width="1260" height="28" rx="4" fill="white" filter="url(#card)"/>
  <text x="92" y="200" font-size="11" fill="#5A6B82">Found <tspan font-weight="600" fill="#1C2D40">14,892</tspan> events in <tspan font-weight="600" fill="#1C2D40">127ms</tspan></text>
  <!-- Active filters -->
  <rect x="380" y="188" width="100" height="18" rx="9" fill="#EBF3FF"/>
  <text x="430" y="201" text-anchor="middle" font-size="9" fill="#0066CC">severity:critical ×</text>
  <rect x="488" y="188" width="80" height="18" rx="9" fill="#EBF3FF"/>
  <text x="528" y="201" text-anchor="middle" font-size="9" fill="#0066CC">source:elastic ×</text>
  <text x="586" y="201" font-size="10" fill="#A0AABB">Clear all</text>
  <!-- Export -->
  <rect x="1232" y="187" width="80" height="20" rx="4" fill="#F4F6F8" stroke="#DDE3EB" stroke-width="1"/>
  <text x="1272" y="201" text-anchor="middle" font-size="10" fill="#5A6B82">Export ↓</text>

  <!-- Layout: Field Browser (left) + Events (right) -->
  <!-- Field Browser -->
  <rect x="72" y="222" width="220" height="640" rx="6" fill="white" filter="url(#card)"/>
  <text x="92" y="244" font-size="12" fill="#1C2D40" font-weight="600">Fields</text>
  <rect x="92" y="254" width="180" height="24" rx="4" fill="#F4F6F8" stroke="#DDE3EB" stroke-width="1"/>
  <text x="108" y="270" font-size="10" fill="#C8D0DC">Filter fields...</text>

  <!-- Field items -->
  <text x="92" y="300" font-size="11" fill="#1C2D40">timestamp</text>
  <rect x="234" y="290" width="38" height="14" rx="7" fill="#EBF3FF"/>
  <text x="253" y="300" text-anchor="middle" font-size="9" fill="#0066CC">14.8k</text>
  <line x1="92" y1="308" x2="272" y2="308" stroke="#F4F6F8" stroke-width="1"/>

  <text x="92" y="326" font-size="11" fill="#1C2D40">source</text>
  <rect x="234" y="316" width="38" height="14" rx="7" fill="#EBF3FF"/>
  <text x="253" y="326" text-anchor="middle" font-size="9" fill="#0066CC">14.8k</text>
  <line x1="92" y1="334" x2="272" y2="334" stroke="#F4F6F8" stroke-width="1"/>

  <text x="92" y="352" font-size="11" fill="#0066CC" font-weight="500">severity</text>
  <rect x="234" y="342" width="38" height="14" rx="7" fill="#0066CC"/>
  <text x="253" y="352" text-anchor="middle" font-size="9" fill="white">14.8k</text>
  <line x1="92" y1="360" x2="272" y2="360" stroke="#F4F6F8" stroke-width="1"/>

  <text x="92" y="378" font-size="11" fill="#1C2D40">category</text>
  <rect x="234" y="368" width="38" height="14" rx="7" fill="#EBF3FF"/>
  <text x="253" y="378" text-anchor="middle" font-size="9" fill="#0066CC">12.4k</text>
  <line x1="92" y1="386" x2="272" y2="386" stroke="#F4F6F8" stroke-width="1"/>

  <text x="92" y="404" font-size="11" fill="#1C2D40">host</text>
  <rect x="234" y="394" width="38" height="14" rx="7" fill="#EBF3FF"/>
  <text x="253" y="404" text-anchor="middle" font-size="9" fill="#0066CC">11.2k</text>
  <line x1="92" y1="412" x2="272" y2="412" stroke="#F4F6F8" stroke-width="1"/>

  <text x="92" y="430" font-size="11" fill="#1C2D40">user</text>
  <rect x="234" y="420" width="38" height="14" rx="7" fill="#EBF3FF"/>
  <text x="253" y="430" text-anchor="middle" font-size="9" fill="#0066CC">9.8k</text>
  <line x1="92" y1="438" x2="272" y2="438" stroke="#F4F6F8" stroke-width="1"/>

  <text x="92" y="456" font-size="11" fill="#1C2D40">sourceIp</text>
  <rect x="234" y="446" width="38" height="14" rx="7" fill="#EBF3FF"/>
  <text x="253" y="456" text-anchor="middle" font-size="9" fill="#0066CC">8.4k</text>
  <line x1="92" y1="464" x2="272" y2="464" stroke="#F4F6F8" stroke-width="1"/>

  <text x="92" y="482" font-size="11" fill="#1C2D40">message</text>
  <rect x="234" y="472" width="38" height="14" rx="7" fill="#EBF3FF"/>
  <text x="253" y="482" text-anchor="middle" font-size="9" fill="#0066CC">14.8k</text>
  <line x1="92" y1="490" x2="272" y2="490" stroke="#F4F6F8" stroke-width="1"/>

  <text x="92" y="508" font-size="11" fill="#1C2D40">rule.name</text>
  <rect x="234" y="498" width="38" height="14" rx="7" fill="#EBF3FF"/>
  <text x="253" y="508" text-anchor="middle" font-size="9" fill="#0066CC">6.2k</text>
  <line x1="92" y1="516" x2="272" y2="516" stroke="#F4F6F8" stroke-width="1"/>

  <text x="92" y="534" font-size="11" fill="#1C2D40">event.action</text>
  <rect x="234" y="524" width="38" height="14" rx="7" fill="#EBF3FF"/>
  <text x="253" y="534" text-anchor="middle" font-size="9" fill="#0066CC">5.9k</text>

  <!-- Event Results -->
  <rect x="308" y="222" width="1024" height="640" rx="6" fill="white" filter="url(#card)"/>

  <!-- Event histogram mini chart -->
  <rect x="328" y="234" width="984" height="50" rx="4" fill="#F9FAFB"/>
  <!-- Histogram bars -->
  <rect x="340" y="258" width="14" height="20" rx="1" fill="#0066CC" opacity="0.3"/>
  <rect x="360" y="254" width="14" height="24" rx="1" fill="#0066CC" opacity="0.3"/>
  <rect x="380" y="248" width="14" height="30" rx="1" fill="#0066CC" opacity="0.4"/>
  <rect x="400" y="252" width="14" height="26" rx="1" fill="#0066CC" opacity="0.35"/>
  <rect x="420" y="260" width="14" height="18" rx="1" fill="#0066CC" opacity="0.3"/>
  <rect x="440" y="256" width="14" height="22" rx="1" fill="#0066CC" opacity="0.3"/>
  <rect x="460" y="240" width="14" height="38" rx="1" fill="#CC3333" opacity="0.6"/>
  <rect x="480" y="244" width="14" height="34" rx="1" fill="#CC3333" opacity="0.5"/>
  <rect x="500" y="250" width="14" height="28" rx="1" fill="#0066CC" opacity="0.4"/>
  <rect x="520" y="254" width="14" height="24" rx="1" fill="#0066CC" opacity="0.3"/>
  <rect x="540" y="258" width="14" height="20" rx="1" fill="#0066CC" opacity="0.3"/>
  <rect x="560" y="256" width="14" height="22" rx="1" fill="#0066CC" opacity="0.3"/>
  <rect x="580" y="252" width="14" height="26" rx="1" fill="#0066CC" opacity="0.35"/>
  <rect x="600" y="246" width="14" height="32" rx="1" fill="#0066CC" opacity="0.4"/>
  <rect x="620" y="250" width="14" height="28" rx="1" fill="#0066CC" opacity="0.35"/>
  <rect x="640" y="254" width="14" height="24" rx="1" fill="#0066CC" opacity="0.3"/>
  <rect x="660" y="256" width="14" height="22" rx="1" fill="#0066CC" opacity="0.3"/>
  <rect x="680" y="260" width="14" height="18" rx="1" fill="#0066CC" opacity="0.3"/>
  <text x="340" y="276" font-size="8" fill="#A0AABB">00:00</text>
  <text x="520" y="276" font-size="8" fill="#A0AABB">08:00</text>
  <text x="680" y="276" font-size="8" fill="#A0AABB">14:00</text>

  <!-- Event Row 1 — Critical -->
  <rect x="316" y="296" width="4" height="52" fill="#CC3333" rx="1"/>
  <text x="334" y="312" font-size="10" fill="#A0AABB" font-family="monospace">14:28:03.241</text>
  <rect x="444" y="300" width="56" height="16" rx="8" fill="#CC3333"/>
  <text x="472" y="312" text-anchor="middle" font-size="9" fill="white" font-weight="600">Critical</text>
  <rect x="508" y="300" width="48" height="16" rx="8" fill="#EBF3FF"/>
  <text x="532" y="312" text-anchor="middle" font-size="9" fill="#0066CC">Elastic</text>
  <text x="334" y="330" font-size="11" fill="#1C2D40">Process Injection via DLL — Suspicious CreateRemoteThread detected on WS-PROD-114</text>
  <text x="334" y="344" font-size="10" fill="#A0AABB">host: WS-PROD-114 · user: admin · rule: T1055.001 · source_ip: 192.168.1.114</text>
  <text x="1270" y="312" font-size="10" fill="#0066CC">▼</text>
  <line x1="320" y1="352" x2="1316" y2="352" stroke="#F4F6F8" stroke-width="1"/>

  <!-- Event Row 2 — Critical -->
  <rect x="316" y="356" width="4" height="52" fill="#CC3333" rx="1"/>
  <text x="334" y="372" font-size="10" fill="#A0AABB" font-family="monospace">14:21:17.892</text>
  <rect x="444" y="360" width="56" height="16" rx="8" fill="#CC3333"/>
  <text x="472" y="372" text-anchor="middle" font-size="9" fill="white" font-weight="600">Critical</text>
  <rect x="508" y="360" width="48" height="16" rx="8" fill="#EBF3FF"/>
  <text x="532" y="372" text-anchor="middle" font-size="9" fill="#0066CC">Elastic</text>
  <text x="334" y="390" font-size="11" fill="#1C2D40">DCSync via DRSUAPI GetNCChanges — Replication request from non-DC host</text>
  <text x="334" y="404" font-size="10" fill="#A0AABB">host: DC-PROD-01 · user: CORPsvc-backup · rule: T1003.006 · source_ip: 192.168.1.10</text>
  <text x="1270" y="372" font-size="10" fill="#0066CC">▼</text>
  <line x1="320" y1="412" x2="1316" y2="412" stroke="#F4F6F8" stroke-width="1"/>

  <!-- Event Row 3 — High, expanded -->
  <rect x="316" y="416" width="4" height="140" fill="#E67700" rx="1"/>
  <text x="334" y="432" font-size="10" fill="#A0AABB" font-family="monospace">14:09:44.103</text>
  <rect x="444" y="420" width="40" height="16" rx="8" fill="#E67700"/>
  <text x="464" y="432" text-anchor="middle" font-size="9" fill="white" font-weight="600">High</text>
  <rect x="492" y="420" width="56" height="16" rx="8" fill="#EBF3FF"/>
  <text x="520" y="432" text-anchor="middle" font-size="9" fill="#0066CC">Sentinel</text>
  <text x="334" y="450" font-size="11" fill="#1C2D40">Kerberoasting — SPN Scan detected from SRV-AUTH-07</text>
  <text x="1270" y="432" font-size="10" fill="#0066CC">▲</text>
  <!-- Expanded JSON -->
  <rect x="334" y="458" width="960" height="92" rx="4" fill="#1C2D40"/>
  <text x="350" y="476" font-size="10" fill="#7FB3E0" font-family="monospace">{</text>
  <text x="366" y="492" font-size="10" fill="#A0AABB" font-family="monospace">"timestamp": <tspan fill="#88C999">"2026-03-12T14:09:44.103Z"</tspan>,</text>
  <text x="366" y="506" font-size="10" fill="#A0AABB" font-family="monospace">"host": <tspan fill="#88C999">"SRV-AUTH-07"</tspan>, "user": <tspan fill="#88C999">"svc-scanner"</tspan>,</text>
  <text x="366" y="520" font-size="10" fill="#A0AABB" font-family="monospace">"rule": <tspan fill="#88C999">"T1558.003"</tspan>, "event.action": <tspan fill="#88C999">"kerberos_tgs_request"</tspan>,</text>
  <text x="366" y="534" font-size="10" fill="#A0AABB" font-family="monospace">"message": <tspan fill="#88C999">"Multiple TGS requests for SPNs with RC4 encryption"</tspan></text>
  <text x="350" y="546" font-size="10" fill="#7FB3E0" font-family="monospace">}</text>
  <line x1="320" y1="560" x2="1316" y2="560" stroke="#F4F6F8" stroke-width="1"/>

  <!-- Event Row 4 — Medium -->
  <rect x="316" y="564" width="4" height="52" fill="#E6B800" rx="1"/>
  <text x="334" y="580" font-size="10" fill="#A0AABB" font-family="monospace">13:58:22.671</text>
  <rect x="444" y="568" width="56" height="16" rx="8" fill="#E6B800"/>
  <text x="472" y="580" text-anchor="middle" font-size="9" fill="white" font-weight="600">Medium</text>
  <rect x="508" y="568" width="48" height="16" rx="8" fill="#EBF3FF"/>
  <text x="532" y="580" text-anchor="middle" font-size="9" fill="#0066CC">Elastic</text>
  <text x="334" y="598" font-size="11" fill="#1C2D40">Pass the Ticket — Lateral movement detected from WS-FIN-022 to DC-PROD-01</text>
  <text x="334" y="612" font-size="10" fill="#A0AABB">host: WS-FIN-022 · user: jdoe · rule: T1550.003 · dest: DC-PROD-01</text>
  <text x="1270" y="580" font-size="10" fill="#0066CC">▼</text>
  <line x1="320" y1="620" x2="1316" y2="620" stroke="#F4F6F8" stroke-width="1"/>

  <!-- Event Row 5 — Low -->
  <rect x="316" y="624" width="4" height="52" fill="#2E7D32" rx="1"/>
  <text x="334" y="640" font-size="10" fill="#A0AABB" font-family="monospace">13:44:11.445</text>
  <rect x="444" y="628" width="36" height="16" rx="8" fill="#2E7D32"/>
  <text x="462" y="640" text-anchor="middle" font-size="9" fill="white" font-weight="600">Low</text>
  <rect x="488" y="628" width="72" height="16" rx="8" fill="#EBF3FF"/>
  <text x="524" y="640" text-anchor="middle" font-size="9" fill="#0066CC">CrowdStrike</text>
  <text x="334" y="658" font-size="11" fill="#1C2D40">Valid Domain Admin Account Login — Standard admin login from FS-CORP-05</text>
  <text x="334" y="672" font-size="10" fill="#A0AABB">host: FS-CORP-05 · user: admin-corp · rule: T1078.002 · source_ip: 10.0.1.5</text>
  <text x="1270" y="640" font-size="10" fill="#0066CC">▼</text>

  <!-- Pagination -->
  <text x="328" y="840" font-size="11" fill="#A0AABB">Showing 1-50 of 14,892 events</text>
  <text x="1200" y="840" font-size="11" fill="#0066CC">Load more ↓</text>

  <!-- Footer -->
  <rect x="0" y="882" width="1400" height="18" fill="#F0F2F5"/>
  <rect x="0" y="882" width="1400" height="1" fill="#E0E4EA"/>
  <text x="72" y="895" font-size="9" fill="#A0AABB">KYRA MDR v1.0  ·  14,892 events  ·  Query: 127ms</text>
  <circle cx="1346" cy="891" r="3" fill="#2E7D32"/>
  <text x="1354" y="895" font-size="9" fill="#2E7D32">Operational</text>
</svg>
