<svg xmlns="http://www.w3.org/2000/svg" width="1400" height="900" viewBox="0 0 1400 900">
<defs>
  <linearGradient id="bg" x1="0" y1="0" x2="0" y2="1"><stop offset="0%" stop-color="#0D1B2A"/><stop offset="100%" stop-color="#111C2D"/></linearGradient>
  <linearGradient id="card" x1="0" y1="0" x2="0" y2="1"><stop offset="0%" stop-color="#1A2B3C"/><stop offset="100%" stop-color="#152234"/></linearGradient>
  <linearGradient id="bar1" x1="0" y1="0" x2="1" y2="0"><stop offset="0%" stop-color="#E53935"/><stop offset="100%" stop-color="#C62828"/></linearGradient>
  <linearGradient id="bar2" x1="0" y1="0" x2="1" y2="0"><stop offset="0%" stop-color="#F47B20"/><stop offset="100%" stop-color="#E06010"/></linearGradient>
  <linearGradient id="bar3" x1="0" y1="0" x2="1" y2="0"><stop offset="0%" stop-color="#F0C040"/><stop offset="100%" stop-color="#D4A820"/></linearGradient>
  <linearGradient id="bar4" x1="0" y1="0" x2="1" y2="0"><stop offset="0%" stop-color="#5BC0DE"/><stop offset="100%" stop-color="#3AA0BE"/></linearGradient>
</defs>
<!-- Background -->
<rect width="1400" height="900" fill="url(#bg)"/>

<!-- Top nav bar -->
<rect x="0" y="0" width="1400" height="48" fill="#0A1520"/>
<rect x="0" y="48" width="1400" height="1" fill="#F47B20" opacity="0.4"/>
<!-- Splunk logo area -->
<rect x="12" y="10" width="28" height="28" rx="4" fill="#F47B20"/>
<text x="26" y="29" font-family="Arial,sans-serif" font-size="14" font-weight="900" text-anchor="middle" fill="#0A1520">S</text>
<text x="50" y="30" font-family="Arial,sans-serif" font-size="15" font-weight="700" fill="#F47B20" letter-spacing="-0.3">splunk</text>
<text x="112" y="30" font-family="Arial,sans-serif" font-size="11" fill="#546E7A">Enterprise Security</text>
<!-- Nav items -->
<text x="280" y="30" font-family="Arial,sans-serif" font-size="12" fill="#78909C">Security Domains</text>
<text x="400" y="30" font-family="Arial,sans-serif" font-size="12" fill="#78909C">Threat Intelligence</text>
<text x="530" y="30" font-family="Arial,sans-serif" font-size="12" fill="#78909C">Risk Analysis</text>
<text x="640" y="30" font-family="Arial,sans-serif" font-size="12" fill="#F47B20" font-weight="600">Security Posture</text>
<text x="760" y="30" font-family="Arial,sans-serif" font-size="12" fill="#78909C">Incident Review</text>
<!-- Right nav -->
<text x="1300" y="30" font-family="Arial,sans-serif" font-size="11" fill="#78909C">Last 24h ▾</text>
<rect x="1360" y="12" width="24" height="24" rx="12" fill="#1E3A50"/>
<text x="1372" y="28" font-family="Arial,sans-serif" font-size="11" font-weight="700" text-anchor="middle" fill="#F47B20">JD</text>

<!-- Page title -->
<text x="20" y="76" font-family="Arial,sans-serif" font-size="18" font-weight="700" fill="#ECF0F1" letter-spacing="-0.3">Security Posture Overview</text>
<text x="20" y="94" font-family="Arial,sans-serif" font-size="11" fill="#546E7A">Real-time threat monitoring · SIEM correlation · Risk-based alerting</text>

<!-- ===== SECURITY DOMAIN STATUS BAR ===== -->
<text x="20" y="118" font-family="Arial,sans-serif" font-size="10" letter-spacing="1.2" fill="#546E7A" font-weight="600">SECURITY DOMAIN STATUS</text>
<!-- Domain tiles -->
<!-- Access -->
<rect x="20" y="124" width="156" height="50" rx="4" fill="#0D2818"/>
<rect x="20" y="124" width="156" height="3" rx="1" fill="#43A047"/>
<text x="28" y="143" font-family="Arial,sans-serif" font-size="10" fill="#78909C" letter-spacing="0.5">ACCESS</text>
<text x="28" y="162" font-family="Arial,sans-serif" font-size="11" fill="#43A047" font-weight="600">12 Pass  <tspan fill="#E53935">2 Fail</tspan></text>
<!-- Endpoint -->
<rect x="184" y="124" width="156" height="50" rx="4" fill="#1A2B0A"/>
<rect x="184" y="124" width="156" height="3" rx="1" fill="#8BC34A"/>
<text x="192" y="143" font-family="Arial,sans-serif" font-size="10" fill="#78909C" letter-spacing="0.5">ENDPOINT</text>
<text x="192" y="162" font-family="Arial,sans-serif" font-size="11" fill="#8BC34A" font-weight="600">28 Pass  <tspan fill="#F47B20">5 Fail</tspan></text>
<!-- Network -->
<rect x="348" y="124" width="156" height="50" rx="4" fill="#2A1A0A"/>
<rect x="348" y="124" width="156" height="3" rx="1" fill="#F47B20"/>
<text x="356" y="143" font-family="Arial,sans-serif" font-size="10" fill="#78909C" letter-spacing="0.5">NETWORK</text>
<text x="356" y="162" font-family="Arial,sans-serif" font-size="11" fill="#F47B20" font-weight="600">9 Pass  <tspan fill="#E53935">8 Fail</tspan></text>
<!-- Identity -->
<rect x="512" y="124" width="156" height="50" rx="4" fill="#1A0D0D"/>
<rect x="512" y="124" width="156" height="3" rx="1" fill="#E53935"/>
<text x="520" y="143" font-family="Arial,sans-serif" font-size="10" fill="#78909C" letter-spacing="0.5">IDENTITY</text>
<text x="520" y="162" font-family="Arial,sans-serif" font-size="11" fill="#E53935" font-weight="600">3 Pass  <tspan>11 Fail</tspan></text>
<!-- Threat Intel -->
<rect x="676" y="124" width="156" height="50" rx="4" fill="#0D1A28"/>
<rect x="676" y="124" width="156" height="3" rx="1" fill="#5BC0DE"/>
<text x="684" y="143" font-family="Arial,sans-serif" font-size="10" fill="#78909C" letter-spacing="0.5">THREAT INTEL</text>
<text x="684" y="162" font-family="Arial,sans-serif" font-size="11" fill="#5BC0DE" font-weight="600">21 Pass  <tspan fill="#78909C">1 Stale</tspan></text>

<!-- ===== KPI CARDS row ===== -->
<rect x="840" y="124" width="126" height="50" rx="4" fill="url(#card)" stroke="#1E3A50" stroke-width="1"/>
<text x="856" y="143" font-family="Arial,sans-serif" font-size="10" fill="#78909C" letter-spacing="0.5">NOTABLES</text>
<text x="856" y="163" font-family="Arial,sans-serif" font-size="20" font-weight="700" fill="#ECF0F1">847</text>
<rect x="974" y="124" width="126" height="50" rx="4" fill="url(#card)" stroke="#1E3A50" stroke-width="1"/>
<text x="990" y="143" font-family="Arial,sans-serif" font-size="10" fill="#78909C" letter-spacing="0.5">OPEN INVEST.</text>
<text x="990" y="163" font-family="Arial,sans-serif" font-size="20" font-weight="700" fill="#F47B20">34</text>
<rect x="1108" y="124" width="126" height="50" rx="4" fill="url(#card)" stroke="#1E3A50" stroke-width="1"/>
<text x="1124" y="143" font-family="Arial,sans-serif" font-size="10" fill="#78909C" letter-spacing="0.5">AVG RISK</text>
<text x="1124" y="163" font-family="Arial,sans-serif" font-size="20" font-weight="700" fill="#F0C040">62</text>
<rect x="1242" y="124" width="140" height="50" rx="4" fill="url(#card)" stroke="#1E3A50" stroke-width="1"/>
<text x="1258" y="143" font-family="Arial,sans-serif" font-size="10" fill="#78909C" letter-spacing="0.5">MTTD (hrs)</text>
<text x="1258" y="163" font-family="Arial,sans-serif" font-size="20" font-weight="700" fill="#5BC0DE">2.4</text>

<!-- ===== NOTABLE EVENTS TIMELINE ===== -->
<rect x="20" y="188" width="580" height="220" rx="6" fill="url(#card)" stroke="#1E3A50" stroke-width="1"/>
<text x="36" y="210" font-family="Arial,sans-serif" font-size="12" font-weight="600" fill="#ECF0F1">Notable Events — Last 24 Hours</text>
<text x="575" y="210" font-family="Arial,sans-serif" font-size="11" text-anchor="end" fill="#F47B20">847 total</text>

<!-- Stacked bar chart: 12 bars, bottom=380, max_h=150 -->
<!-- X labels every 2h -->
<line x1="40" y1="230" x2="580" y2="230" stroke="#1E3A50" stroke-width="1" stroke-dasharray="3,3"/>
<line x1="40" y1="272" x2="580" y2="272" stroke="#1E3A50" stroke-width="1" stroke-dasharray="3,3"/>
<line x1="40" y1="313" x2="580" y2="313" stroke="#1E3A50" stroke-width="1" stroke-dasharray="3,3"/>
<line x1="40" y1="354" x2="580" y2="354" stroke="#1E3A50" stroke-width="1" stroke-dasharray="3,3"/>
<line x1="40" y1="394" x2="580" y2="394" stroke="#1E3A50" stroke-width="1"/>
<text x="36" y="233" font-family="Arial,sans-serif" font-size="9" text-anchor="end" fill="#546E7A">80</text>
<text x="36" y="357" font-family="Arial,sans-serif" font-size="9" text-anchor="end" fill="#546E7A">20</text>
<text x="36" y="397" font-family="Arial,sans-serif" font-size="9" text-anchor="end" fill="#546E7A">0</text>

<!-- Bars (stacked: crit=red, high=orange, med=yellow, low=blue) bottom=394 -->
<!-- bar positions: 48+i*44, w=32 -->
<!-- 00:00 crit=5,high=10,med=15,low=8 total=38 -->
<rect x="48" y="356" width="32" height="38" rx="1" fill="#E53935"/><!-- total38 low8 -->
<rect x="48" y="348" width="32" height="8" rx="1" fill="#5BC0DE"/>
<rect x="48" y="337" width="32" height="11" rx="1" fill="#F0C040"/><!-- med -->
<rect x="48" y="327" width="32" height="10" rx="1" fill="#F47B20"/><!-- high -->
<rect x="48" y="322" width="32" height="5" rx="1" fill="#E53935"/><!-- crit -->
<!-- 02:00 -->
<rect x="92" y="368" width="32" height="26" rx="1" fill="#5BC0DE"/>
<rect x="92" y="358" width="32" height="10" rx="1" fill="#F0C040"/>
<rect x="92" y="352" width="32" height="6" rx="1" fill="#F47B20"/>
<!-- 04:00 -->
<rect x="136" y="374" width="32" height="20" rx="1" fill="#5BC0DE"/>
<rect x="136" y="368" width="32" height="6" rx="1" fill="#F0C040"/>
<rect x="136" y="362" width="32" height="6" rx="1" fill="#F47B20"/>
<rect x="136" y="358" width="32" height="4" rx="1" fill="#E53935"/>
<!-- 06:00 -->
<rect x="180" y="354" width="32" height="40" rx="1" fill="#5BC0DE"/>
<rect x="180" y="340" width="32" height="14" rx="1" fill="#F0C040"/>
<rect x="180" y="328" width="32" height="12" rx="1" fill="#F47B20"/>
<rect x="180" y="320" width="32" height="8" rx="1" fill="#E53935"/>
<!-- 08:00 -->
<rect x="224" y="334" width="32" height="60" rx="1" fill="#5BC0DE"/>
<rect x="224" y="314" width="32" height="20" rx="1" fill="#F0C040"/>
<rect x="224" y="299" width="32" height="15" rx="1" fill="#F47B20"/>
<rect x="224" y="288" width="32" height="11" rx="1" fill="#E53935"/>
<!-- 10:00 -->
<rect x="268" y="320" width="32" height="74" rx="1" fill="#5BC0DE"/>
<rect x="268" y="299" width="32" height="21" rx="1" fill="#F0C040"/>
<rect x="268" y="283" width="32" height="16" rx="1" fill="#F47B20"/>
<rect x="268" y="270" width="32" height="13" rx="1" fill="#E53935"/>
<!-- 12:00 -->
<rect x="312" y="310" width="32" height="84" rx="1" fill="#5BC0DE"/>
<rect x="312" y="288" width="32" height="22" rx="1" fill="#F0C040"/>
<rect x="312" y="270" width="32" height="18" rx="1" fill="#F47B20"/>
<rect x="312" y="258" width="32" height="12" rx="1" fill="#E53935"/>
<!-- 14:00 -->
<rect x="356" y="306" width="32" height="88" rx="1" fill="#5BC0DE"/>
<rect x="356" y="283" width="32" height="23" rx="1" fill="#F0C040"/>
<rect x="356" y="265" width="32" height="18" rx="1" fill="#F47B20"/>
<rect x="356" y="252" width="32" height="13" rx="1" fill="#E53935"/>
<!-- 16:00 PEAK -->
<rect x="400" y="280" width="32" height="114" rx="1" fill="#5BC0DE"/>
<rect x="400" y="255" width="32" height="25" rx="1" fill="#F0C040"/>
<rect x="400" y="234" width="32" height="21" rx="1" fill="#F47B20"/>
<rect x="400" y="222" width="32" height="12" rx="1" fill="#E53935"/>
<text x="416" y="218" font-family="Arial,sans-serif" font-size="8" text-anchor="middle" fill="#F47B20" font-weight="700">↑PEAK</text>
<!-- 18:00 -->
<rect x="444" y="310" width="32" height="84" rx="1" fill="#5BC0DE"/>
<rect x="444" y="288" width="32" height="22" rx="1" fill="#F0C040"/>
<rect x="444" y="272" width="32" height="16" rx="1" fill="#F47B20"/>
<rect x="444" y="261" width="32" height="11" rx="1" fill="#E53935"/>
<!-- 20:00 -->
<rect x="488" y="338" width="32" height="56" rx="1" fill="#5BC0DE"/>
<rect x="488" y="322" width="32" height="16" rx="1" fill="#F0C040"/>
<rect x="488" y="312" width="32" height="10" rx="1" fill="#F47B20"/>
<!-- 22:00 -->
<rect x="532" y="358" width="32" height="36" rx="1" fill="#5BC0DE"/>
<rect x="532" y="348" width="32" height="10" rx="1" fill="#F0C040"/>
<rect x="532" y="342" width="32" height="6" rx="1" fill="#F47B20"/>

<!-- X axis labels -->
<text x="64" y="407" font-family="Arial,sans-serif" font-size="9" text-anchor="middle" fill="#546E7A">00:00</text>
<text x="152" y="407" font-family="Arial,sans-serif" font-size="9" text-anchor="middle" fill="#546E7A">04:00</text>
<text x="240" y="407" font-family="Arial,sans-serif" font-size="9" text-anchor="middle" fill="#546E7A">08:00</text>
<text x="328" y="407" font-family="Arial,sans-serif" font-size="9" text-anchor="middle" fill="#546E7A">12:00</text>
<text x="416" y="407" font-family="Arial,sans-serif" font-size="9" text-anchor="middle" fill="#F47B20">16:00</text>
<text x="504" y="407" font-family="Arial,sans-serif" font-size="9" text-anchor="middle" fill="#546E7A">20:00</text>

<!-- Legend -->
<rect x="48" y="397" width="8" height="6" fill="#E53935"/>
<text x="60" y="403" font-family="Arial,sans-serif" font-size="9" fill="#78909C">Critical</text>
<rect x="108" y="397" width="8" height="6" fill="#F47B20"/>
<text x="120" y="403" font-family="Arial,sans-serif" font-size="9" fill="#78909C">High</text>
<rect x="158" y="397" width="8" height="6" fill="#F0C040"/>
<text x="170" y="403" font-family="Arial,sans-serif" font-size="9" fill="#78909C">Medium</text>
<rect x="225" y="397" width="8" height="6" fill="#5BC0DE"/>
<text x="237" y="403" font-family="Arial,sans-serif" font-size="9" fill="#78909C">Low</text>

<!-- ===== RISK SCORE LEADERBOARD ===== -->
<rect x="612" y="188" width="380" height="220" rx="6" fill="url(#card)" stroke="#1E3A50" stroke-width="1"/>
<text x="628" y="210" font-family="Arial,sans-serif" font-size="12" font-weight="600" fill="#ECF0F1">Risk Score Leaderboard</text>
<text x="984" y="210" font-family="Arial,sans-serif" font-size="11" text-anchor="end" fill="#546E7A">Top Users</text>

<!-- Leaderboard rows -->
<!-- User rows -->
<text x="628" y="228" font-family="Arial,sans-serif" font-size="9" letter-spacing="0.8" fill="#546E7A">USER</text>
<text x="900" y="228" font-family="Arial,sans-serif" font-size="9" letter-spacing="0.8" fill="#546E7A" text-anchor="end">RISK</text>
<line x1="620" y1="232" x2="988" y2="232" stroke="#1E3A50" stroke-width="1"/>

<!-- Row 1 -->
<text x="628" y="247" font-family="Arial,sans-serif" font-size="11" fill="#ECF0F1">j.smith@corp.com</text>
<rect x="780" y="238" width="110" height="12" rx="2" fill="#1E3A50"/>
<rect x="780" y="238" width="97" height="12" rx="2" fill="#E53935"/>
<text x="897" y="248" font-family="Arial,sans-serif" font-size="11" text-anchor="end" fill="#E53935" font-weight="700">88</text>
<line x1="620" y1="254" x2="988" y2="254" stroke="#1A2B3C" stroke-width="1"/>
<!-- Row 2 -->
<text x="628" y="269" font-family="Arial,sans-serif" font-size="11" fill="#ECF0F1">svc_backup_01</text>
<rect x="780" y="260" width="110" height="12" rx="2" fill="#1E3A50"/>
<rect x="780" y="260" width="84" height="12" rx="2" fill="#F47B20"/>
<text x="897" y="270" font-family="Arial,sans-serif" font-size="11" text-anchor="end" fill="#F47B20" font-weight="700">76</text>
<line x1="620" y1="276" x2="988" y2="276" stroke="#1A2B3C" stroke-width="1"/>
<!-- Row 3 -->
<text x="628" y="291" font-family="Arial,sans-serif" font-size="11" fill="#ECF0F1">m.chen@corp.com</text>
<rect x="780" y="282" width="110" height="12" rx="2" fill="#1E3A50"/>
<rect x="780" y="282" width="72" height="12" rx="2" fill="#F47B20"/>
<text x="897" y="292" font-family="Arial,sans-serif" font-size="11" text-anchor="end" fill="#F47B20" font-weight="700">65</text>
<line x1="620" y1="298" x2="988" y2="298" stroke="#1A2B3C" stroke-width="1"/>
<!-- Row 4 -->
<text x="628" y="313" font-family="Arial,sans-serif" font-size="11" fill="#ECF0F1">admin_prod</text>
<rect x="780" y="304" width="110" height="12" rx="2" fill="#1E3A50"/>
<rect x="780" y="304" width="58" height="12" rx="2" fill="#F0C040"/>
<text x="897" y="314" font-family="Arial,sans-serif" font-size="11" text-anchor="end" fill="#F0C040" font-weight="700">53</text>
<line x1="620" y1="320" x2="988" y2="320" stroke="#1A2B3C" stroke-width="1"/>
<!-- Row 5 -->
<text x="628" y="335" font-family="Arial,sans-serif" font-size="11" fill="#ECF0F1">r.patel@corp.com</text>
<rect x="780" y="326" width="110" height="12" rx="2" fill="#1E3A50"/>
<rect x="780" y="326" width="46" height="12" rx="2" fill="#F0C040"/>
<text x="897" y="336" font-family="Arial,sans-serif" font-size="11" text-anchor="end" fill="#F0C040" font-weight="700">42</text>
<line x1="620" y1="342" x2="988" y2="342" stroke="#1A2B3C" stroke-width="1"/>
<!-- Row 6 -->
<text x="628" y="357" font-family="Arial,sans-serif" font-size="11" fill="#78909C">k.lee@corp.com</text>
<rect x="780" y="348" width="110" height="12" rx="2" fill="#1E3A50"/>
<rect x="780" y="348" width="32" height="12" rx="2" fill="#5BC0DE"/>
<text x="897" y="358" font-family="Arial,sans-serif" font-size="11" text-anchor="end" fill="#5BC0DE" font-weight="700">29</text>
<line x1="620" y1="364" x2="988" y2="364" stroke="#1A2B3C" stroke-width="1"/>
<!-- Row 7 -->
<text x="628" y="378" font-family="Arial,sans-serif" font-size="11" fill="#78909C">t.brown@corp.com</text>
<rect x="780" y="369" width="110" height="12" rx="2" fill="#1E3A50"/>
<rect x="780" y="369" width="20" height="12" rx="2" fill="#5BC0DE"/>
<text x="897" y="379" font-family="Arial,sans-serif" font-size="11" text-anchor="end" fill="#5BC0DE" font-weight="700">18</text>
<line x1="620" y1="385" x2="988" y2="385" stroke="#1A2B3C" stroke-width="1"/>

<!-- ===== ANALYST QUEUE ===== -->
<rect x="1002" y="188" width="380" height="220" rx="6" fill="url(#card)" stroke="#1E3A50" stroke-width="1"/>
<text x="1018" y="210" font-family="Arial,sans-serif" font-size="12" font-weight="600" fill="#ECF0F1">Analyst Investigation Queue</text>
<rect x="1320" y="196" width="52" height="18" rx="3" fill="#1E3A50"/>
<text x="1346" y="208" font-family="Arial,sans-serif" font-size="10" text-anchor="middle" fill="#F47B20" font-weight="700">34 Open</text>

<!-- Queue headers -->
<text x="1018" y="228" font-family="Arial,sans-serif" font-size="9" letter-spacing="0.8" fill="#546E7A">NOTABLE EVENT</text>
<text x="1270" y="228" font-family="Arial,sans-serif" font-size="9" letter-spacing="0.8" fill="#546E7A">URGENCY</text>
<text x="1374" y="228" font-family="Arial,sans-serif" font-size="9" letter-spacing="0.8" fill="#546E7A" text-anchor="end">STATUS</text>
<line x1="1010" y1="232" x2="1375" y2="232" stroke="#1E3A50" stroke-width="1"/>

<!-- Queue rows -->
<rect x="1010" y="233" width="372" height="28" fill="#1A2B3C"/>
<rect x="1010" y="233" width="3" height="28" fill="#E53935"/>
<text x="1022" y="244" font-family="Arial,sans-serif" font-size="10" font-weight="600" fill="#ECF0F1">Malware Exec — WIN-SRV-04</text>
<text x="1022" y="257" font-family="Arial,sans-serif" font-size="9" fill="#78909C">T1059.001 · j.smith · 2m ago</text>
<rect x="1262" y="236" width="52" height="16" rx="3" fill="#3D0A0A"/>
<text x="1288" y="247" font-family="Arial,sans-serif" font-size="9" text-anchor="middle" fill="#E53935" font-weight="700">CRITICAL</text>
<rect x="1330" y="236" width="44" height="16" rx="3" fill="#1A2B3C" stroke="#F47B20" stroke-width="1"/>
<text x="1352" y="247" font-family="Arial,sans-serif" font-size="9" text-anchor="middle" fill="#F47B20">Assigned</text>
<line x1="1010" y1="261" x2="1375" y2="261" stroke="#111C2D" stroke-width="1"/>

<rect x="1010" y="262" width="372" height="28" fill="none"/>
<rect x="1010" y="262" width="3" height="28" fill="#F47B20"/>
<text x="1022" y="273" font-family="Arial,sans-serif" font-size="10" font-weight="600" fill="#ECF0F1">DNS Exfil Attempt</text>
<text x="1022" y="286" font-family="Arial,sans-serif" font-size="9" fill="#78909C">T1568.002 · MxWatch · 8m ago</text>
<rect x="1262" y="265" width="52" height="16" rx="3" fill="#2A1A00"/>
<text x="1288" y="276" font-family="Arial,sans-serif" font-size="9" text-anchor="middle" fill="#F47B20" font-weight="700">HIGH</text>
<rect x="1330" y="265" width="44" height="16" rx="3" fill="#1A2B3C" stroke="#546E7A" stroke-width="1"/>
<text x="1352" y="276" font-family="Arial,sans-serif" font-size="9" text-anchor="middle" fill="#546E7A">New</text>
<line x1="1010" y1="290" x2="1375" y2="290" stroke="#111C2D" stroke-width="1"/>

<rect x="1010" y="291" width="372" height="28" fill="#1A2B3C"/>
<rect x="1010" y="291" width="3" height="28" fill="#F47B20"/>
<text x="1022" y="302" font-family="Arial,sans-serif" font-size="10" font-weight="600" fill="#ECF0F1">SSH Brute Force (823 attempts)</text>
<text x="1022" y="315" font-family="Arial,sans-serif" font-size="9" fill="#78909C">T1110.001 · Suricata · 14m ago</text>
<rect x="1262" y="294" width="52" height="16" rx="3" fill="#2A1A00"/>
<text x="1288" y="305" font-family="Arial,sans-serif" font-size="9" text-anchor="middle" fill="#F47B20" font-weight="700">HIGH</text>
<rect x="1330" y="294" width="44" height="16" rx="3" fill="#0A2010" stroke="#43A047" stroke-width="1"/>
<text x="1352" y="305" font-family="Arial,sans-serif" font-size="9" text-anchor="middle" fill="#43A047">In Prog</text>
<line x1="1010" y1="319" x2="1375" y2="319" stroke="#111C2D" stroke-width="1"/>

<rect x="1010" y="320" width="372" height="28" fill="none"/>
<rect x="1010" y="320" width="3" height="28" fill="#9C27B0"/>
<text x="1022" y="331" font-family="Arial,sans-serif" font-size="10" fill="#B0BEC5">Port Scan Detected</text>
<text x="1022" y="344" font-family="Arial,sans-serif" font-size="9" fill="#78909C">T1046 · Zeek · 21m ago</text>
<rect x="1262" y="323" width="52" height="16" rx="3" fill="#1A0A2A"/>
<text x="1288" y="334" font-family="Arial,sans-serif" font-size="9" text-anchor="middle" fill="#CE93D8" font-weight="700">MED</text>
<rect x="1330" y="323" width="44" height="16" rx="3" fill="#1A2B3C" stroke="#546E7A" stroke-width="1"/>
<text x="1352" y="334" font-family="Arial,sans-serif" font-size="9" text-anchor="middle" fill="#546E7A">New</text>
<line x1="1010" y1="348" x2="1375" y2="348" stroke="#111C2D" stroke-width="1"/>

<rect x="1010" y="349" width="372" height="28" fill="#1A2B3C"/>
<rect x="1010" y="349" width="3" height="28" fill="#9C27B0"/>
<text x="1022" y="360" font-family="Arial,sans-serif" font-size="10" fill="#B0BEC5">Unusual Auth Pattern</text>
<text x="1022" y="373" font-family="Arial,sans-serif" font-size="9" fill="#78909C">T1078 · AD · 35m ago</text>
<rect x="1262" y="352" width="52" height="16" rx="3" fill="#1A0A2A"/>
<text x="1288" y="363" font-family="Arial,sans-serif" font-size="9" text-anchor="middle" fill="#CE93D8" font-weight="700">MED</text>
<rect x="1330" y="352" width="44" height="16" rx="3" fill="#1A2B3C" stroke="#546E7A" stroke-width="1"/>
<text x="1352" y="363" font-family="Arial,sans-serif" font-size="9" text-anchor="middle" fill="#546E7A">New</text>

<!-- ===== MITRE ATT&CK HEATMAP ===== -->
<rect x="20" y="420" width="760" height="180" rx="6" fill="url(#card)" stroke="#1E3A50" stroke-width="1"/>
<text x="36" y="442" font-family="Arial,sans-serif" font-size="12" font-weight="600" fill="#ECF0F1">MITRE ATT&amp;CK Detection Heatmap</text>
<text x="772" y="442" font-family="Arial,sans-serif" font-size="11" text-anchor="end" fill="#546E7A">Enterprise v15</text>

<!-- Tactic column headers -->
<!-- 14 tactics, starting x=36, each ~51px wide -->
<text x="58" y="458" font-family="Arial,sans-serif" font-size="7.5" text-anchor="middle" fill="#78909C">Recon</text>
<text x="109" y="458" font-family="Arial,sans-serif" font-size="7.5" text-anchor="middle" fill="#78909C">Res Dev</text>
<text x="160" y="458" font-family="Arial,sans-serif" font-size="7.5" text-anchor="middle" fill="#78909C">Init Access</text>
<text x="211" y="458" font-family="Arial,sans-serif" font-size="7.5" text-anchor="middle" fill="#78909C">Execution</text>
<text x="262" y="458" font-family="Arial,sans-serif" font-size="7.5" text-anchor="middle" fill="#78909C">Persist.</text>
<text x="313" y="458" font-family="Arial,sans-serif" font-size="7.5" text-anchor="middle" fill="#78909C">Priv Esc</text>
<text x="364" y="458" font-family="Arial,sans-serif" font-size="7.5" text-anchor="middle" fill="#78909C">Def Evasion</text>
<text x="415" y="458" font-family="Arial,sans-serif" font-size="7.5" text-anchor="middle" fill="#78909C">Cred Access</text>
<text x="466" y="458" font-family="Arial,sans-serif" font-size="7.5" text-anchor="middle" fill="#78909C">Discovery</text>
<text x="517" y="458" font-family="Arial,sans-serif" font-size="7.5" text-anchor="middle" fill="#78909C">Lat Move</text>
<text x="568" y="458" font-family="Arial,sans-serif" font-size="7.5" text-anchor="middle" fill="#78909C">Collection</text>
<text x="619" y="458" font-family="Arial,sans-serif" font-size="7.5" text-anchor="middle" fill="#78909C">C2</text>
<text x="670" y="458" font-family="Arial,sans-serif" font-size="7.5" text-anchor="middle" fill="#78909C">Exfil</text>
<text x="721" y="458" font-family="Arial,sans-serif" font-size="7.5" text-anchor="middle" fill="#78909C">Impact</text>

<!-- Heatmap grid: 4 rows of techniques per tactic, cell size 34x22 -->
<!-- Row 1 -->
<rect x="36" y="462" width="44" height="18" rx="1" fill="#1A3D5C"/>
<rect x="87" y="462" width="44" height="18" rx="1" fill="#0D2818"/>
<rect x="138" y="462" width="44" height="18" rx="1" fill="#2A1A0A"/>
<rect x="189" y="462" width="44" height="18" rx="1" fill="#C62828"/>
<text x="211" y="475" font-family="Arial,sans-serif" font-size="8" text-anchor="middle" fill="#FFCDD2">23</text>
<rect x="240" y="462" width="44" height="18" rx="1" fill="#F47B20" opacity="0.5"/>
<rect x="291" y="462" width="44" height="18" rx="1" fill="#C62828" opacity="0.7"/>
<rect x="342" y="462" width="44" height="18" rx="1" fill="#C62828"/>
<text x="364" y="475" font-family="Arial,sans-serif" font-size="8" text-anchor="middle" fill="#FFCDD2">31</text>
<rect x="393" y="462" width="44" height="18" rx="1" fill="#F47B20" opacity="0.6"/>
<rect x="444" y="462" width="44" height="18" rx="1" fill="#1A3D5C" opacity="0.8"/>
<rect x="495" y="462" width="44" height="18" rx="1" fill="#C62828" opacity="0.4"/>
<rect x="546" y="462" width="44" height="18" rx="1" fill="#1A3D5C"/>
<rect x="597" y="462" width="44" height="18" rx="1" fill="#C62828"/>
<text x="619" y="475" font-family="Arial,sans-serif" font-size="8" text-anchor="middle" fill="#FFCDD2">45</text>
<rect x="648" y="462" width="44" height="18" rx="1" fill="#F47B20" opacity="0.4"/>
<rect x="699" y="462" width="44" height="18" rx="1" fill="#1A2B3C"/>
<!-- Row 2 -->
<rect x="36" y="482" width="44" height="18" rx="1" fill="#0D2818" opacity="0.8"/>
<rect x="87" y="482" width="44" height="18" rx="1" fill="#1A2B3C"/>
<rect x="138" y="482" width="44" height="18" rx="1" fill="#F47B20" opacity="0.7"/>
<rect x="189" y="482" width="44" height="18" rx="1" fill="#C62828" opacity="0.8"/>
<rect x="240" y="482" width="44" height="18" rx="1" fill="#C62828" opacity="0.5"/>
<rect x="291" y="482" width="44" height="18" rx="1" fill="#F47B20" opacity="0.8"/>
<rect x="342" y="482" width="44" height="18" rx="1" fill="#C62828" opacity="0.9"/>
<rect x="393" y="482" width="44" height="18" rx="1" fill="#F47B20" opacity="0.9"/>
<rect x="444" y="482" width="44" height="18" rx="1" fill="#C62828" opacity="0.3"/>
<rect x="495" y="482" width="44" height="18" rx="1" fill="#F47B20" opacity="0.5"/>
<rect x="546" y="482" width="44" height="18" rx="1" fill="#1A3D5C" opacity="0.6"/>
<rect x="597" y="482" width="44" height="18" rx="1" fill="#F47B20" opacity="0.7"/>
<rect x="648" y="482" width="44" height="18" rx="1" fill="#C62828" opacity="0.6"/>
<rect x="699" y="482" width="44" height="18" rx="1" fill="#1A2B3C" opacity="0.8"/>
<!-- Row 3 -->
<rect x="36" y="502" width="44" height="18" rx="1" fill="#1A2B3C"/>
<rect x="87" y="502" width="44" height="18" rx="1" fill="#1A2B3C"/>
<rect x="138" y="502" width="44" height="18" rx="1" fill="#F47B20" opacity="0.3"/>
<rect x="189" y="502" width="44" height="18" rx="1" fill="#F47B20" opacity="0.6"/>
<rect x="240" y="502" width="44" height="18" rx="1" fill="#C62828" opacity="0.7"/>
<rect x="291" y="502" width="44" height="18" rx="1" fill="#C62828" opacity="0.5"/>
<rect x="342" y="502" width="44" height="18" rx="1" fill="#F47B20" opacity="0.4"/>
<rect x="393" y="502" width="44" height="18" rx="1" fill="#C62828" opacity="0.8"/>
<rect x="444" y="502" width="44" height="18" rx="1" fill="#C62828" opacity="0.6"/>
<rect x="495" y="502" width="44" height="18" rx="1" fill="#C62828" opacity="0.8"/>
<rect x="546" y="502" width="44" height="18" rx="1" fill="#F47B20" opacity="0.3"/>
<rect x="597" y="502" width="44" height="18" rx="1" fill="#C62828" opacity="0.8"/>
<rect x="648" y="502" width="44" height="18" rx="1" fill="#F47B20" opacity="0.8"/>
<rect x="699" y="502" width="44" height="18" rx="1" fill="#C62828" opacity="0.6"/>
<!-- Row 4 -->
<rect x="36" y="522" width="44" height="18" rx="1" fill="#1A2B3C" opacity="0.5"/>
<rect x="87" y="522" width="44" height="18" rx="1" fill="#1A2B3C" opacity="0.3"/>
<rect x="138" y="522" width="44" height="18" rx="1" fill="#1A3D5C" opacity="0.6"/>
<rect x="189" y="522" width="44" height="18" rx="1" fill="#C62828" opacity="0.9"/>
<rect x="240" y="522" width="44" height="18" rx="1" fill="#F47B20" opacity="0.5"/>
<rect x="291" y="522" width="44" height="18" rx="1" fill="#F47B20" opacity="0.3"/>
<rect x="342" y="522" width="44" height="18" rx="1" fill="#C62828" opacity="0.6"/>
<rect x="393" y="522" width="44" height="18" rx="1" fill="#F47B20" opacity="0.7"/>
<rect x="444" y="522" width="44" height="18" rx="1" fill="#1A3D5C" opacity="0.5"/>
<rect x="495" y="522" width="44" height="18" rx="1" fill="#F47B20" opacity="0.6"/>
<rect x="546" y="522" width="44" height="18" rx="1" fill="#1A2B3C"/>
<rect x="597" y="522" width="44" height="18" rx="1" fill="#C62828" opacity="0.4"/>
<rect x="648" y="522" width="44" height="18" rx="1" fill="#1A3D5C"/>
<rect x="699" y="522" width="44" height="18" rx="1" fill="#1A2B3C" opacity="0.4"/>

<!-- Heatmap color legend -->
<text x="36" y="556" font-family="Arial,sans-serif" font-size="9" fill="#546E7A">Low</text>
<rect x="58" y="548" width="16" height="8" rx="1" fill="#1A3D5C"/>
<rect x="76" y="548" width="16" height="8" rx="1" fill="#F47B20" opacity="0.4"/>
<rect x="94" y="548" width="16" height="8" rx="1" fill="#F47B20" opacity="0.7"/>
<rect x="112" y="548" width="16" height="8" rx="1" fill="#C62828"/>
<text x="132" y="556" font-family="Arial,sans-serif" font-size="9" fill="#546E7A">High detections</text>

<!-- ===== THREAT INTEL FEED STATUS ===== -->
<rect x="790" y="420" width="592" height="180" rx="6" fill="url(#card)" stroke="#1E3A50" stroke-width="1"/>
<text x="806" y="442" font-family="Arial,sans-serif" font-size="12" font-weight="600" fill="#ECF0F1">Threat Intelligence Feed Status</text>
<line x1="798" y1="448" x2="1374" y2="448" stroke="#1E3A50" stroke-width="1"/>
<text x="806" y="462" font-family="Arial,sans-serif" font-size="9" letter-spacing="0.8" fill="#546E7A">FEED NAME</text>
<text x="1040" y="462" font-family="Arial,sans-serif" font-size="9" letter-spacing="0.8" fill="#546E7A">TYPE</text>
<text x="1170" y="462" font-family="Arial,sans-serif" font-size="9" letter-spacing="0.8" fill="#546E7A">RECORDS</text>
<text x="1280" y="462" font-family="Arial,sans-serif" font-size="9" letter-spacing="0.8" fill="#546E7A">LAST SYNC</text>
<text x="1368" y="462" font-family="Arial,sans-serif" font-size="9" letter-spacing="0.8" fill="#546E7A" text-anchor="end">STATUS</text>
<line x1="798" y1="466" x2="1374" y2="466" stroke="#1E3A50" stroke-width="1"/>

<!-- Feed rows -->
<rect x="806" y="470" width="6" height="6" rx="1" fill="#43A047"/>
<text x="820" y="478" font-family="Arial,sans-serif" font-size="11" fill="#ECF0F1">Recorded Future</text>
<text x="1040" y="478" font-family="Arial,sans-serif" font-size="11" fill="#78909C">Commercial</text>
<text x="1170" y="478" font-family="Arial,sans-serif" font-size="11" fill="#78909C">2,847,234</text>
<text x="1280" y="478" font-family="Arial,sans-serif" font-size="11" fill="#78909C">2m ago</text>
<rect x="1330" y="469" width="38" height="14" rx="3" fill="#0D2818"/>
<text x="1349" y="479" font-family="Arial,sans-serif" font-size="9" text-anchor="middle" fill="#43A047" font-weight="600">LIVE</text>
<line x1="798" y1="484" x2="1374" y2="484" stroke="#111C2D" stroke-width="1"/>

<rect x="806" y="488" width="6" height="6" rx="1" fill="#43A047"/>
<text x="820" y="496" font-family="Arial,sans-serif" font-size="11" fill="#ECF0F1">MISP Community</text>
<text x="1040" y="496" font-family="Arial,sans-serif" font-size="11" fill="#78909C">OSINT</text>
<text x="1170" y="496" font-family="Arial,sans-serif" font-size="11" fill="#78909C">534,108</text>
<text x="1280" y="496" font-family="Arial,sans-serif" font-size="11" fill="#78909C">18m ago</text>
<rect x="1330" y="487" width="38" height="14" rx="3" fill="#0D2818"/>
<text x="1349" y="497" font-family="Arial,sans-serif" font-size="9" text-anchor="middle" fill="#43A047" font-weight="600">LIVE</text>
<line x1="798" y1="502" x2="1374" y2="502" stroke="#111C2D" stroke-width="1"/>

<rect x="806" y="506" width="6" height="6" rx="1" fill="#43A047"/>
<text x="820" y="514" font-family="Arial,sans-serif" font-size="11" fill="#ECF0F1">AlienVault OTX</text>
<text x="1040" y="514" font-family="Arial,sans-serif" font-size="11" fill="#78909C">OSINT</text>
<text x="1170" y="514" font-family="Arial,sans-serif" font-size="11" fill="#78909C">1,203,445</text>
<text x="1280" y="514" font-family="Arial,sans-serif" font-size="11" fill="#78909C">1h ago</text>
<rect x="1330" y="505" width="38" height="14" rx="3" fill="#0D2818"/>
<text x="1349" y="515" font-family="Arial,sans-serif" font-size="9" text-anchor="middle" fill="#43A047" font-weight="600">LIVE</text>
<line x1="798" y1="520" x2="1374" y2="520" stroke="#111C2D" stroke-width="1"/>

<rect x="806" y="524" width="6" height="6" rx="1" fill="#FBC02D"/>
<text x="820" y="532" font-family="Arial,sans-serif" font-size="11" fill="#ECF0F1">CISA KEV Feed</text>
<text x="1040" y="532" font-family="Arial,sans-serif" font-size="11" fill="#78909C">Government</text>
<text x="1170" y="532" font-family="Arial,sans-serif" font-size="11" fill="#78909C">1,085</text>
<text x="1280" y="532" font-family="Arial,sans-serif" font-size="11" fill="#FBC02D">6h ago</text>
<rect x="1330" y="523" width="38" height="14" rx="3" fill="#2A2000"/>
<text x="1349" y="533" font-family="Arial,sans-serif" font-size="9" text-anchor="middle" fill="#FBC02D" font-weight="600">STALE</text>
<line x1="798" y1="538" x2="1374" y2="538" stroke="#111C2D" stroke-width="1"/>

<rect x="806" y="542" width="6" height="6" rx="1" fill="#43A047"/>
<text x="820" y="550" font-family="Arial,sans-serif" font-size="11" fill="#ECF0F1">Abuse.ch URLhaus</text>
<text x="1040" y="550" font-family="Arial,sans-serif" font-size="11" fill="#78909C">OSINT</text>
<text x="1170" y="550" font-family="Arial,sans-serif" font-size="11" fill="#78909C">892,340</text>
<text x="1280" y="550" font-family="Arial,sans-serif" font-size="11" fill="#78909C">34m ago</text>
<rect x="1330" y="541" width="38" height="14" rx="3" fill="#0D2818"/>
<text x="1349" y="551" font-family="Arial,sans-serif" font-size="9" text-anchor="middle" fill="#43A047" font-weight="600">LIVE</text>
<line x1="798" y1="556" x2="1374" y2="556" stroke="#111C2D" stroke-width="1"/>

<rect x="806" y="560" width="6" height="6" rx="1" fill="#E53935"/>
<text x="820" y="568" font-family="Arial,sans-serif" font-size="11" fill="#78909C">IBM X-Force</text>
<text x="1040" y="568" font-family="Arial,sans-serif" font-size="11" fill="#78909C">Commercial</text>
<text x="1170" y="568" font-family="Arial,sans-serif" font-size="11" fill="#78909C">—</text>
<text x="1280" y="568" font-family="Arial,sans-serif" font-size="11" fill="#E53935">24h+ ago</text>
<rect x="1330" y="559" width="38" height="14" rx="3" fill="#3D0A0A"/>
<text x="1349" y="569" font-family="Arial,sans-serif" font-size="9" text-anchor="middle" fill="#E53935" font-weight="600">DOWN</text>

<!-- ===== KSI CARDS ROW ===== -->
<rect x="20" y="612" width="148" height="88" rx="6" fill="url(#card)" stroke="#1E3A50" stroke-width="1"/>
<rect x="20" y="612" width="148" height="2" rx="1" fill="#E53935" opacity="0.7"/>
<text x="36" y="633" font-family="Arial,sans-serif" font-size="9" letter-spacing="0.8" fill="#546E7A">MTTR (hrs)</text>
<text x="36" y="665" font-family="Arial,sans-serif" font-size="28" font-weight="700" fill="#ECF0F1" letter-spacing="-1">4.2</text>
<text x="36" y="690" font-family="Arial,sans-serif" font-size="10" fill="#E53935">↑ +0.8 vs SLA</text>

<rect x="176" y="612" width="148" height="88" rx="6" fill="url(#card)" stroke="#1E3A50" stroke-width="1"/>
<rect x="176" y="612" width="148" height="2" rx="1" fill="#43A047" opacity="0.7"/>
<text x="192" y="633" font-family="Arial,sans-serif" font-size="9" letter-spacing="0.8" fill="#546E7A">FP RATE</text>
<text x="192" y="665" font-family="Arial,sans-serif" font-size="28" font-weight="700" fill="#ECF0F1" letter-spacing="-1">18%</text>
<text x="192" y="690" font-family="Arial,sans-serif" font-size="10" fill="#43A047">↓ −4% this week</text>

<rect x="332" y="612" width="148" height="88" rx="6" fill="url(#card)" stroke="#1E3A50" stroke-width="1"/>
<rect x="332" y="612" width="148" height="2" rx="1" fill="#F47B20" opacity="0.7"/>
<text x="348" y="633" font-family="Arial,sans-serif" font-size="9" letter-spacing="0.8" fill="#546E7A">ESCALATED</text>
<text x="348" y="665" font-family="Arial,sans-serif" font-size="28" font-weight="700" fill="#F47B20" letter-spacing="-1">7</text>
<text x="348" y="690" font-family="Arial,sans-serif" font-size="10" fill="#78909C">Past 24 hours</text>

<rect x="488" y="612" width="148" height="88" rx="6" fill="url(#card)" stroke="#1E3A50" stroke-width="1"/>
<rect x="488" y="612" width="148" height="2" rx="1" fill="#5BC0DE" opacity="0.7"/>
<text x="504" y="633" font-family="Arial,sans-serif" font-size="9" letter-spacing="0.8" fill="#546E7A">SUPPRESSED</text>
<text x="504" y="665" font-family="Arial,sans-serif" font-size="28" font-weight="700" fill="#5BC0DE" letter-spacing="-1">213</text>
<text x="504" y="690" font-family="Arial,sans-serif" font-size="10" fill="#78909C">Auto-tuned rules</text>

<!-- Risk Trend chart (small) -->
<rect x="644" y="612" width="738" height="88" rx="6" fill="url(#card)" stroke="#1E3A50" stroke-width="1"/>
<text x="660" y="632" font-family="Arial,sans-serif" font-size="12" font-weight="600" fill="#ECF0F1">Risk Score Trend — 30 Days</text>
<!-- Simple line chart -->
<line x1="668" y1="640" x2="1364" y2="640" stroke="#1E3A50" stroke-width="1" stroke-dasharray="3,3"/>
<line x1="668" y1="666" x2="1364" y2="666" stroke="#1E3A50" stroke-width="1" stroke-dasharray="3,3"/>
<line x1="668" y1="692" x2="1364" y2="692" stroke="#1E3A50" stroke-width="1"/>
<text x="664" y="643" font-family="Arial,sans-serif" font-size="8" text-anchor="end" fill="#546E7A">90</text>
<text x="664" y="669" font-family="Arial,sans-serif" font-size="8" text-anchor="end" fill="#546E7A">50</text>
<text x="664" y="695" font-family="Arial,sans-serif" font-size="8" text-anchor="end" fill="#546E7A">10</text>
<!-- Risk line -->
<polyline points="668,682 692,678 716,674 740,670 764,668 788,664 812,672 836,668 860,660 884,655 908,649 932,652 956,648 980,644 1004,641 1028,638 1052,643 1076,636 1100,632 1124,628 1148,631 1172,626 1196,622 1220,618 1244,621 1268,615 1292,612 1316,608 1340,610 1364,605" stroke="#F47B20" stroke-width="2" fill="none"/>
<!-- Shaded area under line -->
<polygon points="668,682 692,678 716,674 740,670 764,668 788,664 812,672 836,668 860,660 884,655 908,649 932,652 956,648 980,644 1004,641 1028,638 1052,643 1076,636 1100,632 1124,628 1148,631 1172,626 1196,622 1220,618 1244,621 1268,615 1292,612 1316,608 1340,610 1364,605 1364,692 668,692" fill="#F47B20" opacity="0.08"/>

<!-- ===== STATUS BAR ===== -->
<rect x="0" y="848" width="1400" height="52" fill="#080E1B"/>
<line x1="0" y1="848" x2="1400" y2="848" stroke="#1E3A50" stroke-width="1"/>
<rect x="16" y="866" width="8" height="8" rx="1" fill="#43A047"/>
<text x="30" y="874" font-family="Arial,sans-serif" font-size="11" fill="#43A047">All Systems Operational</text>
<text x="184" y="874" font-family="Arial,sans-serif" font-size="11" fill="#1E3A50"> · </text>
<text x="196" y="874" font-family="Arial,sans-serif" font-size="11" fill="#546E7A">Splunk ES 7.3.0</text>
<text x="284" y="874" font-family="Arial,sans-serif" font-size="11" fill="#1E3A50"> · </text>
<text x="296" y="874" font-family="Arial,sans-serif" font-size="11" fill="#546E7A">Correlation Searches: 312 active</text>
<text x="480" y="874" font-family="Arial,sans-serif" font-size="11" fill="#1E3A50"> · </text>
<text x="492" y="874" font-family="Arial,sans-serif" font-size="11" fill="#546E7A">Indexers: 6/6 healthy</text>
<text x="1380" y="874" font-family="Arial,sans-serif" font-size="11" text-anchor="end" fill="#546E7A">2026-02-19 UTC</text>
</svg>
