<svg xmlns="http://www.w3.org/2000/svg" width="1400" height="900" viewBox="0 0 1400 900">
<defs>
  <linearGradient id="bg" x1="0" y1="0" x2="0" y2="1"><stop offset="0%" stop-color="#1B1F24"/><stop offset="100%" stop-color="#161A1F"/></linearGradient>
  <linearGradient id="card" x1="0" y1="0" x2="0" y2="1"><stop offset="0%" stop-color="#252A30"/><stop offset="100%" stop-color="#1E2329"/></linearGradient>
  <linearGradient id="azureBlue" x1="0" y1="0" x2="1" y2="0"><stop offset="0%" stop-color="#0078D4"/><stop offset="100%" stop-color="#005A9E"/></linearGradient>
</defs>
<rect width="1400" height="900" fill="url(#bg)"/>

<!-- Azure portal top nav -->
<rect x="0" y="0" width="1400" height="48" fill="#1A1A1A"/>
<rect x="0" y="48" width="1400" height="1" fill="#333"/>
<!-- Azure logo -->
<rect x="12" y="10" width="28" height="28" rx="3" fill="#0078D4"/>
<text x="26" y="28" font-family="Arial,sans-serif" font-size="11" font-weight="900" text-anchor="middle" fill="white">A</text>
<text x="50" y="30" font-family="Arial,sans-serif" font-size="13" font-weight="600" fill="#0078D4">Microsoft</text>
<text x="120" y="30" font-family="Arial,sans-serif" font-size="13" fill="#999">Sentinel</text>
<!-- Breadcrumb -->
<text x="20" y="68" font-family="Arial,sans-serif" font-size="11" fill="#666">Workspaces</text>
<text x="90" y="68" font-family="Arial,sans-serif" font-size="11" fill="#555"> › </text>
<text x="104" y="68" font-family="Arial,sans-serif" font-size="11" fill="#666">corp-sentinel-prod</text>
<text x="225" y="68" font-family="Arial,sans-serif" font-size="11" fill="#555"> › </text>
<text x="240" y="68" font-family="Arial,sans-serif" font-size="11" fill="#0078D4">Overview</text>

<!-- Page title -->
<text x="20" y="96" font-family="Arial,sans-serif" font-size="20" font-weight="600" fill="#FFFFFF" letter-spacing="-0.3">Microsoft Sentinel — SOC Overview</text>

<!-- Tab bar -->
<rect x="0" y="104" width="1400" height="36" fill="#1A1A1A"/>
<text x="20" y="127" font-family="Arial,sans-serif" font-size="12" font-weight="600" fill="#0078D4">Overview</text>
<rect x="20" y="139" width="62" height="2" fill="#0078D4"/>
<text x="96" y="127" font-family="Arial,sans-serif" font-size="12" fill="#888">Incidents</text>
<text x="168" y="127" font-family="Arial,sans-serif" font-size="12" fill="#888">Logs</text>
<text x="220" y="127" font-family="Arial,sans-serif" font-size="12" fill="#888">Hunting</text>
<text x="290" y="127" font-family="Arial,sans-serif" font-size="12" fill="#888">Workbooks</text>
<text x="374" y="127" font-family="Arial,sans-serif" font-size="12" fill="#888">Analytics</text>

<!-- ===== KPI CARDS ===== -->
<!-- Card 1: Total Incidents -->
<rect x="20" y="152" width="210" height="90" rx="4" fill="url(#card)" stroke="#333" stroke-width="1"/>
<text x="36" y="174" font-family="Arial,sans-serif" font-size="11" fill="#888">Total Incidents</text>
<text x="36" y="208" font-family="Arial,sans-serif" font-size="32" font-weight="600" fill="#FFFFFF">1,842</text>
<text x="36" y="232" font-family="Arial,sans-serif" font-size="11" fill="#888">All time</text>
<!-- Card 2: Open -->
<rect x="238" y="152" width="210" height="90" rx="4" fill="url(#card)" stroke="#C00000" stroke-width="1"/>
<text x="254" y="174" font-family="Arial,sans-serif" font-size="11" fill="#888">Open / New</text>
<text x="254" y="208" font-family="Arial,sans-serif" font-size="32" font-weight="600" fill="#F87171">47</text>
<text x="254" y="232" font-family="Arial,sans-serif" font-size="11" fill="#F87171">↑ 12 new today</text>
<!-- Card 3: In Progress -->
<rect x="456" y="152" width="210" height="90" rx="4" fill="url(#card)" stroke="#333" stroke-width="1"/>
<text x="472" y="174" font-family="Arial,sans-serif" font-size="11" fill="#888">In Progress</text>
<text x="472" y="208" font-family="Arial,sans-serif" font-size="32" font-weight="600" fill="#FB8C00">23</text>
<text x="472" y="232" font-family="Arial,sans-serif" font-size="11" fill="#888">Acknowledged</text>
<!-- Card 4: Closed -->
<rect x="674" y="152" width="210" height="90" rx="4" fill="url(#card)" stroke="#333" stroke-width="1"/>
<text x="690" y="174" font-family="Arial,sans-serif" font-size="11" fill="#888">Closed</text>
<text x="690" y="208" font-family="Arial,sans-serif" font-size="32" font-weight="600" fill="#43A047">1,772</text>
<text x="690" y="232" font-family="Arial,sans-serif" font-size="11" fill="#43A047">↑ 94.2% resolution</text>
<!-- Card 5: MTTA -->
<rect x="892" y="152" width="210" height="90" rx="4" fill="url(#card)" stroke="#333" stroke-width="1"/>
<text x="908" y="174" font-family="Arial,sans-serif" font-size="11" fill="#888">MTTA (hrs)</text>
<text x="908" y="208" font-family="Arial,sans-serif" font-size="32" font-weight="600" fill="#0078D4">1.8</text>
<text x="908" y="232" font-family="Arial,sans-serif" font-size="11" fill="#43A047">↓ −0.3 vs last week</text>
<!-- Card 6: MTTC -->
<rect x="1110" y="152" width="268" height="90" rx="4" fill="url(#card)" stroke="#333" stroke-width="1"/>
<text x="1126" y="174" font-family="Arial,sans-serif" font-size="11" fill="#888">MTTC (hrs)</text>
<text x="1126" y="208" font-family="Arial,sans-serif" font-size="32" font-weight="600" fill="#0078D4">6.4</text>
<text x="1126" y="232" font-family="Arial,sans-serif" font-size="11" fill="#FB8C00">↑ +0.8 vs target</text>

<!-- ===== SEVERITY DONUT ===== -->
<rect x="20" y="254" width="260" height="260" rx="4" fill="url(#card)" stroke="#333" stroke-width="1"/>
<text x="36" y="276" font-family="Arial,sans-serif" font-size="12" font-weight="600" fill="#FFFFFF">By Severity</text>
<!-- Donut chart (SVG path arcs) -->
<!-- Critical: 15 = 58deg, High: 35 = 126deg, Medium: 38 = 137deg, Info: 12 = 43deg -->
<circle cx="150" cy="390" r="72" fill="none" stroke="#C00000" stroke-width="28" stroke-dasharray="67 358" stroke-dashoffset="0"/>
<circle cx="150" cy="390" r="72" fill="none" stroke="#E53935" stroke-width="28" stroke-dasharray="67 358" stroke-dashoffset="-67"/>
<circle cx="150" cy="390" r="72" fill="none" stroke="#FB8C00" stroke-width="28" stroke-dasharray="157 358" stroke-dashoffset="-134"/>
<circle cx="150" cy="390" r="72" fill="none" stroke="#FBC02D" stroke-width="28" stroke-dasharray="97 358" stroke-dashoffset="-291"/>
<!-- Donut hole -->
<circle cx="150" cy="390" r="50" fill="#252A30"/>
<text x="150" y="386" font-family="Arial,sans-serif" font-size="20" font-weight="700" text-anchor="middle" fill="#FFFFFF">70</text>
<text x="150" y="402" font-family="Arial,sans-serif" font-size="10" text-anchor="middle" fill="#888">Open</text>
<!-- Legend -->
<rect x="36" y="460" width="10" height="10" rx="1" fill="#C00000"/>
<text x="52" y="469" font-family="Arial,sans-serif" font-size="10" fill="#BBB">Critical: 12</text>
<rect x="36" y="476" width="10" height="10" rx="1" fill="#FB8C00"/>
<text x="52" y="485" font-family="Arial,sans-serif" font-size="10" fill="#BBB">High: 23</text>
<rect x="140" y="460" width="10" height="10" rx="1" fill="#FBC02D"/>
<text x="156" y="469" font-family="Arial,sans-serif" font-size="10" fill="#BBB">Medium: 29</text>
<rect x="140" y="476" width="10" height="10" rx="1" fill="#546E7A"/>
<text x="156" y="485" font-family="Arial,sans-serif" font-size="10" fill="#BBB">Info: 6</text>

<!-- ===== INCIDENT VOLUME OVER TIME ===== -->
<rect x="290" y="254" width="560" height="260" rx="4" fill="url(#card)" stroke="#333" stroke-width="1"/>
<text x="306" y="276" font-family="Arial,sans-serif" font-size="12" font-weight="600" fill="#FFFFFF">Incident Volume — Last 30 Days</text>

<!-- Area chart background grid -->
<line x1="316" y1="296" x2="830" y2="296" stroke="#333" stroke-width="1" stroke-dasharray="3,3"/>
<line x1="316" y1="336" x2="830" y2="336" stroke="#333" stroke-width="1" stroke-dasharray="3,3"/>
<line x1="316" y1="376" x2="830" y2="376" stroke="#333" stroke-width="1" stroke-dasharray="3,3"/>
<line x1="316" y1="416" x2="830" y2="416" stroke="#333" stroke-width="1" stroke-dasharray="3,3"/>
<line x1="316" y1="456" x2="830" y2="456" stroke="#333" stroke-width="1"/>
<text x="312" y="299" font-family="Arial,sans-serif" font-size="9" text-anchor="end" fill="#666">40</text>
<text x="312" y="339" font-family="Arial,sans-serif" font-size="9" text-anchor="end" fill="#666">30</text>
<text x="312" y="379" font-family="Arial,sans-serif" font-size="9" text-anchor="end" fill="#666">20</text>
<text x="312" y="419" font-family="Arial,sans-serif" font-size="9" text-anchor="end" fill="#666">10</text>
<text x="312" y="459" font-family="Arial,sans-serif" font-size="9" text-anchor="end" fill="#666">0</text>

<!-- Stacked area — 30 days, simplified as groups of 5 -->
<!-- Day bars (6 groups of 5 days avg) -->
<rect x="320" y="402" width="72" height="54" rx="1" fill="#0078D4" opacity="0.6"/>
<rect x="320" y="390" width="72" height="12" rx="1" fill="#FB8C00" opacity="0.6"/>
<rect x="320" y="384" width="72" height="6" rx="1" fill="#C00000" opacity="0.6"/>

<rect x="400" y="390" width="72" height="66" rx="1" fill="#0078D4" opacity="0.6"/>
<rect x="400" y="374" width="72" height="16" rx="1" fill="#FB8C00" opacity="0.6"/>
<rect x="400" y="366" width="72" height="8" rx="1" fill="#C00000" opacity="0.6"/>

<rect x="480" y="376" width="72" height="80" rx="1" fill="#0078D4" opacity="0.6"/>
<rect x="480" y="356" width="72" height="20" rx="1" fill="#FB8C00" opacity="0.6"/>
<rect x="480" y="346" width="72" height="10" rx="1" fill="#C00000" opacity="0.6"/>

<rect x="560" y="368" width="72" height="88" rx="1" fill="#0078D4" opacity="0.7"/>
<rect x="560" y="344" width="72" height="24" rx="1" fill="#FB8C00" opacity="0.7"/>
<rect x="560" y="332" width="72" height="12" rx="1" fill="#C00000" opacity="0.7"/>

<rect x="640" y="358" width="72" height="98" rx="1" fill="#0078D4" opacity="0.8"/>
<rect x="640" y="330" width="72" height="28" rx="1" fill="#FB8C00" opacity="0.8"/>
<rect x="640" y="316" width="72" height="14" rx="1" fill="#C00000" opacity="0.8"/>

<rect x="720" y="344" width="72" height="112" rx="1" fill="#0078D4" opacity="0.9"/>
<rect x="720" y="312" width="72" height="32" rx="1" fill="#FB8C00" opacity="0.9"/>
<rect x="720" y="296" width="72" height="16" rx="1" fill="#C00000" opacity="0.9"/>

<text x="356" y="470" font-family="Arial,sans-serif" font-size="9" text-anchor="middle" fill="#666">Wk 1</text>
<text x="436" y="470" font-family="Arial,sans-serif" font-size="9" text-anchor="middle" fill="#666">Wk 2</text>
<text x="516" y="470" font-family="Arial,sans-serif" font-size="9" text-anchor="middle" fill="#666">Wk 3</text>
<text x="596" y="470" font-family="Arial,sans-serif" font-size="9" text-anchor="middle" fill="#666">Wk 4</text>
<text x="676" y="470" font-family="Arial,sans-serif" font-size="9" text-anchor="middle" fill="#888">Wk 5</text>
<text x="756" y="470" font-family="Arial,sans-serif" font-size="9" text-anchor="middle" fill="#0078D4">Wk 6</text>
<!-- Legend -->
<rect x="306" y="486" width="8" height="6" fill="#C00000"/>
<text x="318" y="492" font-family="Arial,sans-serif" font-size="9" fill="#888">Critical</text>
<rect x="370" y="486" width="8" height="6" fill="#FB8C00"/>
<text x="382" y="492" font-family="Arial,sans-serif" font-size="9" fill="#888">High</text>
<rect x="420" y="486" width="8" height="6" fill="#0078D4"/>
<text x="432" y="492" font-family="Arial,sans-serif" font-size="9" fill="#888">Medium / Info</text>

<!-- ===== DATA CONNECTOR HEALTH ===== -->
<rect x="860" y="254" width="518" height="260" rx="4" fill="url(#card)" stroke="#333" stroke-width="1"/>
<text x="876" y="276" font-family="Arial,sans-serif" font-size="12" font-weight="600" fill="#FFFFFF">Data Connector Health</text>
<rect x="1284" y="263" width="82" height="18" rx="9" fill="#0D2818"/>
<text x="1325" y="275" font-family="Arial,sans-serif" font-size="10" text-anchor="middle" fill="#43A047" font-weight="600">38/42 Healthy</text>

<!-- Connector rows -->
<line x1="868" y1="284" x2="1370" y2="284" stroke="#333" stroke-width="1"/>
<text x="876" y="298" font-family="Arial,sans-serif" font-size="9" letter-spacing="0.8" fill="#666">CONNECTOR</text>
<text x="1140" y="298" font-family="Arial,sans-serif" font-size="9" letter-spacing="0.8" fill="#666">LAST DATA</text>
<text x="1260" y="298" font-family="Arial,sans-serif" font-size="9" letter-spacing="0.8" fill="#666">EVENTS/DAY</text>
<text x="1365" y="298" font-family="Arial,sans-serif" font-size="9" letter-spacing="0.8" fill="#666" text-anchor="end">STATUS</text>
<line x1="868" y1="302" x2="1370" y2="302" stroke="#333" stroke-width="1"/>

<!-- Rows -->
<rect x="876" y="308" width="6" height="6" rx="1" fill="#43A047"/>
<text x="890" y="316" font-family="Arial,sans-serif" font-size="11" fill="#DDD">Microsoft Defender XDR</text>
<text x="1140" y="316" font-family="Arial,sans-serif" font-size="10" fill="#888">2m ago</text>
<text x="1260" y="316" font-family="Arial,sans-serif" font-size="10" fill="#888">234,521</text>
<rect x="1320" y="307" width="42" height="14" rx="3" fill="#0D2818"/>
<text x="1341" y="317" font-family="Arial,sans-serif" font-size="9" text-anchor="middle" fill="#43A047">HEALTHY</text>
<line x1="868" y1="324" x2="1370" y2="324" stroke="#1E2329" stroke-width="1"/>

<rect x="876" y="330" width="6" height="6" rx="1" fill="#43A047"/>
<text x="890" y="338" font-family="Arial,sans-serif" font-size="11" fill="#DDD">Azure Active Directory</text>
<text x="1140" y="338" font-family="Arial,sans-serif" font-size="10" fill="#888">5m ago</text>
<text x="1260" y="338" font-family="Arial,sans-serif" font-size="10" fill="#888">189,340</text>
<rect x="1320" y="329" width="42" height="14" rx="3" fill="#0D2818"/>
<text x="1341" y="339" font-family="Arial,sans-serif" font-size="9" text-anchor="middle" fill="#43A047">HEALTHY</text>
<line x1="868" y1="346" x2="1370" y2="346" stroke="#1E2329" stroke-width="1"/>

<rect x="876" y="352" width="6" height="6" rx="1" fill="#43A047"/>
<text x="890" y="360" font-family="Arial,sans-serif" font-size="11" fill="#DDD">Microsoft 365 Defender</text>
<text x="1140" y="360" font-family="Arial,sans-serif" font-size="10" fill="#888">1m ago</text>
<text x="1260" y="360" font-family="Arial,sans-serif" font-size="10" fill="#888">98,234</text>
<rect x="1320" y="351" width="42" height="14" rx="3" fill="#0D2818"/>
<text x="1341" y="361" font-family="Arial,sans-serif" font-size="9" text-anchor="middle" fill="#43A047">HEALTHY</text>
<line x1="868" y1="368" x2="1370" y2="368" stroke="#1E2329" stroke-width="1"/>

<rect x="876" y="374" width="6" height="6" rx="1" fill="#FBC02D"/>
<text x="890" y="382" font-family="Arial,sans-serif" font-size="11" fill="#DDD">AWS CloudTrail</text>
<text x="1140" y="382" font-family="Arial,sans-serif" font-size="10" fill="#FBC02D">2h ago</text>
<text x="1260" y="382" font-family="Arial,sans-serif" font-size="10" fill="#888">12,441</text>
<rect x="1320" y="373" width="42" height="14" rx="3" fill="#2A2000"/>
<text x="1341" y="383" font-family="Arial,sans-serif" font-size="9" text-anchor="middle" fill="#FBC02D">DELAYED</text>
<line x1="868" y1="390" x2="1370" y2="390" stroke="#1E2329" stroke-width="1"/>

<rect x="876" y="396" width="6" height="6" rx="1" fill="#43A047"/>
<text x="890" y="404" font-family="Arial,sans-serif" font-size="11" fill="#DDD">Palo Alto Firewall</text>
<text x="1140" y="404" font-family="Arial,sans-serif" font-size="10" fill="#888">8m ago</text>
<text x="1260" y="404" font-family="Arial,sans-serif" font-size="10" fill="#888">445,210</text>
<rect x="1320" y="395" width="42" height="14" rx="3" fill="#0D2818"/>
<text x="1341" y="405" font-family="Arial,sans-serif" font-size="9" text-anchor="middle" fill="#43A047">HEALTHY</text>
<line x1="868" y1="412" x2="1370" y2="412" stroke="#1E2329" stroke-width="1"/>

<rect x="876" y="418" width="6" height="6" rx="1" fill="#C00000"/>
<text x="890" y="426" font-family="Arial,sans-serif" font-size="11" fill="#888">Cisco Umbrella</text>
<text x="1140" y="426" font-family="Arial,sans-serif" font-size="10" fill="#F87171">8h+ ago</text>
<text x="1260" y="426" font-family="Arial,sans-serif" font-size="10" fill="#888">—</text>
<rect x="1320" y="417" width="42" height="14" rx="3" fill="#3D0A0A"/>
<text x="1341" y="427" font-family="Arial,sans-serif" font-size="9" text-anchor="middle" fill="#F87171">ERROR</text>
<line x1="868" y1="434" x2="1370" y2="434" stroke="#1E2329" stroke-width="1"/>

<rect x="876" y="440" width="6" height="6" rx="1" fill="#43A047"/>
<text x="890" y="448" font-family="Arial,sans-serif" font-size="11" fill="#DDD">Okta Identity</text>
<text x="1140" y="448" font-family="Arial,sans-serif" font-size="10" fill="#888">3m ago</text>
<text x="1260" y="448" font-family="Arial,sans-serif" font-size="10" fill="#888">23,182</text>
<rect x="1320" y="439" width="42" height="14" rx="3" fill="#0D2818"/>
<text x="1341" y="449" font-family="Arial,sans-serif" font-size="9" text-anchor="middle" fill="#43A047">HEALTHY</text>
<line x1="868" y1="456" x2="1370" y2="456" stroke="#1E2329" stroke-width="1"/>

<rect x="876" y="462" width="6" height="6" rx="1" fill="#43A047"/>
<text x="890" y="470" font-family="Arial,sans-serif" font-size="11" fill="#DDD">GitHub Advanced Security</text>
<text x="1140" y="470" font-family="Arial,sans-serif" font-size="10" fill="#888">15m ago</text>
<text x="1260" y="470" font-family="Arial,sans-serif" font-size="10" fill="#888">4,021</text>
<rect x="1320" y="461" width="42" height="14" rx="3" fill="#0D2818"/>
<text x="1341" y="471" font-family="Arial,sans-serif" font-size="9" text-anchor="middle" fill="#43A047">HEALTHY</text>
<line x1="868" y1="478" x2="1370" y2="478" stroke="#1E2329" stroke-width="1"/>

<rect x="876" y="484" width="6" height="6" rx="1" fill="#C00000"/>
<text x="890" y="492" font-family="Arial,sans-serif" font-size="11" fill="#888">Syslog (Linux Fleet)</text>
<text x="1140" y="492" font-family="Arial,sans-serif" font-size="10" fill="#F87171">12h+ ago</text>
<text x="1260" y="492" font-family="Arial,sans-serif" font-size="10" fill="#888">—</text>
<rect x="1320" y="483" width="42" height="14" rx="3" fill="#3D0A0A"/>
<text x="1341" y="493" font-family="Arial,sans-serif" font-size="9" text-anchor="middle" fill="#F87171">ERROR</text>
<line x1="868" y1="500" x2="1370" y2="500" stroke="#1E2329" stroke-width="1"/>

<!-- ===== MITRE TACTIC DISTRIBUTION ===== -->
<rect x="20" y="526" width="516" height="218" rx="4" fill="url(#card)" stroke="#333" stroke-width="1"/>
<text x="36" y="548" font-family="Arial,sans-serif" font-size="12" font-weight="600" fill="#FFFFFF">Incidents by ATT&amp;CK Tactic</text>

<!-- Horizontal bar chart -->
<text x="200" y="564" font-family="Arial,sans-serif" font-size="9" fill="#666">Init Access</text>
<rect x="290" y="556" width="220" height="12" rx="2" fill="#1A1A2E"/>
<rect x="290" y="556" width="134" height="12" rx="2" fill="url(#azureBlue)"/>
<text x="514" y="566" font-family="Arial,sans-serif" font-size="9" fill="#888">67</text>

<text x="200" y="582" font-family="Arial,sans-serif" font-size="9" fill="#666">Execution</text>
<rect x="290" y="574" width="220" height="12" rx="2" fill="#1A1A2E"/>
<rect x="290" y="574" width="198" height="12" rx="2" fill="url(#azureBlue)"/>
<text x="514" y="584" font-family="Arial,sans-serif" font-size="9" fill="#888">99</text>

<text x="200" y="600" font-family="Arial,sans-serif" font-size="9" fill="#666">Persistence</text>
<rect x="290" y="592" width="220" height="12" rx="2" fill="#1A1A2E"/>
<rect x="290" y="592" width="162" height="12" rx="2" fill="url(#azureBlue)"/>
<text x="514" y="602" font-family="Arial,sans-serif" font-size="9" fill="#888">81</text>

<text x="200" y="618" font-family="Arial,sans-serif" font-size="9" fill="#666">Def Evasion</text>
<rect x="290" y="610" width="220" height="12" rx="2" fill="#1A1A2E"/>
<rect x="290" y="610" width="220" height="12" rx="2" fill="url(#azureBlue)"/>
<text x="514" y="620" font-family="Arial,sans-serif" font-size="9" fill="#888">110</text>

<text x="200" y="636" font-family="Arial,sans-serif" font-size="9" fill="#666">Cred Access</text>
<rect x="290" y="628" width="220" height="12" rx="2" fill="#1A1A2E"/>
<rect x="290" y="628" width="176" height="12" rx="2" fill="#C00000" opacity="0.8"/>
<text x="514" y="638" font-family="Arial,sans-serif" font-size="9" fill="#F87171">88</text>

<text x="200" y="654" font-family="Arial,sans-serif" font-size="9" fill="#666">Lateral Move</text>
<rect x="290" y="646" width="220" height="12" rx="2" fill="#1A1A2E"/>
<rect x="290" y="646" width="88" height="12" rx="2" fill="#FB8C00" opacity="0.8"/>
<text x="514" y="656" font-family="Arial,sans-serif" font-size="9" fill="#888">44</text>

<text x="200" y="672" font-family="Arial,sans-serif" font-size="9" fill="#666">C&amp;C</text>
<rect x="290" y="664" width="220" height="12" rx="2" fill="#1A1A2E"/>
<rect x="290" y="664" width="148" height="12" rx="2" fill="url(#azureBlue)"/>
<text x="514" y="674" font-family="Arial,sans-serif" font-size="9" fill="#888">74</text>

<text x="200" y="690" font-family="Arial,sans-serif" font-size="9" fill="#666">Exfiltration</text>
<rect x="290" y="682" width="220" height="12" rx="2" fill="#1A1A2E"/>
<rect x="290" y="682" width="62" height="12" rx="2" fill="#C00000" opacity="0.8"/>
<text x="514" y="692" font-family="Arial,sans-serif" font-size="9" fill="#F87171">31</text>

<text x="200" y="708" font-family="Arial,sans-serif" font-size="9" fill="#666">Impact</text>
<rect x="290" y="700" width="220" height="12" rx="2" fill="#1A1A2E"/>
<rect x="290" y="700" width="46" height="12" rx="2" fill="#C00000"/>
<text x="514" y="710" font-family="Arial,sans-serif" font-size="9" fill="#F87171">23</text>

<text x="200" y="726" font-family="Arial,sans-serif" font-size="9" fill="#666">Discovery</text>
<rect x="290" y="718" width="220" height="12" rx="2" fill="#1A1A2E"/>
<rect x="290" y="718" width="124" height="12" rx="2" fill="url(#azureBlue)"/>
<text x="514" y="728" font-family="Arial,sans-serif" font-size="9" fill="#888">62</text>

<!-- ===== TOP AFFECTED ENTITIES ===== -->
<rect x="546" y="526" width="516" height="218" rx="4" fill="url(#card)" stroke="#333" stroke-width="1"/>
<text x="562" y="548" font-family="Arial,sans-serif" font-size="12" font-weight="600" fill="#FFFFFF">Top Affected Entities</text>
<text x="908" y="548" font-family="Arial,sans-serif" font-size="11" fill="#0078D4">Users</text>
<text x="960" y="548" font-family="Arial,sans-serif" font-size="11" fill="#888"> / </text>
<text x="976" y="548" font-family="Arial,sans-serif" font-size="11" fill="#888">Hosts</text>
<line x1="554" y1="554" x2="1054" y2="554" stroke="#333" stroke-width="1"/>
<!-- User column -->
<text x="562" y="568" font-family="Arial,sans-serif" font-size="9" letter-spacing="0.8" fill="#666">USER ACCOUNT</text>
<text x="750" y="568" font-family="Arial,sans-serif" font-size="9" letter-spacing="0.8" fill="#666" text-anchor="end">INCIDENTS</text>
<line x1="554" y1="572" x2="770" y2="572" stroke="#1E2329" stroke-width="1"/>

<text x="562" y="586" font-family="Arial,sans-serif" font-size="11" fill="#DDD">j.smith@corp.com</text>
<rect x="710" y="578" width="42" height="14" rx="3" fill="#3D0A0A"/>
<text x="731" y="588" font-family="Arial,sans-serif" font-size="9" text-anchor="middle" fill="#F87171">12</text>
<line x1="554" y1="594" x2="770" y2="594" stroke="#1E2329" stroke-width="1"/>
<text x="562" y="608" font-family="Arial,sans-serif" font-size="11" fill="#DDD">admin@corp.com</text>
<rect x="710" y="600" width="42" height="14" rx="3" fill="#2A1A00"/>
<text x="731" y="610" font-family="Arial,sans-serif" font-size="9" text-anchor="middle" fill="#FB8C00">8</text>
<line x1="554" y1="616" x2="770" y2="616" stroke="#1E2329" stroke-width="1"/>
<text x="562" y="630" font-family="Arial,sans-serif" font-size="11" fill="#DDD">svc_sharepoint</text>
<rect x="710" y="622" width="42" height="14" rx="3" fill="#2A1A00"/>
<text x="731" y="632" font-family="Arial,sans-serif" font-size="9" text-anchor="middle" fill="#FB8C00">7</text>
<line x1="554" y1="638" x2="770" y2="638" stroke="#1E2329" stroke-width="1"/>
<text x="562" y="652" font-family="Arial,sans-serif" font-size="11" fill="#DDD">m.chen@corp.com</text>
<rect x="710" y="644" width="42" height="14" rx="3" fill="#1A2A0A"/>
<text x="731" y="654" font-family="Arial,sans-serif" font-size="9" text-anchor="middle" fill="#43A047">5</text>
<line x1="554" y1="660" x2="770" y2="660" stroke="#1E2329" stroke-width="1"/>
<text x="562" y="674" font-family="Arial,sans-serif" font-size="11" fill="#888">r.patel@corp.com</text>
<rect x="710" y="666" width="42" height="14" rx="3" fill="#1A2A0A"/>
<text x="731" y="676" font-family="Arial,sans-serif" font-size="9" text-anchor="middle" fill="#43A047">3</text>

<!-- Host column -->
<text x="800" y="568" font-family="Arial,sans-serif" font-size="9" letter-spacing="0.8" fill="#666">HOST</text>
<text x="1044" y="568" font-family="Arial,sans-serif" font-size="9" letter-spacing="0.8" fill="#666" text-anchor="end">INCIDENTS</text>
<line x1="790" y1="572" x2="1054" y2="572" stroke="#1E2329" stroke-width="1"/>
<text x="800" y="586" font-family="Arial,sans-serif" font-size="11" fill="#DDD">WIN-SRV-04</text>
<rect x="1000" y="578" width="42" height="14" rx="3" fill="#3D0A0A"/>
<text x="1021" y="588" font-family="Arial,sans-serif" font-size="9" text-anchor="middle" fill="#F87171">15</text>
<line x1="790" y1="594" x2="1054" y2="594" stroke="#1E2329" stroke-width="1"/>
<text x="800" y="608" font-family="Arial,sans-serif" font-size="11" fill="#DDD">DC-CORP-01</text>
<rect x="1000" y="600" width="42" height="14" rx="3" fill="#3D0A0A"/>
<text x="1021" y="610" font-family="Arial,sans-serif" font-size="9" text-anchor="middle" fill="#F87171">11</text>
<line x1="790" y1="616" x2="1054" y2="616" stroke="#1E2329" stroke-width="1"/>
<text x="800" y="630" font-family="Arial,sans-serif" font-size="11" fill="#DDD">WEB-PROD-02</text>
<rect x="1000" y="622" width="42" height="14" rx="3" fill="#2A1A00"/>
<text x="1021" y="632" font-family="Arial,sans-serif" font-size="9" text-anchor="middle" fill="#FB8C00">9</text>
<line x1="790" y1="638" x2="1054" y2="638" stroke="#1E2329" stroke-width="1"/>
<text x="800" y="652" font-family="Arial,sans-serif" font-size="11" fill="#DDD">LAPTOP-JSMITH</text>
<rect x="1000" y="644" width="42" height="14" rx="3" fill="#2A1A00"/>
<text x="1021" y="654" font-family="Arial,sans-serif" font-size="9" text-anchor="middle" fill="#FB8C00">9</text>
<line x1="790" y1="660" x2="1054" y2="660" stroke="#1E2329" stroke-width="1"/>
<text x="800" y="674" font-family="Arial,sans-serif" font-size="11" fill="#888">SQLDB-PROD</text>
<rect x="1000" y="666" width="42" height="14" rx="3" fill="#1A2A0A"/>
<text x="1021" y="676" font-family="Arial,sans-serif" font-size="9" text-anchor="middle" fill="#43A047">4</text>

<!-- ===== PLAYBOOK / AUTOMATION ===== -->
<rect x="1072" y="526" width="310" height="218" rx="4" fill="url(#card)" stroke="#333" stroke-width="1"/>
<text x="1088" y="548" font-family="Arial,sans-serif" font-size="12" font-weight="600" fill="#FFFFFF">Automation Runs</text>
<text x="1374" y="548" font-family="Arial,sans-serif" font-size="11" text-anchor="end" fill="#0078D4">View All</text>
<line x1="1080" y1="554" x2="1374" y2="554" stroke="#333" stroke-width="1"/>
<text x="1088" y="568" font-family="Arial,sans-serif" font-size="9" letter-spacing="0.8" fill="#666">PLAYBOOK</text>
<text x="1270" y="568" font-family="Arial,sans-serif" font-size="9" letter-spacing="0.8" fill="#666">RUNS</text>
<text x="1370" y="568" font-family="Arial,sans-serif" font-size="9" letter-spacing="0.8" fill="#666" text-anchor="end">SUCCESS</text>
<line x1="1080" y1="572" x2="1374" y2="572" stroke="#1E2329" stroke-width="1"/>

<text x="1088" y="586" font-family="Arial,sans-serif" font-size="10" fill="#DDD">Block-IP-Firewall</text>
<text x="1270" y="586" font-family="Arial,sans-serif" font-size="10" fill="#888">142</text>
<text x="1370" y="586" font-family="Arial,sans-serif" font-size="10" text-anchor="end" fill="#43A047">99.3%</text>
<line x1="1080" y1="592" x2="1374" y2="592" stroke="#1E2329" stroke-width="1"/>

<text x="1088" y="606" font-family="Arial,sans-serif" font-size="10" fill="#DDD">Isolate-Endpoint</text>
<text x="1270" y="606" font-family="Arial,sans-serif" font-size="10" fill="#888">38</text>
<text x="1370" y="606" font-family="Arial,sans-serif" font-size="10" text-anchor="end" fill="#43A047">100%</text>
<line x1="1080" y1="612" x2="1374" y2="612" stroke="#1E2329" stroke-width="1"/>

<text x="1088" y="626" font-family="Arial,sans-serif" font-size="10" fill="#DDD">Enrich-IP-Threat</text>
<text x="1270" y="626" font-family="Arial,sans-serif" font-size="10" fill="#888">1,284</text>
<text x="1370" y="626" font-family="Arial,sans-serif" font-size="10" text-anchor="end" fill="#43A047">97.8%</text>
<line x1="1080" y1="632" x2="1374" y2="632" stroke="#1E2329" stroke-width="1"/>

<text x="1088" y="646" font-family="Arial,sans-serif" font-size="10" fill="#DDD">Disable-User-AD</text>
<text x="1270" y="646" font-family="Arial,sans-serif" font-size="10" fill="#888">12</text>
<text x="1370" y="646" font-family="Arial,sans-serif" font-size="10" text-anchor="end" fill="#43A047">100%</text>
<line x1="1080" y1="652" x2="1374" y2="652" stroke="#1E2329" stroke-width="1"/>

<text x="1088" y="666" font-family="Arial,sans-serif" font-size="10" fill="#DDD">Send-Teams-Alert</text>
<text x="1270" y="666" font-family="Arial,sans-serif" font-size="10" fill="#888">892</text>
<text x="1370" y="666" font-family="Arial,sans-serif" font-size="10" text-anchor="end" fill="#FB8C00">88.4%</text>
<line x1="1080" y1="672" x2="1374" y2="672" stroke="#1E2329" stroke-width="1"/>

<text x="1088" y="686" font-family="Arial,sans-serif" font-size="10" fill="#DDD">Create-Jira-Ticket</text>
<text x="1270" y="686" font-family="Arial,sans-serif" font-size="10" fill="#888">284</text>
<text x="1370" y="686" font-family="Arial,sans-serif" font-size="10" text-anchor="end" fill="#F87171">74.1%</text>
<line x1="1080" y1="692" x2="1374" y2="692" stroke="#1E2329" stroke-width="1"/>

<text x="1088" y="706" font-family="Arial,sans-serif" font-size="10" fill="#DDD">Close-FP-Incident</text>
<text x="1270" y="706" font-family="Arial,sans-serif" font-size="10" fill="#888">445</text>
<text x="1370" y="706" font-family="Arial,sans-serif" font-size="10" text-anchor="end" fill="#43A047">95.8%</text>
<line x1="1080" y1="712" x2="1374" y2="712" stroke="#1E2329" stroke-width="1"/>

<text x="1088" y="726" font-family="Arial,sans-serif" font-size="10" fill="#DDD">Malware-Hunt-KQL</text>
<text x="1270" y="726" font-family="Arial,sans-serif" font-size="10" fill="#888">78</text>
<text x="1370" y="726" font-family="Arial,sans-serif" font-size="10" text-anchor="end" fill="#43A047">100%</text>

<!-- Status bar -->
<rect x="0" y="848" width="1400" height="52" fill="#111"/>
<line x1="0" y1="848" x2="1400" y2="848" stroke="#333" stroke-width="1"/>
<rect x="16" y="866" width="8" height="8" rx="1" fill="#43A047"/>
<text x="30" y="874" font-family="Arial,sans-serif" font-size="11" fill="#43A047">Microsoft Sentinel — Workspace: corp-sentinel-prod</text>
<text x="390" y="874" font-family="Arial,sans-serif" font-size="11" fill="#444"> · </text>
<text x="402" y="874" font-family="Arial,sans-serif" font-size="11" fill="#666">Region: East US 2</text>
<text x="492" y="874" font-family="Arial,sans-serif" font-size="11" fill="#444"> · </text>
<text x="504" y="874" font-family="Arial,sans-serif" font-size="11" fill="#666">Analytics Rules: 248 active</text>
<text x="1380" y="874" font-family="Arial,sans-serif" font-size="11" text-anchor="end" fill="#666">2026-02-19 UTC</text>
</svg>
