<svg xmlns="http://www.w3.org/2000/svg" width="1400" height="900" viewBox="0 0 1400 900">
  <defs>
    <linearGradient id="bg04" x1="0%" y1="0%" x2="0%" y2="100%">
      <stop offset="0%" style="stop-color:#1D1E24"/>
      <stop offset="100%" style="stop-color:#16171c"/>
    </linearGradient>
    <linearGradient id="card04" x1="0%" y1="0%" x2="0%" y2="100%">
      <stop offset="0%" style="stop-color:#25262e"/>
      <stop offset="100%" style="stop-color:#1e1f26"/>
    </linearGradient>
    <linearGradient id="teal04" x1="0%" y1="100%" x2="0%" y2="0%">
      <stop offset="0%" style="stop-color:#00BFB3"/>
      <stop offset="100%" style="stop-color:#00E7D8"/>
    </linearGradient>
  </defs>

  <!-- Background -->
  <rect width="1400" height="900" fill="url(#bg04)"/>

  <!-- Top Nav - Elastic Kibana style -->
  <rect x="0" y="0" width="1400" height="50" fill="#1D1E24" stroke="#2e2f38" stroke-width="1"/>
  <rect x="0" y="0" width="52" height="50" fill="#00BFB3"/>
  <text x="26" y="32" font-family="Arial, sans-serif" font-size="20" font-weight="900" fill="white" text-anchor="middle">e</text>
  <text x="70" y="20" font-family="Inter, sans-serif" font-size="11" fill="#98A2B3">Kibana</text>
  <text x="70" y="36" font-family="Inter, sans-serif" font-size="14" font-weight="600" fill="#F9FAFB">Security  /  Alerts</text>

  <!-- Search bar -->
  <rect x="350" y="12" width="600" height="28" rx="4" fill="#16171c" stroke="#374151" stroke-width="1"/>
  <text x="370" y="31" font-family="Inter, sans-serif" font-size="12" fill="#6B7280">Search alerts... (KQL)</text>
  <text x="920" y="31" font-family="Inter, sans-serif" font-size="11" fill="#00BFB3">Last 24h  ▾</text>
  <text x="1100" y="31" font-family="Inter, sans-serif" font-size="12" fill="#9CA3AF">Refresh: 1m</text>
  <text x="1260" y="31" font-family="Inter, sans-serif" font-size="12" fill="#9CA3AF">⚙ Settings</text>

  <!-- Left nav pills -->
  <rect x="0" y="50" width="220" height="850" fill="#16171c" stroke="#2e2f38" stroke-width="0"/>
  <text x="16" y="80" font-family="Inter, sans-serif" font-size="10" fill="#6B7280" letter-spacing="1">SECURITY</text>
  <rect x="0" y="88" width="220" height="34" fill="#00BFB3" fill-opacity="0.15"/>
  <rect x="0" y="88" width="3" height="34" fill="#00BFB3"/>
  <text x="20" y="110" font-family="Inter, sans-serif" font-size="13" fill="#00BFB3" font-weight="600">Alerts</text>
  <text x="20" y="140" font-family="Inter, sans-serif" font-size="13" fill="#9CA3AF">Findings</text>
  <text x="20" y="166" font-family="Inter, sans-serif" font-size="13" fill="#9CA3AF">Cases</text>
  <text x="20" y="192" font-family="Inter, sans-serif" font-size="13" fill="#9CA3AF">Investigation</text>
  <text x="20" y="218" font-family="Inter, sans-serif" font-size="13" fill="#9CA3AF">Timeline</text>
  <text x="20" y="244" font-family="Inter, sans-serif" font-size="13" fill="#9CA3AF">Threat Intelligence</text>
  <text x="20" y="270" font-family="Inter, sans-serif" font-size="13" fill="#9CA3AF">Endpoints</text>
  <line x1="12" y1="286" x2="208" y2="286" stroke="#2e2f38" stroke-width="1"/>
  <text x="16" y="306" font-family="Inter, sans-serif" font-size="10" fill="#6B7280" letter-spacing="1">EXPLORE</text>
  <text x="20" y="328" font-family="Inter, sans-serif" font-size="13" fill="#9CA3AF">Network</text>
  <text x="20" y="354" font-family="Inter, sans-serif" font-size="13" fill="#9CA3AF">Users</text>
  <text x="20" y="380" font-family="Inter, sans-serif" font-size="13" fill="#9CA3AF">Hosts</text>
  <line x1="12" y1="396" x2="208" y2="396" stroke="#2e2f38" stroke-width="1"/>
  <text x="16" y="416" font-family="Inter, sans-serif" font-size="10" fill="#6B7280" letter-spacing="1">MANAGE</text>
  <text x="20" y="438" font-family="Inter, sans-serif" font-size="13" fill="#9CA3AF">Rules</text>
  <text x="20" y="464" font-family="Inter, sans-serif" font-size="13" fill="#9CA3AF">Exceptions</text>
  <text x="20" y="490" font-family="Inter, sans-serif" font-size="13" fill="#9CA3AF">Action Log</text>

  <!-- KPI Row -->
  <rect x="234" y="62" width="168" height="78" rx="6" fill="url(#card04)" stroke="#374151" stroke-width="1"/>
  <text x="248" y="84" font-family="Inter, sans-serif" font-size="10" fill="#9CA3AF" letter-spacing="0.5">TOTAL ALERTS</text>
  <text x="248" y="116" font-family="Inter, sans-serif" font-size="32" font-weight="700" fill="#F9FAFB">2,847</text>

  <rect x="412" y="62" width="168" height="78" rx="6" fill="url(#card04)" stroke="#374151" stroke-width="1"/>
  <text x="426" y="84" font-family="Inter, sans-serif" font-size="10" fill="#9CA3AF" letter-spacing="0.5">CRITICAL</text>
  <text x="426" y="116" font-family="Inter, sans-serif" font-size="32" font-weight="700" fill="#F87171">312</text>

  <rect x="590" y="62" width="168" height="78" rx="6" fill="url(#card04)" stroke="#374151" stroke-width="1"/>
  <text x="604" y="84" font-family="Inter, sans-serif" font-size="10" fill="#9CA3AF" letter-spacing="0.5">HIGH</text>
  <text x="604" y="116" font-family="Inter, sans-serif" font-size="32" font-weight="700" fill="#FB923C">748</text>

  <rect x="768" y="62" width="168" height="78" rx="6" fill="url(#card04)" stroke="#374151" stroke-width="1"/>
  <text x="782" y="84" font-family="Inter, sans-serif" font-size="10" fill="#9CA3AF" letter-spacing="0.5">ACKNOWLEDGED</text>
  <text x="782" y="116" font-family="Inter, sans-serif" font-size="32" font-weight="700" fill="#A78BFA">1,203</text>

  <rect x="946" y="62" width="168" height="78" rx="6" fill="url(#card04)" stroke="#374151" stroke-width="1"/>
  <text x="960" y="84" font-family="Inter, sans-serif" font-size="10" fill="#9CA3AF" letter-spacing="0.5">OPEN</text>
  <text x="960" y="116" font-family="Inter, sans-serif" font-size="32" font-weight="700" fill="#34D399">1,644</text>

  <rect x="1124" y="62" width="230" height="78" rx="6" fill="url(#card04)" stroke="#374151" stroke-width="1"/>
  <text x="1138" y="84" font-family="Inter, sans-serif" font-size="10" fill="#9CA3AF" letter-spacing="0.5">DETECTION COVERAGE</text>
  <text x="1138" y="116" font-family="Inter, sans-serif" font-size="32" font-weight="700" fill="#00BFB3">94.2%</text>
  <text x="1280" y="116" font-family="Inter, sans-serif" font-size="11" fill="#00BFB3">MITRE</text>

  <!-- Alert Trend Chart -->
  <rect x="234" y="154" width="680" height="220" rx="6" fill="url(#card04)" stroke="#374151" stroke-width="1"/>
  <text x="248" y="178" font-family="Inter, sans-serif" font-size="14" font-weight="600" fill="#F9FAFB">Alert Trend — Last 24 Hours</text>

  <!-- Area chart simulation -->
  <polyline points="260,330 295,320 330,315 365,290 400,298 435,275 470,268 505,280 540,255 575,242 610,260 645,248 680,238 715,252 750,235 785,220 820,228 855,238 890,222 895,350" fill="#00BFB3" fill-opacity="0.12" stroke="none"/>
  <polyline points="260,330 295,320 330,315 365,290 400,298 435,275 470,268 505,280 540,255 575,242 610,260 645,248 680,238 715,252 750,235 785,220 820,228 855,238 890,222" fill="none" stroke="#00BFB3" stroke-width="2"/>
  <!-- Critical overlay -->
  <polyline points="260,345 295,342 330,340 365,335 400,337 435,332 470,330 505,333 540,329 575,326 610,330 645,328 680,325 715,327 750,324 785,321 820,323 855,325 890,320" fill="#F87171" fill-opacity="0.15" stroke="none"/>
  <polyline points="260,345 295,342 330,340 365,335 400,337 435,332 470,330 505,333 540,329 575,326 610,330 645,328 680,325 715,327 750,324 785,321 820,323 855,325 890,320" fill="none" stroke="#F87171" stroke-width="2"/>
  <line x1="260" y1="350" x2="890" y2="350" stroke="#374151" stroke-width="1"/>
  <text x="248" y="370" font-family="Inter, sans-serif" font-size="10" fill="#6B7280">00:00</text>
  <text x="430" y="370" font-family="Inter, sans-serif" font-size="10" fill="#6B7280">06:00</text>
  <text x="610" y="370" font-family="Inter, sans-serif" font-size="10" fill="#6B7280">12:00</text>
  <text x="790" y="370" font-family="Inter, sans-serif" font-size="10" fill="#6B7280">18:00</text>
  <!-- Legend -->
  <line x1="650" y1="178" x2="680" y2="178" stroke="#00BFB3" stroke-width="2"/>
  <text x="684" y="182" font-family="Inter, sans-serif" font-size="10" fill="#9CA3AF">All Alerts</text>
  <line x1="750" y1="178" x2="780" y2="178" stroke="#F87171" stroke-width="2"/>
  <text x="784" y="182" font-family="Inter, sans-serif" font-size="10" fill="#9CA3AF">Critical</text>

  <!-- MITRE ATT&CK Coverage -->
  <rect x="924" y="154" width="430" height="220" rx="6" fill="url(#card04)" stroke="#374151" stroke-width="1"/>
  <text x="938" y="178" font-family="Inter, sans-serif" font-size="14" font-weight="600" fill="#F9FAFB">MITRE ATT&amp;CK Coverage</text>

  <!-- Tactic bars -->
  <text x="938" y="205" font-family="Inter, sans-serif" font-size="11" fill="#9CA3AF">Initial Access</text>
  <rect x="1050" y="196" width="240" height="12" rx="2" fill="#2e2f38"/>
  <rect x="1050" y="196" width="192" height="12" rx="2" fill="#00BFB3"/>
  <text x="1296" y="207" font-family="Inter, sans-serif" font-size="10" fill="#00BFB3">80%</text>
  <text x="938" y="225" font-family="Inter, sans-serif" font-size="11" fill="#9CA3AF">Execution</text>
  <rect x="1050" y="216" width="240" height="12" rx="2" fill="#2e2f38"/>
  <rect x="1050" y="216" width="216" height="12" rx="2" fill="#34D399"/>
  <text x="1296" y="227" font-family="Inter, sans-serif" font-size="10" fill="#34D399">90%</text>
  <text x="938" y="245" font-family="Inter, sans-serif" font-size="11" fill="#9CA3AF">Persistence</text>
  <rect x="1050" y="236" width="240" height="12" rx="2" fill="#2e2f38"/>
  <rect x="1050" y="236" width="168" height="12" rx="2" fill="#FBBF24"/>
  <text x="1296" y="247" font-family="Inter, sans-serif" font-size="10" fill="#FBBF24">70%</text>
  <text x="938" y="265" font-family="Inter, sans-serif" font-size="11" fill="#9CA3AF">Lateral Movement</text>
  <rect x="1050" y="256" width="240" height="12" rx="2" fill="#2e2f38"/>
  <rect x="1050" y="256" width="144" height="12" rx="2" fill="#F87171"/>
  <text x="1296" y="267" font-family="Inter, sans-serif" font-size="10" fill="#F87171">60%</text>
  <text x="938" y="285" font-family="Inter, sans-serif" font-size="11" fill="#9CA3AF">Collection</text>
  <rect x="1050" y="276" width="240" height="12" rx="2" fill="#2e2f38"/>
  <rect x="1050" y="276" width="184" height="12" rx="2" fill="#00BFB3"/>
  <text x="1296" y="287" font-family="Inter, sans-serif" font-size="10" fill="#00BFB3">77%</text>
  <text x="938" y="305" font-family="Inter, sans-serif" font-size="11" fill="#9CA3AF">Exfiltration</text>
  <rect x="1050" y="296" width="240" height="12" rx="2" fill="#2e2f38"/>
  <rect x="1050" y="296" width="120" height="12" rx="2" fill="#F87171"/>
  <text x="1296" y="307" font-family="Inter, sans-serif" font-size="10" fill="#F87171">50%</text>
  <text x="938" y="325" font-family="Inter, sans-serif" font-size="11" fill="#9CA3AF">C2</text>
  <rect x="1050" y="316" width="240" height="12" rx="2" fill="#2e2f38"/>
  <rect x="1050" y="316" width="204" height="12" rx="2" fill="#34D399"/>
  <text x="1296" y="327" font-family="Inter, sans-serif" font-size="10" fill="#34D399">85%</text>
  <text x="938" y="345" font-family="Inter, sans-serif" font-size="11" fill="#9CA3AF">Impact</text>
  <rect x="1050" y="336" width="240" height="12" rx="2" fill="#2e2f38"/>
  <rect x="1050" y="336" width="96" height="12" rx="2" fill="#F87171"/>
  <text x="1296" y="347" font-family="Inter, sans-serif" font-size="10" fill="#F87171">40%</text>

  <!-- Alert Table -->
  <rect x="234" y="388" width="1120" height="340" rx="6" fill="url(#card04)" stroke="#374151" stroke-width="1"/>
  <text x="248" y="412" font-family="Inter, sans-serif" font-size="14" font-weight="600" fill="#F9FAFB">Alert Details</text>
  <rect x="1200" y="396" width="120" height="26" rx="4" fill="#00BFB3" fill-opacity="0.15" stroke="#00BFB3" stroke-width="1"/>
  <text x="1260" y="414" font-family="Inter, sans-serif" font-size="11" fill="#00BFB3" text-anchor="middle">+ Add Filter</text>

  <!-- Table Header -->
  <rect x="234" y="420" width="1120" height="28" rx="0" fill="#16171c"/>
  <text x="248" y="438" font-family="Inter, sans-serif" font-size="11" fill="#6B7280">SEV</text>
  <text x="290" y="438" font-family="Inter, sans-serif" font-size="11" fill="#6B7280">ALERT NAME</text>
  <text x="600" y="438" font-family="Inter, sans-serif" font-size="11" fill="#6B7280">RULE</text>
  <text x="760" y="438" font-family="Inter, sans-serif" font-size="11" fill="#6B7280">HOST</text>
  <text x="890" y="438" font-family="Inter, sans-serif" font-size="11" fill="#6B7280">USER</text>
  <text x="1000" y="438" font-family="Inter, sans-serif" font-size="11" fill="#6B7280">TACTIC</text>
  <text x="1120" y="438" font-family="Inter, sans-serif" font-size="11" fill="#6B7280">STATUS</text>
  <text x="1240" y="438" font-family="Inter, sans-serif" font-size="11" fill="#6B7280">TIME</text>

  <!-- Rows -->
  <rect x="234" y="448" width="1120" height="30" fill="#25262e"/>
  <rect x="248" y="456" width="28" height="14" rx="7" fill="#7f1d1d"/>
  <text x="262" y="467" font-family="Inter, sans-serif" font-size="10" fill="#F87171" text-anchor="middle">C</text>
  <text x="290" y="468" font-family="Inter, sans-serif" font-size="12" fill="#F9FAFB">Malware - PowerShell Encoded Command</text>
  <text x="600" y="468" font-family="Inter, sans-serif" font-size="11" fill="#9CA3AF">Custom: PS Obfuscation</text>
  <text x="760" y="468" font-family="Inter, sans-serif" font-size="11" fill="#60A5FA">win-srv-12.corp</text>
  <text x="890" y="468" font-family="Inter, sans-serif" font-size="11" fill="#60A5FA">jdoe</text>
  <rect x="1000" y="456" width="78" height="14" rx="7" fill="#00BFB3" fill-opacity="0.15"/>
  <text x="1039" y="467" font-family="Inter, sans-serif" font-size="10" fill="#00BFB3" text-anchor="middle">Execution</text>
  <rect x="1120" y="456" width="58" height="14" rx="7" fill="#7f1d1d"/>
  <text x="1149" y="467" font-family="Inter, sans-serif" font-size="10" fill="#F87171" text-anchor="middle">Open</text>
  <text x="1240" y="468" font-family="Inter, sans-serif" font-size="10" fill="#6B7280">09:12:44</text>

  <rect x="234" y="478" width="1120" height="30" fill="#1e1f26"/>
  <rect x="248" y="486" width="28" height="14" rx="7" fill="#7f1d1d"/>
  <text x="262" y="497" font-family="Inter, sans-serif" font-size="10" fill="#F87171" text-anchor="middle">C</text>
  <text x="290" y="498" font-family="Inter, sans-serif" font-size="12" fill="#F9FAFB">Process Injection via CreateRemoteThread</text>
  <text x="600" y="498" font-family="Inter, sans-serif" font-size="11" fill="#9CA3AF">Elastic: Defense Evasion</text>
  <text x="760" y="498" font-family="Inter, sans-serif" font-size="11" fill="#60A5FA">dc-01.corp</text>
  <text x="890" y="498" font-family="Inter, sans-serif" font-size="11" fill="#60A5FA">svc-account</text>
  <rect x="1000" y="486" width="78" height="14" rx="7" fill="#A78BFA" fill-opacity="0.15"/>
  <text x="1039" y="497" font-family="Inter, sans-serif" font-size="10" fill="#A78BFA" text-anchor="middle">Defense Eva.</text>
  <rect x="1120" y="486" width="58" height="14" rx="7" fill="#7f1d1d"/>
  <text x="1149" y="497" font-family="Inter, sans-serif" font-size="10" fill="#F87171" text-anchor="middle">Open</text>
  <text x="1240" y="498" font-family="Inter, sans-serif" font-size="10" fill="#6B7280">08:58:11</text>

  <rect x="234" y="508" width="1120" height="30" fill="#25262e"/>
  <rect x="248" y="516" width="28" height="14" rx="7" fill="#7c2d12"/>
  <text x="262" y="527" font-family="Inter, sans-serif" font-size="10" fill="#FB923C" text-anchor="middle">H</text>
  <text x="290" y="528" font-family="Inter, sans-serif" font-size="12" fill="#F9FAFB">Credential Dumping via LSASS Access</text>
  <text x="600" y="528" font-family="Inter, sans-serif" font-size="11" fill="#9CA3AF">Elastic: Credential Access</text>
  <text x="760" y="528" font-family="Inter, sans-serif" font-size="11" fill="#60A5FA">dev-ws-47.corp</text>
  <text x="890" y="528" font-family="Inter, sans-serif" font-size="11" fill="#60A5FA">m.chen</text>
  <rect x="1000" y="516" width="88" height="14" rx="7" fill="#FB923C" fill-opacity="0.15"/>
  <text x="1044" y="527" font-family="Inter, sans-serif" font-size="10" fill="#FB923C" text-anchor="middle">Cred Access</text>
  <rect x="1120" y="516" width="80" height="14" rx="7" fill="#1e3a5f"/>
  <text x="1160" y="527" font-family="Inter, sans-serif" font-size="10" fill="#60A5FA" text-anchor="middle">Acknowledged</text>
  <text x="1240" y="528" font-family="Inter, sans-serif" font-size="10" fill="#6B7280">08:44:32</text>

  <rect x="234" y="538" width="1120" height="30" fill="#1e1f26"/>
  <rect x="248" y="546" width="28" height="14" rx="7" fill="#7c2d12"/>
  <text x="262" y="557" font-family="Inter, sans-serif" font-size="10" fill="#FB923C" text-anchor="middle">H</text>
  <text x="290" y="558" font-family="Inter, sans-serif" font-size="12" fill="#F9FAFB">Suspicious Network Port Scan</text>
  <text x="600" y="558" font-family="Inter, sans-serif" font-size="11" fill="#9CA3AF">Custom: Recon</text>
  <text x="760" y="558" font-family="Inter, sans-serif" font-size="11" fill="#60A5FA">192.168.5.22</text>
  <text x="890" y="558" font-family="Inter, sans-serif" font-size="11" fill="#60A5FA">unknown</text>
  <rect x="1000" y="546" width="78" height="14" rx="7" fill="#3B82F6" fill-opacity="0.15"/>
  <text x="1039" y="557" font-family="Inter, sans-serif" font-size="10" fill="#60A5FA" text-anchor="middle">Discovery</text>
  <rect x="1120" y="546" width="58" height="14" rx="7" fill="#7f1d1d"/>
  <text x="1149" y="557" font-family="Inter, sans-serif" font-size="10" fill="#F87171" text-anchor="middle">Open</text>
  <text x="1240" y="558" font-family="Inter, sans-serif" font-size="10" fill="#6B7280">08:31:07</text>

  <rect x="234" y="568" width="1120" height="30" fill="#25262e"/>
  <rect x="248" y="576" width="28" height="14" rx="7" fill="#713f12"/>
  <text x="262" y="587" font-family="Inter, sans-serif" font-size="10" fill="#FBBF24" text-anchor="middle">M</text>
  <text x="290" y="588" font-family="Inter, sans-serif" font-size="12" fill="#F9FAFB">Unusual DNS Query Volume from Host</text>
  <text x="600" y="588" font-family="Inter, sans-serif" font-size="11" fill="#9CA3AF">ML: DNS Anomaly</text>
  <text x="760" y="588" font-family="Inter, sans-serif" font-size="11" fill="#60A5FA">eng-ws-03.corp</text>
  <text x="890" y="588" font-family="Inter, sans-serif" font-size="11" fill="#60A5FA">a.johnson</text>
  <rect x="1000" y="576" width="78" height="14" rx="7" fill="#00BFB3" fill-opacity="0.15"/>
  <text x="1039" y="587" font-family="Inter, sans-serif" font-size="10" fill="#00BFB3" text-anchor="middle">Exfiltration</text>
  <rect x="1120" y="576" width="80" height="14" rx="7" fill="#1e3a5f"/>
  <text x="1160" y="587" font-family="Inter, sans-serif" font-size="10" fill="#60A5FA" text-anchor="middle">Acknowledged</text>
  <text x="1240" y="588" font-family="Inter, sans-serif" font-size="10" fill="#6B7280">08:17:55</text>

  <rect x="234" y="598" width="1120" height="30" fill="#1e1f26"/>
  <rect x="248" y="606" width="28" height="14" rx="7" fill="#713f12"/>
  <text x="262" y="617" font-family="Inter, sans-serif" font-size="10" fill="#FBBF24" text-anchor="middle">M</text>
  <text x="290" y="618" font-family="Inter, sans-serif" font-size="12" fill="#F9FAFB">WMI Persistent Task Creation</text>
  <text x="600" y="618" font-family="Inter, sans-serif" font-size="11" fill="#9CA3AF">Elastic: Persistence</text>
  <text x="760" y="618" font-family="Inter, sans-serif" font-size="11" fill="#60A5FA">ws-fin-09.corp</text>
  <text x="890" y="618" font-family="Inter, sans-serif" font-size="11" fill="#60A5FA">p.smith</text>
  <rect x="1000" y="606" width="78" height="14" rx="7" fill="#34D399" fill-opacity="0.15"/>
  <text x="1039" y="617" font-family="Inter, sans-serif" font-size="10" fill="#34D399" text-anchor="middle">Persistence</text>
  <rect x="1120" y="606" width="58" height="14" rx="7" fill="#7f1d1d"/>
  <text x="1149" y="617" font-family="Inter, sans-serif" font-size="10" fill="#F87171" text-anchor="middle">Open</text>
  <text x="1240" y="618" font-family="Inter, sans-serif" font-size="10" fill="#6B7280">08:03:22</text>

  <rect x="234" y="628" width="1120" height="30" fill="#25262e"/>
  <rect x="248" y="636" width="28" height="14" rx="7" fill="#713f12"/>
  <text x="262" y="647" font-family="Inter, sans-serif" font-size="10" fill="#FBBF24" text-anchor="middle">M</text>
  <text x="290" y="648" font-family="Inter, sans-serif" font-size="12" fill="#F9FAFB">SMB Lateral Movement Detection</text>
  <text x="600" y="648" font-family="Inter, sans-serif" font-size="11" fill="#9CA3AF">Elastic: Lateral Movement</text>
  <text x="760" y="648" font-family="Inter, sans-serif" font-size="11" fill="#60A5FA">10.1.0.0/24</text>
  <text x="890" y="648" font-family="Inter, sans-serif" font-size="11" fill="#60A5FA">svc-deploy</text>
  <rect x="1000" y="636" width="92" height="14" rx="7" fill="#A78BFA" fill-opacity="0.15"/>
  <text x="1046" y="647" font-family="Inter, sans-serif" font-size="10" fill="#A78BFA" text-anchor="middle">Lateral Mvmt</text>
  <rect x="1120" y="636" width="58" height="14" rx="7" fill="#7f1d1d"/>
  <text x="1149" y="647" font-family="Inter, sans-serif" font-size="10" fill="#F87171" text-anchor="middle">Open</text>
  <text x="1240" y="648" font-family="Inter, sans-serif" font-size="10" fill="#6B7280">07:49:10</text>

  <rect x="234" y="658" width="1120" height="30" fill="#1e1f26"/>
  <rect x="248" y="666" width="28" height="14" rx="7" fill="#14532d"/>
  <text x="262" y="677" font-family="Inter, sans-serif" font-size="10" fill="#34D399" text-anchor="middle">L</text>
  <text x="290" y="678" font-family="Inter, sans-serif" font-size="12" fill="#F9FAFB">Failed Login Attempt — 5 in 1 Minute</text>
  <text x="600" y="678" font-family="Inter, sans-serif" font-size="11" fill="#9CA3AF">Custom: Brute Force</text>
  <text x="760" y="678" font-family="Inter, sans-serif" font-size="11" fill="#60A5FA">vpn-gw-01.corp</text>
  <text x="890" y="678" font-family="Inter, sans-serif" font-size="11" fill="#60A5FA">external</text>
  <rect x="1000" y="666" width="78" height="14" rx="7" fill="#3B82F6" fill-opacity="0.15"/>
  <text x="1039" y="677" font-family="Inter, sans-serif" font-size="10" fill="#60A5FA" text-anchor="middle">Init. Access</text>
  <rect x="1120" y="666" width="58" height="14" rx="7" fill="#065f46"/>
  <text x="1149" y="677" font-family="Inter, sans-serif" font-size="10" fill="#34D399" text-anchor="middle">Closed</text>
  <text x="1240" y="678" font-family="Inter, sans-serif" font-size="10" fill="#6B7280">07:28:49</text>

  <!-- Bottom bar -->
  <rect x="0" y="748" width="1400" height="4" fill="#2e2f38"/>
  <!-- Detection Rule Health -->
  <rect x="234" y="760" width="540" height="110" rx="6" fill="url(#card04)" stroke="#374151" stroke-width="1"/>
  <text x="248" y="784" font-family="Inter, sans-serif" font-size="14" font-weight="600" fill="#F9FAFB">Detection Rule Health</text>
  <text x="248" y="810" font-family="Inter, sans-serif" font-size="12" fill="#34D399">● 847 Enabled</text>
  <text x="380" y="810" font-family="Inter, sans-serif" font-size="12" fill="#F87171">● 12 Failed</text>
  <text x="470" y="810" font-family="Inter, sans-serif" font-size="12" fill="#9CA3AF">● 34 Warnings</text>
  <text x="248" y="840" font-family="Inter, sans-serif" font-size="12" fill="#9CA3AF">ML Models Active:  </text>
  <text x="360" y="840" font-family="Inter, sans-serif" font-size="12" fill="#00BFB3">7 / 9</text>
  <text x="248" y="860" font-family="Inter, sans-serif" font-size="12" fill="#9CA3AF">Exceptions Total:  </text>
  <text x="360" y="860" font-family="Inter, sans-serif" font-size="12" fill="#F9FAFB">1,247</text>

  <!-- Top Affected Users -->
  <rect x="784" y="760" width="570" height="110" rx="6" fill="url(#card04)" stroke="#374151" stroke-width="1"/>
  <text x="798" y="784" font-family="Inter, sans-serif" font-size="14" font-weight="600" fill="#F9FAFB">Top Affected Hosts</text>
  <text x="798" y="810" font-family="Inter, sans-serif" font-size="12" fill="#60A5FA">dc-01.corp</text>
  <text x="980" y="810" font-family="Inter, sans-serif" font-size="12" fill="#F87171">312 alerts</text>
  <text x="798" y="830" font-family="Inter, sans-serif" font-size="12" fill="#60A5FA">win-srv-12.corp</text>
  <text x="980" y="830" font-family="Inter, sans-serif" font-size="12" fill="#FB923C">187 alerts</text>
  <text x="798" y="850" font-family="Inter, sans-serif" font-size="12" fill="#60A5FA">dev-ws-47.corp</text>
  <text x="980" y="850" font-family="Inter, sans-serif" font-size="12" fill="#FBBF24">143 alerts</text>
  <text x="798" y="870" font-family="Inter, sans-serif" font-size="12" fill="#60A5FA">ws-fin-09.corp</text>
  <text x="980" y="870" font-family="Inter, sans-serif" font-size="12" fill="#9CA3AF">98 alerts</text>

  <!-- Footer -->
  <rect x="0" y="880" width="1400" height="20" fill="#16171c"/>
  <text x="234" y="894" font-family="Inter, sans-serif" font-size="10" fill="#6B7280">Elastic Security 8.13 — Kibana Build hash: f4a1c2e</text>
  <text x="1100" y="894" font-family="Inter, sans-serif" font-size="10" fill="#6B7280">Index: .siem-signals-default — 12,847,293 docs</text>
</svg>
