<svg xmlns="http://www.w3.org/2000/svg" width="1400" height="900" viewBox="0 0 1400 900">
  <defs>
    <linearGradient id="bg11" x1="0%" y1="0%" x2="0%" y2="100%">
      <stop offset="0%" style="stop-color:#020408"/>
      <stop offset="100%" style="stop-color:#050810"/>
    </linearGradient>
    <linearGradient id="card11" x1="0%" y1="0%" x2="0%" y2="100%">
      <stop offset="0%" style="stop-color:#08101C"/>
      <stop offset="100%" style="stop-color:#060D18"/>
    </linearGradient>
  </defs>

  <rect width="1400" height="900" fill="url(#bg11)"/>

  <!-- Top Nav - Darktrace dark cyber aesthetic -->
  <rect x="0" y="0" width="1400" height="52" fill="#050810" stroke="#0E1E30" stroke-width="1"/>
  <rect x="0" y="0" width="200" height="52" fill="#04080F"/>
  <text x="16" y="22" font-family="Courier New, monospace" font-size="11" fill="#00B0C8">DARKTRACE</text>
  <text x="16" y="42" font-family="Courier New, monospace" font-size="14" font-weight="700" fill="#BA55D3">THREAT VISUALIZER</text>
  <text x="220" y="30" font-family="Inter, sans-serif" font-size="12" fill="#2A4A6A">Dashboard</text>
  <text x="320" y="30" font-family="Inter, sans-serif" font-size="12" fill="#2A4A6A">Alerts</text>
  <text x="390" y="30" font-family="Inter, sans-serif" font-size="12" fill="#2A4A6A">Models</text>
  <text x="460" y="30" font-family="Inter, sans-serif" font-size="12" fill="#2A4A6A">Device Admin</text>
  <text x="580" y="30" font-family="Inter, sans-serif" font-size="12" fill="#2A4A6A">Antigena</text>
  <text x="660" y="30" font-family="Inter, sans-serif" font-size="12" fill="#2A4A6A">Detect/AI</text>
  <text x="1150" y="30" font-family="Courier New, monospace" font-size="11" fill="#00B0C8">ANTIGENA: ACTIVE</text>
  <text x="1320" y="30" font-family="Courier New, monospace" font-size="11" fill="#2A4A6A">admin</text>

  <!-- AI Confidence Panel -->
  <rect x="12" y="66" width="300" height="130" rx="4" fill="url(#card11)" stroke="#0E1E30" stroke-width="1"/>
  <text x="26" y="90" font-family="Courier New, monospace" font-size="11" fill="#2A4A6A">IMMUNE SYSTEM STATUS</text>
  <text x="26" y="130" font-family="Courier New, monospace" font-size="48" font-weight="900" fill="#00B0C8">98.7%</text>
  <text x="26" y="160" font-family="Courier New, monospace" font-size="12" fill="#00B0C8">AI Confidence — Self-Learning</text>
  <text x="26" y="182" font-family="Inter, sans-serif" font-size="11" fill="#2A4A6A">Training complete: 14 days of baseline</text>

  <!-- Model Breach Counter -->
  <rect x="322" y="66" width="200" height="130" rx="4" fill="url(#card11)" stroke="#0E1E30" stroke-width="1"/>
  <rect x="322" y="66" width="200" height="3" fill="#EF4444"/>
  <text x="336" y="90" font-family="Courier New, monospace" font-size="10" fill="#2A4A6A">ACTIVE BREACHES</text>
  <text x="336" y="138" font-family="Courier New, monospace" font-size="56" font-weight="900" fill="#EF4444">47</text>
  <text x="336" y="168" font-family="Inter, sans-serif" font-size="11" fill="#2A4A6A">▲ 7 in last hour</text>
  <text x="336" y="186" font-family="Inter, sans-serif" font-size="11" fill="#EF4444">3 require immediate action</text>

  <!-- Antigena Actions -->
  <rect x="532" y="66" width="200" height="130" rx="4" fill="url(#card11)" stroke="#0E1E30" stroke-width="1"/>
  <rect x="532" y="66" width="200" height="3" fill="#BA55D3"/>
  <text x="546" y="90" font-family="Courier New, monospace" font-size="10" fill="#2A4A6A">ANTIGENA ACTIONS (24h)</text>
  <text x="546" y="138" font-family="Courier New, monospace" font-size="56" font-weight="900" fill="#BA55D3">312</text>
  <text x="546" y="168" font-family="Inter, sans-serif" font-size="11" fill="#2A4A6A">Autonomous responses</text>
  <text x="546" y="186" font-family="Inter, sans-serif" font-size="11" fill="#BA55D3">Network + Email + SaaS</text>

  <!-- Devices Analyzed -->
  <rect x="742" y="66" width="200" height="130" rx="4" fill="url(#card11)" stroke="#0E1E30" stroke-width="1"/>
  <rect x="742" y="66" width="200" height="3" fill="#00B0C8"/>
  <text x="756" y="90" font-family="Courier New, monospace" font-size="10" fill="#2A4A6A">DEVICES LEARNED</text>
  <text x="756" y="138" font-family="Courier New, monospace" font-size="40" font-weight="900" fill="#00B0C8">24,841</text>
  <text x="756" y="168" font-family="Inter, sans-serif" font-size="11" fill="#2A4A6A">Behavioral baselines</text>
  <text x="756" y="186" font-family="Inter, sans-serif" font-size="11" fill="#00B0C8">+847 new this week</text>

  <!-- Unusual Connections -->
  <rect x="952" y="66" width="200" height="130" rx="4" fill="url(#card11)" stroke="#0E1E30" stroke-width="1"/>
  <rect x="952" y="66" width="200" height="3" fill="#FBBF24"/>
  <text x="966" y="90" font-family="Courier New, monospace" font-size="10" fill="#2A4A6A">UNUSUAL CONNECTIONS</text>
  <text x="966" y="138" font-family="Courier New, monospace" font-size="56" font-weight="900" fill="#FBBF24">1,247</text>
  <text x="966" y="168" font-family="Inter, sans-serif" font-size="11" fill="#2A4A6A">Anomalous (24h)</text>

  <!-- Threat Score -->
  <rect x="1162" y="66" width="226" height="130" rx="4" fill="url(#card11)" stroke="#0E1E30" stroke-width="1"/>
  <rect x="1162" y="66" width="226" height="3" fill="#EF4444"/>
  <text x="1176" y="90" font-family="Courier New, monospace" font-size="10" fill="#2A4A6A">NETWORK THREAT SCORE</text>
  <text x="1176" y="138" font-family="Courier New, monospace" font-size="56" font-weight="900" fill="#EF4444">74</text>
  <text x="1232" y="138" font-family="Courier New, monospace" font-size="18" fill="#2A4A6A">/100</text>
  <text x="1176" y="168" font-family="Inter, sans-serif" font-size="11" fill="#EF4444">ELEVATED — Trending UP</text>
  <text x="1176" y="186" font-family="Inter, sans-serif" font-size="11" fill="#2A4A6A">Previous 7d avg: 61</text>

  <!-- Model Breach List -->
  <rect x="12" y="210" width="870" height="420" rx="4" fill="url(#card11)" stroke="#0E1E30" stroke-width="1"/>
  <text x="26" y="234" font-family="Courier New, monospace" font-size="13" fill="#E0E4F4">Model Breach Events</text>
  <!-- Header -->
  <rect x="12" y="242" width="870" height="22" fill="#04080F"/>
  <text x="26" y="257" font-family="Courier New, monospace" font-size="9" fill="#2A4A6A">SCORE</text>
  <text x="88" y="257" font-family="Courier New, monospace" font-size="9" fill="#2A4A6A">MODEL NAME</text>
  <text x="430" y="257" font-family="Courier New, monospace" font-size="9" fill="#2A4A6A">DEVICE</text>
  <text x="580" y="257" font-family="Courier New, monospace" font-size="9" fill="#2A4A6A">CATEGORY</text>
  <text x="700" y="257" font-family="Courier New, monospace" font-size="9" fill="#2A4A6A">ANTIGENA</text>
  <text x="800" y="257" font-family="Courier New, monospace" font-size="9" fill="#2A4A6A">TIME</text>

  <!-- Breach rows -->
  <rect x="12" y="264" width="870" height="26" fill="#08101C"/>
  <rect x="26" y="271" width="38" height="14" rx="2" fill="#7f1d1d"/>
  <text x="45" y="282" font-family="Courier New, monospace" font-size="10" fill="#EF4444" text-anchor="middle">99%</text>
  <text x="88" y="282" font-family="Courier New, monospace" font-size="10" fill="#E0E4F4">Anomalous File Encryption</text>
  <text x="430" y="282" font-family="Inter, sans-serif" font-size="11" fill="#00B0C8">192.168.1.87</text>
  <text x="580" y="282" font-family="Inter, sans-serif" font-size="11" fill="#EF4444">Ransomware</text>
  <rect x="700" y="271" width="60" height="14" rx="7" fill="#7B2D8B" fill-opacity="0.5"/>
  <text x="730" y="282" font-family="Inter, sans-serif" font-size="9" fill="#BA55D3" text-anchor="middle">BLOCKED</text>
  <text x="800" y="282" font-family="Courier New, monospace" font-size="10" fill="#2A4A6A">09:12</text>

  <rect x="12" y="290" width="870" height="26" fill="#060D18"/>
  <rect x="26" y="297" width="38" height="14" rx="2" fill="#7f1d1d"/>
  <text x="45" y="308" font-family="Courier New, monospace" font-size="10" fill="#EF4444" text-anchor="middle">97%</text>
  <text x="88" y="308" font-family="Courier New, monospace" font-size="10" fill="#E0E4F4">C2 Callback — Low-and-Slow Beacon</text>
  <text x="430" y="308" font-family="Inter, sans-serif" font-size="11" fill="#00B0C8">10.1.45.12</text>
  <text x="580" y="308" font-family="Inter, sans-serif" font-size="11" fill="#EF4444">C2</text>
  <rect x="700" y="297" width="60" height="14" rx="7" fill="#7B2D8B" fill-opacity="0.5"/>
  <text x="730" y="308" font-family="Inter, sans-serif" font-size="9" fill="#BA55D3" text-anchor="middle">BLOCKED</text>
  <text x="800" y="308" font-family="Courier New, monospace" font-size="10" fill="#2A4A6A">08:58</text>

  <rect x="12" y="316" width="870" height="26" fill="#08101C"/>
  <rect x="26" y="323" width="38" height="14" rx="2" fill="#7c2d12"/>
  <text x="45" y="334" font-family="Courier New, monospace" font-size="10" fill="#F97316" text-anchor="middle">91%</text>
  <text x="88" y="334" font-family="Courier New, monospace" font-size="10" fill="#E0E4F4">Unusual External Data Transfer Volume</text>
  <text x="430" y="334" font-family="Inter, sans-serif" font-size="11" fill="#00B0C8">ws-eng-42</text>
  <text x="580" y="334" font-family="Inter, sans-serif" font-size="11" fill="#F97316">Exfiltration</text>
  <rect x="700" y="323" width="60" height="14" rx="7" fill="#7B2D8B" fill-opacity="0.5"/>
  <text x="730" y="334" font-family="Inter, sans-serif" font-size="9" fill="#BA55D3" text-anchor="middle">BLOCKED</text>
  <text x="800" y="334" font-family="Courier New, monospace" font-size="10" fill="#2A4A6A">08:47</text>

  <rect x="12" y="342" width="870" height="26" fill="#060D18"/>
  <rect x="26" y="349" width="38" height="14" rx="2" fill="#7c2d12"/>
  <text x="45" y="360" font-family="Courier New, monospace" font-size="10" fill="#F97316" text-anchor="middle">87%</text>
  <text x="88" y="360" font-family="Courier New, monospace" font-size="10" fill="#E0E4F4">New Internet Connection — Unclassified Dest</text>
  <text x="430" y="360" font-family="Inter, sans-serif" font-size="11" fill="#00B0C8">192.168.50.3</text>
  <text x="580" y="360" font-family="Inter, sans-serif" font-size="11" fill="#F97316">Suspicious Comms</text>
  <rect x="700" y="349" width="44" height="14" rx="7" fill="#2A4A6A"/>
  <text x="722" y="360" font-family="Inter, sans-serif" font-size="9" fill="#00B0C8" text-anchor="middle">WATCHED</text>
  <text x="800" y="360" font-family="Courier New, monospace" font-size="10" fill="#2A4A6A">08:31</text>

  <rect x="12" y="368" width="870" height="26" fill="#08101C"/>
  <rect x="26" y="375" width="38" height="14" rx="2" fill="#7c2d12"/>
  <text x="45" y="386" font-family="Courier New, monospace" font-size="10" fill="#F97316" text-anchor="middle">84%</text>
  <text x="88" y="386" font-family="Courier New, monospace" font-size="10" fill="#E0E4F4">Lateral Movement — SMB Enumeration</text>
  <text x="430" y="386" font-family="Inter, sans-serif" font-size="11" fill="#00B0C8">172.16.0.120</text>
  <text x="580" y="386" font-family="Inter, sans-serif" font-size="11" fill="#F97316">Lateral Movement</text>
  <rect x="700" y="375" width="44" height="14" rx="7" fill="#2A4A6A"/>
  <text x="722" y="386" font-family="Inter, sans-serif" font-size="9" fill="#00B0C8" text-anchor="middle">WATCHED</text>
  <text x="800" y="386" font-family="Courier New, monospace" font-size="10" fill="#2A4A6A">08:17</text>

  <rect x="12" y="394" width="870" height="26" fill="#060D18"/>
  <rect x="26" y="401" width="38" height="14" rx="2" fill="#713f12"/>
  <text x="45" y="412" font-family="Courier New, monospace" font-size="10" fill="#FBBF24" text-anchor="middle">77%</text>
  <text x="88" y="412" font-family="Courier New, monospace" font-size="10" fill="#E0E4F4">LDAP Enumeration — Anomalous Queries</text>
  <text x="430" y="412" font-family="Inter, sans-serif" font-size="11" fill="#00B0C8">srv-dc-01</text>
  <text x="580" y="412" font-family="Inter, sans-serif" font-size="11" fill="#FBBF24">Reconnaissance</text>
  <rect x="700" y="401" width="44" height="14" rx="7" fill="#2A4A6A"/>
  <text x="722" y="412" font-family="Inter, sans-serif" font-size="9" fill="#00B0C8" text-anchor="middle">WATCHED</text>
  <text x="800" y="412" font-family="Courier New, monospace" font-size="10" fill="#2A4A6A">07:55</text>

  <rect x="12" y="420" width="870" height="26" fill="#08101C"/>
  <rect x="26" y="427" width="38" height="14" rx="2" fill="#713f12"/>
  <text x="45" y="438" font-family="Courier New, monospace" font-size="10" fill="#FBBF24" text-anchor="middle">72%</text>
  <text x="88" y="438" font-family="Courier New, monospace" font-size="10" fill="#E0E4F4">Significant Increase in DNS Requests</text>
  <text x="430" y="438" font-family="Inter, sans-serif" font-size="11" fill="#00B0C8">10.5.12.34</text>
  <text x="580" y="438" font-family="Inter, sans-serif" font-size="11" fill="#FBBF24">DNS Tunneling</text>
  <rect x="700" y="427" width="44" height="14" rx="7" fill="#2A4A6A"/>
  <text x="722" y="438" font-family="Inter, sans-serif" font-size="9" fill="#00B0C8" text-anchor="middle">WATCHED</text>
  <text x="800" y="438" font-family="Courier New, monospace" font-size="10" fill="#2A4A6A">07:42</text>

  <rect x="12" y="446" width="870" height="26" fill="#060D18"/>
  <rect x="26" y="453" width="38" height="14" rx="2" fill="#713f12"/>
  <text x="45" y="464" font-family="Courier New, monospace" font-size="10" fill="#FBBF24" text-anchor="middle">68%</text>
  <text x="88" y="464" font-family="Courier New, monospace" font-size="10" fill="#E0E4F4">Anomalous RDP Login from New Location</text>
  <text x="430" y="464" font-family="Inter, sans-serif" font-size="11" fill="#00B0C8">ws-exec-07</text>
  <text x="580" y="464" font-family="Inter, sans-serif" font-size="11" fill="#FBBF24">Anomalous Auth</text>
  <rect x="700" y="453" width="44" height="14" rx="7" fill="#2A4A6A"/>
  <text x="722" y="464" font-family="Inter, sans-serif" font-size="9" fill="#00B0C8" text-anchor="middle">WATCHED</text>
  <text x="800" y="464" font-family="Courier New, monospace" font-size="10" fill="#2A4A6A">07:28</text>

  <rect x="12" y="472" width="870" height="26" fill="#08101C"/>
  <rect x="26" y="479" width="38" height="14" rx="2" fill="#14532d"/>
  <text x="45" y="490" font-family="Courier New, monospace" font-size="10" fill="#34D399" text-anchor="middle">52%</text>
  <text x="88" y="490" font-family="Courier New, monospace" font-size="10" fill="#E0E4F4">Unusual Login Time — Off-Hours Access</text>
  <text x="430" y="490" font-family="Inter, sans-serif" font-size="11" fill="#00B0C8">ws-hr-11</text>
  <text x="580" y="490" font-family="Inter, sans-serif" font-size="11" fill="#34D399">Anomalous Activity</text>
  <rect x="700" y="479" width="44" height="14" rx="7" fill="#143020"/>
  <text x="722" y="490" font-family="Inter, sans-serif" font-size="9" fill="#34D399" text-anchor="middle">LOGGED</text>
  <text x="800" y="490" font-family="Courier New, monospace" font-size="10" fill="#2A4A6A">07:14</text>

  <rect x="12" y="498" width="870" height="26" fill="#060D18"/>
  <rect x="26" y="505" width="38" height="14" rx="2" fill="#14532d"/>
  <text x="45" y="516" font-family="Courier New, monospace" font-size="10" fill="#34D399" text-anchor="middle">47%</text>
  <text x="88" y="516" font-family="Courier New, monospace" font-size="10" fill="#E0E4F4">New DevOps Tool Installing Service</text>
  <text x="430" y="516" font-family="Inter, sans-serif" font-size="11" fill="#00B0C8">dev-build-03</text>
  <text x="580" y="516" font-family="Inter, sans-serif" font-size="11" fill="#34D399">Admin Activity</text>
  <rect x="700" y="505" width="44" height="14" rx="7" fill="#143020"/>
  <text x="722" y="516" font-family="Inter, sans-serif" font-size="9" fill="#34D399" text-anchor="middle">LOGGED</text>
  <text x="800" y="516" font-family="Courier New, monospace" font-size="10" fill="#2A4A6A">06:55</text>

  <text x="26" y="558" font-family="Inter, sans-serif" font-size="11" fill="#2A4A6A">Showing 10 of 47 active breach events</text>

  <!-- Network Traffic Visualization -->
  <rect x="12" y="580" width="870" height="210" rx="4" fill="url(#card11)" stroke="#0E1E30" stroke-width="1"/>
  <text x="26" y="604" font-family="Courier New, monospace" font-size="13" fill="#E0E4F4">Network Traffic Anomaly — Last 4 Hours</text>
  <!-- Area chart -->
  <polyline points="26,770 60,765 94,758 128,760 162,748 196,742 230,745 264,730 298,724 332,728 366,714 400,708 434,712 468,698 502,692 536,695 570,682 604,676 638,680 672,666 706,660 740,664 774,650 808,720 842,710 860,770" fill="#00B0C8" fill-opacity="0.08" stroke="none"/>
  <polyline points="26,770 60,765 94,758 128,760 162,748 196,742 230,745 264,730 298,724 332,728 366,714 400,708 434,712 468,698 502,692 536,695 570,682 604,676 638,680 672,666 706,660 740,664 774,650 808,720 842,710" fill="none" stroke="#00B0C8" stroke-width="1.5"/>
  <!-- Anomaly spikes in red -->
  <polyline points="400,708 434,685 468,690 502,680 536,678" fill="none" stroke="#EF4444" stroke-width="2"/>
  <circle cx="468" cy="690" r="4" fill="#EF4444"/>
  <text x="480" y="684" font-family="Inter, sans-serif" font-size="10" fill="#EF4444">Anomaly</text>
  <polyline points="672,666 706,642 740,648 774,650" fill="none" stroke="#FBBF24" stroke-width="2"/>
  <circle cx="706" cy="642" r="4" fill="#FBBF24"/>
  <text x="718" y="636" font-family="Inter, sans-serif" font-size="10" fill="#FBBF24">Spike</text>
  <line x1="26" y1="770" x2="860" y2="770" stroke="#0E1E30" stroke-width="1"/>
  <text x="26" y="783" font-family="Courier New, monospace" font-size="9" fill="#2A4A6A">05:00</text>
  <text x="240" y="783" font-family="Courier New, monospace" font-size="9" fill="#2A4A6A">06:00</text>
  <text x="454" y="783" font-family="Courier New, monospace" font-size="9" fill="#2A4A6A">07:00</text>
  <text x="668" y="783" font-family="Courier New, monospace" font-size="9" fill="#2A4A6A">08:00</text>
  <text x="830" y="783" font-family="Courier New, monospace" font-size="9" fill="#2A4A6A">09:00</text>

  <!-- Right panels -->
  <!-- Top Anomalous Devices -->
  <rect x="894" y="210" width="494" height="320" rx="4" fill="url(#card11)" stroke="#0E1E30" stroke-width="1"/>
  <text x="908" y="234" font-family="Courier New, monospace" font-size="13" fill="#E0E4F4">Highest Risk Devices</text>
  <rect x="894" y="242" width="494" height="22" fill="#04080F"/>
  <text x="908" y="257" font-family="Courier New, monospace" font-size="9" fill="#2A4A6A">SCORE</text>
  <text x="970" y="257" font-family="Courier New, monospace" font-size="9" fill="#2A4A6A">DEVICE</text>
  <text x="1130" y="257" font-family="Courier New, monospace" font-size="9" fill="#2A4A6A">IP</text>
  <text x="1240" y="257" font-family="Courier New, monospace" font-size="9" fill="#2A4A6A">BREACHES</text>
  <text x="1340" y="257" font-family="Courier New, monospace" font-size="9" fill="#2A4A6A">STATUS</text>

  <rect x="894" y="264" width="494" height="24" fill="#08101C"/>
  <text x="908" y="280" font-family="Courier New, monospace" font-size="11" fill="#EF4444">99</text>
  <text x="970" y="280" font-family="Inter, sans-serif" font-size="11" fill="#00B0C8">192.168.1.87</text>
  <text x="1130" y="280" font-family="Courier New, monospace" font-size="11" fill="#2A4A6A">192.168.1.87</text>
  <text x="1240" y="280" font-family="Inter, sans-serif" font-size="11" fill="#EF4444">23</text>
  <rect x="1340" y="269" width="30" height="14" rx="7" fill="#7B2D8B" fill-opacity="0.5"/>
  <text x="1355" y="280" font-family="Inter, sans-serif" font-size="9" fill="#BA55D3" text-anchor="middle">ANT</text>

  <rect x="894" y="288" width="494" height="24" fill="#060D18"/>
  <text x="908" y="304" font-family="Courier New, monospace" font-size="11" fill="#EF4444">97</text>
  <text x="970" y="304" font-family="Inter, sans-serif" font-size="11" fill="#00B0C8">10.1.45.12</text>
  <text x="1130" y="304" font-family="Courier New, monospace" font-size="11" fill="#2A4A6A">10.1.45.12</text>
  <text x="1240" y="304" font-family="Inter, sans-serif" font-size="11" fill="#EF4444">18</text>
  <rect x="1340" y="293" width="30" height="14" rx="7" fill="#7B2D8B" fill-opacity="0.5"/>
  <text x="1355" y="304" font-family="Inter, sans-serif" font-size="9" fill="#BA55D3" text-anchor="middle">ANT</text>

  <rect x="894" y="312" width="494" height="24" fill="#08101C"/>
  <text x="908" y="328" font-family="Courier New, monospace" font-size="11" fill="#F97316">91</text>
  <text x="970" y="328" font-family="Inter, sans-serif" font-size="11" fill="#00B0C8">ws-eng-42</text>
  <text x="1130" y="328" font-family="Courier New, monospace" font-size="11" fill="#2A4A6A">172.16.0.42</text>
  <text x="1240" y="328" font-family="Inter, sans-serif" font-size="11" fill="#F97316">12</text>
  <rect x="1340" y="317" width="44" height="14" rx="7" fill="#2A4A6A"/>
  <text x="1362" y="328" font-family="Inter, sans-serif" font-size="9" fill="#00B0C8" text-anchor="middle">WATCH</text>

  <rect x="894" y="336" width="494" height="24" fill="#060D18"/>
  <text x="908" y="352" font-family="Courier New, monospace" font-size="11" fill="#F97316">87</text>
  <text x="970" y="352" font-family="Inter, sans-serif" font-size="11" fill="#00B0C8">172.16.0.120</text>
  <text x="1130" y="352" font-family="Courier New, monospace" font-size="11" fill="#2A4A6A">172.16.0.120</text>
  <text x="1240" y="352" font-family="Inter, sans-serif" font-size="11" fill="#F97316">8</text>
  <rect x="1340" y="341" width="44" height="14" rx="7" fill="#2A4A6A"/>
  <text x="1362" y="352" font-family="Inter, sans-serif" font-size="9" fill="#00B0C8" text-anchor="middle">WATCH</text>

  <rect x="894" y="360" width="494" height="24" fill="#08101C"/>
  <text x="908" y="376" font-family="Courier New, monospace" font-size="11" fill="#FBBF24">77</text>
  <text x="970" y="376" font-family="Inter, sans-serif" font-size="11" fill="#00B0C8">srv-dc-01</text>
  <text x="1130" y="376" font-family="Courier New, monospace" font-size="11" fill="#2A4A6A">10.0.0.1</text>
  <text x="1240" y="376" font-family="Inter, sans-serif" font-size="11" fill="#FBBF24">5</text>
  <rect x="1340" y="365" width="44" height="14" rx="7" fill="#2A4A6A"/>
  <text x="1362" y="376" font-family="Inter, sans-serif" font-size="9" fill="#00B0C8" text-anchor="middle">WATCH</text>

  <rect x="894" y="384" width="494" height="24" fill="#060D18"/>
  <text x="908" y="400" font-family="Courier New, monospace" font-size="11" fill="#FBBF24">72</text>
  <text x="970" y="400" font-family="Inter, sans-serif" font-size="11" fill="#00B0C8">10.5.12.34</text>
  <text x="1130" y="400" font-family="Courier New, monospace" font-size="11" fill="#2A4A6A">10.5.12.34</text>
  <text x="1240" y="400" font-family="Inter, sans-serif" font-size="11" fill="#FBBF24">4</text>
  <rect x="1340" y="389" width="44" height="14" rx="7" fill="#143020"/>
  <text x="1362" y="400" font-family="Inter, sans-serif" font-size="9" fill="#34D399" text-anchor="middle">CLEAN</text>

  <rect x="894" y="408" width="494" height="24" fill="#08101C"/>
  <text x="908" y="424" font-family="Courier New, monospace" font-size="11" fill="#34D399">44</text>
  <text x="970" y="424" font-family="Inter, sans-serif" font-size="11" fill="#00B0C8">ws-exec-07</text>
  <text x="1130" y="424" font-family="Courier New, monospace" font-size="11" fill="#2A4A6A">10.10.0.7</text>
  <text x="1240" y="424" font-family="Inter, sans-serif" font-size="11" fill="#34D399">2</text>
  <rect x="1340" y="413" width="44" height="14" rx="7" fill="#143020"/>
  <text x="1362" y="424" font-family="Inter, sans-serif" font-size="9" fill="#34D399" text-anchor="middle">CLEAN</text>

  <rect x="894" y="432" width="494" height="24" fill="#060D18"/>
  <text x="908" y="448" font-family="Courier New, monospace" font-size="11" fill="#34D399">37</text>
  <text x="970" y="448" font-family="Inter, sans-serif" font-size="11" fill="#00B0C8">ws-hr-11</text>
  <text x="1130" y="448" font-family="Courier New, monospace" font-size="11" fill="#2A4A6A">192.168.5.11</text>
  <text x="1240" y="448" font-family="Inter, sans-serif" font-size="11" fill="#34D399">1</text>
  <rect x="1340" y="437" width="44" height="14" rx="7" fill="#143020"/>
  <text x="1362" y="448" font-family="Inter, sans-serif" font-size="9" fill="#34D399" text-anchor="middle">CLEAN</text>

  <!-- Antigena Activity -->
  <rect x="894" y="542" width="494" height="248" rx="4" fill="url(#card11)" stroke="#0E1E30" stroke-width="1"/>
  <text x="908" y="566" font-family="Courier New, monospace" font-size="13" fill="#E0E4F4">Antigena Autonomous Actions</text>
  <line x1="894" y1="574" x2="1388" y2="574" stroke="#0E1E30" stroke-width="1"/>
  <text x="908" y="596" font-family="Inter, sans-serif" font-size="12" fill="#2A4A6A">Action Type</text>
  <text x="1200" y="596" font-family="Inter, sans-serif" font-size="12" fill="#2A4A6A">Count</text>
  <text x="1300" y="596" font-family="Inter, sans-serif" font-size="12" fill="#2A4A6A">Module</text>
  <text x="908" y="618" font-family="Inter, sans-serif" font-size="12" fill="#E0E4F4">Blocked External Connections</text>
  <text x="1200" y="618" font-family="Inter, sans-serif" font-size="12" fill="#BA55D3">184</text>
  <text x="1300" y="618" font-family="Inter, sans-serif" font-size="12" fill="#00B0C8">Network</text>
  <text x="908" y="640" font-family="Inter, sans-serif" font-size="12" fill="#E0E4F4">Enforced Pattern of Life</text>
  <text x="1200" y="640" font-family="Inter, sans-serif" font-size="12" fill="#BA55D3">67</text>
  <text x="1300" y="640" font-family="Inter, sans-serif" font-size="12" fill="#00B0C8">Network</text>
  <text x="908" y="662" font-family="Inter, sans-serif" font-size="12" fill="#E0E4F4">Email Quarantined</text>
  <text x="1200" y="662" font-family="Inter, sans-serif" font-size="12" fill="#BA55D3">34</text>
  <text x="1300" y="662" font-family="Inter, sans-serif" font-size="12" fill="#00B0C8">Email</text>
  <text x="908" y="684" font-family="Inter, sans-serif" font-size="12" fill="#E0E4F4">SaaS Account Locked</text>
  <text x="1200" y="684" font-family="Inter, sans-serif" font-size="12" fill="#BA55D3">12</text>
  <text x="1300" y="684" font-family="Inter, sans-serif" font-size="12" fill="#00B0C8">SaaS</text>
  <text x="908" y="706" font-family="Inter, sans-serif" font-size="12" fill="#E0E4F4">Process Terminated</text>
  <text x="1200" y="706" font-family="Inter, sans-serif" font-size="12" fill="#BA55D3">8</text>
  <text x="1300" y="706" font-family="Inter, sans-serif" font-size="12" fill="#00B0C8">Endpoint</text>
  <text x="908" y="728" font-family="Inter, sans-serif" font-size="12" fill="#E0E4F4">User Access Revoked</text>
  <text x="1200" y="728" font-family="Inter, sans-serif" font-size="12" fill="#BA55D3">7</text>
  <text x="1300" y="728" font-family="Inter, sans-serif" font-size="12" fill="#00B0C8">SaaS</text>
  <text x="908" y="762" font-family="Courier New, monospace" font-size="11" fill="#00B0C8">Total Antigena Interventions: 312 in 24h</text>

  <!-- Footer -->
  <rect x="0" y="878" width="1400" height="22" fill="#050810" stroke="#0E1E30" stroke-width="1"/>
  <text x="16" y="893" font-family="Courier New, monospace" font-size="10" fill="#2A4A6A">DARKTRACE 6.1 | PLATFORM: ENTERPRISE IMMUNE SYSTEM | COVERAGE: NETWORK + EMAIL + SaaS + ENDPOINT | ANTIGENA: AUTO</text>
</svg>
