<svg xmlns="http://www.w3.org/2000/svg" width="1400" height="900" viewBox="0 0 1400 900">
  <defs>
    <linearGradient id="bg13" x1="0%" y1="0%" x2="0%" y2="100%">
      <stop offset="0%" style="stop-color:#F3F4F6"/>
      <stop offset="100%" style="stop-color:#EBEDF0"/>
    </linearGradient>
    <linearGradient id="card13" x1="0%" y1="0%" x2="0%" y2="100%">
      <stop offset="0%" style="stop-color:#FFFFFF"/>
      <stop offset="100%" style="stop-color:#F9FAFB"/>
    </linearGradient>
  </defs>

  <rect width="1400" height="900" fill="url(#bg13)"/>

  <!-- Top Nav - ServiceNow light theme -->
  <rect x="0" y="0" width="1400" height="52" fill="#1B2A35" stroke="#1B2A35" stroke-width="0"/>
  <rect x="0" y="0" width="240" height="52" fill="#0B1623"/>
  <text x="16" y="22" font-family="Inter, sans-serif" font-size="11" fill="#5B7A8A">ServiceNow</text>
  <text x="16" y="42" font-family="Inter, sans-serif" font-size="14" font-weight="700" fill="#00C7B1">Risk &amp; Compliance</text>
  <text x="256" y="30" font-family="Inter, sans-serif" font-size="12" fill="#9CA3AF">IRM Overview</text>
  <text x="380" y="30" font-family="Inter, sans-serif" font-size="12" fill="#9CA3AF">Risks</text>
  <text x="446" y="30" font-family="Inter, sans-serif" font-size="12" fill="#9CA3AF">Controls</text>
  <text x="540" y="30" font-family="Inter, sans-serif" font-size="12" fill="#9CA3AF">Policies</text>
  <text x="630" y="30" font-family="Inter, sans-serif" font-size="12" fill="#9CA3AF">Audits</text>
  <text x="710" y="30" font-family="Inter, sans-serif" font-size="12" fill="#9CA3AF">Incidents</text>
  <text x="806" y="30" font-family="Inter, sans-serif" font-size="12" fill="#9CA3AF">Vendors</text>
  <text x="1280" y="30" font-family="Inter, sans-serif" font-size="11" fill="#9CA3AF">CISO Portal  |  admin@corp.com</text>

  <!-- Page header -->
  <rect x="0" y="52" width="1400" height="40" fill="#F9FAFB" stroke="#E5E7EB" stroke-width="1"/>
  <text x="16" y="76" font-family="Inter, sans-serif" font-size="16" font-weight="700" fill="#111827">Integrated Risk Management — Executive Dashboard</text>
  <text x="1200" y="76" font-family="Inter, sans-serif" font-size="11" fill="#9CA3AF">As of: Feb 19, 2026 09:00 UTC</text>

  <!-- KPI Cards Row -->
  <rect x="12" y="106" width="190" height="100" rx="6" fill="url(#card13)" stroke="#E5E7EB" stroke-width="1"/>
  <rect x="12" y="106" width="190" height="4" fill="#DC2626"/>
  <text x="26" y="128" font-family="Inter, sans-serif" font-size="11" fill="#6B7280">CRITICAL RISKS</text>
  <text x="26" y="166" font-family="Inter, sans-serif" font-size="36" font-weight="700" fill="#DC2626">47</text>
  <text x="26" y="196" font-family="Inter, sans-serif" font-size="11" fill="#DC2626">▲ 3 this week</text>

  <rect x="212" y="106" width="190" height="100" rx="6" fill="url(#card13)" stroke="#E5E7EB" stroke-width="1"/>
  <rect x="212" y="106" width="190" height="4" fill="#EA580C"/>
  <text x="226" y="128" font-family="Inter, sans-serif" font-size="11" fill="#6B7280">HIGH RISKS</text>
  <text x="226" y="166" font-family="Inter, sans-serif" font-size="36" font-weight="700" fill="#EA580C">183</text>
  <text x="226" y="196" font-family="Inter, sans-serif" font-size="11" fill="#6B7280">▼ 7 this week</text>

  <rect x="412" y="106" width="190" height="100" rx="6" fill="url(#card13)" stroke="#E5E7EB" stroke-width="1"/>
  <rect x="412" y="106" width="190" height="4" fill="#D97706"/>
  <text x="426" y="128" font-family="Inter, sans-serif" font-size="11" fill="#6B7280">CONTROLS</text>
  <text x="426" y="166" font-family="Inter, sans-serif" font-size="36" font-weight="700" fill="#1F2937">2,847</text>
  <text x="426" y="196" font-family="Inter, sans-serif" font-size="11" fill="#D97706">34 failing</text>

  <rect x="612" y="106" width="190" height="100" rx="6" fill="url(#card13)" stroke="#E5E7EB" stroke-width="1"/>
  <rect x="612" y="106" width="190" height="4" fill="#059669"/>
  <text x="626" y="128" font-family="Inter, sans-serif" font-size="11" fill="#6B7280">OPEN AUDITS</text>
  <text x="626" y="166" font-family="Inter, sans-serif" font-size="36" font-weight="700" fill="#1F2937">12</text>
  <text x="626" y="196" font-family="Inter, sans-serif" font-size="11" fill="#059669">3 due this month</text>

  <rect x="812" y="106" width="190" height="100" rx="6" fill="url(#card13)" stroke="#E5E7EB" stroke-width="1"/>
  <rect x="812" y="106" width="190" height="4" fill="#DC2626"/>
  <text x="826" y="128" font-family="Inter, sans-serif" font-size="11" fill="#6B7280">POLICY VIOLATIONS</text>
  <text x="826" y="166" font-family="Inter, sans-serif" font-size="36" font-weight="700" fill="#DC2626">127</text>
  <text x="826" y="196" font-family="Inter, sans-serif" font-size="11" fill="#DC2626">▲ 14 this week</text>

  <rect x="1012" y="106" width="190" height="100" rx="6" fill="url(#card13)" stroke="#E5E7EB" stroke-width="1"/>
  <rect x="1012" y="106" width="190" height="4" fill="#00C7B1"/>
  <text x="1026" y="128" font-family="Inter, sans-serif" font-size="11" fill="#6B7280">VENDOR RISKS</text>
  <text x="1026" y="166" font-family="Inter, sans-serif" font-size="36" font-weight="700" fill="#1F2937">34</text>
  <text x="1026" y="196" font-family="Inter, sans-serif" font-size="11" fill="#D97706">7 overdue reviews</text>

  <rect x="1212" y="106" width="176" height="100" rx="6" fill="url(#card13)" stroke="#E5E7EB" stroke-width="1"/>
  <rect x="1212" y="106" width="176" height="4" fill="#6366F1"/>
  <text x="1226" y="128" font-family="Inter, sans-serif" font-size="11" fill="#6B7280">RISK SCORE</text>
  <text x="1226" y="166" font-family="Inter, sans-serif" font-size="36" font-weight="700" fill="#DC2626">C+</text>
  <text x="1266" y="166" font-family="Inter, sans-serif" font-size="16" fill="#6B7280">(67/100)</text>
  <text x="1226" y="196" font-family="Inter, sans-serif" font-size="11" fill="#6B7280">Target: B (80+)</text>

  <!-- Risk Register Table -->
  <rect x="12" y="220" width="900" height="380" rx="6" fill="url(#card13)" stroke="#E5E7EB" stroke-width="1"/>
  <text x="26" y="244" font-family="Inter, sans-serif" font-size="14" font-weight="600" fill="#111827">Risk Register — Top Risks</text>
  <rect x="730" y="230" width="160" height="24" rx="4" fill="#00C7B1" fill-opacity="0.1" stroke="#00C7B1" stroke-width="1"/>
  <text x="810" y="246" font-family="Inter, sans-serif" font-size="11" fill="#00C7B1" text-anchor="middle">+ Add New Risk</text>

  <!-- Header -->
  <rect x="12" y="252" width="900" height="24" fill="#F9FAFB"/>
  <text x="26" y="268" font-family="Inter, sans-serif" font-size="10" fill="#6B7280">RISK ID</text>
  <text x="96" y="268" font-family="Inter, sans-serif" font-size="10" fill="#6B7280">RISK STATEMENT</text>
  <text x="400" y="268" font-family="Inter, sans-serif" font-size="10" fill="#6B7280">CATEGORY</text>
  <text x="510" y="268" font-family="Inter, sans-serif" font-size="10" fill="#6B7280">LIKELIHOOD</text>
  <text x="610" y="268" font-family="Inter, sans-serif" font-size="10" fill="#6B7280">IMPACT</text>
  <text x="680" y="268" font-family="Inter, sans-serif" font-size="10" fill="#6B7280">SCORE</text>
  <text x="740" y="268" font-family="Inter, sans-serif" font-size="10" fill="#6B7280">OWNER</text>
  <text x="840" y="268" font-family="Inter, sans-serif" font-size="10" fill="#6B7280">STATUS</text>

  <!-- Risk rows -->
  <rect x="12" y="276" width="900" height="28" fill="#FFFFFF"/>
  <text x="26" y="294" font-family="Inter, sans-serif" font-size="11" fill="#6366F1">RSK-001</text>
  <text x="96" y="294" font-family="Inter, sans-serif" font-size="11" fill="#111827">Ransomware attack on production systems</text>
  <rect x="400" y="282" width="72" height="14" rx="7" fill="#fee2e2"/>
  <text x="436" y="293" font-family="Inter, sans-serif" font-size="10" fill="#DC2626" text-anchor="middle">Cybersecurity</text>
  <text x="510" y="294" font-family="Inter, sans-serif" font-size="11" fill="#DC2626">5 — Likely</text>
  <text x="610" y="294" font-family="Inter, sans-serif" font-size="11" fill="#DC2626">5 — Critical</text>
  <rect x="680" y="282" width="36" height="14" rx="3" fill="#7f1d1d"/>
  <text x="698" y="293" font-family="Inter, sans-serif" font-size="10" fill="#EF4444" text-anchor="middle">25</text>
  <text x="740" y="294" font-family="Inter, sans-serif" font-size="11" fill="#6B7280">CISO</text>
  <rect x="840" y="282" width="60" height="14" rx="7" fill="#fee2e2"/>
  <text x="870" y="293" font-family="Inter, sans-serif" font-size="10" fill="#DC2626" text-anchor="middle">Accepted</text>

  <rect x="12" y="304" width="900" height="28" fill="#F9FAFB"/>
  <text x="26" y="322" font-family="Inter, sans-serif" font-size="11" fill="#6366F1">RSK-002</text>
  <text x="96" y="322" font-family="Inter, sans-serif" font-size="11" fill="#111827">Third-party data breach via vendor access</text>
  <rect x="400" y="310" width="72" height="14" rx="7" fill="#fee2e2"/>
  <text x="436" y="321" font-family="Inter, sans-serif" font-size="10" fill="#DC2626" text-anchor="middle">3rd Party</text>
  <text x="510" y="322" font-family="Inter, sans-serif" font-size="11" fill="#DC2626">4 — Possible</text>
  <text x="610" y="322" font-family="Inter, sans-serif" font-size="11" fill="#DC2626">5 — Critical</text>
  <rect x="680" y="310" width="36" height="14" rx="3" fill="#7f1d1d"/>
  <text x="698" y="321" font-family="Inter, sans-serif" font-size="10" fill="#EF4444" text-anchor="middle">20</text>
  <text x="740" y="322" font-family="Inter, sans-serif" font-size="11" fill="#6B7280">CRO</text>
  <rect x="840" y="310" width="74" height="14" rx="7" fill="#fef9c3"/>
  <text x="877" y="321" font-family="Inter, sans-serif" font-size="10" fill="#D97706" text-anchor="middle">Mitigating</text>

  <rect x="12" y="332" width="900" height="28" fill="#FFFFFF"/>
  <text x="26" y="350" font-family="Inter, sans-serif" font-size="11" fill="#6366F1">RSK-003</text>
  <text x="96" y="350" font-family="Inter, sans-serif" font-size="11" fill="#111827">Regulatory non-compliance GDPR Article 32</text>
  <rect x="400" y="338" width="68" height="14" rx="7" fill="#fef9c3"/>
  <text x="434" y="349" font-family="Inter, sans-serif" font-size="10" fill="#D97706" text-anchor="middle">Compliance</text>
  <text x="510" y="350" font-family="Inter, sans-serif" font-size="11" fill="#EA580C">4 — Possible</text>
  <text x="610" y="350" font-family="Inter, sans-serif" font-size="11" fill="#EA580C">4 — Major</text>
  <rect x="680" y="338" width="36" height="14" rx="3" fill="#7c2d12"/>
  <text x="698" y="349" font-family="Inter, sans-serif" font-size="10" fill="#F97316" text-anchor="middle">16</text>
  <text x="740" y="350" font-family="Inter, sans-serif" font-size="11" fill="#6B7280">DPO</text>
  <rect x="840" y="338" width="74" height="14" rx="7" fill="#fef9c3"/>
  <text x="877" y="349" font-family="Inter, sans-serif" font-size="10" fill="#D97706" text-anchor="middle">Mitigating</text>

  <rect x="12" y="360" width="900" height="28" fill="#F9FAFB"/>
  <text x="26" y="378" font-family="Inter, sans-serif" font-size="11" fill="#6366F1">RSK-004</text>
  <text x="96" y="378" font-family="Inter, sans-serif" font-size="11" fill="#111827">Insider threat — privileged user data theft</text>
  <rect x="400" y="366" width="72" height="14" rx="7" fill="#fee2e2"/>
  <text x="436" y="377" font-family="Inter, sans-serif" font-size="10" fill="#DC2626" text-anchor="middle">Cybersecurity</text>
  <text x="510" y="378" font-family="Inter, sans-serif" font-size="11" fill="#EA580C">3 — Plausible</text>
  <text x="610" y="378" font-family="Inter, sans-serif" font-size="11" fill="#DC2626">5 — Critical</text>
  <rect x="680" y="366" width="36" height="14" rx="3" fill="#7c2d12"/>
  <text x="698" y="377" font-family="Inter, sans-serif" font-size="10" fill="#F97316" text-anchor="middle">15</text>
  <text x="740" y="378" font-family="Inter, sans-serif" font-size="11" fill="#6B7280">CISO</text>
  <rect x="840" y="366" width="60" height="14" rx="7" fill="#fee2e2"/>
  <text x="870" y="377" font-family="Inter, sans-serif" font-size="10" fill="#DC2626" text-anchor="middle">Accepted</text>

  <rect x="12" y="388" width="900" height="28" fill="#FFFFFF"/>
  <text x="26" y="406" font-family="Inter, sans-serif" font-size="11" fill="#6366F1">RSK-005</text>
  <text x="96" y="406" font-family="Inter, sans-serif" font-size="11" fill="#111827">Supply chain compromise via software update</text>
  <rect x="400" y="394" width="72" height="14" rx="7" fill="#fee2e2"/>
  <text x="436" y="405" font-family="Inter, sans-serif" font-size="10" fill="#DC2626" text-anchor="middle">Cybersecurity</text>
  <text x="510" y="406" font-family="Inter, sans-serif" font-size="11" fill="#EA580C">3 — Plausible</text>
  <text x="610" y="406" font-family="Inter, sans-serif" font-size="11" fill="#DC2626">5 — Critical</text>
  <rect x="680" y="394" width="36" height="14" rx="3" fill="#7c2d12"/>
  <text x="698" y="405" font-family="Inter, sans-serif" font-size="10" fill="#F97316" text-anchor="middle">15</text>
  <text x="740" y="406" font-family="Inter, sans-serif" font-size="11" fill="#6B7280">CTO</text>
  <rect x="840" y="394" width="74" height="14" rx="7" fill="#fef9c3"/>
  <text x="877" y="405" font-family="Inter, sans-serif" font-size="10" fill="#D97706" text-anchor="middle">Mitigating</text>

  <rect x="12" y="416" width="900" height="28" fill="#F9FAFB"/>
  <text x="26" y="434" font-family="Inter, sans-serif" font-size="11" fill="#6366F1">RSK-006</text>
  <text x="96" y="434" font-family="Inter, sans-serif" font-size="11" fill="#111827">Cloud misconfiguration exposes customer data</text>
  <rect x="400" y="422" width="56" height="14" rx="7" fill="#fee2e2"/>
  <text x="428" y="433" font-family="Inter, sans-serif" font-size="10" fill="#DC2626" text-anchor="middle">Cloud Risk</text>
  <text x="510" y="434" font-family="Inter, sans-serif" font-size="11" fill="#EA580C">4 — Possible</text>
  <text x="610" y="434" font-family="Inter, sans-serif" font-size="11" fill="#EA580C">4 — Major</text>
  <rect x="680" y="422" width="36" height="14" rx="3" fill="#7c2d12"/>
  <text x="698" y="433" font-family="Inter, sans-serif" font-size="10" fill="#F97316" text-anchor="middle">16</text>
  <text x="740" y="434" font-family="Inter, sans-serif" font-size="11" fill="#6B7280">Cloud Ops</text>
  <rect x="840" y="422" width="74" height="14" rx="7" fill="#fef9c3"/>
  <text x="877" y="433" font-family="Inter, sans-serif" font-size="10" fill="#D97706" text-anchor="middle">Mitigating</text>

  <rect x="12" y="444" width="900" height="28" fill="#FFFFFF"/>
  <text x="26" y="462" font-family="Inter, sans-serif" font-size="11" fill="#6366F1">RSK-007</text>
  <text x="96" y="462" font-family="Inter, sans-serif" font-size="11" fill="#111827">Business Email Compromise — Wire Fraud</text>
  <rect x="400" y="450" width="68" height="14" rx="7" fill="#fef9c3"/>
  <text x="434" y="461" font-family="Inter, sans-serif" font-size="10" fill="#D97706" text-anchor="middle">Financial</text>
  <text x="510" y="462" font-family="Inter, sans-serif" font-size="11" fill="#D97706">3 — Plausible</text>
  <text x="610" y="462" font-family="Inter, sans-serif" font-size="11" fill="#EA580C">4 — Major</text>
  <rect x="680" y="450" width="36" height="14" rx="3" fill="#713f12"/>
  <text x="698" y="461" font-family="Inter, sans-serif" font-size="10" fill="#FBBF24" text-anchor="middle">12</text>
  <text x="740" y="462" font-family="Inter, sans-serif" font-size="11" fill="#6B7280">CFO</text>
  <rect x="840" y="450" width="74" height="14" rx="7" fill="#dcfce7"/>
  <text x="877" y="461" font-family="Inter, sans-serif" font-size="10" fill="#059669" text-anchor="middle">Remediated</text>

  <rect x="12" y="472" width="900" height="28" fill="#F9FAFB"/>
  <text x="26" y="490" font-family="Inter, sans-serif" font-size="11" fill="#6366F1">RSK-008</text>
  <text x="96" y="490" font-family="Inter, sans-serif" font-size="11" fill="#111827">DDoS attack disrupts customer services</text>
  <rect x="400" y="478" width="80" height="14" rx="7" fill="#fef9c3"/>
  <text x="440" y="489" font-family="Inter, sans-serif" font-size="10" fill="#D97706" text-anchor="middle">Availability</text>
  <text x="510" y="490" font-family="Inter, sans-serif" font-size="11" fill="#D97706">3 — Plausible</text>
  <text x="610" y="490" font-family="Inter, sans-serif" font-size="11" fill="#D97706">3 — Significant</text>
  <rect x="680" y="478" width="36" height="14" rx="3" fill="#713f12"/>
  <text x="698" y="489" font-family="Inter, sans-serif" font-size="10" fill="#FBBF24" text-anchor="middle">9</text>
  <text x="740" y="490" font-family="Inter, sans-serif" font-size="11" fill="#6B7280">Infra Lead</text>
  <rect x="840" y="478" width="74" height="14" rx="7" fill="#fef9c3"/>
  <text x="877" y="489" font-family="Inter, sans-serif" font-size="10" fill="#D97706" text-anchor="middle">Mitigating</text>

  <text x="26" y="540" font-family="Inter, sans-serif" font-size="11" fill="#6B7280">Showing 8 of 230 risks  |  </text>
  <text x="260" y="540" font-family="Inter, sans-serif" font-size="11" fill="#00C7B1">View All in Risk Register →</text>

  <!-- Compliance Heat Map -->
  <rect x="12" y="562" width="580" height="220" rx="6" fill="url(#card13)" stroke="#E5E7EB" stroke-width="1"/>
  <text x="26" y="586" font-family="Inter, sans-serif" font-size="14" font-weight="600" fill="#111827">Compliance Framework Status</text>
  <text x="26" y="614" font-family="Inter, sans-serif" font-size="12" fill="#6B7280">Framework</text>
  <text x="300" y="614" font-family="Inter, sans-serif" font-size="12" fill="#6B7280">Controls</text>
  <text x="380" y="614" font-family="Inter, sans-serif" font-size="12" fill="#6B7280">Passing</text>
  <text x="460" y="614" font-family="Inter, sans-serif" font-size="12" fill="#6B7280">Score</text>
  <text x="520" y="614" font-family="Inter, sans-serif" font-size="12" fill="#6B7280">Status</text>
  <line x1="12" y1="622" x2="592" y2="622" stroke="#E5E7EB" stroke-width="1"/>

  <text x="26" y="642" font-family="Inter, sans-serif" font-size="12" fill="#111827">SOC 2 Type II</text>
  <text x="300" y="642" font-family="Inter, sans-serif" font-size="12" fill="#6B7280">87</text>
  <text x="380" y="642" font-family="Inter, sans-serif" font-size="12" fill="#6B7280">71</text>
  <text x="460" y="642" font-family="Inter, sans-serif" font-size="12" fill="#EA580C">82%</text>
  <rect x="520" y="632" width="60" height="14" rx="7" fill="#fef9c3"/>
  <text x="550" y="643" font-family="Inter, sans-serif" font-size="10" fill="#D97706" text-anchor="middle">Partial</text>

  <text x="26" y="664" font-family="Inter, sans-serif" font-size="12" fill="#111827">ISO 27001:2022</text>
  <text x="300" y="664" font-family="Inter, sans-serif" font-size="12" fill="#6B7280">114</text>
  <text x="380" y="664" font-family="Inter, sans-serif" font-size="12" fill="#6B7280">97</text>
  <text x="460" y="664" font-family="Inter, sans-serif" font-size="12" fill="#059669">85%</text>
  <rect x="520" y="654" width="70" height="14" rx="7" fill="#dcfce7"/>
  <text x="555" y="665" font-family="Inter, sans-serif" font-size="10" fill="#059669" text-anchor="middle">Certified</text>

  <text x="26" y="686" font-family="Inter, sans-serif" font-size="12" fill="#111827">PCI DSS v4.0</text>
  <text x="300" y="686" font-family="Inter, sans-serif" font-size="12" fill="#6B7280">251</text>
  <text x="380" y="686" font-family="Inter, sans-serif" font-size="12" fill="#6B7280">189</text>
  <text x="460" y="686" font-family="Inter, sans-serif" font-size="12" fill="#EA580C">75%</text>
  <rect x="520" y="676" width="60" height="14" rx="7" fill="#fef9c3"/>
  <text x="550" y="687" font-family="Inter, sans-serif" font-size="10" fill="#D97706" text-anchor="middle">Partial</text>

  <text x="26" y="708" font-family="Inter, sans-serif" font-size="12" fill="#111827">NIST CSF 2.0</text>
  <text x="300" y="708" font-family="Inter, sans-serif" font-size="12" fill="#6B7280">108</text>
  <text x="380" y="708" font-family="Inter, sans-serif" font-size="12" fill="#6B7280">96</text>
  <text x="460" y="708" font-family="Inter, sans-serif" font-size="12" fill="#059669">89%</text>
  <rect x="520" y="698" width="70" height="14" rx="7" fill="#dcfce7"/>
  <text x="555" y="709" font-family="Inter, sans-serif" font-size="10" fill="#059669" text-anchor="middle">Compliant</text>

  <text x="26" y="730" font-family="Inter, sans-serif" font-size="12" fill="#111827">HIPAA Security Rule</text>
  <text x="300" y="730" font-family="Inter, sans-serif" font-size="12" fill="#6B7280">42</text>
  <text x="380" y="730" font-family="Inter, sans-serif" font-size="12" fill="#6B7280">28</text>
  <text x="460" y="730" font-family="Inter, sans-serif" font-size="12" fill="#DC2626">67%</text>
  <rect x="520" y="720" width="60" height="14" rx="7" fill="#fee2e2"/>
  <text x="550" y="731" font-family="Inter, sans-serif" font-size="10" fill="#DC2626" text-anchor="middle">At Risk</text>

  <text x="26" y="752" font-family="Inter, sans-serif" font-size="12" fill="#111827">GDPR Article 32</text>
  <text x="300" y="752" font-family="Inter, sans-serif" font-size="12" fill="#6B7280">31</text>
  <text x="380" y="752" font-family="Inter, sans-serif" font-size="12" fill="#6B7280">22</text>
  <text x="460" y="752" font-family="Inter, sans-serif" font-size="12" fill="#DC2626">71%</text>
  <rect x="520" y="742" width="60" height="14" rx="7" fill="#fef9c3"/>
  <text x="550" y="753" font-family="Inter, sans-serif" font-size="10" fill="#D97706" text-anchor="middle">Partial</text>

  <!-- Audit Schedule -->
  <rect x="602" y="562" width="442" height="220" rx="6" fill="url(#card13)" stroke="#E5E7EB" stroke-width="1"/>
  <text x="616" y="586" font-family="Inter, sans-serif" font-size="14" font-weight="600" fill="#111827">Upcoming Audits</text>
  <text x="616" y="614" font-family="Inter, sans-serif" font-size="12" fill="#6B7280">Audit Name</text>
  <text x="840" y="614" font-family="Inter, sans-serif" font-size="12" fill="#6B7280">Due Date</text>
  <text x="950" y="614" font-family="Inter, sans-serif" font-size="12" fill="#6B7280">Status</text>
  <line x1="602" y1="622" x2="1044" y2="622" stroke="#E5E7EB" stroke-width="1"/>
  <text x="616" y="642" font-family="Inter, sans-serif" font-size="12" fill="#111827">SOC 2 Annual Review</text>
  <text x="840" y="642" font-family="Inter, sans-serif" font-size="12" fill="#DC2626">Feb 28</text>
  <rect x="950" y="632" width="70" height="14" rx="7" fill="#fee2e2"/>
  <text x="985" y="643" font-family="Inter, sans-serif" font-size="10" fill="#DC2626" text-anchor="middle">Due Soon</text>
  <text x="616" y="664" font-family="Inter, sans-serif" font-size="12" fill="#111827">PCI DSS QSA Audit</text>
  <text x="840" y="664" font-family="Inter, sans-serif" font-size="12" fill="#EA580C">Mar 15</text>
  <rect x="950" y="654" width="70" height="14" rx="7" fill="#fef9c3"/>
  <text x="985" y="665" font-family="Inter, sans-serif" font-size="10" fill="#D97706" text-anchor="middle">Preparing</text>
  <text x="616" y="686" font-family="Inter, sans-serif" font-size="12" fill="#111827">ISO 27001 Surveillance</text>
  <text x="840" y="686" font-family="Inter, sans-serif" font-size="12" fill="#6B7280">Apr 10</text>
  <rect x="950" y="676" width="70" height="14" rx="7" fill="#dcfce7"/>
  <text x="985" y="687" font-family="Inter, sans-serif" font-size="10" fill="#059669" text-anchor="middle">On Track</text>
  <text x="616" y="708" font-family="Inter, sans-serif" font-size="12" fill="#111827">GDPR DPA Assessment</text>
  <text x="840" y="708" font-family="Inter, sans-serif" font-size="12" fill="#6B7280">Apr 22</text>
  <rect x="950" y="698" width="70" height="14" rx="7" fill="#fef9c3"/>
  <text x="985" y="709" font-family="Inter, sans-serif" font-size="10" fill="#D97706" text-anchor="middle">Preparing</text>
  <text x="616" y="730" font-family="Inter, sans-serif" font-size="12" fill="#111827">Internal IT Risk Review</text>
  <text x="840" y="730" font-family="Inter, sans-serif" font-size="12" fill="#6B7280">May 1</text>
  <rect x="950" y="720" width="70" height="14" rx="7" fill="#dcfce7"/>
  <text x="985" y="731" font-family="Inter, sans-serif" font-size="10" fill="#059669" text-anchor="middle">Planned</text>
  <text x="616" y="752" font-family="Inter, sans-serif" font-size="12" fill="#111827">Vendor Risk Reviews (Q2)</text>
  <text x="840" y="752" font-family="Inter, sans-serif" font-size="12" fill="#6B7280">May-Jun</text>
  <rect x="950" y="742" width="70" height="14" rx="7" fill="#dcfce7"/>
  <text x="985" y="753" font-family="Inter, sans-serif" font-size="10" fill="#059669" text-anchor="middle">Planned</text>

  <!-- Right panel - Risk Heatmap -->
  <rect x="1054" y="220" width="334" height="562" rx="6" fill="url(#card13)" stroke="#E5E7EB" stroke-width="1"/>
  <text x="1068" y="244" font-family="Inter, sans-serif" font-size="14" font-weight="600" fill="#111827">Risk Heat Map</text>
  <text x="1068" y="266" font-family="Inter, sans-serif" font-size="11" fill="#6B7280">Likelihood vs Impact (5x5)</text>
  <!-- Heat map grid -->
  <!-- Y-axis labels -->
  <text x="1080" y="440" font-family="Inter, sans-serif" font-size="9" fill="#6B7280" transform="rotate(-90 1080 440)">L I K E L I H O O D</text>
  <text x="1098" y="456" font-family="Inter, sans-serif" font-size="9" fill="#6B7280">5</text>
  <text x="1098" y="412" font-family="Inter, sans-serif" font-size="9" fill="#6B7280">4</text>
  <text x="1098" y="368" font-family="Inter, sans-serif" font-size="9" fill="#6B7280">3</text>
  <text x="1098" y="324" font-family="Inter, sans-serif" font-size="9" fill="#6B7280">2</text>
  <text x="1098" y="280" font-family="Inter, sans-serif" font-size="9" fill="#6B7280">1</text>

  <!-- Row 5 (high likelihood) -->
  <rect x="1110" y="440" width="42" height="40" fill="#fef9c3"/><!-- L=5,I=1 -->
  <rect x="1152" y="440" width="42" height="40" fill="#fef9c3"/><!-- L=5,I=2 -->
  <rect x="1194" y="440" width="42" height="40" fill="#fee2e2"/><!-- L=5,I=3 -->
  <rect x="1236" y="440" width="42" height="40" fill="#fee2e2"/><!-- L=5,I=4 -->
  <rect x="1278" y="440" width="42" height="40" fill="#7f1d1d"/><!-- L=5,I=5 critical -->
  <text x="1299" y="466" font-family="Inter, sans-serif" font-size="11" fill="white" text-anchor="middle" font-weight="700">RSK-001</text>

  <!-- Row 4 -->
  <rect x="1110" y="400" width="42" height="40" fill="#fef9c3"/>
  <rect x="1152" y="400" width="42" height="40" fill="#fef9c3"/>
  <rect x="1194" y="400" width="42" height="40" fill="#fee2e2"/>
  <rect x="1236" y="400" width="42" height="40" fill="#7f1d1d"/><!-- RSK-003, RSK-006 -->
  <text x="1257" y="424" font-family="Inter, sans-serif" font-size="9" fill="white" text-anchor="middle">003</text>
  <rect x="1278" y="400" width="42" height="40" fill="#7f1d1d"/><!-- RSK-002 -->
  <text x="1299" y="424" font-family="Inter, sans-serif" font-size="9" fill="white" text-anchor="middle">002</text>

  <!-- Row 3 -->
  <rect x="1110" y="360" width="42" height="40" fill="#dcfce7"/>
  <rect x="1152" y="360" width="42" height="40" fill="#fef9c3"/>
  <rect x="1194" y="360" width="42" height="40" fill="#fef9c3"/><!-- RSK-007 RSK-008 -->
  <text x="1215" y="384" font-family="Inter, sans-serif" font-size="9" fill="#D97706" text-anchor="middle">007</text>
  <rect x="1236" y="360" width="42" height="40" fill="#fee2e2"/><!-- RSK-004, 005 -->
  <text x="1257" y="378" font-family="Inter, sans-serif" font-size="9" fill="#DC2626" text-anchor="middle">004</text>
  <text x="1257" y="392" font-family="Inter, sans-serif" font-size="9" fill="#DC2626" text-anchor="middle">005</text>
  <rect x="1278" y="360" width="42" height="40" fill="#fee2e2"/>

  <!-- Row 2 -->
  <rect x="1110" y="320" width="42" height="40" fill="#dcfce7"/>
  <rect x="1152" y="320" width="42" height="40" fill="#dcfce7"/>
  <rect x="1194" y="320" width="42" height="40" fill="#fef9c3"/>
  <rect x="1236" y="320" width="42" height="40" fill="#fef9c3"/>
  <rect x="1278" y="320" width="42" height="40" fill="#fee2e2"/>

  <!-- Row 1 -->
  <rect x="1110" y="280" width="42" height="40" fill="#dcfce7"/>
  <rect x="1152" y="280" width="42" height="40" fill="#dcfce7"/>
  <rect x="1194" y="280" width="42" height="40" fill="#dcfce7"/>
  <rect x="1236" y="280" width="42" height="40" fill="#fef9c3"/>
  <rect x="1278" y="280" width="42" height="40" fill="#fef9c3"/>

  <!-- X-axis labels -->
  <text x="1131" y="498" font-family="Inter, sans-serif" font-size="9" fill="#6B7280" text-anchor="middle">1</text>
  <text x="1173" y="498" font-family="Inter, sans-serif" font-size="9" fill="#6B7280" text-anchor="middle">2</text>
  <text x="1215" y="498" font-family="Inter, sans-serif" font-size="9" fill="#6B7280" text-anchor="middle">3</text>
  <text x="1257" y="498" font-family="Inter, sans-serif" font-size="9" fill="#6B7280" text-anchor="middle">4</text>
  <text x="1299" y="498" font-family="Inter, sans-serif" font-size="9" fill="#6B7280" text-anchor="middle">5</text>
  <text x="1200" y="514" font-family="Inter, sans-serif" font-size="10" fill="#6B7280" text-anchor="middle">IMPACT →</text>

  <!-- Legend -->
  <text x="1068" y="540" font-family="Inter, sans-serif" font-size="11" fill="#111827" font-weight="600">Risk Distribution</text>
  <rect x="1068" y="550" width="12" height="10" fill="#7f1d1d"/>
  <text x="1086" y="559" font-family="Inter, sans-serif" font-size="11" fill="#6B7280">Critical: 47</text>
  <rect x="1068" y="570" width="12" height="10" fill="#fee2e2"/>
  <text x="1086" y="579" font-family="Inter, sans-serif" font-size="11" fill="#6B7280">High: 183</text>
  <rect x="1068" y="590" width="12" height="10" fill="#fef9c3"/>
  <text x="1086" y="599" font-family="Inter, sans-serif" font-size="11" fill="#6B7280">Medium: 312</text>
  <rect x="1068" y="610" width="12" height="10" fill="#dcfce7"/>
  <text x="1086" y="619" font-family="Inter, sans-serif" font-size="11" fill="#6B7280">Low: 541</text>

  <text x="1068" y="650" font-family="Inter, sans-serif" font-size="11" fill="#111827" font-weight="600">Open Actions</text>
  <text x="1068" y="672" font-family="Inter, sans-serif" font-size="12" fill="#DC2626">Overdue: <tspan font-weight="700">34</tspan></text>
  <text x="1068" y="692" font-family="Inter, sans-serif" font-size="12" fill="#EA580C">Due this week: <tspan font-weight="700">47</tspan></text>
  <text x="1068" y="712" font-family="Inter, sans-serif" font-size="12" fill="#D97706">Due this month: <tspan font-weight="700">183</tspan></text>
  <text x="1068" y="732" font-family="Inter, sans-serif" font-size="12" fill="#059669">Completed (30d): <tspan font-weight="700">312</tspan></text>

  <text x="1068" y="762" font-family="Inter, sans-serif" font-size="11" fill="#6B7280">Avg Risk Closure:</text>
  <text x="1200" y="762" font-family="Inter, sans-serif" font-size="12" fill="#111827" font-weight="600">42 days</text>

  <!-- Footer -->
  <rect x="0" y="878" width="1400" height="22" fill="#1B2A35"/>
  <text x="16" y="893" font-family="Inter, sans-serif" font-size="10" fill="#9CA3AF">ServiceNow IRM — Enterprise License  |  Module: Risk + Compliance + Audit + Policy  |  Version: Vancouver (2025)</text>
  <text x="1200" y="893" font-family="Inter, sans-serif" font-size="10" fill="#9CA3AF">Tenant: corp.service-now.com</text>
</svg>
