<svg xmlns="http://www.w3.org/2000/svg" viewBox="0 0 1400 900" width="1400" height="900">
  <defs>
    <linearGradient id="bgGrad" x1="0" y1="0" x2="0" y2="1">
      <stop offset="0%" stop-color="#070E1C"/>
      <stop offset="100%" stop-color="#0A1628"/>
    </linearGradient>
    <linearGradient id="hdrGrad" x1="0" y1="0" x2="1" y2="0">
      <stop offset="0%" stop-color="#0A1628"/>
      <stop offset="100%" stop-color="#0D1E38"/>
    </linearGradient>
    <linearGradient id="barGrad" x1="0" y1="0" x2="1" y2="0">
      <stop offset="0%" stop-color="#1E5EBC"/>
      <stop offset="100%" stop-color="#2E7AE8"/>
    </linearGradient>
    <linearGradient id="areaGrad" x1="0" y1="0" x2="0" y2="1">
      <stop offset="0%" stop-color="#1E5EBC" stop-opacity="0.4"/>
      <stop offset="100%" stop-color="#1E5EBC" stop-opacity="0"/>
    </linearGradient>
  </defs>

  <!-- Background -->
  <rect width="1400" height="900" fill="url(#bgGrad)"/>

  <!-- Top Nav -->
  <rect width="1400" height="54" fill="url(#hdrGrad)"/>
  <rect y="54" width="1400" height="1" fill="#1E5EBC" opacity="0.6"/>
  <!-- Logo -->
  <rect x="16" y="11" width="32" height="32" rx="4" fill="#1E5EBC"/>
  <text x="22" y="33" font-family="Arial Black,Arial,sans-serif" font-size="16" font-weight="900" fill="white">TC</text>
  <text x="56" y="35" font-family="Inter,Arial,sans-serif" font-size="17" font-weight="700" fill="white">ThreatConnect</text>
  <text x="190" y="35" font-family="Inter,Arial,sans-serif" font-size="12" fill="#4A7ACC">TI Ops Platform</text>
  <rect x="270" y="0" width="1" height="54" fill="rgba(255,255,255,0.08)"/>
  <!-- Nav items -->
  <rect x="286" y="18" width="80" height="20" rx="4" fill="rgba(30,94,188,0.3)"/>
  <text x="298" y="33" font-family="Inter,Arial,sans-serif" font-size="12" fill="#A0C4FF">Dashboard</text>
  <text x="386" y="33" font-family="Inter,Arial,sans-serif" font-size="12" fill="rgba(255,255,255,0.45)">Intelligence</text>
  <text x="470" y="33" font-family="Inter,Arial,sans-serif" font-size="12" fill="rgba(255,255,255,0.45)">Playbooks</text>
  <text x="550" y="33" font-family="Inter,Arial,sans-serif" font-size="12" fill="rgba(255,255,255,0.45)">Groups</text>
  <text x="610" y="33" font-family="Inter,Arial,sans-serif" font-size="12" fill="rgba(255,255,255,0.45)">Indicators</text>
  <text x="690" y="33" font-family="Inter,Arial,sans-serif" font-size="12" fill="rgba(255,255,255,0.45)">Tags</text>
  <text x="740" y="33" font-family="Inter,Arial,sans-serif" font-size="12" fill="rgba(255,255,255,0.45)">Workflows</text>
  <!-- Right side -->
  <text x="1180" y="33" font-family="Inter,Arial,sans-serif" font-size="11" fill="#4A7ACC">Org: Global SecOps</text>
  <rect x="1295" y="16" width="90" height="22" rx="4" fill="rgba(30,94,188,0.4)" stroke="#1E5EBC" stroke-width="1"/>
  <text x="1307" y="31" font-family="Inter,Arial,sans-serif" font-size="11" fill="#A0C4FF">+ New Report</text>

  <!-- Section header -->
  <rect y="55" width="1400" height="38" fill="#050C19"/>
  <text x="20" y="79" font-family="Inter,Arial,sans-serif" font-size="14" font-weight="600" fill="white">Threat Intelligence Operations Center</text>
  <text x="1180" y="79" font-family="Inter,Arial,sans-serif" font-size="11" fill="#4A7ACC">Last updated: 1 min ago | Period: 7d</text>

  <!-- KPI Strip -->
  <!-- Card 1 -->
  <rect x="16" y="102" width="168" height="88" rx="5" fill="#0A1628" stroke="#1E3A6B" stroke-width="1"/>
  <rect x="16" y="102" width="168" height="3" rx="2" fill="#1E5EBC"/>
  <text x="26" y="119" font-family="Inter,Arial,sans-serif" font-size="10" fill="#4A7ACC">INTEL ITEMS (7D)</text>
  <text x="26" y="148" font-family="Inter,Arial,sans-serif" font-size="28" font-weight="700" fill="white">14,827</text>
  <text x="26" y="167" font-family="Inter,Arial,sans-serif" font-size="10" fill="#1E5EBC">▲ 2,341 new</text>
  <text x="26" y="181" font-family="Inter,Arial,sans-serif" font-size="10" fill="#4A7ACC">Across all sources</text>

  <rect x="192" y="102" width="168" height="88" rx="5" fill="#0A1628" stroke="#1E3A6B" stroke-width="1"/>
  <rect x="192" y="102" width="168" height="3" rx="2" fill="#E74C3C"/>
  <text x="202" y="119" font-family="Inter,Arial,sans-serif" font-size="10" fill="#4A7ACC">CRITICAL THREATS</text>
  <text x="202" y="148" font-family="Inter,Arial,sans-serif" font-size="28" font-weight="700" fill="#E74C3C">47</text>
  <text x="202" y="167" font-family="Inter,Arial,sans-serif" font-size="10" fill="#E74C3C">▲ 12 new</text>
  <text x="202" y="181" font-family="Inter,Arial,sans-serif" font-size="10" fill="#4A7ACC">Require action</text>

  <rect x="368" y="102" width="168" height="88" rx="5" fill="#0A1628" stroke="#1E3A6B" stroke-width="1"/>
  <rect x="368" y="102" width="168" height="3" rx="2" fill="#F39C12"/>
  <text x="378" y="119" font-family="Inter,Arial,sans-serif" font-size="10" fill="#4A7ACC">ACTIVE IOCS</text>
  <text x="378" y="148" font-family="Inter,Arial,sans-serif" font-size="28" font-weight="700" fill="white">9,284</text>
  <text x="378" y="167" font-family="Inter,Arial,sans-serif" font-size="10" fill="#27AE60">▼ 834 expired</text>
  <text x="378" y="181" font-family="Inter,Arial,sans-serif" font-size="10" fill="#4A7ACC">IP/Domain/Hash</text>

  <rect x="544" y="102" width="168" height="88" rx="5" fill="#0A1628" stroke="#1E3A6B" stroke-width="1"/>
  <rect x="544" y="102" width="168" height="3" rx="2" fill="#9B59B6"/>
  <text x="554" y="119" font-family="Inter,Arial,sans-serif" font-size="10" fill="#4A7ACC">THREAT ACTORS</text>
  <text x="554" y="148" font-family="Inter,Arial,sans-serif" font-size="28" font-weight="700" fill="white">312</text>
  <text x="554" y="167" font-family="Inter,Arial,sans-serif" font-size="10" fill="#9B59B6">18 active targeting</text>
  <text x="554" y="181" font-family="Inter,Arial,sans-serif" font-size="10" fill="#4A7ACC">Your sector</text>

  <rect x="720" y="102" width="168" height="88" rx="5" fill="#0A1628" stroke="#1E3A6B" stroke-width="1"/>
  <rect x="720" y="102" width="168" height="3" rx="2" fill="#27AE60"/>
  <text x="730" y="119" font-family="Inter,Arial,sans-serif" font-size="10" fill="#4A7ACC">PLAYBOOKS RUN</text>
  <text x="730" y="148" font-family="Inter,Arial,sans-serif" font-size="28" font-weight="700" fill="white">2,847</text>
  <text x="730" y="167" font-family="Inter,Arial,sans-serif" font-size="10" fill="#27AE60">94.2% success</text>
  <text x="730" y="181" font-family="Inter,Arial,sans-serif" font-size="10" fill="#4A7ACC">Automated</text>

  <rect x="896" y="102" width="168" height="88" rx="5" fill="#0A1628" stroke="#1E3A6B" stroke-width="1"/>
  <rect x="896" y="102" width="168" height="3" rx="2" fill="#1E5EBC"/>
  <text x="906" y="119" font-family="Inter,Arial,sans-serif" font-size="10" fill="#4A7ACC">INTEL SHARING</text>
  <text x="906" y="148" font-family="Inter,Arial,sans-serif" font-size="28" font-weight="700" fill="white">1,247</text>
  <text x="906" y="167" font-family="Inter,Arial,sans-serif" font-size="10" fill="#1E5EBC">Items exported</text>
  <text x="906" y="181" font-family="Inter,Arial,sans-serif" font-size="10" fill="#4A7ACC">STIX/TAXII</text>

  <rect x="1072" y="102" width="168" height="88" rx="5" fill="#0A1628" stroke="#1E3A6B" stroke-width="1"/>
  <rect x="1072" y="102" width="168" height="3" rx="2" fill="#00BCD4"/>
  <text x="1082" y="119" font-family="Inter,Arial,sans-serif" font-size="10" fill="#4A7ACC">TI SOURCES</text>
  <text x="1082" y="148" font-family="Inter,Arial,sans-serif" font-size="28" font-weight="700" fill="white">84</text>
  <text x="1082" y="167" font-family="Inter,Arial,sans-serif" font-size="10" fill="#00BCD4">Integrated feeds</text>
  <text x="1082" y="181" font-family="Inter,Arial,sans-serif" font-size="10" fill="#4A7ACC">78 active</text>

  <rect x="1248" y="102" width="136" height="88" rx="5" fill="#0A1628" stroke="#E74C3C" stroke-width="1" stroke-opacity="0.5"/>
  <rect x="1248" y="102" width="136" height="3" rx="2" fill="#E74C3C"/>
  <text x="1258" y="119" font-family="Inter,Arial,sans-serif" font-size="10" fill="#4A7ACC">RISK SCORE</text>
  <text x="1258" y="148" font-family="Inter,Arial,sans-serif" font-size="28" font-weight="700" fill="#E74C3C">84</text>
  <text x="1295" y="148" font-family="Inter,Arial,sans-serif" font-size="14" fill="#4A7ACC">/100</text>
  <text x="1258" y="167" font-family="Inter,Arial,sans-serif" font-size="10" fill="#E74C3C">HIGH RISK</text>
  <text x="1258" y="181" font-family="Inter,Arial,sans-serif" font-size="10" fill="#4A7ACC">Org-wide</text>

  <!-- Threat Actor Intelligence Panel -->
  <rect x="16" y="202" width="530" height="370" rx="5" fill="#0A1628" stroke="#1E3A6B" stroke-width="1"/>
  <rect x="16" y="202" width="530" height="32" rx="5" fill="#0D1E38"/>
  <rect x="16" y="228" width="530" height="1" fill="#1E3A6B"/>
  <text x="28" y="224" font-family="Inter,Arial,sans-serif" font-size="13" font-weight="600" fill="white">Priority Threat Actor Intelligence</text>
  <rect x="430" y="208" width="104" height="18" rx="9" fill="rgba(231,76,60,0.2)" stroke="#E74C3C" stroke-width="1"/>
  <text x="440" y="221" font-family="Inter,Arial,sans-serif" font-size="10" fill="#E74C3C">18 Active Threats</text>
  <!-- Headers -->
  <rect x="16" y="229" width="530" height="22" fill="#070E1C"/>
  <text x="28" y="245" font-family="Inter,Arial,sans-serif" font-size="10" font-weight="600" fill="#4A7ACC">ACTOR</text>
  <text x="140" y="245" font-family="Inter,Arial,sans-serif" font-size="10" font-weight="600" fill="#4A7ACC">ORIGIN</text>
  <text x="195" y="245" font-family="Inter,Arial,sans-serif" font-size="10" font-weight="600" fill="#4A7ACC">SECTOR TARGET</text>
  <text x="330" y="245" font-family="Inter,Arial,sans-serif" font-size="10" font-weight="600" fill="#4A7ACC">RISK</text>
  <text x="376" y="245" font-family="Inter,Arial,sans-serif" font-size="10" font-weight="600" fill="#4A7ACC">CONFIDENCE</text>
  <text x="468" y="245" font-family="Inter,Arial,sans-serif" font-size="10" font-weight="600" fill="#4A7ACC">LAST SEEN</text>

  <!-- Actor rows -->
  <rect x="16" y="251" width="530" height="28" fill="#0A1628"/>
  <text x="28" y="269" font-family="Inter,Arial,sans-serif" font-size="12" font-weight="500" fill="white">APT29 (Cozy Bear)</text>
  <text x="140" y="269" font-family="Inter,Arial,sans-serif" font-size="11" fill="#A0B8CC">Russia</text>
  <text x="195" y="269" font-family="Inter,Arial,sans-serif" font-size="11" fill="#A0B8CC">Govt, Energy</text>
  <rect x="325" y="258" width="40" height="16" rx="8" fill="#8B0000"/>
  <text x="331" y="270" font-family="Inter,Arial,sans-serif" font-size="9" fill="white">CRIT</text>
  <rect x="372" y="258" width="80" height="11" rx="3" fill="#1E3A6B"/>
  <rect x="372" y="258" width="76" height="11" rx="3" fill="#1E5EBC"/>
  <text x="456" y="269" font-family="Inter,Arial,sans-serif" font-size="9" fill="#4A7ACC">95%</text>
  <text x="468" y="269" font-family="Inter,Arial,sans-serif" font-size="11" fill="#4A7ACC">2h ago</text>
  <rect x="16" y="279" width="530" height="1" fill="#0D1E38"/>

  <rect x="16" y="280" width="530" height="28" fill="#070E1C"/>
  <text x="28" y="298" font-family="Inter,Arial,sans-serif" font-size="12" font-weight="500" fill="white">Lazarus Group</text>
  <text x="140" y="298" font-family="Inter,Arial,sans-serif" font-size="11" fill="#A0B8CC">DPRK</text>
  <text x="195" y="298" font-family="Inter,Arial,sans-serif" font-size="11" fill="#A0B8CC">Finance, Crypto</text>
  <rect x="325" y="287" width="40" height="16" rx="8" fill="#8B0000"/>
  <text x="331" y="299" font-family="Inter,Arial,sans-serif" font-size="9" fill="white">CRIT</text>
  <rect x="372" y="287" width="80" height="11" rx="3" fill="#1E3A6B"/>
  <rect x="372" y="287" width="72" height="11" rx="3" fill="#1E5EBC"/>
  <text x="456" y="298" font-family="Inter,Arial,sans-serif" font-size="9" fill="#4A7ACC">90%</text>
  <text x="468" y="298" font-family="Inter,Arial,sans-serif" font-size="11" fill="#4A7ACC">5h ago</text>
  <rect x="16" y="308" width="530" height="1" fill="#0D1E38"/>

  <rect x="16" y="309" width="530" height="28" fill="#0A1628"/>
  <text x="28" y="327" font-family="Inter,Arial,sans-serif" font-size="12" font-weight="500" fill="white">FIN7 (Carbanak)</text>
  <text x="140" y="327" font-family="Inter,Arial,sans-serif" font-size="11" fill="#A0B8CC">Russia</text>
  <text x="195" y="327" font-family="Inter,Arial,sans-serif" font-size="11" fill="#A0B8CC">Retail, Finance</text>
  <rect x="325" y="316" width="40" height="16" rx="8" fill="#CC4400"/>
  <text x="331" y="328" font-family="Inter,Arial,sans-serif" font-size="9" fill="white">HIGH</text>
  <rect x="372" y="316" width="80" height="11" rx="3" fill="#1E3A6B"/>
  <rect x="372" y="316" width="68" height="11" rx="3" fill="#1E5EBC"/>
  <text x="456" y="327" font-family="Inter,Arial,sans-serif" font-size="9" fill="#4A7ACC">85%</text>
  <text x="468" y="327" font-family="Inter,Arial,sans-serif" font-size="11" fill="#4A7ACC">1d ago</text>
  <rect x="16" y="337" width="530" height="1" fill="#0D1E38"/>

  <rect x="16" y="338" width="530" height="28" fill="#070E1C"/>
  <text x="28" y="356" font-family="Inter,Arial,sans-serif" font-size="12" font-weight="500" fill="white">Sandworm Team</text>
  <text x="140" y="356" font-family="Inter,Arial,sans-serif" font-size="11" fill="#A0B8CC">Russia</text>
  <text x="195" y="356" font-family="Inter,Arial,sans-serif" font-size="11" fill="#A0B8CC">ICS, Energy</text>
  <rect x="325" y="345" width="40" height="16" rx="8" fill="#8B0000"/>
  <text x="331" y="357" font-family="Inter,Arial,sans-serif" font-size="9" fill="white">CRIT</text>
  <rect x="372" y="345" width="80" height="11" rx="3" fill="#1E3A6B"/>
  <rect x="372" y="345" width="62" height="11" rx="3" fill="#1E5EBC"/>
  <text x="456" y="356" font-family="Inter,Arial,sans-serif" font-size="9" fill="#4A7ACC">78%</text>
  <text x="468" y="356" font-family="Inter,Arial,sans-serif" font-size="11" fill="#4A7ACC">12h ago</text>
  <rect x="16" y="366" width="530" height="1" fill="#0D1E38"/>

  <rect x="16" y="367" width="530" height="28" fill="#0A1628"/>
  <text x="28" y="385" font-family="Inter,Arial,sans-serif" font-size="12" font-weight="500" fill="white">TA505</text>
  <text x="140" y="385" font-family="Inter,Arial,sans-serif" font-size="11" fill="#A0B8CC">Unknown</text>
  <text x="195" y="385" font-family="Inter,Arial,sans-serif" font-size="11" fill="#A0B8CC">Healthcare, Edu</text>
  <rect x="325" y="374" width="40" height="16" rx="8" fill="#CC4400"/>
  <text x="331" y="386" font-family="Inter,Arial,sans-serif" font-size="9" fill="white">HIGH</text>
  <rect x="372" y="374" width="80" height="11" rx="3" fill="#1E3A6B"/>
  <rect x="372" y="374" width="56" height="11" rx="3" fill="#1E5EBC"/>
  <text x="456" y="385" font-family="Inter,Arial,sans-serif" font-size="9" fill="#4A7ACC">70%</text>
  <text x="468" y="385" font-family="Inter,Arial,sans-serif" font-size="11" fill="#4A7ACC">2d ago</text>
  <rect x="16" y="395" width="530" height="1" fill="#0D1E38"/>

  <rect x="16" y="396" width="530" height="28" fill="#070E1C"/>
  <text x="28" y="414" font-family="Inter,Arial,sans-serif" font-size="12" font-weight="500" fill="white">Scattered Spider</text>
  <text x="140" y="414" font-family="Inter,Arial,sans-serif" font-size="11" fill="#A0B8CC">USA/UK</text>
  <text x="195" y="414" font-family="Inter,Arial,sans-serif" font-size="11" fill="#A0B8CC">Telecom, IT</text>
  <rect x="325" y="403" width="40" height="16" rx="8" fill="#CC4400"/>
  <text x="331" y="415" font-family="Inter,Arial,sans-serif" font-size="9" fill="white">HIGH</text>
  <rect x="372" y="403" width="80" height="11" rx="3" fill="#1E3A6B"/>
  <rect x="372" y="403" width="52" height="11" rx="3" fill="#1E5EBC"/>
  <text x="456" y="414" font-family="Inter,Arial,sans-serif" font-size="9" fill="#4A7ACC">65%</text>
  <text x="468" y="414" font-family="Inter,Arial,sans-serif" font-size="11" fill="#4A7ACC">3d ago</text>
  <rect x="16" y="424" width="530" height="1" fill="#0D1E38"/>

  <rect x="16" y="425" width="530" height="28" fill="#0A1628"/>
  <text x="28" y="443" font-family="Inter,Arial,sans-serif" font-size="12" font-weight="500" fill="white">MuddyWater</text>
  <text x="140" y="443" font-family="Inter,Arial,sans-serif" font-size="11" fill="#A0B8CC">Iran</text>
  <text x="195" y="443" font-family="Inter,Arial,sans-serif" font-size="11" fill="#A0B8CC">Govt, Defence</text>
  <rect x="325" y="432" width="50" height="16" rx="8" fill="#0055AA"/>
  <text x="333" y="444" font-family="Inter,Arial,sans-serif" font-size="9" fill="white">MED</text>
  <rect x="372" y="432" width="80" height="11" rx="3" fill="#1E3A6B"/>
  <rect x="372" y="432" width="48" height="11" rx="3" fill="#4A7ACC"/>
  <text x="456" y="443" font-family="Inter,Arial,sans-serif" font-size="9" fill="#4A7ACC">60%</text>
  <text x="468" y="443" font-family="Inter,Arial,sans-serif" font-size="11" fill="#4A7ACC">4d ago</text>
  <rect x="16" y="453" width="530" height="1" fill="#0D1E38"/>

  <rect x="16" y="454" width="530" height="28" fill="#070E1C"/>
  <text x="28" y="472" font-family="Inter,Arial,sans-serif" font-size="12" font-weight="500" fill="white">Volt Typhoon</text>
  <text x="140" y="472" font-family="Inter,Arial,sans-serif" font-size="11" fill="#A0B8CC">China</text>
  <text x="195" y="472" font-family="Inter,Arial,sans-serif" font-size="11" fill="#A0B8CC">Critical Infra</text>
  <rect x="325" y="461" width="40" height="16" rx="8" fill="#8B0000"/>
  <text x="331" y="473" font-family="Inter,Arial,sans-serif" font-size="9" fill="white">CRIT</text>
  <rect x="372" y="461" width="80" height="11" rx="3" fill="#1E3A6B"/>
  <rect x="372" y="461" width="72" height="11" rx="3" fill="#1E5EBC"/>
  <text x="456" y="472" font-family="Inter,Arial,sans-serif" font-size="9" fill="#4A7ACC">90%</text>
  <text x="468" y="472" font-family="Inter,Arial,sans-serif" font-size="11" fill="#4A7ACC">1h ago</text>
  <rect x="16" y="482" width="530" height="1" fill="#0D1E38"/>

  <rect x="16" y="483" width="530" height="28" fill="#0A1628"/>
  <text x="28" y="501" font-family="Inter,Arial,sans-serif" font-size="12" font-weight="500" fill="white">REvil / Sodinokibi</text>
  <text x="140" y="501" font-family="Inter,Arial,sans-serif" font-size="11" fill="#A0B8CC">Russia</text>
  <text x="195" y="501" font-family="Inter,Arial,sans-serif" font-size="11" fill="#A0B8CC">All sectors</text>
  <rect x="325" y="490" width="40" height="16" rx="8" fill="#CC4400"/>
  <text x="331" y="502" font-family="Inter,Arial,sans-serif" font-size="9" fill="white">HIGH</text>
  <rect x="372" y="490" width="80" height="11" rx="3" fill="#1E3A6B"/>
  <rect x="372" y="490" width="64" height="11" rx="3" fill="#1E5EBC"/>
  <text x="456" y="501" font-family="Inter,Arial,sans-serif" font-size="9" fill="#4A7ACC">80%</text>
  <text x="468" y="501" font-family="Inter,Arial,sans-serif" font-size="11" fill="#4A7ACC">6h ago</text>
  <rect x="16" y="511" width="530" height="1" fill="#0D1E38"/>

  <rect x="16" y="512" width="530" height="28" fill="#070E1C"/>
  <text x="28" y="530" font-family="Inter,Arial,sans-serif" font-size="12" font-weight="500" fill="white">BlackCat / ALPHV</text>
  <text x="140" y="530" font-family="Inter,Arial,sans-serif" font-size="11" fill="#A0B8CC">Russia</text>
  <text x="195" y="530" font-family="Inter,Arial,sans-serif" font-size="11" fill="#A0B8CC">Healthcare</text>
  <rect x="325" y="519" width="40" height="16" rx="8" fill="#8B0000"/>
  <text x="331" y="531" font-family="Inter,Arial,sans-serif" font-size="9" fill="white">CRIT</text>
  <rect x="372" y="519" width="80" height="11" rx="3" fill="#1E3A6B"/>
  <rect x="372" y="519" width="70" height="11" rx="3" fill="#1E5EBC"/>
  <text x="456" y="530" font-family="Inter,Arial,sans-serif" font-size="9" fill="#4A7ACC">87%</text>
  <text x="468" y="530" font-family="Inter,Arial,sans-serif" font-size="11" fill="#4A7ACC">8h ago</text>

  <!-- IOC Intelligence Feed Panel -->
  <rect x="556" y="202" width="540" height="370" rx="5" fill="#0A1628" stroke="#1E3A6B" stroke-width="1"/>
  <rect x="556" y="202" width="540" height="32" rx="5" fill="#0D1E38"/>
  <rect x="556" y="228" width="540" height="1" fill="#1E3A6B"/>
  <text x="568" y="224" font-family="Inter,Arial,sans-serif" font-size="13" font-weight="600" fill="white">IOC Intelligence Feed</text>
  <rect x="950" y="208" width="130" height="18" rx="9" fill="rgba(30,94,188,0.3)" stroke="#1E5EBC" stroke-width="1"/>
  <text x="960" y="220" font-family="Inter,Arial,sans-serif" font-size="10" fill="#A0C4FF">Active: 9,284 IOCs</text>
  <!-- Headers -->
  <rect x="556" y="229" width="540" height="22" fill="#070E1C"/>
  <text x="568" y="245" font-family="Inter,Arial,sans-serif" font-size="10" font-weight="600" fill="#4A7ACC">RISK</text>
  <text x="600" y="245" font-family="Inter,Arial,sans-serif" font-size="10" font-weight="600" fill="#4A7ACC">INDICATOR</text>
  <text x="800" y="245" font-family="Inter,Arial,sans-serif" font-size="10" font-weight="600" fill="#4A7ACC">TYPE</text>
  <text x="860" y="245" font-family="Inter,Arial,sans-serif" font-size="10" font-weight="600" fill="#4A7ACC">ACTOR</text>
  <text x="960" y="245" font-family="Inter,Arial,sans-serif" font-size="10" font-weight="600" fill="#4A7ACC">SEEN</text>
  <text x="1020" y="245" font-family="Inter,Arial,sans-serif" font-size="10" font-weight="600" fill="#4A7ACC">STATUS</text>

  <!-- IOC rows -->
  <rect x="556" y="251" width="540" height="26" fill="#0A1628"/>
  <rect x="568" y="257" width="20" height="14" rx="7" fill="#8B0000"/>
  <text x="571" y="268" font-family="Inter,Arial,sans-serif" font-size="8" font-weight="700" fill="white">100</text>
  <text x="600" y="268" font-family="monospace,Courier New,monospace" font-size="10" fill="#00C8A8">185.220.101.47</text>
  <rect x="796" y="255" width="46" height="14" rx="7" fill="rgba(0,77,197,0.3)"/>
  <text x="800" y="267" font-family="Inter,Arial,sans-serif" font-size="9" fill="#4A7ACC">IP Addr</text>
  <text x="860" y="268" font-family="Inter,Arial,sans-serif" font-size="11" fill="#A0B8CC">APT29</text>
  <text x="960" y="268" font-family="Inter,Arial,sans-serif" font-size="11" fill="#4A7ACC">1h ago</text>
  <rect x="1016" y="254" width="72" height="16" rx="8" fill="#E74C3C" opacity="0.8"/>
  <text x="1020" y="266" font-family="Inter,Arial,sans-serif" font-size="9" fill="white">Weaponized</text>
  <rect x="556" y="277" width="540" height="1" fill="#0D1E38"/>

  <rect x="556" y="278" width="540" height="26" fill="#070E1C"/>
  <rect x="568" y="284" width="20" height="14" rx="7" fill="#8B0000"/>
  <text x="571" y="295" font-family="Inter,Arial,sans-serif" font-size="8" font-weight="700" fill="white">98</text>
  <text x="600" y="295" font-family="monospace,Courier New,monospace" font-size="10" fill="#00C8A8">evil-update[.]ru</text>
  <rect x="796" y="282" width="54" height="14" rx="7" fill="rgba(0,77,197,0.3)"/>
  <text x="800" y="294" font-family="Inter,Arial,sans-serif" font-size="9" fill="#4A7ACC">Domain</text>
  <text x="860" y="295" font-family="Inter,Arial,sans-serif" font-size="11" fill="#A0B8CC">Lazarus</text>
  <text x="960" y="295" font-family="Inter,Arial,sans-serif" font-size="11" fill="#4A7ACC">3h ago</text>
  <rect x="1016" y="281" width="72" height="16" rx="8" fill="#E74C3C" opacity="0.8"/>
  <text x="1020" y="293" font-family="Inter,Arial,sans-serif" font-size="9" fill="white">Weaponized</text>
  <rect x="556" y="304" width="540" height="1" fill="#0D1E38"/>

  <rect x="556" y="305" width="540" height="26" fill="#0A1628"/>
  <rect x="568" y="311" width="20" height="14" rx="7" fill="#CC4400"/>
  <text x="571" y="322" font-family="Inter,Arial,sans-serif" font-size="8" font-weight="700" fill="white">91</text>
  <text x="600" y="322" font-family="monospace,Courier New,monospace" font-size="9" fill="#00C8A8">d41d8cd98f00b204e9800998ecf8427e</text>
  <rect x="796" y="309" width="42" height="14" rx="7" fill="rgba(0,77,197,0.3)"/>
  <text x="800" y="321" font-family="Inter,Arial,sans-serif" font-size="9" fill="#4A7ACC">MD5</text>
  <text x="860" y="322" font-family="Inter,Arial,sans-serif" font-size="11" fill="#A0B8CC">FIN7</text>
  <text x="960" y="322" font-family="Inter,Arial,sans-serif" font-size="11" fill="#4A7ACC">6h ago</text>
  <rect x="1016" y="308" width="60" height="16" rx="8" fill="rgba(243,156,18,0.3)"/>
  <text x="1020" y="320" font-family="Inter,Arial,sans-serif" font-size="9" fill="#F39C12">Malicious</text>
  <rect x="556" y="331" width="540" height="1" fill="#0D1E38"/>

  <rect x="556" y="332" width="540" height="26" fill="#070E1C"/>
  <rect x="568" y="338" width="20" height="14" rx="7" fill="#CC4400"/>
  <text x="571" y="349" font-family="Inter,Arial,sans-serif" font-size="8" font-weight="700" fill="white">87</text>
  <text x="600" y="349" font-family="monospace,Courier New,monospace" font-size="10" fill="#00C8A8">91.234.99.182</text>
  <rect x="796" y="336" width="46" height="14" rx="7" fill="rgba(0,77,197,0.3)"/>
  <text x="800" y="348" font-family="Inter,Arial,sans-serif" font-size="9" fill="#4A7ACC">IP Addr</text>
  <text x="860" y="349" font-family="Inter,Arial,sans-serif" font-size="11" fill="#A0B8CC">Sandworm</text>
  <text x="960" y="349" font-family="Inter,Arial,sans-serif" font-size="11" fill="#4A7ACC">8h ago</text>
  <rect x="1016" y="335" width="60" height="16" rx="8" fill="rgba(243,156,18,0.3)"/>
  <text x="1020" y="347" font-family="Inter,Arial,sans-serif" font-size="9" fill="#F39C12">Malicious</text>
  <rect x="556" y="358" width="540" height="1" fill="#0D1E38"/>

  <rect x="556" y="359" width="540" height="26" fill="#0A1628"/>
  <rect x="568" y="365" width="20" height="14" rx="7" fill="#CC4400"/>
  <text x="571" y="376" font-family="Inter,Arial,sans-serif" font-size="8" font-weight="700" fill="white">85</text>
  <text x="600" y="376" font-family="monospace,Courier New,monospace" font-size="10" fill="#00C8A8">phishing-corp[.]net</text>
  <rect x="796" y="363" width="54" height="14" rx="7" fill="rgba(0,77,197,0.3)"/>
  <text x="800" y="375" font-family="Inter,Arial,sans-serif" font-size="9" fill="#4A7ACC">Domain</text>
  <text x="860" y="376" font-family="Inter,Arial,sans-serif" font-size="11" fill="#A0B8CC">TA505</text>
  <text x="960" y="376" font-family="Inter,Arial,sans-serif" font-size="11" fill="#4A7ACC">12h ago</text>
  <rect x="1016" y="362" width="72" height="16" rx="8" fill="#E74C3C" opacity="0.8"/>
  <text x="1020" y="374" font-family="Inter,Arial,sans-serif" font-size="9" fill="white">Weaponized</text>
  <rect x="556" y="385" width="540" height="1" fill="#0D1E38"/>

  <rect x="556" y="386" width="540" height="26" fill="#070E1C"/>
  <rect x="568" y="392" width="20" height="14" rx="7" fill="#0055AA"/>
  <text x="571" y="403" font-family="Inter,Arial,sans-serif" font-size="8" font-weight="700" fill="white">72</text>
  <text x="600" y="403" font-family="monospace,Courier New,monospace" font-size="9" fill="#00C8A8">a3f...c91e8b (SHA256)</text>
  <rect x="796" y="390" width="48" height="14" rx="7" fill="rgba(0,77,197,0.3)"/>
  <text x="800" y="402" font-family="Inter,Arial,sans-serif" font-size="9" fill="#4A7ACC">SHA256</text>
  <text x="860" y="403" font-family="Inter,Arial,sans-serif" font-size="11" fill="#A0B8CC">BlackCat</text>
  <text x="960" y="403" font-family="Inter,Arial,sans-serif" font-size="11" fill="#4A7ACC">18h ago</text>
  <rect x="1016" y="389" width="60" height="16" rx="8" fill="rgba(243,156,18,0.3)"/>
  <text x="1020" y="401" font-family="Inter,Arial,sans-serif" font-size="9" fill="#F39C12">Malicious</text>
  <rect x="556" y="412" width="540" height="1" fill="#0D1E38"/>

  <rect x="556" y="413" width="540" height="26" fill="#0A1628"/>
  <rect x="568" y="419" width="20" height="14" rx="7" fill="#0055AA"/>
  <text x="571" y="430" font-family="Inter,Arial,sans-serif" font-size="8" font-weight="700" fill="white">68</text>
  <text x="600" y="430" font-family="monospace,Courier New,monospace" font-size="10" fill="#00C8A8">192.168.0.0/16</text>
  <rect x="796" y="417" width="52" height="14" rx="7" fill="rgba(0,77,197,0.3)"/>
  <text x="800" y="429" font-family="Inter,Arial,sans-serif" font-size="9" fill="#4A7ACC">CIDR</text>
  <text x="860" y="430" font-family="Inter,Arial,sans-serif" font-size="11" fill="#A0B8CC">MuddyWater</text>
  <text x="960" y="430" font-family="Inter,Arial,sans-serif" font-size="11" fill="#4A7ACC">2d ago</text>
  <rect x="1016" y="416" width="56" height="16" rx="8" fill="rgba(39,174,96,0.3)"/>
  <text x="1020" y="428" font-family="Inter,Arial,sans-serif" font-size="9" fill="#27AE60">Suspicious</text>
  <rect x="556" y="439" width="540" height="1" fill="#0D1E38"/>

  <rect x="556" y="440" width="540" height="26" fill="#070E1C"/>
  <rect x="568" y="446" width="20" height="14" rx="7" fill="#0055AA"/>
  <text x="571" y="457" font-family="Inter,Arial,sans-serif" font-size="8" font-weight="700" fill="white">65</text>
  <text x="600" y="457" font-family="monospace,Courier New,monospace" font-size="10" fill="#00C8A8">vpn-gate[.]io</text>
  <rect x="796" y="444" width="54" height="14" rx="7" fill="rgba(0,77,197,0.3)"/>
  <text x="800" y="456" font-family="Inter,Arial,sans-serif" font-size="9" fill="#4A7ACC">Domain</text>
  <text x="860" y="457" font-family="Inter,Arial,sans-serif" font-size="11" fill="#A0B8CC">Volt Typhoon</text>
  <text x="960" y="457" font-family="Inter,Arial,sans-serif" font-size="11" fill="#4A7ACC">3d ago</text>
  <rect x="1016" y="443" width="56" height="16" rx="8" fill="rgba(39,174,96,0.3)"/>
  <text x="1020" y="455" font-family="Inter,Arial,sans-serif" font-size="9" fill="#27AE60">Suspicious</text>
  <rect x="556" y="466" width="540" height="1" fill="#0D1E38"/>

  <rect x="556" y="467" width="540" height="26" fill="#0A1628"/>
  <rect x="568" y="473" width="20" height="14" rx="7" fill="#1A4D1A"/>
  <text x="571" y="484" font-family="Inter,Arial,sans-serif" font-size="8" font-weight="700" fill="white">42</text>
  <text x="600" y="484" font-family="monospace,Courier New,monospace" font-size="10" fill="#00C8A8">update.microsoft.com</text>
  <rect x="796" y="471" width="54" height="14" rx="7" fill="rgba(0,77,197,0.3)"/>
  <text x="800" y="483" font-family="Inter,Arial,sans-serif" font-size="9" fill="#4A7ACC">Domain</text>
  <text x="860" y="484" font-family="Inter,Arial,sans-serif" font-size="11" fill="#A0B8CC">False Positive</text>
  <text x="960" y="484" font-family="Inter,Arial,sans-serif" font-size="11" fill="#4A7ACC">4d ago</text>
  <rect x="1016" y="470" width="56" height="16" rx="8" fill="rgba(39,174,96,0.2)"/>
  <text x="1020" y="482" font-family="Inter,Arial,sans-serif" font-size="9" fill="#27AE60">Benign</text>
  <rect x="556" y="493" width="540" height="1" fill="#0D1E38"/>

  <rect x="556" y="494" width="540" height="26" fill="#070E1C"/>
  <rect x="568" y="500" width="20" height="14" rx="7" fill="#CC4400"/>
  <text x="571" y="511" font-family="Inter,Arial,sans-serif" font-size="8" font-weight="700" fill="white">83</text>
  <text x="600" y="511" font-family="monospace,Courier New,monospace" font-size="10" fill="#00C8A8">45.77.224.1</text>
  <rect x="796" y="498" width="46" height="14" rx="7" fill="rgba(0,77,197,0.3)"/>
  <text x="800" y="510" font-family="Inter,Arial,sans-serif" font-size="9" fill="#4A7ACC">IP Addr</text>
  <text x="860" y="511" font-family="Inter,Arial,sans-serif" font-size="11" fill="#A0B8CC">REvil</text>
  <text x="960" y="511" font-family="Inter,Arial,sans-serif" font-size="11" fill="#4A7ACC">6h ago</text>
  <rect x="1016" y="497" width="72" height="16" rx="8" fill="#E74C3C" opacity="0.8"/>
  <text x="1020" y="509" font-family="Inter,Arial,sans-serif" font-size="9" fill="white">Weaponized</text>

  <!-- Right panel: TI Trend chart + Playbooks -->
  <rect x="1106" y="202" width="278" height="200" rx="5" fill="#0A1628" stroke="#1E3A6B" stroke-width="1"/>
  <rect x="1106" y="202" width="278" height="30" rx="5" fill="#0D1E38"/>
  <rect x="1106" y="226" width="278" height="1" fill="#1E3A6B"/>
  <text x="1118" y="222" font-family="Inter,Arial,sans-serif" font-size="12" font-weight="600" fill="white">Intel Volume (30d)</text>
  <!-- Area chart -->
  <rect x="1116" y="234" width="258" height="120" rx="3" fill="#070E1C"/>
  <!-- Grid -->
  <line x1="1120" y1="245" x2="1370" y2="245" stroke="#1E3A6B" stroke-width="1"/>
  <line x1="1120" y1="265" x2="1370" y2="265" stroke="#1E3A6B" stroke-width="1"/>
  <line x1="1120" y1="285" x2="1370" y2="285" stroke="#1E3A6B" stroke-width="1"/>
  <line x1="1120" y1="305" x2="1370" y2="305" stroke="#1E3A6B" stroke-width="1"/>
  <line x1="1120" y1="324" x2="1370" y2="324" stroke="#1E3A6B" stroke-width="1"/>
  <!-- Area fill -->
  <polygon points="1120,324 1140,318 1160,310 1180,302 1200,298 1220,292 1240,284 1260,278 1280,272 1300,265 1320,258 1340,252 1360,246 1370,243 1370,324" fill="url(#areaGrad)"/>
  <!-- Line -->
  <polyline points="1120,318 1140,310 1160,302 1180,295 1200,290 1220,284 1240,278 1260,272 1280,266 1300,260 1320,254 1340,248 1360,242 1370,240" fill="none" stroke="#1E5EBC" stroke-width="2"/>
  <!-- Data label -->
  <text x="1340" y="238" font-family="Inter,Arial,sans-serif" font-size="9" fill="#1E5EBC">2,341</text>
  <!-- Y labels -->
  <text x="1114" y="248" font-family="Inter,Arial,sans-serif" font-size="8" fill="#4A7ACC" text-anchor="end">3K</text>
  <text x="1114" y="268" font-family="Inter,Arial,sans-serif" font-size="8" fill="#4A7ACC" text-anchor="end">2K</text>
  <text x="1114" y="308" font-family="Inter,Arial,sans-serif" font-size="8" fill="#4A7ACC" text-anchor="end">1K</text>
  <!-- Legend -->
  <line x1="1118" y1="362" x2="1138" y2="362" stroke="#1E5EBC" stroke-width="2"/>
  <text x="1142" y="366" font-family="Inter,Arial,sans-serif" font-size="10" fill="#4A7ACC">Intel Items/Day</text>

  <!-- Playbooks -->
  <rect x="1106" y="412" width="278" height="160" rx="5" fill="#0A1628" stroke="#1E3A6B" stroke-width="1"/>
  <rect x="1106" y="412" width="278" height="30" rx="5" fill="#0D1E38"/>
  <rect x="1106" y="436" width="278" height="1" fill="#1E3A6B"/>
  <text x="1118" y="432" font-family="Inter,Arial,sans-serif" font-size="12" font-weight="600" fill="white">Playbook Status</text>
  <!-- PB rows -->
  <text x="1118" y="454" font-family="Inter,Arial,sans-serif" font-size="10" fill="#A0B8CC">IOC Enrichment Auto</text>
  <rect x="1250" y="443" width="68" height="16" rx="8" fill="rgba(39,174,96,0.3)"/>
  <text x="1263" y="455" font-family="Inter,Arial,sans-serif" font-size="10" fill="#27AE60">Active</text>
  <text x="1118" y="474" font-family="Inter,Arial,sans-serif" font-size="10" fill="#A0B8CC">Actor Attribution Flow</text>
  <rect x="1250" y="463" width="68" height="16" rx="8" fill="rgba(39,174,96,0.3)"/>
  <text x="1263" y="475" font-family="Inter,Arial,sans-serif" font-size="10" fill="#27AE60">Active</text>
  <text x="1118" y="494" font-family="Inter,Arial,sans-serif" font-size="10" fill="#A0B8CC">SIEM Alert Ingest</text>
  <rect x="1250" y="483" width="68" height="16" rx="8" fill="rgba(39,174,96,0.3)"/>
  <text x="1263" y="495" font-family="Inter,Arial,sans-serif" font-size="10" fill="#27AE60">Active</text>
  <text x="1118" y="514" font-family="Inter,Arial,sans-serif" font-size="10" fill="#A0B8CC">Threat Score Calc</text>
  <rect x="1250" y="503" width="68" height="16" rx="8" fill="rgba(39,174,96,0.3)"/>
  <text x="1263" y="515" font-family="Inter,Arial,sans-serif" font-size="10" fill="#27AE60">Active</text>
  <text x="1118" y="534" font-family="Inter,Arial,sans-serif" font-size="10" fill="#A0B8CC">STIX Export to TAXII</text>
  <rect x="1250" y="523" width="68" height="16" rx="8" fill="rgba(243,156,18,0.3)"/>
  <text x="1255" y="535" font-family="Inter,Arial,sans-serif" font-size="10" fill="#F39C12">Paused</text>
  <text x="1118" y="554" font-family="Inter,Arial,sans-serif" font-size="10" fill="#A0B8CC">Misp Sync</text>
  <rect x="1250" y="543" width="68" height="16" rx="8" fill="rgba(231,76,60,0.3)"/>
  <text x="1263" y="555" font-family="Inter,Arial,sans-serif" font-size="10" fill="#E74C3C">Error</text>

  <!-- Bottom section -->
  <!-- Intel Sources -->
  <rect x="16" y="582" width="400" height="230" rx="5" fill="#0A1628" stroke="#1E3A6B" stroke-width="1"/>
  <rect x="16" y="582" width="400" height="30" rx="5" fill="#0D1E38"/>
  <rect x="16" y="606" width="400" height="1" fill="#1E3A6B"/>
  <text x="28" y="602" font-family="Inter,Arial,sans-serif" font-size="12" font-weight="600" fill="white">Intelligence Sources</text>
  <!-- Source bars -->
  <text x="28" y="624" font-family="Inter,Arial,sans-serif" font-size="11" fill="#A0B8CC">OSINT / Open Source</text>
  <rect x="190" y="614" width="200" height="12" rx="3" fill="#1E3A6B"/>
  <rect x="190" y="614" width="180" height="12" rx="3" fill="#1E5EBC"/>
  <text x="394" y="625" font-family="Inter,Arial,sans-serif" font-size="9" fill="#4A7ACC">90%</text>

  <text x="28" y="646" font-family="Inter,Arial,sans-serif" font-size="11" fill="#A0B8CC">Commercial Feeds</text>
  <rect x="190" y="636" width="200" height="12" rx="3" fill="#1E3A6B"/>
  <rect x="190" y="636" width="150" height="12" rx="3" fill="#27AE60"/>
  <text x="394" y="647" font-family="Inter,Arial,sans-serif" font-size="9" fill="#4A7ACC">75%</text>

  <text x="28" y="668" font-family="Inter,Arial,sans-serif" font-size="11" fill="#A0B8CC">ISACs / ISAOs</text>
  <rect x="190" y="658" width="200" height="12" rx="3" fill="#1E3A6B"/>
  <rect x="190" y="658" width="120" height="12" rx="3" fill="#9B59B6"/>
  <text x="394" y="669" font-family="Inter,Arial,sans-serif" font-size="9" fill="#4A7ACC">60%</text>

  <text x="28" y="690" font-family="Inter,Arial,sans-serif" font-size="11" fill="#A0B8CC">Government / CERT</text>
  <rect x="190" y="680" width="200" height="12" rx="3" fill="#1E3A6B"/>
  <rect x="190" y="680" width="90" height="12" rx="3" fill="#F39C12"/>
  <text x="394" y="691" font-family="Inter,Arial,sans-serif" font-size="9" fill="#4A7ACC">45%</text>

  <text x="28" y="712" font-family="Inter,Arial,sans-serif" font-size="11" fill="#A0B8CC">Internal (SIEM/EDR)</text>
  <rect x="190" y="702" width="200" height="12" rx="3" fill="#1E3A6B"/>
  <rect x="190" y="702" width="70" height="12" rx="3" fill="#00BCD4"/>
  <text x="394" y="713" font-family="Inter,Arial,sans-serif" font-size="9" fill="#4A7ACC">35%</text>

  <text x="28" y="734" font-family="Inter,Arial,sans-serif" font-size="11" fill="#A0B8CC">Dark Web Monitoring</text>
  <rect x="190" y="724" width="200" height="12" rx="3" fill="#1E3A6B"/>
  <rect x="190" y="724" width="50" height="12" rx="3" fill="#E74C3C"/>
  <text x="394" y="735" font-family="Inter,Arial,sans-serif" font-size="9" fill="#4A7ACC">25%</text>

  <text x="28" y="756" font-family="Inter,Arial,sans-serif" font-size="11" fill="#A0B8CC">Threat Hunt Internal</text>
  <rect x="190" y="746" width="200" height="12" rx="3" fill="#1E3A6B"/>
  <rect x="190" y="746" width="30" height="12" rx="3" fill="#1E5EBC"/>
  <text x="394" y="757" font-family="Inter,Arial,sans-serif" font-size="9" fill="#4A7ACC">15%</text>

  <text x="28" y="778" font-family="Inter,Arial,sans-serif" font-size="11" fill="#A0B8CC">Partner Sharing</text>
  <rect x="190" y="768" width="200" height="12" rx="3" fill="#1E3A6B"/>
  <rect x="190" y="768" width="20" height="12" rx="3" fill="#4A7ACC"/>
  <text x="394" y="779" font-family="Inter,Arial,sans-serif" font-size="9" fill="#4A7ACC">10%</text>

  <!-- IOC Type breakdown -->
  <rect x="426" y="582" width="320" height="230" rx="5" fill="#0A1628" stroke="#1E3A6B" stroke-width="1"/>
  <rect x="426" y="582" width="320" height="30" rx="5" fill="#0D1E38"/>
  <rect x="426" y="606" width="320" height="1" fill="#1E3A6B"/>
  <text x="438" y="602" font-family="Inter,Arial,sans-serif" font-size="12" font-weight="600" fill="white">IOC Type Distribution</text>

  <!-- Donut chart -->
  <circle cx="546" cy="710" r="65" fill="none" stroke="#1E3A6B" stroke-width="24"/>
  <circle cx="546" cy="710" r="65" fill="none" stroke="#1E5EBC" stroke-width="24" stroke-dasharray="164 245" stroke-dashoffset="0" transform="rotate(-90 546 710)"/>
  <circle cx="546" cy="710" r="65" fill="none" stroke="#27AE60" stroke-width="24" stroke-dasharray="98 311" stroke-dashoffset="-164" transform="rotate(-90 546 710)"/>
  <circle cx="546" cy="710" r="65" fill="none" stroke="#9B59B6" stroke-width="24" stroke-dasharray="65 344" stroke-dashoffset="-262" transform="rotate(-90 546 710)"/>
  <circle cx="546" cy="710" r="65" fill="none" stroke="#F39C12" stroke-width="24" stroke-dasharray="49 360" stroke-dashoffset="-327" transform="rotate(-90 546 710)"/>
  <!-- Center -->
  <text x="546" y="706" font-family="Inter,Arial,sans-serif" font-size="18" font-weight="700" fill="white" text-anchor="middle">9,284</text>
  <text x="546" y="722" font-family="Inter,Arial,sans-serif" font-size="10" fill="#4A7ACC" text-anchor="middle">Total IOCs</text>
  <!-- Legend -->
  <rect x="630" y="645" width="10" height="10" rx="2" fill="#1E5EBC"/>
  <text x="644" y="655" font-family="Inter,Arial,sans-serif" font-size="11" fill="#A0B8CC">IP: 4,012 (43%)</text>
  <rect x="630" y="665" width="10" height="10" rx="2" fill="#27AE60"/>
  <text x="644" y="675" font-family="Inter,Arial,sans-serif" font-size="11" fill="#A0B8CC">Domain: 2,384</text>
  <rect x="630" y="685" width="10" height="10" rx="2" fill="#9B59B6"/>
  <text x="644" y="695" font-family="Inter,Arial,sans-serif" font-size="11" fill="#A0B8CC">Hash: 1,592</text>
  <rect x="630" y="705" width="10" height="10" rx="2" fill="#F39C12"/>
  <text x="644" y="715" font-family="Inter,Arial,sans-serif" font-size="11" fill="#A0B8CC">URL: 1,196</text>
  <rect x="630" y="725" width="10" height="10" rx="2" fill="#1E3A6B"/>
  <text x="644" y="735" font-family="Inter,Arial,sans-serif" font-size="11" fill="#A0B8CC">Email: 100</text>

  <!-- Campaign Intel -->
  <rect x="756" y="582" width="628" height="230" rx="5" fill="#0A1628" stroke="#1E3A6B" stroke-width="1"/>
  <rect x="756" y="582" width="628" height="30" rx="5" fill="#0D1E38"/>
  <rect x="756" y="606" width="628" height="1" fill="#1E3A6B"/>
  <text x="768" y="602" font-family="Inter,Arial,sans-serif" font-size="12" font-weight="600" fill="white">Active Campaign Intelligence</text>
  <!-- Campaign headers -->
  <rect x="756" y="607" width="628" height="20" fill="#070E1C"/>
  <text x="768" y="622" font-family="Inter,Arial,sans-serif" font-size="10" font-weight="600" fill="#4A7ACC">CAMPAIGN</text>
  <text x="940" y="622" font-family="Inter,Arial,sans-serif" font-size="10" font-weight="600" fill="#4A7ACC">ACTOR</text>
  <text x="1020" y="622" font-family="Inter,Arial,sans-serif" font-size="10" font-weight="600" fill="#4A7ACC">TECHNIQUE</text>
  <text x="1160" y="622" font-family="Inter,Arial,sans-serif" font-size="10" font-weight="600" fill="#4A7ACC">IOCs</text>
  <text x="1210" y="622" font-family="Inter,Arial,sans-serif" font-size="10" font-weight="600" fill="#4A7ACC">CONFIDENCE</text>
  <text x="1310" y="622" font-family="Inter,Arial,sans-serif" font-size="10" font-weight="600" fill="#4A7ACC">STATUS</text>

  <!-- Campaign rows -->
  <rect x="756" y="627" width="628" height="26" fill="#0A1628"/>
  <text x="768" y="644" font-family="Inter,Arial,sans-serif" font-size="11" fill="white">Operation Midnight Blizzard</text>
  <text x="940" y="644" font-family="Inter,Arial,sans-serif" font-size="11" fill="#A0B8CC">APT29</text>
  <text x="1020" y="644" font-family="Inter,Arial,sans-serif" font-size="11" fill="#A0B8CC">Spearphishing</text>
  <text x="1160" y="644" font-family="Inter,Arial,sans-serif" font-size="11" fill="#1E5EBC">847</text>
  <rect x="1206" y="633" width="80" height="11" rx="3" fill="#1E3A6B"/>
  <rect x="1206" y="633" width="76" height="11" rx="3" fill="#1E5EBC"/>
  <text x="1290" y="643" font-family="Inter,Arial,sans-serif" font-size="9" fill="#4A7ACC">95%</text>
  <rect x="1306" y="632" width="68" height="16" rx="8" fill="#E74C3C" opacity="0.8"/>
  <text x="1312" y="644" font-family="Inter,Arial,sans-serif" font-size="10" fill="white">Active</text>
  <rect x="756" y="653" width="628" height="1" fill="#0D1E38"/>

  <rect x="756" y="654" width="628" height="26" fill="#070E1C"/>
  <text x="768" y="671" font-family="Inter,Arial,sans-serif" font-size="11" fill="white">TraderTraitor Financial Heist</text>
  <text x="940" y="671" font-family="Inter,Arial,sans-serif" font-size="11" fill="#A0B8CC">Lazarus</text>
  <text x="1020" y="671" font-family="Inter,Arial,sans-serif" font-size="11" fill="#A0B8CC">Supply Chain</text>
  <text x="1160" y="671" font-family="Inter,Arial,sans-serif" font-size="11" fill="#1E5EBC">412</text>
  <rect x="1206" y="660" width="80" height="11" rx="3" fill="#1E3A6B"/>
  <rect x="1206" y="660" width="72" height="11" rx="3" fill="#1E5EBC"/>
  <text x="1290" y="670" font-family="Inter,Arial,sans-serif" font-size="9" fill="#4A7ACC">90%</text>
  <rect x="1306" y="659" width="68" height="16" rx="8" fill="#E74C3C" opacity="0.8"/>
  <text x="1312" y="671" font-family="Inter,Arial,sans-serif" font-size="10" fill="white">Active</text>
  <rect x="756" y="680" width="628" height="1" fill="#0D1E38"/>

  <rect x="756" y="681" width="628" height="26" fill="#0A1628"/>
  <text x="768" y="698" font-family="Inter,Arial,sans-serif" font-size="11" fill="white">LockBit 3.0 Healthcare Wave</text>
  <text x="940" y="698" font-family="Inter,Arial,sans-serif" font-size="11" fill="#A0B8CC">LockBit</text>
  <text x="1020" y="698" font-family="Inter,Arial,sans-serif" font-size="11" fill="#A0B8CC">Ransomware</text>
  <text x="1160" y="698" font-family="Inter,Arial,sans-serif" font-size="11" fill="#1E5EBC">291</text>
  <rect x="1206" y="687" width="80" height="11" rx="3" fill="#1E3A6B"/>
  <rect x="1206" y="687" width="62" height="11" rx="3" fill="#1E5EBC"/>
  <text x="1290" y="697" font-family="Inter,Arial,sans-serif" font-size="9" fill="#4A7ACC">78%</text>
  <rect x="1306" y="686" width="68" height="16" rx="8" fill="#E74C3C" opacity="0.8"/>
  <text x="1312" y="698" font-family="Inter,Arial,sans-serif" font-size="10" fill="white">Active</text>
  <rect x="756" y="707" width="628" height="1" fill="#0D1E38"/>

  <rect x="756" y="708" width="628" height="26" fill="#070E1C"/>
  <text x="768" y="725" font-family="Inter,Arial,sans-serif" font-size="11" fill="white">ICS/OT SCADA Targeting</text>
  <text x="940" y="725" font-family="Inter,Arial,sans-serif" font-size="11" fill="#A0B8CC">Sandworm</text>
  <text x="1020" y="725" font-family="Inter,Arial,sans-serif" font-size="11" fill="#A0B8CC">ICS Exploit</text>
  <text x="1160" y="725" font-family="Inter,Arial,sans-serif" font-size="11" fill="#1E5EBC">178</text>
  <rect x="1206" y="714" width="80" height="11" rx="3" fill="#1E3A6B"/>
  <rect x="1206" y="714" width="56" height="11" rx="3" fill="#1E5EBC"/>
  <text x="1290" y="724" font-family="Inter,Arial,sans-serif" font-size="9" fill="#4A7ACC">70%</text>
  <rect x="1306" y="713" width="68" height="16" rx="8" fill="#F39C12" opacity="0.8"/>
  <text x="1312" y="725" font-family="Inter,Arial,sans-serif" font-size="10" fill="white">Tracking</text>
  <rect x="756" y="734" width="628" height="1" fill="#0D1E38"/>

  <rect x="756" y="735" width="628" height="26" fill="#0A1628"/>
  <text x="768" y="752" font-family="Inter,Arial,sans-serif" font-size="11" fill="white">Scattered Spider Telecom Intrusion</text>
  <text x="940" y="752" font-family="Inter,Arial,sans-serif" font-size="11" fill="#A0B8CC">Scattered</text>
  <text x="1020" y="752" font-family="Inter,Arial,sans-serif" font-size="11" fill="#A0B8CC">Social Eng.</text>
  <text x="1160" y="752" font-family="Inter,Arial,sans-serif" font-size="11" fill="#1E5EBC">124</text>
  <rect x="1206" y="741" width="80" height="11" rx="3" fill="#1E3A6B"/>
  <rect x="1206" y="741" width="52" height="11" rx="3" fill="#1E5EBC"/>
  <text x="1290" y="751" font-family="Inter,Arial,sans-serif" font-size="9" fill="#4A7ACC">65%</text>
  <rect x="1306" y="740" width="68" height="16" rx="8" fill="#F39C12" opacity="0.8"/>
  <text x="1312" y="752" font-family="Inter,Arial,sans-serif" font-size="10" fill="white">Tracking</text>
  <rect x="756" y="761" width="628" height="1" fill="#0D1E38"/>

  <rect x="756" y="762" width="628" height="26" fill="#070E1C"/>
  <text x="768" y="779" font-family="Inter,Arial,sans-serif" font-size="11" fill="white">KRYPTONITE Backdoor Deployment</text>
  <text x="940" y="779" font-family="Inter,Arial,sans-serif" font-size="11" fill="#A0B8CC">Volt Typhoon</text>
  <text x="1020" y="779" font-family="Inter,Arial,sans-serif" font-size="11" fill="#A0B8CC">Living-off-land</text>
  <text x="1160" y="779" font-family="Inter,Arial,sans-serif" font-size="11" fill="#1E5EBC">93</text>
  <rect x="1206" y="768" width="80" height="11" rx="3" fill="#1E3A6B"/>
  <rect x="1206" y="768" width="74" height="11" rx="3" fill="#1E5EBC"/>
  <text x="1290" y="778" font-family="Inter,Arial,sans-serif" font-size="9" fill="#4A7ACC">93%</text>
  <rect x="1306" y="767" width="68" height="16" rx="8" fill="#E74C3C" opacity="0.8"/>
  <text x="1312" y="779" font-family="Inter,Arial,sans-serif" font-size="10" fill="white">Active</text>

  <!-- Footer -->
  <rect y="820" width="1400" height="32" fill="#030812"/>
  <rect y="820" width="1400" height="1" fill="#1E3A6B"/>
  <circle cx="20" cy="836" r="5" fill="#27AE60"/>
  <text x="32" y="841" font-family="Inter,Arial,sans-serif" font-size="11" fill="rgba(255,255,255,0.4)">ThreatConnect v7.3 | Connected: 84 Sources | STIX/TAXII Server: Active | Org: Global SecOps</text>
  <text x="1100" y="841" font-family="Inter,Arial,sans-serif" font-size="11" fill="rgba(255,255,255,0.4)">Intel Queue: 2,847 items | Analysts: 8 online | SLA: 94.2%</text>
</svg>
