<svg xmlns="http://www.w3.org/2000/svg" viewBox="0 0 1400 900" width="1400" height="900">
  <defs>
    <linearGradient id="bgGrad" x1="0" y1="0" x2="0" y2="1">
      <stop offset="0%" stop-color="#080C12"/>
      <stop offset="100%" stop-color="#0C1018"/>
    </linearGradient>
    <linearGradient id="hdrGrad" x1="0" y1="0" x2="1" y2="0">
      <stop offset="0%" stop-color="#0C1018"/>
      <stop offset="100%" stop-color="#101420"/>
    </linearGradient>
    <linearGradient id="areaRed" x1="0" y1="0" x2="0" y2="1">
      <stop offset="0%" stop-color="#CC0000" stop-opacity="0.4"/>
      <stop offset="100%" stop-color="#CC0000" stop-opacity="0"/>
    </linearGradient>
    <linearGradient id="areaGray" x1="0" y1="0" x2="0" y2="1">
      <stop offset="0%" stop-color="#888888" stop-opacity="0.2"/>
      <stop offset="100%" stop-color="#888888" stop-opacity="0"/>
    </linearGradient>
  </defs>

  <!-- Background -->
  <rect width="1400" height="900" fill="url(#bgGrad)"/>

  <!-- Top Nav -->
  <rect width="1400" height="52" fill="url(#hdrGrad)"/>
  <rect y="52" width="1400" height="1" fill="#CC0000" opacity="0.7"/>
  <!-- CrowdStrike branding -->
  <rect x="16" y="10" width="32" height="32" rx="3" fill="#CC0000"/>
  <text x="20" y="32" font-family="Arial Black,Arial,sans-serif" font-size="18" font-weight="900" fill="white">CS</text>
  <text x="56" y="34" font-family="Inter,Arial,sans-serif" font-size="17" font-weight="700" fill="white">CrowdStrike</text>
  <text x="180" y="34" font-family="Inter,Arial,sans-serif" font-size="11" fill="#FF6666">Falcon</text>
  <text x="222" y="34" font-family="Inter,Arial,sans-serif" font-size="11" fill="#888">|</text>
  <text x="232" y="34" font-family="Inter,Arial,sans-serif" font-size="11" fill="#FF6666">Identity Protection</text>
  <rect x="355" y="0" width="1" height="52" fill="rgba(255,255,255,0.07)"/>
  <!-- Nav -->
  <text x="372" y="32" font-family="Inter,Arial,sans-serif" font-size="12" fill="#FF6666">ITDR Dashboard</text>
  <text x="480" y="32" font-family="Inter,Arial,sans-serif" font-size="12" fill="rgba(255,255,255,0.4)">Identities</text>
  <text x="552" y="32" font-family="Inter,Arial,sans-serif" font-size="12" fill="rgba(255,255,255,0.4)">Incidents</text>
  <text x="624" y="32" font-family="Inter,Arial,sans-serif" font-size="12" fill="rgba(255,255,255,0.4)">Policies</text>
  <text x="688" y="32" font-family="Inter,Arial,sans-serif" font-size="12" fill="rgba(255,255,255,0.4)">Exposure</text>
  <text x="760" y="32" font-family="Inter,Arial,sans-serif" font-size="12" fill="rgba(255,255,255,0.4)">Reports</text>
  <!-- Right -->
  <text x="1200" y="32" font-family="Inter,Arial,sans-serif" font-size="11" fill="rgba(255,255,255,0.5)">Corp-Prod | US-GOV-1</text>
  <circle cx="1368" cy="26" r="14" fill="#1A0808"/>
  <text x="1361" y="31" font-family="Inter,Arial,sans-serif" font-size="12" fill="#CC0000">SA</text>

  <!-- Alert Banner -->
  <rect y="53" width="1400" height="26" fill="#1A0000"/>
  <rect y="53" width="4" height="26" fill="#CC0000"/>
  <text x="14" y="71" font-family="Inter,Arial,sans-serif" font-size="11" fill="#FF8888">IDENTITY ATTACK: Kerberoasting confirmed on DC-01 — Pass-the-Ticket detected from WKSTN-112 — 3 accounts compromised</text>
  <rect x="1280" y="57" width="100" height="18" rx="4" fill="#CC0000"/>
  <text x="1292" y="70" font-family="Inter,Arial,sans-serif" font-size="11" fill="white">Investigate Now</text>

  <!-- KPI Strip -->
  <rect y="79" width="1400" height="70" fill="#09101A"/>

  <!-- KPI 1 -->
  <rect x="16" y="85" width="148" height="57" rx="4" fill="#0C1018" stroke="#CC0000" stroke-width="1" stroke-opacity="0.4"/>
  <text x="24" y="101" font-family="Inter,Arial,sans-serif" font-size="9" fill="#FF6666">IDENTITY INCIDENTS</text>
  <text x="24" y="125" font-family="Inter,Arial,sans-serif" font-size="24" font-weight="700" fill="#CC0000">47</text>
  <text x="78" y="125" font-family="Inter,Arial,sans-serif" font-size="10" fill="#FF6666">▲ 12 new</text>
  <text x="24" y="136" font-family="Inter,Arial,sans-serif" font-size="9" fill="#888">Last 24h</text>

  <rect x="172" y="85" width="148" height="57" rx="4" fill="#0C1018" stroke="#1A2030" stroke-width="1"/>
  <text x="180" y="101" font-family="Inter,Arial,sans-serif" font-size="9" fill="#888">PROTECTED IDENTITIES</text>
  <text x="180" y="125" font-family="Inter,Arial,sans-serif" font-size="24" font-weight="700" fill="white">124,291</text>
  <text x="180" y="136" font-family="Inter,Arial,sans-serif" font-size="9" fill="#888">AD + Azure AD + LDAP</text>

  <rect x="328" y="85" width="148" height="57" rx="4" fill="#0C1018" stroke="#1A2030" stroke-width="1"/>
  <text x="336" y="101" font-family="Inter,Arial,sans-serif" font-size="9" fill="#888">PRIVILEGED ACCOUNTS</text>
  <text x="336" y="125" font-family="Inter,Arial,sans-serif" font-size="24" font-weight="700" fill="white">2,847</text>
  <text x="336" y="136" font-family="Inter,Arial,sans-serif" font-size="9" fill="#FF6666">347 high-risk</text>

  <rect x="484" y="85" width="148" height="57" rx="4" fill="#0C1018" stroke="#1A2030" stroke-width="1"/>
  <text x="492" y="101" font-family="Inter,Arial,sans-serif" font-size="9" fill="#888">CREDENTIAL EXPOSURES</text>
  <text x="492" y="125" font-family="Inter,Arial,sans-serif" font-size="24" font-weight="700" fill="#CC0000">1,247</text>
  <text x="492" y="136" font-family="Inter,Arial,sans-serif" font-size="9" fill="#CC0000">▲ 89 new</text>

  <rect x="640" y="85" width="148" height="57" rx="4" fill="#0C1018" stroke="#1A2030" stroke-width="1"/>
  <text x="648" y="101" font-family="Inter,Arial,sans-serif" font-size="9" fill="#888">LATERAL MOVEMENT</text>
  <text x="648" y="125" font-family="Inter,Arial,sans-serif" font-size="24" font-weight="700" fill="#CC0000">83</text>
  <text x="704" y="125" font-family="Inter,Arial,sans-serif" font-size="10" fill="#888">paths</text>
  <text x="648" y="136" font-family="Inter,Arial,sans-serif" font-size="9" fill="#CC0000">Active attacks</text>

  <rect x="796" y="85" width="148" height="57" rx="4" fill="#0C1018" stroke="#1A2030" stroke-width="1"/>
  <text x="804" y="101" font-family="Inter,Arial,sans-serif" font-size="9" fill="#888">AUTO-PREVENTED</text>
  <text x="804" y="125" font-family="Inter,Arial,sans-serif" font-size="24" font-weight="700" fill="#27AE60">4,127</text>
  <text x="804" y="136" font-family="Inter,Arial,sans-serif" font-size="9" fill="#27AE60">▲ 94.2% rate</text>

  <rect x="952" y="85" width="148" height="57" rx="4" fill="#0C1018" stroke="#1A2030" stroke-width="1"/>
  <text x="960" y="101" font-family="Inter,Arial,sans-serif" font-size="9" fill="#888">AD MISCONFIGS</text>
  <text x="960" y="125" font-family="Inter,Arial,sans-serif" font-size="24" font-weight="700" fill="#F39C12">312</text>
  <text x="960" y="136" font-family="Inter,Arial,sans-serif" font-size="9" fill="#F39C12">47 critical</text>

  <rect x="1108" y="85" width="148" height="57" rx="4" fill="#0C1018" stroke="#1A2030" stroke-width="1"/>
  <text x="1116" y="101" font-family="Inter,Arial,sans-serif" font-size="9" fill="#888">MFA BYPASS ATTEMPTS</text>
  <text x="1116" y="125" font-family="Inter,Arial,sans-serif" font-size="24" font-weight="700" fill="#CC0000">29</text>
  <text x="1155" y="125" font-family="Inter,Arial,sans-serif" font-size="10" fill="#888">today</text>
  <text x="1116" y="136" font-family="Inter,Arial,sans-serif" font-size="9" fill="#CC0000">▲ 9 last hour</text>

  <rect x="1264" y="85" width="120" height="57" rx="4" fill="#0C1018" stroke="#CC0000" stroke-width="1" stroke-opacity="0.5"/>
  <text x="1272" y="101" font-family="Inter,Arial,sans-serif" font-size="9" fill="#FF6666">IDENTITY RISK</text>
  <text x="1272" y="125" font-family="Inter,Arial,sans-serif" font-size="24" font-weight="700" fill="#CC0000">86</text>
  <text x="1306" y="125" font-family="Inter,Arial,sans-serif" font-size="12" fill="#888">/100</text>
  <text x="1272" y="136" font-family="Inter,Arial,sans-serif" font-size="9" fill="#CC0000">CRITICAL</text>

  <!-- Main Incidents Table -->
  <rect x="16" y="160" width="860" height="385" rx="5" fill="#0C1018" stroke="#1A2030" stroke-width="1"/>
  <rect x="16" y="160" width="860" height="32" rx="5" fill="#0D1520"/>
  <rect x="16" y="186" width="860" height="1" fill="#1A2030"/>
  <text x="28" y="182" font-family="Inter,Arial,sans-serif" font-size="13" font-weight="600" fill="white">Identity Threat Detections</text>
  <rect x="750" y="166" width="108" height="18" rx="9" fill="rgba(204,0,0,0.2)" stroke="#CC0000" stroke-width="1"/>
  <text x="758" y="179" font-family="Inter,Arial,sans-serif" font-size="10" fill="#FF6666">47 Active Threats</text>

  <!-- Table headers -->
  <rect x="16" y="187" width="860" height="22" fill="#080C12"/>
  <text x="28" y="203" font-family="Inter,Arial,sans-serif" font-size="10" font-weight="600" fill="#888">SEV</text>
  <text x="68" y="203" font-family="Inter,Arial,sans-serif" font-size="10" font-weight="600" fill="#888">DETECTION TYPE</text>
  <text x="248" y="203" font-family="Inter,Arial,sans-serif" font-size="10" font-weight="600" fill="#888">IDENTITY</text>
  <text x="380" y="203" font-family="Inter,Arial,sans-serif" font-size="10" font-weight="600" fill="#888">HOST</text>
  <text x="500" y="203" font-family="Inter,Arial,sans-serif" font-size="10" font-weight="600" fill="#888">TECHNIQUE</text>
  <text x="640" y="203" font-family="Inter,Arial,sans-serif" font-size="10" font-weight="600" fill="#888">STATUS</text>
  <text x="740" y="203" font-family="Inter,Arial,sans-serif" font-size="10" font-weight="600" fill="#888">TIME</text>
  <text x="800" y="203" font-family="Inter,Arial,sans-serif" font-size="10" font-weight="600" fill="#888">ACTION</text>

  <!-- Detection rows -->
  <!-- Row 1 -->
  <rect x="16" y="209" width="860" height="28" fill="#0C1018"/>
  <rect x="28" y="216" width="30" height="14" rx="7" fill="#8B0000"/>
  <text x="32" y="227" font-family="Inter,Arial,sans-serif" font-size="8" font-weight="700" fill="white">CRIT</text>
  <text x="68" y="227" font-family="Inter,Arial,sans-serif" font-size="12" fill="white">Kerberoasting Attack</text>
  <text x="248" y="227" font-family="Inter,Arial,sans-serif" font-size="11" fill="#AAC4EE">svc_sqlserver</text>
  <text x="380" y="227" font-family="Inter,Arial,sans-serif" font-size="11" fill="#888">WKSTN-112</text>
  <text x="500" y="227" font-family="Inter,Arial,sans-serif" font-size="11" fill="#FF8888">T1558.003</text>
  <rect x="634" y="215" width="76" height="16" rx="8" fill="rgba(204,0,0,0.3)"/>
  <text x="640" y="227" font-family="Inter,Arial,sans-serif" font-size="10" fill="#FF6666">In Progress</text>
  <text x="740" y="227" font-family="Inter,Arial,sans-serif" font-size="11" fill="#666">2m ago</text>
  <text x="800" y="227" font-family="Inter,Arial,sans-serif" font-size="11" fill="#CC0000">Contain</text>
  <rect x="16" y="237" width="860" height="1" fill="#1A2030"/>

  <!-- Row 2 -->
  <rect x="16" y="238" width="860" height="28" fill="#080C12"/>
  <rect x="28" y="245" width="30" height="14" rx="7" fill="#8B0000"/>
  <text x="32" y="256" font-family="Inter,Arial,sans-serif" font-size="8" font-weight="700" fill="white">CRIT</text>
  <text x="68" y="256" font-family="Inter,Arial,sans-serif" font-size="12" fill="white">Pass-the-Ticket</text>
  <text x="248" y="256" font-family="Inter,Arial,sans-serif" font-size="11" fill="#AAC4EE">admin.sosa</text>
  <text x="380" y="256" font-family="Inter,Arial,sans-serif" font-size="11" fill="#888">WKSTN-112</text>
  <text x="500" y="256" font-family="Inter,Arial,sans-serif" font-size="11" fill="#FF8888">T1550.003</text>
  <rect x="634" y="244" width="76" height="16" rx="8" fill="rgba(204,0,0,0.3)"/>
  <text x="640" y="256" font-family="Inter,Arial,sans-serif" font-size="10" fill="#FF6666">In Progress</text>
  <text x="740" y="256" font-family="Inter,Arial,sans-serif" font-size="11" fill="#666">5m ago</text>
  <text x="800" y="256" font-family="Inter,Arial,sans-serif" font-size="11" fill="#CC0000">Isolate</text>
  <rect x="16" y="266" width="860" height="1" fill="#1A2030"/>

  <!-- Row 3 -->
  <rect x="16" y="267" width="860" height="28" fill="#0C1018"/>
  <rect x="28" y="274" width="30" height="14" rx="7" fill="#8B0000"/>
  <text x="32" y="285" font-family="Inter,Arial,sans-serif" font-size="8" font-weight="700" fill="white">CRIT</text>
  <text x="68" y="285" font-family="Inter,Arial,sans-serif" font-size="12" fill="white">DCSync Attack Detected</text>
  <text x="248" y="285" font-family="Inter,Arial,sans-serif" font-size="11" fill="#AAC4EE">svc_backup</text>
  <text x="380" y="285" font-family="Inter,Arial,sans-serif" font-size="11" fill="#888">SRV-BACKUP-01</text>
  <text x="500" y="285" font-family="Inter,Arial,sans-serif" font-size="11" fill="#FF8888">T1003.006</text>
  <rect x="634" y="273" width="60" height="16" rx="8" fill="rgba(204,0,0,0.3)"/>
  <text x="640" y="285" font-family="Inter,Arial,sans-serif" font-size="10" fill="#FF6666">Blocked</text>
  <text x="740" y="285" font-family="Inter,Arial,sans-serif" font-size="11" fill="#666">8m ago</text>
  <text x="800" y="285" font-family="Inter,Arial,sans-serif" font-size="11" fill="#27AE60">Blocked</text>
  <rect x="16" y="295" width="860" height="1" fill="#1A2030"/>

  <!-- Row 4 -->
  <rect x="16" y="296" width="860" height="28" fill="#080C12"/>
  <rect x="28" y="303" width="30" height="14" rx="7" fill="#CC4400"/>
  <text x="32" y="314" font-family="Inter,Arial,sans-serif" font-size="8" font-weight="700" fill="white">HIGH</text>
  <text x="68" y="314" font-family="Inter,Arial,sans-serif" font-size="12" fill="white">Golden Ticket Attempt</text>
  <text x="248" y="314" font-family="Inter,Arial,sans-serif" font-size="11" fill="#AAC4EE">KRBTGT account</text>
  <text x="380" y="314" font-family="Inter,Arial,sans-serif" font-size="11" fill="#888">DC-01</text>
  <text x="500" y="314" font-family="Inter,Arial,sans-serif" font-size="11" fill="#FF8888">T1558.001</text>
  <rect x="634" y="302" width="68" height="16" rx="8" fill="rgba(204,68,0,0.3)"/>
  <text x="640" y="314" font-family="Inter,Arial,sans-serif" font-size="10" fill="#FF8844">Mitigated</text>
  <text x="740" y="314" font-family="Inter,Arial,sans-serif" font-size="11" fill="#666">12m ago</text>
  <text x="800" y="314" font-family="Inter,Arial,sans-serif" font-size="11" fill="#F39C12">Review</text>
  <rect x="16" y="324" width="860" height="1" fill="#1A2030"/>

  <!-- Row 5 -->
  <rect x="16" y="325" width="860" height="28" fill="#0C1018"/>
  <rect x="28" y="332" width="30" height="14" rx="7" fill="#CC4400"/>
  <text x="32" y="343" font-family="Inter,Arial,sans-serif" font-size="8" font-weight="700" fill="white">HIGH</text>
  <text x="68" y="343" font-family="Inter,Arial,sans-serif" font-size="12" fill="white">LDAP Recon on AD</text>
  <text x="248" y="343" font-family="Inter,Arial,sans-serif" font-size="11" fill="#AAC4EE">john.smith</text>
  <text x="380" y="343" font-family="Inter,Arial,sans-serif" font-size="11" fill="#888">WKSTN-047</text>
  <text x="500" y="343" font-family="Inter,Arial,sans-serif" font-size="11" fill="#FF8888">T1018</text>
  <rect x="634" y="331" width="76" height="16" rx="8" fill="rgba(204,0,0,0.3)"/>
  <text x="640" y="343" font-family="Inter,Arial,sans-serif" font-size="10" fill="#FF6666">In Progress</text>
  <text x="740" y="343" font-family="Inter,Arial,sans-serif" font-size="11" fill="#666">18m ago</text>
  <text x="800" y="343" font-family="Inter,Arial,sans-serif" font-size="11" fill="#CC0000">Monitor</text>
  <rect x="16" y="353" width="860" height="1" fill="#1A2030"/>

  <!-- Row 6 -->
  <rect x="16" y="354" width="860" height="28" fill="#080C12"/>
  <rect x="28" y="361" width="30" height="14" rx="7" fill="#CC4400"/>
  <text x="32" y="372" font-family="Inter,Arial,sans-serif" font-size="8" font-weight="700" fill="white">HIGH</text>
  <text x="68" y="372" font-family="Inter,Arial,sans-serif" font-size="12" fill="white">MFA Bypass - OTP Intercept</text>
  <text x="248" y="372" font-family="Inter,Arial,sans-serif" font-size="11" fill="#AAC4EE">cfo.williams</text>
  <text x="380" y="372" font-family="Inter,Arial,sans-serif" font-size="11" fill="#888">ext-105.x.x</text>
  <text x="500" y="372" font-family="Inter,Arial,sans-serif" font-size="11" fill="#FF8888">T1111</text>
  <rect x="634" y="360" width="60" height="16" rx="8" fill="rgba(204,0,0,0.3)"/>
  <text x="640" y="372" font-family="Inter,Arial,sans-serif" font-size="10" fill="#FF6666">Blocked</text>
  <text x="740" y="372" font-family="Inter,Arial,sans-serif" font-size="11" fill="#666">24m ago</text>
  <text x="800" y="372" font-family="Inter,Arial,sans-serif" font-size="11" fill="#27AE60">Blocked</text>
  <rect x="16" y="382" width="860" height="1" fill="#1A2030"/>

  <!-- Row 7 -->
  <rect x="16" y="383" width="860" height="28" fill="#0C1018"/>
  <rect x="28" y="390" width="30" height="14" rx="7" fill="#CC4400"/>
  <text x="32" y="401" font-family="Inter,Arial,sans-serif" font-size="8" font-weight="700" fill="white">HIGH</text>
  <text x="68" y="401" font-family="Inter,Arial,sans-serif" font-size="12" fill="white">Anomalous Admin Login</text>
  <text x="248" y="401" font-family="Inter,Arial,sans-serif" font-size="11" fill="#AAC4EE">domain\administrator</text>
  <text x="380" y="401" font-family="Inter,Arial,sans-serif" font-size="11" fill="#888">Remote (VPN)</text>
  <text x="500" y="401" font-family="Inter,Arial,sans-serif" font-size="11" fill="#FF8888">T1078.002</text>
  <rect x="634" y="389" width="76" height="16" rx="8" fill="rgba(243,156,18,0.3)"/>
  <text x="640" y="401" font-family="Inter,Arial,sans-serif" font-size="10" fill="#F39C12">Reviewing</text>
  <text x="740" y="401" font-family="Inter,Arial,sans-serif" font-size="11" fill="#666">31m ago</text>
  <text x="800" y="401" font-family="Inter,Arial,sans-serif" font-size="11" fill="#F39C12">Verify</text>
  <rect x="16" y="411" width="860" height="1" fill="#1A2030"/>

  <!-- Row 8 -->
  <rect x="16" y="412" width="860" height="28" fill="#080C12"/>
  <rect x="28" y="419" width="30" height="14" rx="7" fill="#0055AA"/>
  <text x="31" y="430" font-family="Inter,Arial,sans-serif" font-size="8" font-weight="700" fill="white">MED</text>
  <text x="68" y="430" font-family="Inter,Arial,sans-serif" font-size="12" fill="white">Stale Admin Account Use</text>
  <text x="248" y="430" font-family="Inter,Arial,sans-serif" font-size="11" fill="#AAC4EE">svc_legacy_app</text>
  <text x="380" y="430" font-family="Inter,Arial,sans-serif" font-size="11" fill="#888">APP-SRV-07</text>
  <text x="500" y="430" font-family="Inter,Arial,sans-serif" font-size="11" fill="#888">T1078</text>
  <rect x="634" y="418" width="76" height="16" rx="8" fill="rgba(243,156,18,0.3)"/>
  <text x="640" y="430" font-family="Inter,Arial,sans-serif" font-size="10" fill="#F39C12">Reviewing</text>
  <text x="740" y="430" font-family="Inter,Arial,sans-serif" font-size="11" fill="#666">42m ago</text>
  <text x="800" y="430" font-family="Inter,Arial,sans-serif" font-size="11" fill="#888">Review</text>
  <rect x="16" y="440" width="860" height="1" fill="#1A2030"/>

  <!-- Row 9 -->
  <rect x="16" y="441" width="860" height="28" fill="#0C1018"/>
  <rect x="28" y="448" width="30" height="14" rx="7" fill="#0055AA"/>
  <text x="31" y="459" font-family="Inter,Arial,sans-serif" font-size="8" font-weight="700" fill="white">MED</text>
  <text x="68" y="459" font-family="Inter,Arial,sans-serif" font-size="12" fill="white">Password Spray Detection</text>
  <text x="248" y="459" font-family="Inter,Arial,sans-serif" font-size="11" fill="#AAC4EE">Multiple (47 accts)</text>
  <text x="380" y="459" font-family="Inter,Arial,sans-serif" font-size="11" fill="#888">ext-203.x.x.x</text>
  <text x="500" y="459" font-family="Inter,Arial,sans-serif" font-size="11" fill="#888">T1110.003</text>
  <rect x="634" y="447" width="60" height="16" rx="8" fill="rgba(204,0,0,0.3)"/>
  <text x="640" y="459" font-family="Inter,Arial,sans-serif" font-size="10" fill="#FF6666">Blocked</text>
  <text x="740" y="459" font-family="Inter,Arial,sans-serif" font-size="11" fill="#666">1h ago</text>
  <text x="800" y="459" font-family="Inter,Arial,sans-serif" font-size="11" fill="#27AE60">Blocked</text>
  <rect x="16" y="469" width="860" height="1" fill="#1A2030"/>

  <!-- Row 10 -->
  <rect x="16" y="470" width="860" height="28" fill="#080C12"/>
  <rect x="28" y="477" width="30" height="14" rx="7" fill="#0055AA"/>
  <text x="31" y="488" font-family="Inter,Arial,sans-serif" font-size="8" font-weight="700" fill="white">MED</text>
  <text x="68" y="488" font-family="Inter,Arial,sans-serif" font-size="12" fill="white">SPN Enumeration</text>
  <text x="248" y="488" font-family="Inter,Arial,sans-serif" font-size="11" fill="#AAC4EE">jane.doe</text>
  <text x="380" y="488" font-family="Inter,Arial,sans-serif" font-size="11" fill="#888">WKSTN-033</text>
  <text x="500" y="488" font-family="Inter,Arial,sans-serif" font-size="11" fill="#888">T1558.003</text>
  <rect x="634" y="476" width="76" height="16" rx="8" fill="rgba(243,156,18,0.3)"/>
  <text x="640" y="488" font-family="Inter,Arial,sans-serif" font-size="10" fill="#F39C12">Reviewing</text>
  <text x="740" y="488" font-family="Inter,Arial,sans-serif" font-size="11" fill="#666">1h ago</text>
  <text x="800" y="488" font-family="Inter,Arial,sans-serif" font-size="11" fill="#888">Monitor</text>
  <rect x="16" y="498" width="860" height="1" fill="#1A2030"/>

  <!-- Row 11 -->
  <rect x="16" y="499" width="860" height="28" fill="#0C1018"/>
  <rect x="28" y="506" width="30" height="14" rx="7" fill="#1A4D1A"/>
  <text x="31" y="517" font-family="Inter,Arial,sans-serif" font-size="8" font-weight="700" fill="white">LOW</text>
  <text x="68" y="517" font-family="Inter,Arial,sans-serif" font-size="12" fill="white">Privilege Escalation - Attempt</text>
  <text x="248" y="517" font-family="Inter,Arial,sans-serif" font-size="11" fill="#AAC4EE">mark.jones</text>
  <text x="380" y="517" font-family="Inter,Arial,sans-serif" font-size="11" fill="#888">DEV-PC-22</text>
  <text x="500" y="517" font-family="Inter,Arial,sans-serif" font-size="11" fill="#888">T1548</text>
  <rect x="634" y="505" width="60" height="16" rx="8" fill="rgba(204,0,0,0.3)"/>
  <text x="640" y="517" font-family="Inter,Arial,sans-serif" font-size="10" fill="#FF6666">Blocked</text>
  <text x="740" y="517" font-family="Inter,Arial,sans-serif" font-size="11" fill="#666">2h ago</text>
  <text x="800" y="517" font-family="Inter,Arial,sans-serif" font-size="11" fill="#27AE60">Blocked</text>
  <rect x="16" y="527" width="860" height="1" fill="#1A2030"/>

  <!-- Row 12 -->
  <rect x="16" y="528" width="860" height="28" fill="#080C12"/>
  <rect x="28" y="535" width="30" height="14" rx="7" fill="#1A4D1A"/>
  <text x="31" y="546" font-family="Inter,Arial,sans-serif" font-size="8" font-weight="700" fill="white">LOW</text>
  <text x="68" y="546" font-family="Inter,Arial,sans-serif" font-size="12" fill="white">Forged SAML Token</text>
  <text x="248" y="546" font-family="Inter,Arial,sans-serif" font-size="11" fill="#AAC4EE">svc_saml_apps</text>
  <text x="380" y="546" font-family="Inter,Arial,sans-serif" font-size="11" fill="#888">Azure SSO</text>
  <text x="500" y="546" font-family="Inter,Arial,sans-serif" font-size="11" fill="#888">T1606.002</text>
  <rect x="634" y="534" width="76" height="16" rx="8" fill="rgba(243,156,18,0.3)"/>
  <text x="640" y="546" font-family="Inter,Arial,sans-serif" font-size="10" fill="#F39C12">Reviewing</text>
  <text x="740" y="546" font-family="Inter,Arial,sans-serif" font-size="11" fill="#666">3h ago</text>
  <text x="800" y="546" font-family="Inter,Arial,sans-serif" font-size="11" fill="#888">Review</text>

  <!-- Right panels -->
  <!-- Identity Risk Trend -->
  <rect x="886" y="160" width="498" height="200" rx="5" fill="#0C1018" stroke="#1A2030" stroke-width="1"/>
  <rect x="886" y="160" width="498" height="30" rx="5" fill="#0D1520"/>
  <rect x="886" y="184" width="498" height="1" fill="#1A2030"/>
  <text x="898" y="180" font-family="Inter,Arial,sans-serif" font-size="12" font-weight="600" fill="white">Identity Risk Trend (24h)</text>
  <!-- Chart -->
  <rect x="896" y="192" width="478" height="120" rx="3" fill="#080C12"/>
  <line x1="900" y1="205" x2="1374" y2="205" stroke="#1A2030" stroke-width="1"/>
  <line x1="900" y1="225" x2="1374" y2="225" stroke="#1A2030" stroke-width="1"/>
  <line x1="900" y1="245" x2="1374" y2="245" stroke="#1A2030" stroke-width="1"/>
  <line x1="900" y1="265" x2="1374" y2="265" stroke="#1A2030" stroke-width="1"/>
  <line x1="900" y1="285" x2="1374" y2="285" stroke="#1A2030" stroke-width="1"/>
  <line x1="900" y1="305" x2="1374" y2="305" stroke="#1A2030" stroke-width="1"/>
  <!-- Area -->
  <polygon points="900,300 930,295 960,290 990,285 1020,278 1050,270 1080,262 1110,255 1140,248 1170,240 1200,235 1230,228 1260,222 1290,215 1320,210 1350,204 1374,200 1374,308 900,308" fill="url(#areaRed)"/>
  <polyline points="900,298 930,293 960,288 990,283 1020,276 1050,268 1080,260 1110,253 1140,246 1170,238 1200,233 1230,226 1260,220 1290,213 1320,208 1350,202 1374,198" fill="none" stroke="#CC0000" stroke-width="2"/>
  <!-- Prevented line -->
  <polyline points="900,302 930,299 960,296 990,293 1020,288 1050,282 1080,276 1110,270 1140,265 1170,258 1200,254 1230,248 1260,243 1290,238 1320,234 1350,229 1374,226" fill="none" stroke="#27AE60" stroke-width="1.5" stroke-dasharray="4,2"/>
  <!-- Y labels -->
  <text x="894" y="208" font-family="Inter,Arial,sans-serif" font-size="8" fill="#888" text-anchor="end">100</text>
  <text x="894" y="248" font-family="Inter,Arial,sans-serif" font-size="8" fill="#888" text-anchor="end">60</text>
  <text x="894" y="288" font-family="Inter,Arial,sans-serif" font-size="8" fill="#888" text-anchor="end">20</text>
  <!-- Legend -->
  <line x1="900" y1="320" x2="920" y2="320" stroke="#CC0000" stroke-width="2"/>
  <text x="924" y="324" font-family="Inter,Arial,sans-serif" font-size="10" fill="#888">Identity Risk</text>
  <line x1="1010" y1="320" x2="1030" y2="320" stroke="#27AE60" stroke-width="2" stroke-dasharray="4,2"/>
  <text x="1034" y="324" font-family="Inter,Arial,sans-serif" font-size="10" fill="#888">Auto-Prevented</text>

  <!-- Attack Technique Breakdown -->
  <rect x="886" y="370" width="242" height="175" rx="5" fill="#0C1018" stroke="#1A2030" stroke-width="1"/>
  <rect x="886" y="370" width="242" height="28" rx="5" fill="#0D1520"/>
  <rect x="886" y="392" width="242" height="1" fill="#1A2030"/>
  <text x="898" y="387" font-family="Inter,Arial,sans-serif" font-size="12" font-weight="600" fill="white">Top Attack Techniques</text>
  <!-- Bars -->
  <text x="898" y="410" font-family="Inter,Arial,sans-serif" font-size="10" fill="#888">Kerberoasting</text>
  <rect x="1010" y="401" width="100" height="11" rx="3" fill="#1A2030"/>
  <rect x="1010" y="401" width="90" height="11" rx="3" fill="#CC0000"/>
  <text x="1114" y="411" font-family="Inter,Arial,sans-serif" font-size="9" fill="#888">34</text>

  <text x="898" y="430" font-family="Inter,Arial,sans-serif" font-size="10" fill="#888">PtH / PtT</text>
  <rect x="1010" y="421" width="100" height="11" rx="3" fill="#1A2030"/>
  <rect x="1010" y="421" width="76" height="11" rx="3" fill="#CC0000"/>
  <text x="1114" y="431" font-family="Inter,Arial,sans-serif" font-size="9" fill="#888">28</text>

  <text x="898" y="450" font-family="Inter,Arial,sans-serif" font-size="10" fill="#888">DCSync</text>
  <rect x="1010" y="441" width="100" height="11" rx="3" fill="#1A2030"/>
  <rect x="1010" y="441" width="56" height="11" rx="3" fill="#F39C12"/>
  <text x="1114" y="451" font-family="Inter,Arial,sans-serif" font-size="9" fill="#888">21</text>

  <text x="898" y="470" font-family="Inter,Arial,sans-serif" font-size="10" fill="#888">Credential Dump</text>
  <rect x="1010" y="461" width="100" height="11" rx="3" fill="#1A2030"/>
  <rect x="1010" y="461" width="42" height="11" rx="3" fill="#F39C12"/>
  <text x="1114" y="471" font-family="Inter,Arial,sans-serif" font-size="9" fill="#888">16</text>

  <text x="898" y="490" font-family="Inter,Arial,sans-serif" font-size="10" fill="#888">Golden/Silver Ticket</text>
  <rect x="1010" y="481" width="100" height="11" rx="3" fill="#1A2030"/>
  <rect x="1010" y="481" width="30" height="11" rx="3" fill="#9B59B6"/>
  <text x="1114" y="491" font-family="Inter,Arial,sans-serif" font-size="9" fill="#888">11</text>

  <text x="898" y="510" font-family="Inter,Arial,sans-serif" font-size="10" fill="#888">MFA Bypass</text>
  <rect x="1010" y="501" width="100" height="11" rx="3" fill="#1A2030"/>
  <rect x="1010" y="501" width="20" height="11" rx="3" fill="#4A7ACC"/>
  <text x="1114" y="511" font-family="Inter,Arial,sans-serif" font-size="9" fill="#888">8</text>

  <text x="898" y="530" font-family="Inter,Arial,sans-serif" font-size="10" fill="#888">Password Spray</text>
  <rect x="1010" y="521" width="100" height="11" rx="3" fill="#1A2030"/>
  <rect x="1010" y="521" width="14" height="11" rx="3" fill="#27AE60"/>
  <text x="1114" y="531" font-family="Inter,Arial,sans-serif" font-size="9" fill="#888">5</text>

  <!-- AD Misconfiguration Panel -->
  <rect x="1136" y="370" width="248" height="175" rx="5" fill="#0C1018" stroke="#1A2030" stroke-width="1"/>
  <rect x="1136" y="370" width="248" height="28" rx="5" fill="#0D1520"/>
  <rect x="1136" y="392" width="248" height="1" fill="#1A2030"/>
  <text x="1148" y="387" font-family="Inter,Arial,sans-serif" font-size="12" font-weight="600" fill="white">AD Exposure Assessment</text>
  <!-- Misconfig list -->
  <text x="1148" y="410" font-family="Inter,Arial,sans-serif" font-size="10" fill="#AAC4EE">Domain Admin count</text>
  <text x="1300" y="410" font-family="Inter,Arial,sans-serif" font-size="10" fill="#CC0000" font-weight="700">47 (HIGH)</text>

  <text x="1148" y="430" font-family="Inter,Arial,sans-serif" font-size="10" fill="#AAC4EE">Kerberoastable SPNs</text>
  <text x="1300" y="430" font-family="Inter,Arial,sans-serif" font-size="10" fill="#CC0000" font-weight="700">312</text>

  <text x="1148" y="450" font-family="Inter,Arial,sans-serif" font-size="10" fill="#AAC4EE">Accounts w/ no MFA</text>
  <text x="1300" y="450" font-family="Inter,Arial,sans-serif" font-size="10" fill="#F39C12" font-weight="700">4,127</text>

  <text x="1148" y="470" font-family="Inter,Arial,sans-serif" font-size="10" fill="#AAC4EE">Stale Admin Accounts</text>
  <text x="1300" y="470" font-family="Inter,Arial,sans-serif" font-size="10" fill="#F39C12" font-weight="700">234</text>

  <text x="1148" y="490" font-family="Inter,Arial,sans-serif" font-size="10" fill="#AAC4EE">Unconstrained Deleg.</text>
  <text x="1300" y="490" font-family="Inter,Arial,sans-serif" font-size="10" fill="#CC0000" font-weight="700">18</text>

  <text x="1148" y="510" font-family="Inter,Arial,sans-serif" font-size="10" fill="#AAC4EE">PW Never Expires</text>
  <text x="1300" y="510" font-family="Inter,Arial,sans-serif" font-size="10" fill="#F39C12" font-weight="700">1,847</text>

  <text x="1148" y="530" font-family="Inter,Arial,sans-serif" font-size="10" fill="#AAC4EE">AdminSDHolder abuse</text>
  <text x="1300" y="530" font-family="Inter,Arial,sans-serif" font-size="10" fill="#CC0000" font-weight="700">7</text>

  <!-- Bottom section -->
  <!-- High-Risk Identity Watchlist -->
  <rect x="16" y="557" width="560" height="260" rx="5" fill="#0C1018" stroke="#1A2030" stroke-width="1"/>
  <rect x="16" y="557" width="560" height="30" rx="5" fill="#0D1520"/>
  <rect x="16" y="581" width="560" height="1" fill="#1A2030"/>
  <text x="28" y="577" font-family="Inter,Arial,sans-serif" font-size="12" font-weight="600" fill="white">High-Risk Identity Watchlist</text>
  <!-- Headers -->
  <rect x="16" y="582" width="560" height="20" fill="#080C12"/>
  <text x="28" y="597" font-family="Inter,Arial,sans-serif" font-size="10" font-weight="600" fill="#888">IDENTITY</text>
  <text x="170" y="597" font-family="Inter,Arial,sans-serif" font-size="10" font-weight="600" fill="#888">DEPT</text>
  <text x="240" y="597" font-family="Inter,Arial,sans-serif" font-size="10" font-weight="600" fill="#888">RISK SCORE</text>
  <text x="360" y="597" font-family="Inter,Arial,sans-serif" font-size="10" font-weight="600" fill="#888">TRIGGERS</text>
  <text x="490" y="597" font-family="Inter,Arial,sans-serif" font-size="10" font-weight="600" fill="#888">STATUS</text>

  <!-- Identity rows -->
  <rect x="16" y="602" width="560" height="25" fill="#0C1018"/>
  <text x="28" y="619" font-family="Inter,Arial,sans-serif" font-size="11" fill="white">svc_sqlserver</text>
  <text x="170" y="619" font-family="Inter,Arial,sans-serif" font-size="11" fill="#888">IT/Infra</text>
  <rect x="236" y="607" width="90" height="14" rx="3" fill="#1A0000"/>
  <rect x="236" y="607" width="88" height="14" rx="3" fill="#CC0000"/>
  <text x="330" y="619" font-family="Inter,Arial,sans-serif" font-size="9" fill="#888">98</text>
  <text x="360" y="619" font-family="Inter,Arial,sans-serif" font-size="10" fill="#FF8888">Kerber+PtT+DCSync</text>
  <rect x="485" y="606" width="82" height="16" rx="8" fill="rgba(204,0,0,0.3)"/>
  <text x="491" y="618" font-family="Inter,Arial,sans-serif" font-size="10" fill="#CC0000">Compromised</text>
  <rect x="16" y="627" width="560" height="1" fill="#1A2030"/>

  <rect x="16" y="628" width="560" height="25" fill="#080C12"/>
  <text x="28" y="645" font-family="Inter,Arial,sans-serif" font-size="11" fill="white">admin.sosa</text>
  <text x="170" y="645" font-family="Inter,Arial,sans-serif" font-size="11" fill="#888">IT/Ops</text>
  <rect x="236" y="633" width="90" height="14" rx="3" fill="#1A0000"/>
  <rect x="236" y="633" width="86" height="14" rx="3" fill="#CC0000"/>
  <text x="330" y="645" font-family="Inter,Arial,sans-serif" font-size="9" fill="#888">96</text>
  <text x="360" y="645" font-family="Inter,Arial,sans-serif" font-size="10" fill="#FF8888">PtT+Lat.Mvmt</text>
  <rect x="485" y="632" width="82" height="16" rx="8" fill="rgba(204,0,0,0.3)"/>
  <text x="491" y="644" font-family="Inter,Arial,sans-serif" font-size="10" fill="#CC0000">Compromised</text>
  <rect x="16" y="653" width="560" height="1" fill="#1A2030"/>

  <rect x="16" y="654" width="560" height="25" fill="#0C1018"/>
  <text x="28" y="671" font-family="Inter,Arial,sans-serif" font-size="11" fill="white">cfo.williams</text>
  <text x="170" y="671" font-family="Inter,Arial,sans-serif" font-size="11" fill="#888">Finance</text>
  <rect x="236" y="659" width="90" height="14" rx="3" fill="#1A0000"/>
  <rect x="236" y="659" width="74" height="14" rx="3" fill="#CC4400"/>
  <text x="330" y="671" font-family="Inter,Arial,sans-serif" font-size="9" fill="#888">82</text>
  <text x="360" y="671" font-family="Inter,Arial,sans-serif" font-size="10" fill="#FF8888">MFA Bypass</text>
  <rect x="485" y="658" width="72" height="16" rx="8" fill="rgba(204,68,0,0.3)"/>
  <text x="491" y="670" font-family="Inter,Arial,sans-serif" font-size="10" fill="#FF8844">At Risk</text>
  <rect x="16" y="679" width="560" height="1" fill="#1A2030"/>

  <rect x="16" y="680" width="560" height="25" fill="#080C12"/>
  <text x="28" y="697" font-family="Inter,Arial,sans-serif" font-size="11" fill="white">domain\administrator</text>
  <text x="170" y="697" font-family="Inter,Arial,sans-serif" font-size="11" fill="#888">IT Admin</text>
  <rect x="236" y="685" width="90" height="14" rx="3" fill="#1A0000"/>
  <rect x="236" y="685" width="66" height="14" rx="3" fill="#CC4400"/>
  <text x="330" y="697" font-family="Inter,Arial,sans-serif" font-size="9" fill="#888">74</text>
  <text x="360" y="697" font-family="Inter,Arial,sans-serif" font-size="10" fill="#FF8888">Anomalous Login</text>
  <rect x="485" y="684" width="72" height="16" rx="8" fill="rgba(204,68,0,0.3)"/>
  <text x="491" y="696" font-family="Inter,Arial,sans-serif" font-size="10" fill="#FF8844">Watchlist</text>
  <rect x="16" y="705" width="560" height="1" fill="#1A2030"/>

  <rect x="16" y="706" width="560" height="25" fill="#0C1018"/>
  <text x="28" y="723" font-family="Inter,Arial,sans-serif" font-size="11" fill="white">svc_backup</text>
  <text x="170" y="723" font-family="Inter,Arial,sans-serif" font-size="11" fill="#888">IT/Backup</text>
  <rect x="236" y="711" width="90" height="14" rx="3" fill="#1A0000"/>
  <rect x="236" y="711" width="84" height="14" rx="3" fill="#CC0000"/>
  <text x="330" y="723" font-family="Inter,Arial,sans-serif" font-size="9" fill="#888">93</text>
  <text x="360" y="723" font-family="Inter,Arial,sans-serif" font-size="10" fill="#FF8888">DCSync + PrivEsc</text>
  <rect x="485" y="710" width="82" height="16" rx="8" fill="rgba(204,0,0,0.3)"/>
  <text x="491" y="722" font-family="Inter,Arial,sans-serif" font-size="10" fill="#CC0000">Compromised</text>
  <rect x="16" y="731" width="560" height="1" fill="#1A2030"/>

  <rect x="16" y="732" width="560" height="25" fill="#080C12"/>
  <text x="28" y="749" font-family="Inter,Arial,sans-serif" font-size="11" fill="white">john.smith</text>
  <text x="170" y="749" font-family="Inter,Arial,sans-serif" font-size="11" fill="#888">Engineering</text>
  <rect x="236" y="737" width="90" height="14" rx="3" fill="#1A0000"/>
  <rect x="236" y="737" width="58" height="14" rx="3" fill="#F39C12"/>
  <text x="330" y="749" font-family="Inter,Arial,sans-serif" font-size="9" fill="#888">64</text>
  <text x="360" y="749" font-family="Inter,Arial,sans-serif" font-size="10" fill="#888">LDAP Enum</text>
  <rect x="485" y="736" width="72" height="16" rx="8" fill="rgba(243,156,18,0.3)"/>
  <text x="491" y="748" font-family="Inter,Arial,sans-serif" font-size="10" fill="#F39C12">Monitoring</text>
  <rect x="16" y="757" width="560" height="1" fill="#1A2030"/>

  <rect x="16" y="758" width="560" height="25" fill="#0C1018"/>
  <text x="28" y="775" font-family="Inter,Arial,sans-serif" font-size="11" fill="white">svc_legacy_app</text>
  <text x="170" y="775" font-family="Inter,Arial,sans-serif" font-size="11" fill="#888">IT/Apps</text>
  <rect x="236" y="763" width="90" height="14" rx="3" fill="#1A0000"/>
  <rect x="236" y="763" width="50" height="14" rx="3" fill="#F39C12"/>
  <text x="330" y="775" font-family="Inter,Arial,sans-serif" font-size="9" fill="#888">56</text>
  <text x="360" y="775" font-family="Inter,Arial,sans-serif" font-size="10" fill="#888">Stale Account Use</text>
  <rect x="485" y="762" width="72" height="16" rx="8" fill="rgba(243,156,18,0.3)"/>
  <text x="491" y="774" font-family="Inter,Arial,sans-serif" font-size="10" fill="#F39C12">Review</text>
  <rect x="16" y="783" width="560" height="1" fill="#1A2030"/>

  <rect x="16" y="784" width="560" height="25" fill="#080C12"/>
  <text x="28" y="801" font-family="Inter,Arial,sans-serif" font-size="11" fill="white">KRBTGT</text>
  <text x="170" y="801" font-family="Inter,Arial,sans-serif" font-size="11" fill="#888">AD Service</text>
  <rect x="236" y="789" width="90" height="14" rx="3" fill="#1A0000"/>
  <rect x="236" y="789" width="88" height="14" rx="3" fill="#CC0000"/>
  <text x="330" y="801" font-family="Inter,Arial,sans-serif" font-size="9" fill="#888">97</text>
  <text x="360" y="801" font-family="Inter,Arial,sans-serif" font-size="10" fill="#FF8888">Golden Ticket Target</text>
  <rect x="485" y="788" width="82" height="16" rx="8" fill="rgba(204,0,0,0.3)"/>
  <text x="491" y="800" font-family="Inter,Arial,sans-serif" font-size="10" fill="#CC0000">Reset NOW!</text>

  <!-- Right: Lateral Movement Map + Response Panel -->
  <rect x="586" y="557" width="560" height="260" rx="5" fill="#0C1018" stroke="#1A2030" stroke-width="1"/>
  <rect x="586" y="557" width="560" height="30" rx="5" fill="#0D1520"/>
  <rect x="586" y="581" width="560" height="1" fill="#1A2030"/>
  <text x="598" y="577" font-family="Inter,Arial,sans-serif" font-size="12" font-weight="600" fill="white">Lateral Movement Path Graph</text>
  <rect x="1020" y="562" width="110" height="16" rx="8" fill="rgba(204,0,0,0.2)" stroke="#CC0000" stroke-width="1"/>
  <text x="1028" y="574" font-family="Inter,Arial,sans-serif" font-size="10" fill="#FF6666">3 Active Paths</text>

  <!-- Node graph -->
  <!-- Attacker node -->
  <circle cx="630" cy="660" r="26" fill="#1A0000" stroke="#CC0000" stroke-width="2"/>
  <text x="617" y="658" font-family="Inter,Arial,sans-serif" font-size="9" fill="#FF6666" font-weight="700">ATTACKER</text>
  <text x="624" y="670" font-family="Inter,Arial,sans-serif" font-size="8" fill="#888">WKSTN-112</text>

  <!-- DC Node -->
  <circle cx="830" cy="620" r="28" fill="#200000" stroke="#CC0000" stroke-width="2.5"/>
  <text x="820" y="618" font-family="Inter,Arial,sans-serif" font-size="9" fill="#FF6666" font-weight="700">DC-01</text>
  <text x="814" y="630" font-family="Inter,Arial,sans-serif" font-size="8" fill="#CC0000">Kerber.</text>

  <!-- File Server -->
  <circle cx="1010" cy="650" r="24" fill="#1A1000" stroke="#F39C12" stroke-width="1.5"/>
  <text x="996" y="648" font-family="Inter,Arial,sans-serif" font-size="9" fill="#F39C12">FS-SRV-01</text>
  <text x="1000" y="660" font-family="Inter,Arial,sans-serif" font-size="8" fill="#888">SMB Lat.</text>

  <!-- Exchange -->
  <circle cx="850" cy="750" r="22" fill="#080C18" stroke="#4A7ACC" stroke-width="1.5"/>
  <text x="834" y="748" font-family="Inter,Arial,sans-serif" font-size="9" fill="#4A7ACC">EXCH-01</text>
  <text x="838" y="760" font-family="Inter,Arial,sans-serif" font-size="8" fill="#888">PtT</text>

  <!-- DB Server -->
  <circle cx="1080" cy="760" r="22" fill="#080C18" stroke="#4A7ACC" stroke-width="1.5"/>
  <text x="1066" y="758" font-family="Inter,Arial,sans-serif" font-size="9" fill="#4A7ACC">DB-SRV-03</text>
  <text x="1074" y="770" font-family="Inter,Arial,sans-serif" font-size="8" fill="#888">Recon</text>

  <!-- Connections with arrows -->
  <line x1="656" y1="648" x2="802" y2="632" stroke="#CC0000" stroke-width="2"/>
  <polygon points="802,632 790,626 792,635" fill="#CC0000"/>
  <line x1="858" y1="628" x2="986" y2="646" stroke="#F39C12" stroke-width="1.5"/>
  <polygon points="986,646 974,638 976,647" fill="#F39C12"/>
  <line x1="820" y1="645" x2="872" y2="728" stroke="#4A7ACC" stroke-width="1.5"/>
  <polygon points="872,728 862,718 870,716" fill="#4A7ACC"/>
  <line x1="1034" y1="660" x2="1082" y2="738" stroke="#4A7ACC" stroke-width="1"/>
  <polygon points="1082,738 1072,728 1080,726" fill="#4A7ACC"/>

  <!-- Labels on edges -->
  <text x="718" y="635" font-family="Inter,Arial,sans-serif" font-size="9" fill="#CC0000">Kerber.</text>
  <text x="908" y="638" font-family="Inter,Arial,sans-serif" font-size="9" fill="#F39C12">SMB</text>
  <text x="828" y="692" font-family="Inter,Arial,sans-serif" font-size="9" fill="#4A7ACC">PtT</text>

  <!-- Auto-Response Panel -->
  <rect x="1156" y="557" width="228" height="260" rx="5" fill="#0C1018" stroke="#1A2030" stroke-width="1"/>
  <rect x="1156" y="557" width="228" height="30" rx="5" fill="#0D1520"/>
  <rect x="1156" y="581" width="228" height="1" fill="#1A2030"/>
  <text x="1168" y="577" font-family="Inter,Arial,sans-serif" font-size="12" font-weight="600" fill="white">Auto-Response Actions</text>
  <!-- Actions -->
  <rect x="1168" y="592" width="200" height="20" rx="4" fill="rgba(39,174,96,0.15)"/>
  <text x="1175" y="606" font-family="Inter,Arial,sans-serif" font-size="10" fill="#27AE60">Block: WKSTN-112 → DC-01</text>

  <rect x="1168" y="618" width="200" height="20" rx="4" fill="rgba(39,174,96,0.15)"/>
  <text x="1175" y="632" font-family="Inter,Arial,sans-serif" font-size="10" fill="#27AE60">Disabled: svc_sqlserver</text>

  <rect x="1168" y="644" width="200" height="20" rx="4" fill="rgba(39,174,96,0.15)"/>
  <text x="1175" y="658" font-family="Inter,Arial,sans-serif" font-size="10" fill="#27AE60">MFA Push: cfo.williams</text>

  <rect x="1168" y="670" width="200" height="20" rx="4" fill="rgba(204,0,0,0.15)"/>
  <text x="1175" y="684" font-family="Inter,Arial,sans-serif" font-size="10" fill="#FF6666">ALERT: Admin login anomaly</text>

  <rect x="1168" y="696" width="200" height="20" rx="4" fill="rgba(39,174,96,0.15)"/>
  <text x="1175" y="710" font-family="Inter,Arial,sans-serif" font-size="10" fill="#27AE60">Req PW reset: 47 accounts</text>

  <rect x="1168" y="722" width="200" height="20" rx="4" fill="rgba(243,156,18,0.15)"/>
  <text x="1175" y="736" font-family="Inter,Arial,sans-serif" font-size="10" fill="#F39C12">NOTIFY: SOC Team #1</text>

  <rect x="1168" y="748" width="200" height="20" rx="4" fill="rgba(39,174,96,0.15)"/>
  <text x="1175" y="762" font-family="Inter,Arial,sans-serif" font-size="10" fill="#27AE60">Ticket: INC-4721 created</text>

  <rect x="1168" y="774" width="200" height="20" rx="4" fill="rgba(204,0,0,0.15)"/>
  <text x="1175" y="788" font-family="Inter,Arial,sans-serif" font-size="10" fill="#FF6666">ESCALATE: CIRT Team</text>

  <!-- Footer -->
  <rect y="830" width="1400" height="32" fill="#050810"/>
  <rect y="830" width="1400" height="1" fill="#1A2030"/>
  <circle cx="20" cy="846" r="5" fill="#CC0000"/>
  <circle cx="34" cy="846" r="5" fill="#27AE60"/>
  <text x="46" y="851" font-family="Inter,Arial,sans-serif" font-size="11" fill="rgba(255,255,255,0.4)">Falcon Identity Protection v7.2 | DC Sensor: Active | Azure AD: Connected | Okta: Connected | MTTD: 1.8min</text>
  <text x="1100" y="851" font-family="Inter,Arial,sans-serif" font-size="11" fill="rgba(255,255,255,0.4)">Org: Corp-Prod | AD: 124,291 accounts | Response: AUTO | Last sync: 30s</text>
</svg>
